<?xml version="1.0" encoding="UTF-8"?>
<svg width="190px" height="70px" viewBox="0 0 190 70" version="1.1" xmlns="http://www.w3.org/2000/svg" xmlns:xlink="http://www.w3.org/1999/xlink">
    <!-- Generator: Sketch 41.2 (35397) - http://www.bohemiancoding.com/sketch -->
    <title>CL-2014-logo-tag-2color-process</title>
    <desc>Created with Sketch.</desc>
    <defs>
        <polygon id="path-1" points="0.077392084 0.10799667 0.077392084 24.5690547 22.4940092 24.5690547 22.4940092 0.10799667 0.077392084 0.10799667"></polygon>
        <polygon id="path-3" points="0.019348021 14.1111567 12.670374 14.1111567 12.670374 0.915806328 0.019348021 0.915806328 0.019348021 14.1111567"></polygon>
    </defs>
    <g id="Pages" stroke="none" stroke-width="1" fill="none" fill-rule="evenodd">
        <g id="Print-Mobile" transform="translate(-65.000000, -1190.000000)">
            <g id="Logo" transform="translate(13.000000, 550.000000)">
                <g id="Single-Color" transform="translate(0.000000, 536.000000)">
                    <g id="CL-2014-logo-tag-2color-process" transform="translate(52.000000, 104.000000)">
                        <g id="Group-3" transform="translate(0.000000, 22.927757)">
                            <mask id="mask-2" fill="white">
                                <use xlink:href="#path-1"></use>
                            </mask>
                            <g id="Clip-2"></g>
                            <path d="M12.3401678,4.22525554 C10.0841885,4.22525554 8.15196618,5.01594467 6.59896503,6.55475727 C5.04983348,8.10646855 4.2655937,10.0399808 4.2655937,12.306279 C4.2655937,13.8824978 4.60998847,15.3103817 5.29748815,16.529307 C5.98756757,17.7662905 6.97302677,18.7349814 8.22548866,19.4328001 C9.47150122,20.1228795 10.8890662,20.4814628 12.4214295,20.4814628 C13.7280658,20.4814628 14.9379621,20.2338081 16.0214513,19.7501076 C17.0791431,19.2676969 18.2580825,18.3841373 19.5105444,17.1497336 C19.6395312,17.2813001 22.2657026,20.0261394 22.4062982,20.1577059 C20.716571,21.7971282 19.0977866,22.9464007 17.5925106,23.5848854 C16.0640169,24.2323991 14.2956078,24.5690547 12.3466171,24.5690547 C8.74401563,24.5690547 5.75023184,23.4004342 3.45813629,21.1199475 C1.15830152,18.8330114 0,15.8714743 0,12.2946702 C0,9.98322659 0.526266171,7.90137953 1.56847957,6.10588318 C2.61714231,4.31683617 4.13660689,2.84638658 6.08043807,1.74870885 C8.03587806,0.658770334 10.1667401,0.10799667 12.4111105,0.10799667 C14.322695,0.10799667 16.1917138,0.515594979 17.9614128,1.32305239 C19.7053145,2.12019085 21.2196196,3.26688357 22.4940092,4.72572435 L19.514414,7.56214423 C17.3964506,5.35131036 14.9843973,4.22525554 12.3401678,4.22525554 Z" id="Fill-1" fill="#265B80" mask="url(#mask-2)"></path>
                        </g>
                        <path d="M26.2333367,31.6185359 C24.275317,33.4101627 23.2821186,35.6661419 23.2821186,38.3374587 C23.2821186,40.8256142 24.1592289,42.9758243 25.8928116,44.718436 C27.628974,46.4545984 29.7443576,47.3497669 32.1899475,47.3497669 C33.8590368,47.3497669 35.4004291,46.9447483 36.7844575,46.1501896 C38.168486,45.3633701 39.2739029,44.248924 40.074911,42.8507071 C40.8720494,41.4395914 41.2757781,39.9162572 41.2757781,38.3065019 C41.2757781,36.7057756 40.8784988,35.1901806 40.0813603,33.807442 C39.2855117,32.4221237 38.168486,31.3102575 36.7444716,30.5066697 C35.323037,29.6992122 33.7893839,29.2980633 32.1783387,29.2980633 C29.9468669,29.2980633 27.9449917,30.0810132 26.2333367,31.6185359 M28.7769566,42.0651774 L28.7769566,42.0651774 C27.8792084,41.1068054 27.4187255,39.8530537 27.4187255,38.3232701 C27.4187255,36.8334725 27.8856577,35.5939093 28.7950147,34.6381171 C29.7108211,33.6720059 30.8729922,33.1870155 32.2479915,33.1870155 C33.6487883,33.1870155 34.8251479,33.6668464 35.7280556,34.6174792 C36.6322531,35.5629525 37.0862867,36.8102549 37.0862867,38.3232701 C37.0862867,39.8285462 36.6245139,41.0810081 35.6958089,42.0484091 C34.785162,43.0171 33.6178314,43.4995107 32.2299334,43.4995107 C30.845905,43.4995107 29.6850237,43.0171 28.7769566,42.0651774" id="Fill-4" fill="#265B80"></path>
                        <polygon id="Fill-5" fill="#265B80" points="43.8606738 46.9060523 48.0153388 46.9060523 48.0153388 23.4614103 43.8606738 23.4614103"></polygon>
                        <path d="M53.5604816,31.6185359 C51.601172,33.4101627 50.6118432,35.6661419 50.6118432,38.3374587 C50.6118432,40.8256142 51.4902434,42.9758243 53.2212463,44.718436 C54.9561189,46.4545984 57.0727924,47.3497669 59.5235417,47.3497669 C61.1887614,47.3497669 62.7301537,46.9447483 64.115472,46.1501896 C65.4917612,45.3633701 66.6010478,44.248924 67.400766,42.8507071 C68.2004842,41.4395914 68.6055028,39.9162572 68.6055028,38.3065019 C68.6055028,36.7057756 68.2043538,35.1901806 67.4097951,33.807442 C66.6113667,32.4221237 65.4917612,31.3102575 64.0754861,30.5066697 C62.6514718,29.6992122 61.1178186,29.2980633 59.5067734,29.2980633 C57.281751,29.2980633 55.2785859,30.0810132 53.5604816,31.6185359 M56.1118407,42.0651774 L56.1118407,42.0651774 C55.2037735,41.1068054 54.7484501,39.8530537 54.7484501,38.3232701 C54.7484501,36.8334725 55.2102229,35.5939093 56.1260292,34.6381171 C57.0431254,33.6720059 58.2027168,33.1870155 59.5751364,33.1870155 C60.9810926,33.1870155 62.1510029,33.6668464 63.0552005,34.6174792 C63.9568182,35.5629525 64.4173011,36.8102549 64.4173011,38.3232701 C64.4173011,39.8285462 63.9529486,41.0810081 63.030693,42.0484091 C62.1135968,43.0171 60.9423966,43.4995107 59.5583681,43.4995107 C58.1730498,43.4995107 57.0134584,43.0171 56.1118407,42.0651774" id="Fill-6" fill="#265B80"></path>
                        <path d="M78.4781529,29.7804739 L78.4781529,29.7804739 C77.6900436,30.092622 76.7987447,30.6730626 75.818445,31.4934187 L75.652052,31.637884 L75.652052,29.740488 L71.4935174,29.740488 L71.4935174,46.9060523 L75.652052,46.9060523 L75.652052,40.0362149 C75.652052,38.2020225 75.7178353,37.0463008 75.848112,36.486498 C76.0957666,35.4300961 76.5472204,34.5891021 77.1882849,33.9906033 C77.8396682,33.3882349 78.6290675,33.0851159 79.5358448,33.0851159 C80.2323735,33.0851159 80.8282926,33.2682772 81.3107032,33.63202 C81.7815051,34.0073716 82.1233201,34.5491162 82.3155104,35.2456449 C82.5064109,35.9434636 82.5979915,37.297825 82.5979915,39.4041796 L82.5979915,46.9060523 L86.6933227,46.9060523 L86.6933227,35.5268362 C86.6933227,33.5662367 86.1980133,32.0583809 85.2151339,31.0690521 C84.0374843,29.8849532 82.5928321,29.2967734 80.9082644,29.2967734 C80.0801691,29.2967734 79.2675522,29.4580069 78.4781529,29.7804739" id="Fill-7" fill="#265B80"></path>
                        <polygon id="Fill-8" fill="#265B80" points="90.6364493 46.9060523 94.7936941 46.9060523 94.7936941 29.740488 90.6364493 29.740488"></polygon>
                        <path d="M100.491041,31.8223351 L100.491041,31.8223351 C98.9341706,33.5133521 98.1447714,35.7061278 98.1447714,38.3580966 C98.1447714,40.8952671 98.9612578,43.0519265 100.560694,44.7635814 C102.180769,46.4765262 104.106542,47.3497669 106.309636,47.3497669 C107.283487,47.3497669 108.207032,47.1743448 109.048026,46.8157615 C109.885151,46.4726566 110.731304,45.8896362 111.576168,45.0950775 L111.742561,44.9261048 L111.742561,46.9060523 L115.901095,46.9060523 L115.901095,29.740488 L111.742561,29.740488 L111.742561,31.8081465 L111.571008,31.6198258 C110.804826,30.8523543 109.963832,30.2641745 109.066084,29.8746343 C108.170916,29.4876739 107.204805,29.2967734 106.180649,29.2967734 C103.954337,29.2967734 102.044043,30.1493762 100.491041,31.8223351 M102.281378,38.305212 C102.281378,36.799936 102.735412,35.5448943 103.644769,34.5787831 C104.545097,33.6062226 105.698239,33.1251018 107.065499,33.1251018 C108.463716,33.1251018 109.636206,33.5920341 110.550722,34.5555655 C111.469108,35.5036185 111.924432,36.7586602 111.924432,38.2884437 C111.924432,39.8530537 111.469108,41.1351825 110.550722,42.1012937 C109.636206,43.0699846 108.471455,43.5588446 107.083557,43.5588446 C105.733065,43.5588446 104.581213,43.0557961 103.662827,42.0742065 C102.745731,41.0939068 102.281378,39.8246766 102.281378,38.305212" id="Fill-9" fill="#265B80"></path>
                        <polygon id="Fill-10" fill="#265B80" points="120.05834 46.9060523 124.213005 46.9060523 124.213005 23.0370437 120.05834 23.0370437"></polygon>
                        <polyline id="Fill-11" fill="#265B80" points="135.624468 23.0254349 135.624468 46.9073421 146.392286 46.9073421 146.392286 42.8390982 139.890061 42.8390982 139.890061 23.0254349 135.624468 23.0254349"></polyline>
                        <path d="M160.811722,23.4033662 C160.155179,23.9425311 159.757899,24.6867849 159.646971,25.6116203 C159.590216,26.0217984 159.547651,27.3761599 159.537332,29.633429 L159.537332,29.7417779 L157.985621,29.7417779 L157.985621,33.2179723 L159.537332,33.2179723 L159.537332,46.9060523 L163.699736,46.9060523 L163.699736,33.2179723 L166.451025,33.2179723 L166.451025,29.7417779 L163.699736,29.7417779 L163.711345,27.462581 C163.711345,26.9259959 163.805505,26.5777315 163.995116,26.3984399 C164.260829,26.162394 164.659398,26.0424363 165.188244,26.0424363 C165.570045,26.0424363 166.060195,26.1378865 166.635476,26.2952504 L166.635476,23.1866684 C165.545537,22.7971282 164.54202,22.5920392 163.673939,22.5920392 C162.444695,22.5920392 161.479873,22.8629115 160.811722,23.4033662" id="Fill-12" fill="#265B80"></path>
                        <path d="M170.040728,31.8868285 C168.35616,33.6049328 167.500977,35.8041578 167.500977,38.4174305 C167.500977,40.9571807 168.35616,43.1073908 170.047177,44.8009876 C171.729165,46.4894249 173.943868,47.3497669 176.638403,47.3497669 C178.369406,47.3497669 179.881131,47.0350391 181.140042,46.4223517 C182.366707,45.8251428 183.424399,44.8925682 184.309248,43.6581645 C184.084811,43.5575548 180.928504,42.0780761 180.816285,42.0251915 C179.638636,43.1512463 178.22881,43.7239477 176.603576,43.7239477 C175.219548,43.7239477 174.059956,43.3511759 173.167368,42.6017625 C172.282518,41.8600884 171.717556,40.8423825 171.516337,39.586051 L171.495699,39.4660932 L185.516565,39.4660932 C185.526884,39.3100192 185.535913,38.7373178 185.535913,38.7373178 C185.535913,35.9150865 184.68331,33.6049328 182.991003,31.8868285 C181.309015,30.1674344 179.094312,29.2980633 176.389458,29.2980633 C173.860027,29.2980633 171.717556,30.1674344 170.040728,31.8868285 M176.597127,32.7729678 C177.73608,32.7729678 178.753786,33.0851159 179.617998,33.6978033 C180.48221,34.3182298 181.06652,35.137296 181.36061,36.1124363 L181.401885,36.2504522 L171.638874,36.2504522 L171.708527,36.1021173 C172.201257,35.0212079 172.75332,34.2485769 173.333761,33.807442 C174.267625,33.1251018 175.369173,32.7729678 176.597127,32.7729678" id="Fill-13" fill="#265B80"></path>
                        <path d="M149.200329,17.6815115 C149.200329,19.9000845 150.497936,21.7110593 152.083184,21.7110593 C153.669722,21.7110593 154.95701,19.9000845 154.95701,17.6815115 C154.95701,15.456489 153.669722,13.6519636 152.083184,13.6519636 C150.497936,13.6519636 149.200329,15.456489 149.200329,17.6815115" id="Fill-14" fill="#265B80"></path>
                        <path d="M127.600199,11.4927245 C127.600199,15.1791674 128.647571,18.2967785 129.872946,18.2967785 C131.112509,18.2967785 132.150853,15.1791674 132.150853,11.4927245 C132.150853,7.80370181 131.112509,4.68996029 129.872946,4.68996029 C128.647571,4.68996029 127.600199,7.80370181 127.600199,11.4927245" id="Fill-15" fill="#265B80"></path>
                        <path d="M89.3478711,19.1880774 C89.3478711,21.1822134 90.9692353,22.8035776 92.9620815,22.8035776 C94.9600871,22.8035776 96.5801614,21.1822134 96.5801614,19.1880774 C96.5801614,17.187492 94.9600871,15.5712873 92.9620815,15.5712873 C90.9692353,15.5712873 89.3478711,17.187492 89.3478711,19.1880774" id="Fill-16" fill="#265B80"></path>
                        <path d="M106.410246,19.0706994 C108.147698,19.0706994 109.569133,17.0004611 109.569133,14.4632906 C109.569133,11.9222505 108.147698,9.85072243 106.410246,9.85072243 C104.667634,9.85072243 103.248779,11.9222505 103.248779,14.4632906 C103.248779,17.0004611 104.667634,19.0706994 106.410246,19.0706994" id="Fill-17" fill="#265B80"></path>
                        <path d="M138.63502,5.35940182 C138.63502,8.17776355 139.843626,10.4737287 141.326975,10.4737287 C142.806453,10.4737287 144.017639,8.17776355 144.017639,5.35940182 C144.017639,2.53201102 142.864497,0.229596516 141.385019,0.229596516 C139.897801,0.229596516 138.63502,2.53201102 138.63502,5.35940182" id="Fill-18" fill="#265B80"></path>
                        <path d="M116.134561,7.88238376 C116.134561,10.8864865 117.187094,13.3307865 118.48986,13.3307865 C119.795207,13.3307865 120.855478,10.8864865 120.855478,7.88238376 C120.855478,4.88086077 119.795207,2.44043038 118.48986,2.44043038 C117.187094,2.44043038 116.134561,4.88086077 116.134561,7.88238376" id="Fill-19" fill="#265B80"></path>
                        <polygon id="Fill-20" fill="#265B80" points="150.003917 46.9060523 154.165031 46.9060523 154.165031 29.740488 150.003917 29.740488"></polygon>
                        <polygon id="Fill-21" fill="#265B80" points="7.42190086 57.4275061 7.42190086 56.3801332 14.8734687 56.3801332 14.8734687 57.4275061 11.7274805 57.4275061 11.7274805 66.7558319 10.5678891 66.7558319 10.5678891 57.4275061"></polygon>
                        <path d="M19.9903753,62.5882682 C19.9903753,61.1539349 19.2448316,60.7128001 18.4734905,60.7128001 C17.4661035,60.7128001 16.5412681,61.485431 16.5412681,62.9197643 L16.5412681,66.7558319 L15.4655181,66.7558319 L15.4655181,56.3801332 L16.5412681,56.3801332 L16.5412681,61.0288177 L16.5683553,61.0288177 C17.0378673,60.146548 17.783411,59.7466889 18.7624209,59.7466889 C19.5905162,59.7466889 21.0674151,60.1736352 21.0674151,62.1200461 L21.0674151,66.7558319 L19.9903753,66.7558319 L19.9903753,62.5882682" id="Fill-22" fill="#265B80"></path>
                        <path d="M27.0949686,62.6721096 C26.9440541,61.4157781 26.2255975,60.6302485 24.9847445,60.6302485 C23.5762085,60.6302485 22.9286948,61.7330857 22.8448533,62.6721096 L27.0949686,62.6721096 Z M28.0752683,64.8107109 C27.481929,66.1212169 26.4887306,66.9480223 24.900903,66.9480223 C22.9699705,66.9480223 21.6594646,65.4853119 21.6594646,63.568568 C21.6594646,61.250675 22.9286948,59.6641373 24.9563674,59.6641373 C26.915677,59.6641373 28.25456,60.9062803 28.25456,63.2512604 L28.25456,63.5543794 L22.8177661,63.5543794 C22.8177661,65.1551057 23.7980658,65.983201 24.9563674,65.983201 C26.1985103,65.983201 26.7363853,65.21057 26.9711413,64.6443179 L28.0752683,64.8107109 L28.0752683,64.8107109 Z" id="Fill-23" fill="#265B80"></path>
                        <path d="M36.0479429,60.7128001 C34.90254,60.7128001 33.7855143,61.5550839 33.7855143,63.3621891 C33.7855143,64.8107109 34.6406968,65.983201 36.0892186,65.983201 C37.5377405,65.983201 38.2832842,64.7694351 38.2832842,63.333812 C38.2832842,61.5125183 37.2346215,60.7128001 36.0479429,60.7128001 Z M32.7084744,56.3801332 L33.7855143,56.3801332 L33.7855143,61.0571948 L33.8126015,61.0571948 C34.1028218,60.6160599 34.7232484,59.7466889 36.2543218,59.7466889 C37.6899449,59.7466889 39.4415858,60.7669745 39.4415858,63.3067247 C39.4415858,65.4582247 38.021441,66.9480223 36.1163059,66.9480223 C34.6948713,66.9480223 34.1299091,66.0928398 33.8126015,65.5549648 L33.7855143,65.5549648 L33.7855143,66.7558319 L32.7084744,66.7558319 L32.7084744,56.3801332 L32.7084744,56.3801332 Z" id="Fill-24" fill="#265B80"></path>
                        <path d="M45.373689,62.6721096 C45.2227744,61.4157781 44.5043179,60.6302485 43.2634648,60.6302485 C41.8549289,60.6302485 41.2074151,61.7330857 41.1235737,62.6721096 L45.373689,62.6721096 Z M46.3539887,64.8107109 C45.7606494,66.1212169 44.767451,66.9480223 43.1796234,66.9480223 C41.2486909,66.9480223 39.9368951,65.4853119 39.9368951,63.568568 C39.9368951,61.250675 41.2074151,59.6641373 43.2350877,59.6641373 C45.1943973,59.6641373 46.5332804,60.9062803 46.5332804,63.2512604 L46.5332804,63.5543794 L41.0964865,63.5543794 C41.0964865,65.1551057 42.0767862,65.983201 43.2350877,65.983201 C44.4772307,65.983201 45.0151057,65.21057 45.2498617,64.6443179 L46.3539887,64.8107109 L46.3539887,64.8107109 Z" id="Fill-25" fill="#265B80"></path>
                        <path d="M51.6772742,62.5882682 C51.6772742,61.1539349 50.9330204,60.7128001 50.1603894,60.7128001 C49.1530024,60.7128001 48.2294569,61.485431 48.2294569,62.9197643 L48.2294569,66.7558319 L47.1524171,66.7558319 L47.1524171,59.8563277 L48.2294569,59.8563277 L48.2294569,61.0288177 L48.2565441,61.0288177 C48.7247662,60.146548 49.47031,59.7466889 50.4506097,59.7466889 C51.2774151,59.7466889 52.7543141,60.1736352 52.7543141,62.1200461 L52.7543141,66.7558319 L51.6772742,66.7558319 L51.6772742,62.5882682" id="Fill-26" fill="#265B80"></path>
                        <path d="M58.7831574,62.6721096 C58.630953,61.4157781 57.9124965,60.6302485 56.6716434,60.6302485 C55.2643973,60.6302485 54.6155937,61.7330857 54.5330421,62.6721096 L58.7831574,62.6721096 Z M59.7621673,64.8107109 C59.168828,66.1212169 58.1756296,66.9480223 56.5890918,66.9480223 C54.6581593,66.9480223 53.3463635,65.4853119 53.3463635,63.568568 C53.3463635,61.250675 54.6155937,59.6641373 56.6445562,59.6641373 C58.6038658,59.6641373 59.9414589,60.9062803 59.9414589,63.2512604 L59.9414589,63.5543794 L54.5059549,63.5543794 C54.5059549,65.1551057 55.4849648,65.983201 56.6445562,65.983201 C57.8854092,65.983201 58.4232842,65.21057 58.6580402,64.6443179 L59.7621673,64.8107109 L59.7621673,64.8107109 Z" id="Fill-27" fill="#265B80"></path>
                        <path d="M61.2377764,60.7398873 L59.9543576,60.7398873 L59.9543576,59.8563277 L61.2377764,59.8563277 L61.2377764,57.8841194 C61.2377764,56.7799923 62.0516831,56.3801332 62.8926771,56.3801332 C63.1970859,56.3801332 63.5002049,56.3801332 63.7078737,56.421409 L63.7078737,57.4700717 C63.5272922,57.4275061 63.2925362,57.4275061 63.0590701,57.4275061 C62.5070065,57.4275061 62.3135263,57.7048277 62.3135263,58.1188754 L62.3135263,59.8563277 L63.7078737,59.8563277 L63.7078737,60.7398873 L62.3135263,60.7398873 L62.3135263,66.7558319 L61.2377764,66.7558319 L61.2377764,60.7398873" id="Fill-28" fill="#265B80"></path>
                        <path d="M65.1138299,57.8247854 C65.4891815,57.8247854 65.7858512,58.1214551 65.7858512,58.4968067 C65.7858512,58.8760279 65.4891815,59.1714077 65.1138299,59.1714077 C64.7371884,59.1714077 64.4405188,58.8760279 64.4405188,58.4968067 C64.4405188,58.1214551 64.7371884,57.8247854 65.1138299,57.8247854" id="Fill-29" fill="#265B80"></path>
                        <polygon id="Fill-30" fill="#265B80" points="64.574665 66.7558319 65.650415 66.7558319 65.650415 59.8563277 64.574665 59.8563277"></polygon>
                        <path d="M66.521076,59.8563277 L67.8032048,59.8563277 L67.8032048,57.8428436 L68.8802447,57.8428436 L68.8802447,59.8563277 L70.2733022,59.8563277 L70.2733022,60.7398873 L68.8802447,60.7398873 L68.8802447,64.975814 C68.8802447,65.5962406 69.0595363,65.8722723 69.5432368,65.8722723 C69.7908915,65.8722723 70.0527347,65.8593736 70.2604035,65.8309965 L70.2604035,66.7971077 C69.8734431,66.8254848 69.5006712,66.8383835 69.1691751,66.8383835 C68.2456296,66.8383835 67.8032048,66.4798002 67.8032048,65.1009312 L67.8032048,60.7398873 L66.521076,60.7398873 L66.521076,59.8563277" id="Fill-31" fill="#265B80"></path>
                        <path d="M75.2947586,61.9123774 C75.2392942,61.2790521 74.8123479,60.6302485 73.598582,60.6302485 C72.6182823,60.6302485 71.9423914,61.0430063 71.9423914,61.7059985 C71.9423914,62.3677008 72.4660779,62.6721096 73.7494966,62.8784885 C75.515326,63.1687089 76.5227129,63.596945 76.5227129,64.8506968 C76.5227129,65.8593736 75.750082,66.9480223 73.598582,66.9480223 C71.4032266,66.9480223 70.7969886,65.8593736 70.6731613,64.7281593 L71.7489112,64.7281593 C71.790187,65.3073101 72.2042347,65.983201 73.5702049,65.983201 C74.6459549,65.983201 75.4598617,65.6104291 75.446963,64.9061611 C75.4327744,64.3553875 75.0870898,64.1206315 73.3625362,63.8304112 C71.9694787,63.596945 70.8653516,63.1403318 70.8653516,61.8169271 C70.8653516,60.4780441 72.024943,59.6641373 73.6940323,59.6641373 C75.2392942,59.6641373 76.3705085,60.5605956 76.3705085,61.9123774 L75.2947586,61.9123774" id="Fill-32" fill="#265B80"></path>
                        <path d="M82.8959511,65.983201 C84.3857487,65.983201 85.2963955,64.8648854 85.2963955,63.3067247 C85.2963955,61.7472742 84.3857487,60.6302485 82.8959511,60.6302485 C81.4048636,60.6302485 80.4955066,61.7472742 80.4955066,63.3067247 C80.4955066,64.8648854 81.4048636,65.983201 82.8959511,65.983201 Z M82.8959511,66.9480223 C80.3987665,66.9480223 79.3359152,65.1409171 79.3359152,63.3067247 C79.3359152,61.4712425 80.5780582,59.6641373 82.8959511,59.6641373 C85.3931356,59.6641373 86.4546971,61.4712425 86.4546971,63.3067247 C86.4546971,65.1409171 85.213844,66.9480223 82.8959511,66.9480223 L82.8959511,66.9480223 Z" id="Fill-33" fill="#265B80"></path>
                        <g id="Group-37" transform="translate(86.421160, 55.464327)">
                            <mask id="mask-4" fill="white">
                                <use xlink:href="#path-3"></use>
                            </mask>
                            <g id="Clip-35"></g>
                            <path d="M1.30276675,5.27556039 L0.019348021,5.27556039 L0.019348021,4.39200077 L1.30276675,4.39200077 L1.30276675,2.41979249 C1.30276675,1.31566543 2.1166735,0.915806328 2.95895735,0.915806328 C3.26207634,0.915806328 3.56519534,0.915806328 3.7728641,0.957082106 L3.7728641,2.00574484 C3.59357243,1.9631792 3.35881645,1.9631792 3.12406046,1.9631792 C2.57199693,1.9631792 2.37851672,2.24050083 2.37851672,2.65454848 L2.37851672,4.39200077 L3.7728641,4.39200077 L3.7728641,5.27556039 L2.37851672,5.27556039 L2.37851672,11.2915051 L1.30276675,11.2915051 L1.30276675,5.27556039" id="Fill-34" fill="#265B80" mask="url(#mask-4)"></path>
                            <path d="M9.3309056,5.16592161 C8.07586397,5.16592161 7.09685411,5.99272704 7.09685411,7.66181632 C7.09685411,9.22126681 7.74436787,10.3253939 9.29091969,10.3253939 C10.3795683,10.3253939 11.5946241,9.49729858 11.5946241,7.64891764 C11.5946241,6.39387601 10.8632689,5.16592161 9.3309056,5.16592161 Z M11.5946241,4.39200077 L12.670374,4.39200077 L12.670374,10.6285129 C12.670374,12.7813027 11.6771756,14.1885487 9.09743948,14.1885487 C7.41416165,14.1885487 6.28294735,13.3604534 6.1720187,11.9261201 L7.33161009,11.8706558 C7.42706033,12.4227194 7.73146919,13.2224376 9.12452671,13.2224376 C11.1109235,13.2224376 11.5946241,11.9261201 11.5946241,10.3395824 L11.5946241,9.77333034 L11.566247,9.77333034 C11.0567491,10.9045446 10.0351736,11.2915051 9.11033816,11.2915051 C7.08266556,11.2915051 5.93726271,9.74624312 5.93726271,7.75984629 C5.93726271,5.61995517 7.42706033,4.19981043 9.23545536,4.19981043 C10.1602908,4.19981043 11.028372,4.69640963 11.566247,5.56449084 L11.5946241,5.56449084 L11.5946241,4.39200077 L11.5946241,4.39200077 Z" id="Fill-36" fill="#265B80" mask="url(#mask-4)"></path>
                        </g>
                        <path d="M103.24362,65.983201 C104.733417,65.983201 105.644064,64.8648854 105.644064,63.3067247 C105.644064,61.7472742 104.733417,60.6302485 103.24362,60.6302485 C101.753822,60.6302485 100.843175,61.7472742 100.843175,63.3067247 C100.843175,64.8648854 101.753822,65.983201 103.24362,65.983201 Z M103.24362,66.9480223 C100.746435,66.9480223 99.6848738,65.1409171 99.6848738,63.3067247 C99.6848738,61.4712425 100.925727,59.6641373 103.24362,59.6641373 C105.740804,59.6641373 106.803656,61.4712425 106.803656,63.3067247 C106.803656,65.1409171 105.561513,66.9480223 103.24362,66.9480223 L103.24362,66.9480223 Z" id="Fill-38" fill="#265B80"></path>
                        <path d="M110.857711,65.983201 C112.348799,65.983201 113.259445,64.8648854 113.259445,63.3067247 C113.259445,61.7472742 112.348799,60.6302485 110.857711,60.6302485 C109.367913,60.6302485 108.458556,61.7472742 108.458556,63.3067247 C108.458556,64.8648854 109.367913,65.983201 110.857711,65.983201 Z M110.857711,66.9480223 C108.360526,66.9480223 107.298965,65.1409171 107.298965,63.3067247 C107.298965,61.4712425 108.539818,59.6641373 110.857711,59.6641373 C113.354896,59.6641373 114.417747,61.4712425 114.417747,63.3067247 C114.417747,65.1409171 113.176894,66.9480223 110.857711,66.9480223 L110.857711,66.9480223 Z" id="Fill-39" fill="#265B80"></path>
                        <path d="M118.306699,60.7128001 C117.12131,60.7128001 116.072648,61.5125183 116.072648,63.333812 C116.072648,64.7694351 116.818191,65.983201 118.266713,65.983201 C119.715235,65.983201 120.570418,64.8107109 120.570418,63.3621891 C120.570418,61.5550839 119.453392,60.7128001 118.306699,60.7128001 Z M120.570418,65.5549648 L120.54333,65.5549648 C120.224733,66.0928398 119.659771,66.9480223 118.239626,66.9480223 C116.334491,66.9480223 114.913056,65.4582247 114.913056,63.3067247 C114.913056,60.7669745 116.667277,59.7466889 118.10032,59.7466889 C119.632683,59.7466889 120.25311,60.6160599 120.54333,61.0571948 L120.570418,61.0571948 L120.570418,56.3801332 L121.647457,56.3801332 L121.647457,66.7558319 L120.570418,66.7558319 L120.570418,65.5549648 L120.570418,65.5549648 Z" id="Fill-40" fill="#265B80"></path>
                        <path d="M130.143818,62.5882682 C130.143818,61.1539349 129.399564,60.7128001 128.625644,60.7128001 C127.619547,60.7128001 126.694711,61.485431 126.694711,62.9197643 L126.694711,66.7558319 L125.617671,66.7558319 L125.617671,56.3801332 L126.694711,56.3801332 L126.694711,61.0288177 L126.723088,61.0288177 C127.19131,60.146548 127.936854,59.7466889 128.915864,59.7466889 C129.742669,59.7466889 131.219568,60.1736352 131.219568,62.1200461 L131.219568,66.7558319 L130.143818,66.7558319 L130.143818,62.5882682" id="Fill-41" fill="#265B80"></path>
                        <path d="M136.655072,63.4860164 L134.833779,63.568568 C133.661289,63.6240323 132.971209,63.9413398 132.971209,64.839088 C132.971209,65.5278775 133.564548,66.0657525 134.543558,66.0657525 C135.482582,66.0657525 136.655072,65.5407762 136.655072,64.3411989 L136.655072,63.4860164 Z M136.655072,65.8451851 L136.626695,65.8451851 C136.144285,66.7003676 135.1111,66.9480223 134.308802,66.9480223 C132.66809,66.9480223 131.812908,65.983201 131.812908,64.8932625 C131.812908,63.6240323 132.501697,62.8784885 134.392644,62.7830383 C135.151086,62.7417625 135.89663,62.6991969 136.655072,62.6721096 L136.655072,62.1484232 C136.655072,61.2648636 136.28359,60.5464071 134.902142,60.5464071 C133.634201,60.5464071 133.220154,61.0842821 133.080848,61.8582029 L132.019287,61.8582029 C132.239854,60.312941 133.288517,59.6641373 134.91633,59.6641373 C136.766001,59.6641373 137.732112,60.5051313 137.732112,61.9820302 L137.732112,65.4040502 C137.732112,65.8309965 137.786287,66.3688715 137.827562,66.7558319 L136.655072,66.7558319 L136.655072,65.8451851 L136.655072,65.8451851 Z" id="Fill-42" fill="#265B80"></path>
                        <path d="M138.751108,59.8563277 L139.799771,59.8563277 L139.799771,61.3745024 L139.828148,61.3745024 C140.10418,60.644437 140.654953,59.7466889 141.814545,59.7466889 L142.201505,59.7466889 L142.201505,60.8779032 L141.85582,60.8779032 C140.448574,60.8779032 139.828148,61.8440143 139.828148,63.4718278 L139.828148,66.7558319 L138.751108,66.7558319 L138.751108,59.8563277" id="Fill-43" fill="#265B80"></path>
                        <path d="M145.276551,60.7128001 C144.089872,60.7128001 143.042499,61.5125183 143.042499,63.333812 C143.042499,64.7694351 143.786753,65.983201 145.235275,65.983201 C146.683797,65.983201 147.540269,64.8107109 147.540269,63.3621891 C147.540269,61.5550839 146.421953,60.7128001 145.276551,60.7128001 Z M147.540269,65.5549648 L147.513182,65.5549648 C147.195874,66.0928398 146.629622,66.9480223 145.208188,66.9480223 C143.304342,66.9480223 141.884198,65.4582247 141.884198,63.3067247 C141.884198,60.7669745 143.635838,59.7466889 145.070172,59.7466889 C146.602535,59.7466889 147.222961,60.6160599 147.513182,61.0571948 L147.540269,61.0571948 L147.540269,56.3801332 L148.616019,56.3801332 L148.616019,66.7558319 L147.540269,66.7558319 L147.540269,65.5549648 L147.540269,65.5549648 Z" id="Fill-44" fill="#265B80"></path>
                        <polyline id="Fill-45" fill="#265B80" points="151.221552 59.8563277 152.408231 59.8563277 154.118596 65.1280184 154.145683 65.1280184 155.857338 59.8563277 156.878914 59.8563277 158.630555 65.1280184 158.657642 65.1280184 160.369297 59.8563277 161.51341 59.8563277 159.140053 66.7558319 158.078491 66.7558319 156.382315 61.485431 156.353937 61.485431 154.67195 66.7558319 153.621997 66.7558319 151.221552 59.8563277"></polyline>
                        <path d="M164.852878,65.983201 C166.342676,65.983201 167.253323,64.8648854 167.253323,63.3067247 C167.253323,61.7472742 166.342676,60.6302485 164.852878,60.6302485 C163.363081,60.6302485 162.452434,61.7472742 162.452434,63.3067247 C162.452434,64.8648854 163.363081,65.983201 164.852878,65.983201 Z M164.852878,66.9480223 C162.355694,66.9480223 161.292842,65.1409171 161.292842,63.3067247 C161.292842,61.4712425 162.534985,59.6641373 164.852878,59.6641373 C167.350063,59.6641373 168.412914,61.4712425 168.412914,63.3067247 C168.412914,65.1409171 167.170771,66.9480223 164.852878,66.9480223 L164.852878,66.9480223 Z" id="Fill-46" fill="#265B80"></path>
                        <path d="M169.279705,59.8563277 L170.328368,59.8563277 L170.328368,61.3745024 L170.356745,61.3745024 C170.632777,60.644437 171.183551,59.7466889 172.343142,59.7466889 L172.730102,59.7466889 L172.730102,60.8779032 L172.384418,60.8779032 C170.977172,60.8779032 170.356745,61.8440143 170.356745,63.4718278 L170.356745,66.7558319 L169.279705,66.7558319 L169.279705,59.8563277" id="Fill-47" fill="#265B80"></path>
                        <polyline id="Fill-48" fill="#265B80" points="174.41209 63.1261432 174.41209 66.7558319 173.335051 66.7558319 173.335051 56.3801332 174.41209 56.3801332 174.41209 62.9068656 177.502614 59.8563277 178.978223 59.8563277 175.640045 63.0036057 179.033688 66.7558319 177.529702 66.7558319 174.41209 63.1261432"></polyline>
                        <path d="M180.011408,65.376963 C180.439644,65.376963 180.785329,65.7213578 180.785329,66.1483041 C180.785329,66.5765403 180.439644,66.9209351 180.011408,66.9209351 C179.584461,66.9209351 179.238777,66.5765403 179.238777,66.1483041 C179.238777,65.7213578 179.584461,65.376963 180.011408,65.376963" id="Fill-49" fill="#265B80"></path>
                        <path d="M187.395902,44.8383937 L187.657746,44.8383937 C187.932488,44.8383937 188.191751,44.7519726 188.191751,44.5146369 C188.191751,44.3159972 188.055025,44.1676624 187.695152,44.1676624 C187.546817,44.1676624 187.459106,44.1792712 187.395902,44.1921698 L187.395902,44.8383937 Z M187.395902,46.0070142 L187.010232,46.0070142 L187.010232,43.9303266 C187.22177,43.8942103 187.446207,43.868413 187.732558,43.868413 C188.080822,43.868413 188.254955,43.9303266 188.380072,44.0296465 C188.503899,44.1173575 188.58903,44.2798809 188.58903,44.4785206 C188.58903,44.7261752 188.403289,44.8886986 188.191751,44.963511 L188.191751,44.9880184 C188.368463,45.0628308 188.466493,45.2240643 188.529696,45.4975163 C188.58903,45.8083745 188.640625,45.9334917 188.69093,46.0070142 L188.292361,46.0070142 C188.229157,45.9334917 188.178852,45.7464609 188.118229,45.4730088 C188.067924,45.236963 187.932488,45.1376431 187.644847,45.1376431 L187.395902,45.1376431 L187.395902,46.0070142 Z M186.166658,44.9132061 C186.166658,45.8341719 186.848998,46.5552081 187.771254,46.5552081 C188.652234,46.5681068 189.325545,45.8341719 189.325545,44.9261048 C189.325545,44.0167478 188.652234,43.2841027 187.745457,43.2841027 C186.848998,43.2841027 186.166658,44.0167478 186.166658,44.9132061 Z M189.76152,44.9132061 C189.76152,46.0457103 188.88957,46.9163712 187.758355,46.9163712 C186.624561,46.9163712 185.730683,46.0457103 185.730683,44.9132061 C185.730683,43.8052094 186.624561,42.9358384 187.771254,42.9358384 C188.88957,42.9358384 189.76152,43.8052094 189.76152,44.9132061 L189.76152,44.9132061 Z" id="Fill-50" fill="#265B80"></path>
                        <path d="M181.961688,61.2042398 L182.146139,61.2042398 C182.340909,61.2042398 182.522781,61.143616 182.522781,60.9759331 C182.522781,60.8353375 182.427331,60.7308582 182.173227,60.7308582 C182.068747,60.7308582 182.005544,60.7398873 181.961688,60.7489164 L181.961688,61.2042398 Z M181.961688,62.0310452 L181.689526,62.0310452 L181.689526,60.5631754 C181.837861,60.5386679 181.996515,60.5193198 182.199024,60.5193198 C182.445389,60.5193198 182.569216,60.5631754 182.656927,60.6341181 C182.743348,60.6960318 182.803972,60.81083 182.803972,60.9501358 C182.803972,61.1255578 182.673695,61.241646 182.522781,61.2932407 L182.522781,61.310009 C182.647898,61.3628936 182.717551,61.4764019 182.761406,61.671172 C182.803972,61.8891597 182.840088,61.9781606 182.876205,62.0310452 L182.595013,62.0310452 C182.549868,61.9781606 182.515042,61.8465941 182.471186,61.6531139 C182.43636,61.485431 182.340909,61.4157781 182.1384,61.4157781 L181.961688,61.4157781 L181.961688,62.0310452 Z M181.092317,61.2571244 C181.092317,61.9072179 181.574728,62.4180056 182.226111,62.4180056 C182.849117,62.4257448 183.323789,61.9072179 183.323789,61.2661535 C183.323789,60.625089 182.849117,60.1078519 182.208053,60.1078519 C181.574728,60.1078519 181.092317,60.625089 181.092317,61.2571244 Z M183.632067,61.2571244 C183.632067,62.0568426 183.01551,62.6721096 182.217082,62.6721096 C181.417364,62.6721096 180.785329,62.0568426 180.785329,61.2571244 C180.785329,60.4754643 181.417364,59.8601973 182.226111,59.8601973 C183.01551,59.8601973 183.632067,60.4754643 183.632067,61.2571244 L183.632067,61.2571244 Z" id="Fill-51" fill="#265B80"></path>
                    </g>
                </g>
            </g>
        </g>
    </g>
</svg>