<?xml version="1.0" encoding="UTF-8"?>
<svg width="189px" height="70px" viewBox="0 0 189 70" version="1.1" xmlns="http://www.w3.org/2000/svg" xmlns:xlink="http://www.w3.org/1999/xlink">
    <!-- Generator: Sketch 41.2 (35397) - http://www.bohemiancoding.com/sketch -->
    <title>CL-2014-logo-tag-rev</title>
    <desc>Created with Sketch.</desc>
    <defs>
        <polygon id="path-1" points="0.077027027 0.10277027 0.077027027 24.4484459 22.3879054 24.4484459 22.3879054 0.10277027 0.077027027 0.10277027"></polygon>
        <polygon id="path-3" points="0.0192567568 14.0445946 12.6106081 14.0445946 12.6106081 0.911486486 0.0192567568 0.911486486 0.0192567568 14.0445946"></polygon>
    </defs>
    <g id="Pages" stroke="none" stroke-width="1" fill="none" fill-rule="evenodd">
        <g id="Print-Mobile" transform="translate(-67.000000, -2910.000000)">
            <g id="Logo" transform="translate(13.000000, 550.000000)">
                <g id="with-tagline" transform="translate(1.000000, 2114.000000)">
                    <g id="CL-2014-logo-tag-rev" transform="translate(53.000000, 246.000000)">
                        <g id="Group-3" transform="translate(0.000000, 22.824324)">
                            <mask id="mask-2" fill="white">
                                <use xlink:href="#path-1"></use>
                            </mask>
                            <g id="Clip-2"></g>
                            <path d="M19.4223649,7.52175676 C17.3143919,5.32135135 14.9137162,4.20060811 12.2819595,4.20060811 C10.0366216,4.20060811 8.11351351,4.98628378 6.56783784,6.51912162 C5.02601351,8.06351351 4.24547297,9.98790541 4.24547297,12.2435135 C4.24547297,13.8122973 4.58824324,15.2334459 5.2725,16.4466216 C5.95932432,17.6777703 6.94013514,18.6418919 8.18668919,19.3364189 C9.42682432,20.0232432 10.8377027,20.3801351 12.3628378,20.3801351 C13.6633108,20.3801351 14.8675,20.1336486 15.9458784,19.6522297 C16.9985811,19.1720946 18.1719595,18.2927027 19.4185135,17.0641216 C19.5468919,17.1950676 22.1606757,19.9269595 22.3006081,20.0579054 C20.6188514,21.6895946 19.0077027,22.8334459 17.509527,23.4689189 C15.9882432,24.1133784 14.2281757,24.4484459 12.2883784,24.4484459 C8.70277027,24.4484459 5.72182432,23.2853378 3.44182432,21.0156081 C1.15283784,18.7394595 0,15.7918919 0,12.2319595 C0,9.93141892 0.523783784,7.85939189 1.56108108,6.07236486 C2.6047973,4.29175676 4.11709459,2.82824324 6.05175676,1.73574324 C7.99797297,0.650945946 10.1187838,0.10277027 12.3525676,0.10277027 C14.2551351,0.10277027 16.1153378,0.508445946 17.8766892,1.31209459 C19.6123649,2.10547297 21.119527,3.24675676 22.3879054,4.69871622 L19.4223649,7.52175676" id="Fill-1" fill="#FFFFFF" mask="url(#mask-2)"></path>
                        </g>
                        <path d="M26.1095946,31.4693919 C24.1608108,33.2525676 23.1722973,35.4979054 23.1722973,38.1566216 C23.1722973,40.6330405 24.0452703,42.7731081 25.7706757,44.5075 C27.4986486,46.235473 29.6040541,47.1264189 32.0381081,47.1264189 C33.6993243,47.1264189 35.2334459,46.7233108 36.6109459,45.9325 C37.9884459,45.1493919 39.0886486,44.0402027 39.8858784,42.6485811 C40.6792568,41.2441216 41.0810811,39.727973 41.0810811,38.1258108 C41.0810811,36.5326351 40.6856757,35.0241892 39.8922973,33.647973 C39.1002027,32.2691892 37.9884459,31.1625676 36.5711486,30.3627703 C35.1564189,29.5591216 33.63,29.1598649 32.0265541,29.1598649 C29.8056081,29.1598649 27.8131757,29.9391216 26.1095946,31.4693919 M28.6412162,41.8667568 L28.6412162,41.8667568 C27.7477027,40.9129054 27.2893919,39.6650676 27.2893919,38.1425 C27.2893919,36.6597297 27.7541216,35.4260135 28.6591892,34.4747297 C29.5706757,33.5131757 30.7286486,33.030473 32.0958784,33.030473 C33.4900676,33.030473 34.6608784,33.5080405 35.559527,34.4541892 C36.4594595,35.3952027 36.9113514,36.6366216 36.9113514,38.1425 C36.9113514,39.6406757 36.4517568,40.8872297 35.5274324,41.8500676 C34.6210811,42.8141892 33.4592568,43.2943243 32.0779054,43.2943243 C30.7004054,43.2943243 29.545,42.8141892 28.6412162,41.8667568" id="Fill-4" fill="#FFFFFF"></path>
                        <polygon id="Fill-5" fill="#FFFFFF" points="43.6537838 46.6847973 47.7888514 46.6847973 47.7888514 23.3507432 43.6537838 23.3507432"></polygon>
                        <path d="M53.3078378,31.4693919 C51.3577703,33.2525676 50.3731081,35.4979054 50.3731081,38.1566216 C50.3731081,40.6330405 51.2473649,42.7731081 52.9702027,44.5075 C54.6968919,46.235473 56.8035811,47.1264189 59.2427703,47.1264189 C60.9001351,47.1264189 62.4342568,46.7233108 63.8130405,45.9325 C65.1828378,45.1493919 66.2868919,44.0402027 67.0828378,42.6485811 C67.8787838,41.2441216 68.2818919,39.727973 68.2818919,38.1258108 C68.2818919,36.5326351 67.8826351,35.0241892 67.0918243,33.647973 C66.2971622,32.2691892 65.1828378,31.1625676 63.7732432,30.3627703 C62.3559459,29.5591216 60.829527,29.1598649 59.2260811,29.1598649 C57.0115541,29.1598649 55.0178378,29.9391216 53.3078378,31.4693919 M55.8471622,41.8667568 L55.8471622,41.8667568 C54.9433784,40.9129054 54.4902027,39.6650676 54.4902027,38.1425 C54.4902027,36.6597297 54.9497973,35.4260135 55.8612838,34.4747297 C56.7740541,33.5131757 57.9281757,33.030473 59.2941216,33.030473 C60.6934459,33.030473 61.8578378,33.5080405 62.7577703,34.4541892 C63.6551351,35.3952027 64.1134459,36.6366216 64.1134459,38.1425 C64.1134459,39.6406757 63.6512838,40.8872297 62.7333784,41.8500676 C61.8206081,42.8141892 60.6549324,43.2943243 59.2774324,43.2943243 C57.8986486,43.2943243 56.744527,42.8141892 55.8471622,41.8667568" id="Fill-6" fill="#FFFFFF"></path>
                        <path d="M78.107973,29.64 L78.107973,29.64 C77.3235811,29.9493919 76.4364865,30.5283784 75.4608108,31.3448649 L75.2952027,31.4886486 L75.2952027,29.6002027 L71.1562838,29.6002027 L71.1562838,46.6847973 L75.2952027,46.6847973 L75.2952027,39.8473649 C75.2952027,38.0218243 75.3606757,36.8715541 75.4903378,36.3143919 C75.7368243,35.262973 76.1861486,34.4259459 76.8241892,33.8302703 C77.4725,33.2307432 78.2581757,32.9290541 79.1606757,32.9290541 C79.8539189,32.9290541 80.447027,33.1113514 80.9271622,33.4733784 C81.3957432,33.8469595 81.7359459,34.3861486 81.9272297,35.0793919 C82.1172297,35.7739189 82.2083784,37.1218919 82.2083784,39.2183108 L82.2083784,46.6847973 L86.2843919,46.6847973 L86.2843919,35.3592568 C86.2843919,33.4079054 85.7914189,31.9071622 84.8131757,30.9225 C83.6410811,29.7439865 82.2032432,29.1585811 80.5266216,29.1585811 C79.7024324,29.1585811 78.8936486,29.3190541 78.107973,29.64" id="Fill-7" fill="#FFFFFF"></path>
                        <polygon id="Fill-8" fill="#FFFFFF" points="90.2089189 46.6847973 94.3465541 46.6847973 94.3465541 29.6002027 90.2089189 29.6002027"></polygon>
                        <path d="M100.017027,31.6722297 L100.017027,31.6722297 C98.4675,33.3552703 97.6818243,35.5377027 97.6818243,38.1771622 C97.6818243,40.7023649 98.4944595,42.8488514 100.086351,44.5524324 C101.698784,46.2572973 103.615473,47.1264189 105.808176,47.1264189 C106.777432,47.1264189 107.696622,46.9518243 108.533649,46.5949324 C109.366824,46.2534459 110.208986,45.6731757 111.049865,44.8823649 L111.215473,44.7129054 L111.215473,46.6847973 L115.354392,46.6847973 L115.354392,29.6002027 L111.215473,29.6002027 L111.215473,31.6581081 L111.046014,31.4706757 C110.282162,30.7068243 109.446419,30.1214189 108.551622,29.7337162 C107.660676,29.3485811 106.699122,29.1585811 105.679797,29.1585811 C103.463986,29.1585811 101.562703,30.0071622 100.017027,31.6722297 M101.798919,38.124527 C101.798919,36.6263514 102.250811,35.3772297 103.155878,34.4156757 C104.051959,33.4477027 105.199662,32.9688514 106.560473,32.9688514 C107.952095,32.9688514 109.120338,33.4335811 110.029257,34.3925676 C110.944595,35.3361486 111.396486,36.5852703 111.396486,38.1078378 C111.396486,39.6650676 110.944595,40.9411486 110.029257,41.9027027 C109.120338,42.8668243 107.959797,43.3533784 106.578446,43.3533784 C105.234324,43.3533784 104.087905,42.8527027 103.173851,41.8757432 C102.261081,40.9000676 101.798919,39.6368243 101.798919,38.124527" id="Fill-9" fill="#FFFFFF"></path>
                        <polygon id="Fill-10" fill="#FFFFFF" points="119.492027 46.6847973 123.627095 46.6847973 123.627095 22.9283784 119.492027 22.9283784"></polygon>
                        <polyline id="Fill-11" fill="#FFFFFF" points="134.98473 22.9168243 134.98473 46.6860811 145.701757 46.6860811 145.701757 42.637027 139.230203 42.637027 139.230203 22.9168243 134.98473 22.9168243"></polyline>
                        <path d="M160.053176,23.292973 C159.39973,23.8295946 159.004324,24.5703378 158.893919,25.4908108 C158.837432,25.8990541 158.795068,27.247027 158.784797,29.4936486 L158.784797,29.6014865 L157.240405,29.6014865 L157.240405,33.0612838 L158.784797,33.0612838 L158.784797,46.6847973 L162.927568,46.6847973 L162.927568,33.0612838 L165.665878,33.0612838 L165.665878,29.6014865 L162.927568,29.6014865 L162.939122,27.3330405 C162.939122,26.7989865 163.032838,26.4523649 163.221554,26.2739189 C163.486014,26.0389865 163.882703,25.9195946 164.409054,25.9195946 C164.789054,25.9195946 165.276892,26.0145946 165.849459,26.1712162 L165.849459,23.0772973 C164.764662,22.6895946 163.765878,22.485473 162.901892,22.485473 C161.678446,22.485473 160.718176,22.7550676 160.053176,23.292973" id="Fill-12" fill="#FFFFFF"></path>
                        <path d="M169.238649,31.7364189 C167.562027,33.4464189 166.710878,35.6352703 166.710878,38.2362162 C166.710878,40.7639865 167.562027,42.9040541 169.243784,44.5896622 C170.919122,46.2701351 173.123378,47.1264189 175.805203,47.1264189 C177.528041,47.1264189 179.032635,46.8131757 180.285608,46.2033784 C181.506486,45.6089865 182.559189,44.6808108 183.439865,43.4522297 C183.216486,43.3520946 180.075068,41.8795946 179.963378,41.8269595 C178.791284,42.9477027 177.388108,43.5177027 175.769257,43.5177027 C174.393041,43.5177027 173.238919,43.1466892 172.350541,42.4008108 C171.469865,41.6626351 170.907568,40.6497297 170.707297,39.3993243 L170.686757,39.2799324 L184.641486,39.2799324 C184.651757,39.1245946 184.660743,38.5545946 184.660743,38.5545946 C184.660743,35.7456757 183.812162,33.4464189 182.127838,31.7364189 C180.453784,30.0251351 178.249527,29.1598649 175.556149,29.1598649 C173.039932,29.1598649 170.907568,30.0251351 169.238649,31.7364189 M175.764122,32.6183784 C176.897703,32.6183784 177.910608,32.9290541 178.770743,33.5388514 C179.630878,34.1563514 180.212432,34.9715541 180.505135,35.9420946 L180.546216,36.0794595 L170.829257,36.0794595 L170.898581,35.9318243 C171.388986,34.8560135 171.938446,34.087027 172.516149,33.647973 C173.445608,32.9688514 174.541959,32.6183784 175.764122,32.6183784" id="Fill-13" fill="#FFFFFF"></path>
                        <path d="M148.496554,17.5981081 C148.496554,19.8062162 149.788041,21.6086486 151.365811,21.6086486 C152.944865,21.6086486 154.226081,19.8062162 154.226081,17.5981081 C154.226081,15.3835811 152.944865,13.5875676 151.365811,13.5875676 C149.788041,13.5875676 148.496554,15.3835811 148.496554,17.5981081" id="Fill-14" fill="#FFFFFF"></path>
                        <path d="M126.998311,11.4385135 C126.998311,15.1075676 128.040743,18.210473 129.260338,18.210473 C130.494054,18.210473 131.5275,15.1075676 131.5275,11.4385135 C131.5275,7.76689189 130.494054,4.66783784 129.260338,4.66783784 C128.040743,4.66783784 126.998311,7.76689189 126.998311,11.4385135" id="Fill-15" fill="#FFFFFF"></path>
                        <path d="M88.9264189,19.0975676 C88.9264189,21.0822973 90.5401351,22.6960135 92.5235811,22.6960135 C94.5121622,22.6960135 96.1245946,21.0822973 96.1245946,19.0975676 C96.1245946,17.1064189 94.5121622,15.4978378 92.5235811,15.4978378 C90.5401351,15.4978378 88.9264189,17.1064189 88.9264189,19.0975676" id="Fill-16" fill="#FFFFFF"></path>
                        <path d="M105.908311,18.9807432 C107.637568,18.9807432 109.052297,16.9202703 109.052297,14.3950676 C109.052297,11.8660135 107.637568,9.80425676 105.908311,9.80425676 C104.173919,9.80425676 102.761757,11.8660135 102.761757,14.3950676 C102.761757,16.9202703 104.173919,18.9807432 105.908311,18.9807432" id="Fill-17" fill="#FFFFFF"></path>
                        <path d="M137.981081,5.33412162 C137.981081,8.13918919 139.182703,10.4243243 140.660338,10.4243243 C142.132838,10.4243243 143.338311,8.13918919 143.338311,5.33412162 C143.338311,2.52006757 142.190608,0.228513514 140.718108,0.228513514 C139.237905,0.228513514 137.981081,2.52006757 137.981081,5.33412162" id="Fill-18" fill="#FFFFFF"></path>
                        <path d="M115.586757,7.8452027 C115.586757,10.8351351 116.634324,13.2679054 117.930946,13.2679054 C119.230135,13.2679054 120.285405,10.8351351 120.285405,7.8452027 C120.285405,4.85783784 119.230135,2.42891892 117.930946,2.42891892 C116.634324,2.42891892 115.586757,4.85783784 115.586757,7.8452027" id="Fill-19" fill="#FFFFFF"></path>
                        <polygon id="Fill-20" fill="#FFFFFF" points="149.296351 46.6847973 153.437838 46.6847973 153.437838 29.6002027 149.296351 29.6002027"></polygon>
                        <polyline id="Fill-21" fill="#FFFFFF" points="10.5180405 57.1566216 7.38689189 57.1566216 7.38689189 56.1141892 14.8033108 56.1141892 14.8033108 57.1566216 11.6721622 57.1566216 11.6721622 66.4409459 10.5180405 66.4409459 10.5180405 57.1566216"></polyline>
                        <path d="M19.8960811,62.2930405 C19.8960811,60.865473 19.1540541,60.4264189 18.3863514,60.4264189 C17.3837162,60.4264189 16.4632432,61.1954054 16.4632432,62.622973 L16.4632432,66.4409459 L15.3925676,66.4409459 L15.3925676,56.1141892 L16.4632432,56.1141892 L16.4632432,60.7409459 L16.4902027,60.7409459 C16.9575,59.8628378 17.699527,59.4648649 18.6739189,59.4648649 C19.4981081,59.4648649 20.9680405,59.8897973 20.9680405,61.827027 L20.9680405,66.4409459 L19.8960811,66.4409459 L19.8960811,62.2930405" id="Fill-22" fill="#FFFFFF"></path>
                        <path d="M26.9671622,62.3764865 C26.8169595,61.1260811 26.1018919,60.3442568 24.8668919,60.3442568 C23.465,60.3442568 22.8205405,61.4418919 22.7370946,62.3764865 L26.9671622,62.3764865 Z M27.9428378,64.505 C27.3522973,65.8093243 26.3637838,66.6322297 24.7834459,66.6322297 C22.8616216,66.6322297 21.5572973,65.1764189 21.5572973,63.2687162 C21.5572973,60.9617568 22.8205405,59.3827027 24.8386486,59.3827027 C26.7887162,59.3827027 28.1212838,60.6189865 28.1212838,62.9529054 L28.1212838,63.2545946 L22.7101351,63.2545946 C22.7101351,64.8477703 23.6858108,65.6719595 24.8386486,65.6719595 C26.0749324,65.6719595 26.6102703,64.902973 26.8439189,64.3393919 L27.9428378,64.505 L27.9428378,64.505 Z" id="Fill-23" fill="#FFFFFF"></path>
                        <path d="M35.8779054,60.4264189 C34.7379054,60.4264189 33.6261486,61.2647297 33.6261486,63.0633108 C33.6261486,64.505 34.4772973,65.6719595 35.9189865,65.6719595 C37.3606757,65.6719595 38.1027027,64.4639189 38.1027027,63.0350676 C38.1027027,61.2223649 37.0589865,60.4264189 35.8779054,60.4264189 Z M32.5541892,56.1141892 L33.6261486,56.1141892 L33.6261486,60.7691892 L33.6531081,60.7691892 C33.9419595,60.3301351 34.5594595,59.4648649 36.0833108,59.4648649 C37.5121622,59.4648649 39.2555405,60.4803378 39.2555405,63.0081081 C39.2555405,65.1494595 37.8420946,66.6322297 35.9459459,66.6322297 C34.5325,66.6322297 33.9689189,65.7810811 33.6531081,65.2457432 L33.6261486,65.2457432 L33.6261486,66.4409459 L32.5541892,66.4409459 L32.5541892,56.1141892 L32.5541892,56.1141892 Z" id="Fill-24" fill="#FFFFFF"></path>
                        <path d="M45.1596622,62.3764865 C45.0094595,61.1260811 44.2943919,60.3442568 43.0593919,60.3442568 C41.6575,60.3442568 41.0130405,61.4418919 40.9295946,62.3764865 L45.1596622,62.3764865 Z M46.1353378,64.505 C45.5447973,65.8093243 44.5562838,66.6322297 42.9759459,66.6322297 C41.0541216,66.6322297 39.7485135,65.1764189 39.7485135,63.2687162 C39.7485135,60.9617568 41.0130405,59.3827027 43.0311486,59.3827027 C44.9812162,59.3827027 46.3137838,60.6189865 46.3137838,62.9529054 L46.3137838,63.2545946 L40.9026351,63.2545946 C40.9026351,64.8477703 41.8783108,65.6719595 43.0311486,65.6719595 C44.2674324,65.6719595 44.8027703,64.902973 45.0364189,64.3393919 L46.1353378,64.505 L46.1353378,64.505 Z" id="Fill-25" fill="#FFFFFF"></path>
                        <path d="M51.4335135,62.2930405 C51.4335135,60.865473 50.6927703,60.4264189 49.9237838,60.4264189 C48.9211486,60.4264189 48.0019595,61.1954054 48.0019595,62.622973 L48.0019595,66.4409459 L46.93,66.4409459 L46.93,59.5739865 L48.0019595,59.5739865 L48.0019595,60.7409459 L48.0289189,60.7409459 C48.4949324,59.8628378 49.2369595,59.4648649 50.2126351,59.4648649 C51.0355405,59.4648649 52.505473,59.8897973 52.505473,61.827027 L52.505473,66.4409459 L51.4335135,66.4409459 L51.4335135,62.2930405" id="Fill-26" fill="#FFFFFF"></path>
                        <path d="M58.5058784,62.3764865 C58.3543919,61.1260811 57.6393243,60.3442568 56.4043243,60.3442568 C55.0037162,60.3442568 54.357973,61.4418919 54.2758108,62.3764865 L58.5058784,62.3764865 Z M59.4802703,64.505 C58.8897297,65.8093243 57.9012162,66.6322297 56.3221622,66.6322297 C54.4003378,66.6322297 53.0947297,65.1764189 53.0947297,63.2687162 C53.0947297,60.9617568 54.357973,59.3827027 56.3773649,59.3827027 C58.3274324,59.3827027 59.6587162,60.6189865 59.6587162,62.9529054 L59.6587162,63.2545946 L54.2488514,63.2545946 C54.2488514,64.8477703 55.2232432,65.6719595 56.3773649,65.6719595 C57.6123649,65.6719595 58.1477027,64.902973 58.3813514,64.3393919 L59.4802703,64.505 L59.4802703,64.505 Z" id="Fill-27" fill="#FFFFFF"></path>
                        <path d="M60.9489189,60.4533784 L59.6715541,60.4533784 L59.6715541,59.5739865 L60.9489189,59.5739865 L60.9489189,57.6110811 C60.9489189,56.5121622 61.7589865,56.1141892 62.5960135,56.1141892 C62.8989865,56.1141892 63.2006757,56.1141892 63.4073649,56.1552703 L63.4073649,57.1989865 C63.2276351,57.1566216 62.9939865,57.1566216 62.7616216,57.1566216 C62.2121622,57.1566216 62.0195946,57.4326351 62.0195946,57.8447297 L62.0195946,59.5739865 L63.4073649,59.5739865 L63.4073649,60.4533784 L62.0195946,60.4533784 L62.0195946,66.4409459 L60.9489189,66.4409459 L60.9489189,60.4533784" id="Fill-28" fill="#FFFFFF"></path>
                        <path d="M64.8066892,57.552027 C65.1802703,57.552027 65.4768243,57.8472973 65.4768243,58.2208784 C65.4768243,58.5983108 65.1802703,58.8922973 64.8066892,58.8922973 C64.4318243,58.8922973 64.1365541,58.5983108 64.1365541,58.2208784 C64.1365541,57.8472973 64.4318243,57.552027 64.8066892,57.552027" id="Fill-29" fill="#FFFFFF"></path>
                        <polygon id="Fill-30" fill="#FFFFFF" points="64.2700676 66.4409459 65.3407432 66.4409459 65.3407432 59.5739865 64.2700676 59.5739865"></polygon>
                        <path d="M66.2072973,59.5739865 L67.4833784,59.5739865 L67.4833784,57.57 L68.5553378,57.57 L68.5553378,59.5739865 L69.9418243,59.5739865 L69.9418243,60.4533784 L68.5553378,60.4533784 L68.5553378,64.6693243 C68.5553378,65.2868243 68.7337838,65.5615541 69.2152027,65.5615541 C69.4616892,65.5615541 69.7222973,65.5474324 69.9289865,65.520473 L69.9289865,66.482027 C69.5438514,66.5102703 69.1728378,66.5231081 68.8429054,66.5231081 C67.9237162,66.5231081 67.4833784,66.1662162 67.4833784,64.7938514 L67.4833784,60.4533784 L66.2072973,60.4533784 L66.2072973,59.5739865" id="Fill-31" fill="#FFFFFF"></path>
                        <path d="M74.9395946,61.6203378 C74.8843919,60.99 74.4594595,60.3442568 73.2514189,60.3442568 C72.2757432,60.3442568 71.6030405,60.7550676 71.6030405,61.4149324 C71.6030405,62.0735135 72.1242568,62.3764865 73.4016216,62.5818919 C75.1591216,62.8707432 76.1617568,63.2969595 76.1617568,64.5447973 C76.1617568,65.5474324 75.3927703,66.6322297 73.2514189,66.6322297 C71.0664189,66.6322297 70.4630405,65.5474324 70.3397973,64.4228378 L71.410473,64.4228378 C71.4515541,64.9992568 71.8636486,65.6719595 73.2231757,65.6719595 C74.2938514,65.6719595 75.1052027,65.3009459 75.0910811,64.6 C75.0769595,64.0505405 74.7329054,63.8181757 73.0164865,63.5293243 C71.63,63.2969595 70.5310811,62.8425 70.5310811,61.5253378 C70.5310811,60.1927703 71.6852027,59.3827027 73.3464189,59.3827027 C74.8843919,59.3827027 76.0102703,60.2749324 76.0102703,61.6203378 L74.9395946,61.6203378" id="Fill-32" fill="#FFFFFF"></path>
                        <path d="M82.5049324,65.6719595 C83.9877027,65.6719595 84.8940541,64.5589189 84.8940541,63.0081081 C84.8940541,61.4560135 83.9877027,60.3442568 82.5049324,60.3442568 C81.0208784,60.3442568 80.1158108,61.4560135 80.1158108,63.0081081 C80.1158108,64.5589189 81.0208784,65.6719595 82.5049324,65.6719595 Z M82.5049324,66.6322297 C80.019527,66.6322297 78.9616892,64.8336486 78.9616892,63.0081081 C78.9616892,61.1812838 80.197973,59.3827027 82.5049324,59.3827027 C84.9903378,59.3827027 86.0468919,61.1812838 86.0468919,63.0081081 C86.0468919,64.8336486 84.8118919,66.6322297 82.5049324,66.6322297 L82.5049324,66.6322297 Z" id="Fill-33" fill="#FFFFFF"></path>
                        <g id="Group-37" transform="translate(86.013514, 55.202703)">
                            <mask id="mask-4" fill="white">
                                <use xlink:href="#path-3"></use>
                            </mask>
                            <g id="Clip-35"></g>
                            <path d="M1.29662162,5.25067568 L0.0192567568,5.25067568 L0.0192567568,4.37128378 L1.29662162,4.37128378 L1.29662162,2.40837838 C1.29662162,1.30945946 2.10668919,0.911486486 2.945,0.911486486 C3.24668919,0.911486486 3.54837838,0.911486486 3.75506757,0.952567568 L3.75506757,1.99628378 C3.57662162,1.95391892 3.34297297,1.95391892 3.10932432,1.95391892 C2.55986486,1.95391892 2.3672973,2.22993243 2.3672973,2.64202703 L2.3672973,4.37128378 L3.75506757,4.37128378 L3.75506757,5.25067568 L2.3672973,5.25067568 L2.3672973,11.2382432 L1.29662162,11.2382432 L1.29662162,5.25067568" id="Fill-34" fill="#FFFFFF" mask="url(#mask-4)"></path>
                            <path d="M9.28689189,5.14155405 C8.03777027,5.14155405 7.06337838,5.96445946 7.06337838,7.62567568 C7.06337838,9.17777027 7.70783784,10.2766892 9.24709459,10.2766892 C10.3306081,10.2766892 11.5399324,9.4525 11.5399324,7.61283784 C11.5399324,6.36371622 10.812027,5.14155405 9.28689189,5.14155405 Z M11.5399324,4.37128378 L12.6106081,4.37128378 L12.6106081,10.5783784 C12.6106081,12.7210135 11.6220946,14.1216216 9.05452703,14.1216216 C7.37918919,14.1216216 6.25331081,13.2974324 6.14290541,11.8698649 L7.29702703,11.8146622 C7.39202703,12.3641216 7.695,13.1600676 9.08148649,13.1600676 C11.0585135,13.1600676 11.5399324,11.8698649 11.5399324,10.2908108 L11.5399324,9.72722973 L11.5116892,9.72722973 C11.0045946,10.8531081 9.98783784,11.2382432 9.06736486,11.2382432 C7.04925676,11.2382432 5.90925676,9.70027027 5.90925676,7.72324324 C5.90925676,5.59344595 7.39202703,4.18 9.19189189,4.18 C10.1123649,4.18 10.9763514,4.67425676 11.5116892,5.53824324 L11.5399324,5.53824324 L11.5399324,4.37128378 L11.5399324,4.37128378 Z" id="Fill-36" fill="#FFFFFF" mask="url(#mask-4)"></path>
                        </g>
                        <path d="M102.756622,65.6719595 C104.239392,65.6719595 105.145743,64.5589189 105.145743,63.0081081 C105.145743,61.4560135 104.239392,60.3442568 102.756622,60.3442568 C101.273851,60.3442568 100.3675,61.4560135 100.3675,63.0081081 C100.3675,64.5589189 101.273851,65.6719595 102.756622,65.6719595 Z M102.756622,66.6322297 C100.271216,66.6322297 99.2146622,64.8336486 99.2146622,63.0081081 C99.2146622,61.1812838 100.449662,59.3827027 102.756622,59.3827027 C105.242027,59.3827027 106.299865,61.1812838 106.299865,63.0081081 C106.299865,64.8336486 105.063581,66.6322297 102.756622,66.6322297 L102.756622,66.6322297 Z" id="Fill-38" fill="#FFFFFF"></path>
                        <path d="M110.334797,65.6719595 C111.818851,65.6719595 112.725203,64.5589189 112.725203,63.0081081 C112.725203,61.4560135 111.818851,60.3442568 110.334797,60.3442568 C108.852027,60.3442568 107.946959,61.4560135 107.946959,63.0081081 C107.946959,64.5589189 108.852027,65.6719595 110.334797,65.6719595 Z M110.334797,66.6322297 C107.849392,66.6322297 106.792838,64.8336486 106.792838,63.0081081 C106.792838,61.1812838 108.027838,59.3827027 110.334797,59.3827027 C112.820203,59.3827027 113.878041,61.1812838 113.878041,63.0081081 C113.878041,64.8336486 112.643041,66.6322297 110.334797,66.6322297 L110.334797,66.6322297 Z" id="Fill-39" fill="#FFFFFF"></path>
                        <path d="M117.748649,60.4264189 C116.568851,60.4264189 115.525135,61.2223649 115.525135,63.0350676 C115.525135,64.4639189 116.267162,65.6719595 117.708851,65.6719595 C119.150541,65.6719595 120.001689,64.505 120.001689,63.0633108 C120.001689,61.2647297 118.889932,60.4264189 117.748649,60.4264189 Z M120.001689,65.2457432 L119.97473,65.2457432 C119.657635,65.7810811 119.095338,66.6322297 117.681892,66.6322297 C115.785743,66.6322297 114.371014,65.1494595 114.371014,63.0081081 C114.371014,60.4803378 116.116959,59.4648649 117.543243,59.4648649 C119.068378,59.4648649 119.685878,60.3301351 119.97473,60.7691892 L120.001689,60.7691892 L120.001689,56.1141892 L121.073649,56.1141892 L121.073649,66.4409459 L120.001689,66.4409459 L120.001689,65.2457432 L120.001689,65.2457432 Z" id="Fill-40" fill="#FFFFFF"></path>
                        <path d="M129.529932,62.2930405 C129.529932,60.865473 128.789189,60.4264189 128.018919,60.4264189 C127.017568,60.4264189 126.097095,61.1954054 126.097095,62.622973 L126.097095,66.4409459 L125.025135,66.4409459 L125.025135,56.1141892 L126.097095,56.1141892 L126.097095,60.7409459 L126.125338,60.7409459 C126.591351,59.8628378 127.333378,59.4648649 128.30777,59.4648649 C129.130676,59.4648649 130.600608,59.8897973 130.600608,61.827027 L130.600608,66.4409459 L129.529932,66.4409459 L129.529932,62.2930405" id="Fill-41" fill="#FFFFFF"></path>
                        <path d="M136.010473,63.1865541 L134.19777,63.2687162 C133.030811,63.3239189 132.343986,63.6397297 132.343986,64.5319595 C132.343986,65.2187838 132.934527,65.7541216 133.908919,65.7541216 C134.843514,65.7541216 136.010473,65.2316216 136.010473,64.0377027 L136.010473,63.1865541 Z M136.010473,65.5345946 L135.98223,65.5345946 C135.502095,66.3857432 134.473784,66.6322297 133.67527,66.6322297 C132.042297,66.6322297 131.191149,65.6719595 131.191149,64.5871622 C131.191149,63.3239189 131.876689,62.5818919 133.758716,62.4868919 C134.513581,62.4458108 135.255608,62.4034459 136.010473,62.3764865 L136.010473,61.8552703 C136.010473,60.9758784 135.640743,60.2608108 134.265811,60.2608108 C133.003851,60.2608108 132.591757,60.7961486 132.453108,61.5664189 L131.396554,61.5664189 C131.616081,60.0284459 132.659797,59.3827027 134.279932,59.3827027 C136.120878,59.3827027 137.082432,60.2197297 137.082432,61.6896622 L137.082432,65.0955405 C137.082432,65.520473 137.136351,66.0558108 137.177432,66.4409459 L136.010473,66.4409459 L136.010473,65.5345946 L136.010473,65.5345946 Z" id="Fill-42" fill="#FFFFFF"></path>
                        <path d="M138.096622,59.5739865 L139.140338,59.5739865 L139.140338,61.085 L139.168581,61.085 C139.443311,60.3583784 139.991486,59.4648649 141.145608,59.4648649 L141.530743,59.4648649 L141.530743,60.5907432 L141.186689,60.5907432 C139.786081,60.5907432 139.168581,61.5522973 139.168581,63.1724324 L139.168581,66.4409459 L138.096622,66.4409459 L138.096622,59.5739865" id="Fill-43" fill="#FFFFFF"></path>
                        <path d="M144.591284,60.4264189 C143.410203,60.4264189 142.36777,61.2223649 142.36777,63.0350676 C142.36777,64.4639189 143.108514,65.6719595 144.550203,65.6719595 C145.991892,65.6719595 146.844324,64.505 146.844324,63.0633108 C146.844324,61.2647297 145.731284,60.4264189 144.591284,60.4264189 Z M146.844324,65.2457432 L146.817365,65.2457432 C146.501554,65.7810811 145.937973,66.6322297 144.523243,66.6322297 C142.628378,66.6322297 141.214932,65.1494595 141.214932,63.0081081 C141.214932,60.4803378 142.958311,59.4648649 144.385878,59.4648649 C145.911014,59.4648649 146.528514,60.3301351 146.817365,60.7691892 L146.844324,60.7691892 L146.844324,56.1141892 L147.915,56.1141892 L147.915,66.4409459 L146.844324,66.4409459 L146.844324,65.2457432 L146.844324,65.2457432 Z" id="Fill-44" fill="#FFFFFF"></path>
                        <polyline id="Fill-45" fill="#FFFFFF" points="150.508243 59.5739865 151.689324 59.5739865 153.391622 64.8208108 153.418581 64.8208108 155.122162 59.5739865 156.138919 59.5739865 157.882297 64.8208108 157.909257 64.8208108 159.612838 59.5739865 160.751554 59.5739865 158.389392 66.4409459 157.332838 66.4409459 155.644662 61.1954054 155.616419 61.1954054 153.942365 66.4409459 152.897365 66.4409459 150.508243 59.5739865"></polyline>
                        <path d="M164.07527,65.6719595 C165.558041,65.6719595 166.464392,64.5589189 166.464392,63.0081081 C166.464392,61.4560135 165.558041,60.3442568 164.07527,60.3442568 C162.5925,60.3442568 161.686149,61.4560135 161.686149,63.0081081 C161.686149,64.5589189 162.5925,65.6719595 164.07527,65.6719595 Z M164.07527,66.6322297 C161.589865,66.6322297 160.532027,64.8336486 160.532027,63.0081081 C160.532027,61.1812838 161.768311,59.3827027 164.07527,59.3827027 C166.560676,59.3827027 167.618514,61.1812838 167.618514,63.0081081 C167.618514,64.8336486 166.38223,66.6322297 164.07527,66.6322297 L164.07527,66.6322297 Z" id="Fill-46" fill="#FFFFFF"></path>
                        <path d="M168.481216,59.5739865 L169.524932,59.5739865 L169.524932,61.085 L169.553176,61.085 C169.827905,60.3583784 170.376081,59.4648649 171.530203,59.4648649 L171.915338,59.4648649 L171.915338,60.5907432 L171.571284,60.5907432 C170.170676,60.5907432 169.553176,61.5522973 169.553176,63.1724324 L169.553176,66.4409459 L168.481216,66.4409459 L168.481216,59.5739865" id="Fill-47" fill="#FFFFFF"></path>
                        <polyline id="Fill-48" fill="#FFFFFF" points="173.589392 62.8283784 173.589392 66.4409459 172.517432 66.4409459 172.517432 56.1141892 173.589392 56.1141892 173.589392 62.6101351 176.665338 59.5739865 178.133986 59.5739865 174.811554 62.7064189 178.189189 66.4409459 176.692297 66.4409459 173.589392 62.8283784"></polyline>
                        <path d="M179.162297,65.0685811 C179.588514,65.0685811 179.932568,65.4113514 179.932568,65.8362838 C179.932568,66.2625 179.588514,66.6052703 179.162297,66.6052703 C178.737365,66.6052703 178.393311,66.2625 178.393311,65.8362838 C178.393311,65.4113514 178.737365,65.0685811 179.162297,65.0685811" id="Fill-49" fill="#FFFFFF"></path>
                        <path d="M186.511959,44.6268919 L186.772568,44.6268919 C187.046014,44.6268919 187.304054,44.5408784 187.304054,44.3046622 C187.304054,44.1069595 187.167973,43.9593243 186.809797,43.9593243 C186.662162,43.9593243 186.574865,43.9708784 186.511959,43.9837162 L186.511959,44.6268919 Z M186.511959,45.79 L186.128108,45.79 L186.128108,43.7231081 C186.338649,43.6871622 186.562027,43.6614865 186.847027,43.6614865 C187.193649,43.6614865 187.366959,43.7231081 187.491486,43.8219595 C187.61473,43.9092568 187.699459,44.0710135 187.699459,44.2687162 C187.699459,44.5152027 187.514595,44.6769595 187.304054,44.7514189 L187.304054,44.7758108 C187.479932,44.8502703 187.5775,45.0107432 187.640405,45.2829054 C187.699459,45.5922973 187.750811,45.7168243 187.800878,45.79 L187.404189,45.79 C187.341284,45.7168243 187.291216,45.5306757 187.230878,45.2585135 C187.180811,45.0235811 187.046014,44.9247297 186.75973,44.9247297 L186.511959,44.9247297 L186.511959,45.79 Z M185.288514,44.7013514 C185.288514,45.617973 185.967635,46.3356081 186.885541,46.3356081 C187.762365,46.3484459 188.4325,45.617973 188.4325,44.7129054 C188.4325,43.8091216 187.762365,43.0799324 186.859865,43.0799324 C185.967635,43.0799324 185.288514,43.8091216 185.288514,44.7013514 Z M188.866419,44.7013514 C188.866419,45.8285135 187.998581,46.6950676 186.872703,46.6950676 C185.744257,46.6950676 184.854595,45.8285135 184.854595,44.7013514 C184.854595,43.5985811 185.744257,42.7333108 186.885541,42.7333108 C187.998581,42.7333108 188.866419,43.5985811 188.866419,44.7013514 L188.866419,44.7013514 Z" id="Fill-50" fill="#FFFFFF"></path>
                        <path d="M181.103378,60.9155405 L181.286959,60.9155405 C181.480811,60.9155405 181.661824,60.8552027 181.661824,60.6883108 C181.661824,60.5483784 181.566824,60.4443919 181.313919,60.4443919 C181.209932,60.4443919 181.147027,60.4533784 181.103378,60.4623649 L181.103378,60.9155405 Z M181.103378,61.7384459 L180.8325,61.7384459 L180.8325,60.2775 C180.980135,60.2518243 181.138041,60.2338514 181.339595,60.2338514 C181.584797,60.2338514 181.706757,60.2775 181.795338,60.3481081 C181.881351,60.4097297 181.941689,60.5239865 181.941689,60.6626351 C181.941689,60.8372297 181.812027,60.9527703 181.661824,61.0041216 L181.661824,61.0208108 C181.786351,61.0734459 181.855676,61.1864189 181.899324,61.3802703 C181.941689,61.5972297 181.977635,61.6858108 182.013581,61.7384459 L181.733716,61.7384459 C181.688784,61.6858108 181.654122,61.5548649 181.610473,61.3622973 C181.575811,61.1954054 181.480811,61.1260811 181.279257,61.1260811 L181.103378,61.1260811 L181.103378,61.7384459 Z M180.238108,60.9681757 C180.238108,61.6152027 180.718243,62.1235811 181.366554,62.1235811 C181.986622,62.1312838 182.459054,61.6152027 182.459054,60.9771622 C182.459054,60.3391216 181.986622,59.8243243 181.348581,59.8243243 C180.718243,59.8243243 180.238108,60.3391216 180.238108,60.9681757 Z M182.765878,60.9681757 C182.765878,61.7641216 182.15223,62.3764865 181.357568,62.3764865 C180.561622,62.3764865 179.932568,61.7641216 179.932568,60.9681757 C179.932568,60.1902027 180.561622,59.5778378 181.366554,59.5778378 C182.15223,59.5778378 182.765878,60.1902027 182.765878,60.9681757 L182.765878,60.9681757 Z" id="Fill-51" fill="#FFFFFF"></path>
                    </g>
                </g>
            </g>
        </g>
    </g>
</svg>