<?xml version="1.0" encoding="UTF-8"?>
<svg width="87px" height="90px" viewBox="0 0 87 90" version="1.1" xmlns="http://www.w3.org/2000/svg" xmlns:xlink="http://www.w3.org/1999/xlink">
    <defs>
        <path d="M41.3301952,0 L44.1227084,0 C56.1200622,0.720809556 65.6598113,10.6671625 65.6598113,22.7905862 L65.6598113,30.4013448 C65.6598113,42.9915172 55.3713663,53.2337586 42.7264992,53.2337586 C30.0807108,53.2337586 19.7932217,42.9915172 19.7932217,30.4013448 L19.7932217,22.7905862 C19.7932217,10.6671625 29.3320845,0.720809556 41.3301952,0 L41.3301952,0 Z M0,78.8127804 L0,78.5446777 C11.5352742,67.1285459 26.8370378,60.8445483 43.1096896,60.8445483 C59.4458477,60.8445483 74.8035161,67.1776793 86.354229,78.6785448 L75.5421538,89.4411586 C66.8800508,80.8162207 55.3618081,76.0661379 43.1096896,76.0661379 C30.8575779,76.0661379 19.3393352,80.8162207 10.6762833,89.4402072 L1.13012956e-15,78.8127804 L0,78.8127804 Z M35.0820849,22.7905862 C35.0820849,18.5941724 38.511578,15.1797586 42.7264992,15.1797586 C46.9414549,15.1797586 50.3709481,18.5941724 50.3709481,22.7905862 L50.3709481,30.4013448 C50.3709481,34.5977586 46.9414549,38.0121724 42.7264992,38.0121724 C38.511578,38.0121724 35.0820849,34.5977586 35.0820849,30.4013448 L35.0820849,22.7905862 Z" id="path-1"></path>
    </defs>
    <g id="Pages" stroke="none" stroke-width="1" fill="none" fill-rule="evenodd">
        <g id="Web" transform="translate(-385.000000, -8597.000000)">
            <g id="Iconography" transform="translate(376.000000, 6650.000000)">
                <g id="Page-1" transform="translate(2.000000, 1947.000000)">
                    <g id="Group-12" transform="translate(7.000000, 0.000000)">
                        <mask id="mask-2" fill="white">
                            <use xlink:href="#path-1"></use>
                        </mask>
                        <g id="Clip-11"></g>
                        <polygon id="Fill-10" fill="#8394A1" mask="url(#mask-2)" points="-3.75799476 93.0562866 89.9774015 93.0562866 89.9774015 -3.65695483 -3.75799476 -3.65695483"></polygon>
                    </g>
                </g>
            </g>
        </g>
    </g>
</svg>