<?xml version="1.0" encoding="UTF-8"?>
<svg width="72px" height="90px" viewBox="0 0 72 90" version="1.1" xmlns="http://www.w3.org/2000/svg" xmlns:xlink="http://www.w3.org/1999/xlink">
    <defs>
        <path d="M71.175413,26.0673346 L71.175413,26.1588615 C70.8641453,26.0728122 70.3561077,26.0092892 69.8861841,25.9980221 C70.6533376,28.5983828 71.1266174,31.3934994 71.1478967,34.3153065 C71.2579618,43.7173867 68.6149325,53.9911302 68.6149325,53.9911302 C66.9628558,55.5025153 67.6232462,61.0133436 67.6232462,61.0133436 L66.9628558,61.0133436 C66.8516901,42.0947691 60.2474189,44.1490926 60.2474189,43.3897788 C60.2474189,42.6366625 61.4588684,40.6894998 61.4588684,35.1837989 C61.4588684,29.6667838 53.853372,27.3919771 52.9768871,27.8308535 C52.1132432,28.2460566 50.8221799,30.7567683 41.9142468,28.5036172 C41.8951688,28.8910031 41.8511428,29.3700558 41.8173895,29.8923836 L41.9142468,28.491258 C41.7491492,28.4531356 41.582584,28.4067617 41.4101488,28.3707292 C32.0549846,25.8826459 26.3264645,27.0756835 25.8814347,27.0756835 C24.5639558,28.3707292 15.859643,32.2609469 15.0935901,33.773377 C14.3146963,35.285771 15.0935901,38.208623 15.9719094,39.6118384 C15.5323829,39.5005699 13.9892706,37.1237551 13.9892706,37.1237551 C13.9892706,37.1237551 13.3299808,40.0414545 12.8893536,40.908938 C12.4505609,44.8012456 8.8125434,48.7903727 8.48528325,49.5558481 C8.48528325,51.0672693 7.04930095,60.6949961 7.04930095,60.6949961 L6.39001117,60.6949961 C6.61381015,56.4699099 5.39722423,54.0951561 4.7434377,52.6971294 C4.07901155,51.2856625 2.09747338,39.8271689 2.31576911,38.7453998 C2.42913613,38.2106769 2.21597677,36.6478012 1.9786031,34.9365436 C1.82964837,35.3867702 0.606825428,36.8023448 0.0275162679,37.9510624 C0.210224287,37.2504816 1.53981035,35.37542 1.61355395,34.1092363 C1.63006371,33.8753851 1.67959299,33.5477412 1.75407036,33.1737594 C1.60401498,32.0167904 1.50825836,30.9329675 1.55155063,30.2066234 C1.55155063,30.0376668 1.56182337,29.870764 1.56182337,29.7121127 C1.23969959,30.0798969 0.884923175,30.494055 0.541887036,31.0092123 C0.639478066,30.3508617 1.13256959,29.2546796 1.75407036,28.0688485 C2.04464215,26.3833541 2.61147726,25.0100097 3.36725742,23.7881461 C3.18565006,23.966363 2.99780567,24.160038 2.82170155,24.3568477 C2.98716604,23.9467974 3.45971208,23.35853 4.08634922,22.7166823 C5.6837603,20.5129318 7.78820446,18.5894425 9.68682695,15.7243146 C10.7041951,13.7317869 11.7861347,11.5373688 12.0337812,11.2849609 C11.6716671,11.3766637 11.6331443,11.4714293 11.4438324,11.1901232 C11.734771,11.1273545 12.3885576,10.9954394 13.1014124,10.8367881 C13.9808323,9.95175668 15.0033368,9.09151569 16.1337051,8.29717823 C16.2459714,7.65951027 16.3340235,7.04133592 16.4829782,6.82391554 C16.6594492,6.58289384 17.4225671,6.78784696 18.1445939,7.01557265 C19.2155271,6.3881019 20.3613045,5.79987059 21.5485397,5.25898605 C21.7132704,4.93238706 21.8592901,4.63259628 22.0137481,4.51927392 C21.9715565,4.68923944 21.9715565,4.82108253 22.3410082,4.91282139 C22.5626059,4.82010965 22.779801,4.73564936 22.9969961,4.64499148 C23.4075388,4.22459977 23.8261529,3.4302623 23.8474322,2.92753623 C24.216517,3.21803061 24.5390077,3.65690701 24.7268521,3.99997288 C24.8442548,3.95154514 24.9733979,3.9062162 25.1025409,3.87126463 C25.2181092,3.44060364 25.3061613,3.00270012 25.4353043,2.88008136 C25.905649,3.2520093 27.2249623,3.20668036 27.9282781,2.9285091 C28.628292,2.64731112 29.5810886,1.42645641 30.3537454,1.0534475 C29.9883294,1.42645641 29.913852,1.33165478 29.6515303,1.79831228 C30.2425797,1.56449709 34.0985261,1.42645641 35.460031,1.47178535 C35.1977092,1.28632584 34.2856367,0.727893452 33.6234118,0.342597443 C34.8322932,0.43739907 35.8305834,1.28632584 37.0732181,1.70253778 C37.7713975,1.65720883 36.6021396,1.33165478 36.0121908,0.763925998 C36.6230519,0.763925998 37.6305142,1.43672569 38.4009697,1.79831228 C38.7021811,1.80760868 38.9920191,1.82612941 39.2921299,1.847821 C40.6334562,1.69843007 42.635173,1.82612941 44.1687463,1.9878795 C43.4925799,2.03320845 43.4925799,2.10945331 42.7536764,2.28359861 C44.6831171,2.62774545 46.5145999,3.13151647 48.247391,3.75581635 C49.7545487,3.91756645 51.6271225,4.29976366 52.6356854,4.66145835 C51.9598859,4.56971949 51.7973565,4.65216195 50.7843909,4.78504998 C50.8284169,4.80054398 50.8684072,4.82108253 50.9091313,4.8406482 C52.1308536,5.06012243 54.4557948,5.81839132 55.2420263,6.30364161 C54.9081623,6.30364161 54.6080515,6.26555521 54.06433,6.46027509 C54.1798984,6.52621465 54.2921647,6.59316312 54.4033305,6.66832701 C55.9482772,7.15872995 58.6312967,8.8546017 59.1214532,9.34702247 C59.0865993,9.3367532 59.0594499,9.32641186 59.0374369,9.32641186 C59.1412649,9.35217513 59.289119,9.40885432 58.7329235,9.29967571 C58.7329235,9.49544053 59.0667875,9.83126385 59.3386483,10.1475215 C59.7679021,10.5029826 60.1813798,10.8573987 60.5633056,11.2118148 C61.9101352,11.7217834 63.4319683,12.4511902 64.6327782,13.3392844 C63.697592,13.0219818 63.6788809,13.0879213 62.3122396,12.9013809 C62.506321,13.1053611 62.6930648,13.3093774 62.8871462,13.5267978 C64.4691481,14.8609748 67.4856649,17.6138253 68.1710034,18.9170864 C67.800451,18.3483847 67.2138041,18.3483847 66.7016347,18.0238396 C67.3554212,18.6296188 67.4908012,19.6547447 67.8591523,20.8570426 C68.2128281,21.5761802 68.5466922,22.3230988 68.8574425,23.07726 C69.6109394,24.3186333 70.2656814,24.8221049 71.1754124,26.0673388 L71.175413,26.0673346 Z M22.0841897,52.5360279 C22.0379624,52.7115785 22.0126474,52.8952003 22.0126474,53.0834704 C22.0126474,54.3929291 23.1166001,55.4489349 24.471868,55.4489349 C25.8289703,55.4489349 26.926686,54.393938 26.926686,53.0834704 C26.926686,52.8380527 26.8881632,52.6015351 26.8155203,52.3801151 C26.8323969,52.3852677 26.8496404,52.3903483 26.866884,52.3952487 C27.0602316,52.4498741 27.2323,52.5281368 27.415008,52.5971751 C27.5848751,52.6693123 27.7580442,52.7496649 27.9176385,52.8207571 C28.0027555,52.8681399 28.0772329,52.9042084 28.1641843,52.9443847 C28.2386616,52.9969202 28.3142397,53.0391503 28.3835807,53.0772728 C28.527399,53.1679306 28.6785551,53.2462294 28.8087987,53.3338245 C29.0648835,53.5182391 29.3154649,53.6717377 29.5150496,53.845847 C29.7175693,54.0096509 29.8962416,54.1518353 30.0283197,54.2682565 C30.3064175,54.5186106 30.4575735,54.6731542 30.4575735,54.6731542 L30.5573658,54.5752898 C30.5573658,54.5752898 30.4102455,54.423809 30.1468231,54.1518353 C30.0176801,54.0096509 29.8456117,53.8592511 29.6482283,53.6861507 C29.4596502,53.5027811 29.2149388,53.3286718 28.9672924,53.1205478 C28.8392501,53.0216385 28.6899284,52.940277 28.5387724,52.8351701 C28.4708989,52.7887962 28.3942203,52.7311081 28.3208436,52.6837253 C28.2386616,52.6404502 28.1546453,52.5930674 28.0772329,52.5435947 C27.9069989,52.450883 27.7411675,52.3519737 27.5639628,52.2695672 C27.3768521,52.1881697 27.1996474,52.0985568 26.9993289,52.0315723 C26.8019456,51.9563723 26.6096986,51.8811724 26.3998412,51.827592 C26.3000489,51.797685 26.1899838,51.7709128 26.0890908,51.7420868 C25.9841621,51.7163235 25.8814347,51.694668 25.7743047,51.6658419 C25.3450509,51.5761929 24.8893815,51.5360167 24.4432511,51.5185048 C23.9941856,51.5257114 23.5429188,51.5360167 23.1103631,51.6091627 C22.8891323,51.6380248 22.6737716,51.694668 22.4606123,51.7369341 C22.2507549,51.7894696 22.0430988,51.8327447 21.8446148,51.9038369 C21.4425104,52.0223119 21.0616852,52.1716668 20.7131458,52.3221027 C20.3583694,52.4787001 20.0278073,52.6456029 19.745307,52.806308 C19.4547352,52.9753007 19.1924134,53.1349609 18.9653125,53.2874506 C18.7418804,53.4388954 18.547799,53.5820887 18.3926072,53.6985099 C18.2392499,53.8242274 18.1214803,53.9148853 18.0345289,53.9900852 C17.9967399,54.023055 17.9600515,54.0519171 17.9380385,54.0735366 C17.9178599,54.0951561 17.9075871,54.0992999 17.9075871,54.0992999 L18.5580717,54.7535068 C18.5580717,54.7535068 18.569812,54.7514529 18.5907244,54.7297974 C18.6024646,54.7236358 18.635851,54.6865583 18.667403,54.6597501 C18.7316076,54.5938105 18.8394714,54.5041976 18.9653125,54.3805699 C19.1072964,54.2682565 19.2731278,54.1291709 19.4807839,53.9808249 C19.6741315,53.8231825 19.9111383,53.6542259 20.1672231,53.4955746 C20.4361487,53.3132139 20.7245192,53.162778 21.0470099,52.9969202 C21.358494,52.8351701 21.7007964,52.67342 22.0662124,52.5435947 C22.0720826,52.5410725 22.0779527,52.5385502 22.0841897,52.5360279 Z M48.6340863,52.5437028 C48.4660536,52.6283433 48.3082937,52.7048043 48.1498,52.7960387 C47.7865852,52.9958752 47.4527212,53.2143045 47.141237,53.4337427 C46.8367237,53.6542259 46.5608272,53.8808706 46.3120802,54.0992999 C46.0622325,54.3032801 45.8446705,54.5217094 45.6674657,54.706124 C45.480722,54.8977451 45.3211276,55.0687555 45.1952866,55.2119849 C44.9421369,55.5035242 44.8269355,55.6879388 44.8269355,55.6879388 L44.9336986,55.7641836 C44.9336986,55.7641836 45.0661436,55.6024336 45.3317673,55.3222084 C45.4532057,55.1934281 45.6223391,55.0347768 45.8134854,54.8616765 C46.0064662,54.6700554 46.2174242,54.4784343 46.4705739,54.2857683 C46.7295937,54.0848869 47.0161297,53.8808706 47.3133054,53.6737916 C47.6240558,53.4862782 47.967092,53.2864417 48.3207677,53.1061348 C48.3706639,53.0814525 48.4216607,53.0575269 48.4737582,53.0340697 C48.4444075,53.1809384 48.4289984,53.3337524 48.4289984,53.4904219 C48.4289984,54.7936831 49.5278147,55.8538218 50.8860177,55.8538218 C52.2423862,55.8538218 53.3412025,54.7936831 53.3412025,53.4904219 C53.3412025,53.0959376 53.2417771,52.7266761 53.0678743,52.4018787 C53.0913548,52.407752 53.1148354,52.4144181 53.1386828,52.422057 C53.3221246,52.4416226 53.5070339,52.4982658 53.6908426,52.5508012 C53.7799953,52.5735017 53.8724499,52.5930674 53.9616026,52.629136 C54.0390151,52.6548632 54.1285347,52.6929857 54.2092491,52.7146412 C54.2950998,52.7455571 54.3835188,52.7743832 54.4704702,52.8094068 C54.5438469,52.836215 54.6227268,52.8794541 54.7034412,52.9145138 C54.8534966,52.9835161 55.0079546,53.0309349 55.1495716,53.1143863 C55.4203317,53.2627323 55.6764165,53.3843061 55.8928778,53.5244006 C56.1049365,53.6614324 56.3012192,53.7768086 56.4446707,53.890167 C56.7312067,54.1044525 56.9117134,54.2280802 56.9117134,54.2280802 L57.4103082,53.5625231 C57.4103082,53.5625231 57.2224638,53.4461019 56.8981388,53.2277086 C56.7282717,53.1205478 56.5246513,53.0010279 56.2854432,52.8681399 C56.0491702,52.7249465 55.7593321,52.6095343 55.454085,52.4642871 C55.3040296,52.3952487 55.1308606,52.3283003 54.959526,52.2644146 C54.8872499,52.2396962 54.7958959,52.2025827 54.7034412,52.1716668 C54.6109866,52.1407869 54.5240352,52.1160686 54.4337818,52.0913142 C54.3394927,52.0583444 54.2437361,52.0264196 54.1388074,52.0027102 C54.0496547,51.9656327 53.954265,51.96048 53.8511707,51.931654 C53.6537873,51.8893878 53.4523682,51.842005 53.2311375,51.813143 C53.1331795,51.7966761 53.0326534,51.7822631 52.9148838,51.767814 C52.8099551,51.7564998 52.7028251,51.7606075 52.5876237,51.7513472 C52.4845294,51.7369341 52.3733637,51.7276377 52.2643992,51.7276377 C52.1510322,51.7327904 52.0450029,51.7369341 51.9338371,51.7276377 C51.4822035,51.7410418 51.036073,51.7966761 50.6005822,51.8801275 C50.3782508,51.9357617 50.1471141,51.9697404 49.9445944,52.0408326 C49.8290261,52.0717485 49.7240974,52.1078171 49.62137,52.1407869 C49.5153406,52.1789093 49.4093113,52.2221844 49.3117203,52.2572081 C49.2089929,52.2973843 49.1092005,52.3355068 49.0009699,52.3787819 C48.9554763,52.4023472 48.9077814,52.4241108 48.8589859,52.4447575 C48.7878105,52.4676381 48.717002,52.4913475 48.6472941,52.5157776 C48.6428915,52.525038 48.6384889,52.5343344 48.6340863,52.5437028 Z M34.2849029,72.3286691 C34.0974254,72.463802 33.6850483,72.5288984 33.2117685,72.4903976 C32.6342937,72.4348282 32.176423,72.2526945 32.1052476,72.0525409 L32.0058222,72.1339276 C32.0058222,72.1339276 31.9951825,72.1091985 31.9783059,72.1009614 C31.9573935,72.0576864 31.9269422,72.018537 31.9269422,71.9453945 C31.9375818,71.8722449 31.9783059,71.8001221 32.0300365,71.7383119 C32.0825008,71.6898842 32.1518418,71.6301314 32.2336569,71.5889246 C32.3899493,71.4786866 32.5913683,71.4096627 32.8276414,71.3292957 C32.9461448,71.2891194 33.0785897,71.2726309 33.2191061,71.2592376 C33.2895478,71.2355426 33.3640251,71.2355426 33.4333661,71.2211224 L33.5100448,71.2211224 C33.5184831,71.2211224 33.5559053,71.2355426 33.5885579,71.2355426 C33.6483599,71.2355426 33.6916522,71.2592376 33.7397139,71.2736686 C34.0831169,71.3869946 34.3403023,71.5734666 34.6172994,71.7589153 C34.8913615,71.9464215 35.1694592,72.1349618 35.4578297,72.3204033 C35.7414307,72.511001 36.0466778,72.6748122 36.3522918,72.7912297 C36.6659773,72.9220711 36.9936043,72.9880143 37.2948157,72.9704916 L37.4353321,72.9704916 L37.5424621,72.9704916 C37.6202415,72.9519529 37.7020565,72.9334033 37.7805696,72.9220711 C37.9475016,72.8818912 38.1019596,72.8427418 38.264489,72.7912297 C38.5847784,72.6572967 38.8848891,72.4914245 39.1849999,72.3204033 C39.4737373,72.1349618 39.7687117,71.968059 40.0519458,71.7815798 C40.3428845,71.611589 40.6176802,71.4642628 40.9295313,71.3529979 C41.078486,71.2901463 41.2432167,71.2602717 41.4123501,71.2602717 C41.5770808,71.2602717 41.7084251,71.2746955 41.8291298,71.3128108 C42.0830132,71.3705097 42.2803966,71.4797135 42.4326533,71.5745007 C42.5111664,71.611589 42.5742703,71.6692807 42.628936,71.721827 C42.682501,71.7599422 42.7276277,71.8227866 42.7536764,71.8918177 C42.7599134,71.9319976 42.764316,71.9690859 42.7536764,72.0020593 C42.742303,72.0453272 42.7276277,72.0597474 42.710751,72.0597474 C42.682501,72.1030189 42.6678256,72.1030189 42.6678256,72.1030189 L42.6087574,72.0148473 C42.5148352,72.2065692 42.0676041,72.3845556 41.5121424,72.4285802 C41.0630769,72.4546821 40.6705115,72.401199 40.4723944,72.2857255 C40.4580859,72.2974721 40.4434106,72.3093737 40.4287352,72.3214302 C40.1697154,72.5120351 39.896754,72.7345649 39.59114,72.9344375 C39.2858929,73.1435812 38.9509282,73.3475722 38.5712037,73.5103492 C38.3789567,73.5907054 38.1815733,73.6607671 37.9687809,73.7236115 C37.8645859,73.7442221 37.7578228,73.7596728 37.6506928,73.7813104 L37.4690854,73.8008869 L37.3190301,73.8008869 C36.8593249,73.8008869 36.4267692,73.7009434 36.0404408,73.5340442 C35.6563137,73.3702367 35.3235503,73.1446081 35.0212382,72.9354644 C34.7534132,72.7353829 34.5098025,72.5186363 34.2849029,72.3286691 Z M32.0975431,72.0236788 C32.0968093,72.0200324 32.0964424,72.016375 32.0960755,72.0127105 L32.0960755,72.0205981 C32.0964424,72.0216718 32.0971762,72.0226988 32.0975431,72.0236788 Z M23.8243185,79.0582767 C23.8243185,79.0582767 27.0705044,79.4662588 28.2870903,79.4662588 C29.5150496,79.4662588 30.6611939,79.2272405 32.6702483,79.2777257 C34.6382118,79.3168678 36.3963179,80.3048874 36.922062,80.4007016 C37.4470724,80.4954816 38.8302235,79.4837706 40.0908354,79.6156461 C41.4901294,79.7464875 42.5460203,80.735534 44.1790191,81.0332781 C45.8310958,81.3361749 48.553005,82.3355232 49.0229829,82.3355232 C49.5039672,82.3355232 47.2637762,82.2654651 42.3790883,81.4855623 C39.3489969,81.0147358 37.7702968,82.1171119 36.7195423,81.8935444 C34.1029287,81.3361749 34.4199161,80.5150581 32.5286313,80.4007016 C30.5489275,80.2677991 26.7608546,79.6898263 23.8243185,79.0582767 Z M24.8086671,76.0519913 C24.8086671,76.0519913 24.7760145,76.0705373 24.7026378,76.1076256 C24.6270598,76.128229 24.525433,76.1828327 24.3907867,76.238467 C24.1211273,76.3270674 23.7318639,76.4610003 23.2655548,76.5990554 C23.0410221,76.6649914 22.7933757,76.7195987 22.5350896,76.7968669 C22.2907452,76.8720776 22.0284234,76.9637697 21.7972868,77.0760687 C21.7437218,77.097699 21.6912574,77.1275808 21.6365918,77.1492112 C21.5767897,77.1708487 21.5298287,77.2069101 21.487637,77.2481169 C21.3973837,77.3068427 21.326942,77.3717518 21.2726433,77.427386 C21.254666,77.4706539 21.2253153,77.4881693 21.213575,77.5283456 C21.207338,77.5448341 21.1981659,77.5654339 21.1875263,77.5829493 C21.1875263,77.5973804 21.1768867,77.6190107 21.1768867,77.6396141 C21.1435003,77.697313 21.1435003,77.7879745 21.1435003,77.8971783 C21.1435003,78.1083831 21.213575,78.3628594 21.2935556,78.6296912 C21.3849096,78.8851943 21.4887377,79.1499759 21.604306,79.3951702 C21.6314554,79.4672929 21.6597054,79.5270493 21.6923581,79.5940086 C21.7228094,79.6537649 21.7503257,79.7073381 21.7774751,79.7846135 C21.8361764,79.8948443 21.8948778,80.0256929 21.9579818,80.1359308 C22.0669462,80.3800982 22.1825145,80.6067573 22.2907452,80.8158974 C22.3872356,81.0353392 22.4826253,81.2156389 22.5688429,81.406233 C22.6484567,81.5741627 22.7188983,81.7245806 22.7849374,81.857483 C22.8898661,82.1181388 22.9445317,82.284011 22.9445317,82.284011 C22.9445317,82.284011 22.8058497,82.1933496 22.581317,82.0048093 C22.4712519,81.9131208 22.3325699,81.8142151 22.1909528,81.6668888 C22.0397968,81.5381013 21.8728648,81.3887212 21.7070334,81.2156389 C21.620082,81.1260043 21.5360657,81.0353392 21.4447117,80.937464 C21.3595947,80.8251686 21.2726433,80.7375951 21.1768867,80.6263302 C21.0899352,80.5171191 21.0048183,80.4017285 20.9134643,80.2688261 C20.8221102,80.1565343 20.7424965,80.0256929 20.6511425,79.8948443 C20.6144541,79.8381795 20.5641911,79.765037 20.5326391,79.6908532 C20.4893468,79.6177108 20.4486228,79.5589849 20.4119344,79.4858353 C20.3290187,79.3364443 20.255642,79.1849995 20.1892361,79.0191273 C20.0622944,78.7059324 19.950028,78.3494625 19.9331513,77.9188159 C19.9331513,77.7168859 19.9540637,77.4891962 20.0285411,77.2646018 C20.0516547,77.207937 20.072934,77.1512722 20.094947,77.0987368 C20.1253983,77.0410343 20.1525477,76.9874611 20.1829991,76.9503728 C20.2450024,76.8401348 20.3279181,76.7597786 20.4045967,76.6660255 C20.4779735,76.575364 20.5630904,76.4970617 20.6500418,76.43937 C20.7413959,76.3878579 20.8327499,76.3188267 20.9178669,76.2755552 C21.0037176,76.2394975 21.1013086,76.1993176 21.1864256,76.1673819 C21.2715426,76.1292595 21.358494,76.1086561 21.4322376,76.0880527 C21.7763744,76.0004792 22.0871248,75.9623568 22.3765959,75.920123 C22.6653333,75.920123 22.9338921,75.9108446 23.1808047,75.920123 C23.6727956,75.920123 24.0749,75.9623568 24.3603354,76.0004792 C24.4979167,76.0210826 24.6156864,76.0313879 24.6930988,76.0313879 C24.7760145,76.0519913 24.8086671,76.0519913 24.8086671,76.0519913 Z M30.9183793,83.0680324 C30.9183793,83.0680324 30.9624053,83.0865783 31.0475223,83.1257313 C31.1344737,83.1772434 31.2489414,83.2163928 31.4000974,83.3132375 C31.7002081,83.4584991 32.1243256,83.6686697 32.6324593,83.8870918 C32.6955633,83.9066611 32.7583004,83.925207 32.8265407,83.9684785 C32.891846,83.9828987 32.9556837,84.0035093 33.0187877,84.0333839 C33.1552684,84.0766518 33.2884471,84.1137473 33.3955771,84.1333166 L33.4700545,84.1333166 L33.5929605,84.1333166 L33.8563829,84.1333166 C34.02625,84.1467135 34.2038216,84.1467135 34.37589,84.1673133 C34.7453418,84.1673133 35.1147936,84.2023477 35.4893817,84.2239781 C35.8650705,84.2476803 36.2462625,84.2847686 36.6303896,84.3146468 L36.770906,84.3146468 L36.811997,84.3146468 L36.8255716,84.3146468 L36.8373119,84.3146468 L36.8673964,84.3362807 L36.94114,84.3362807 L37.2225397,84.3950065 C37.4122185,84.4485797 37.5982285,84.4671221 37.7798358,84.5237869 C38.1437843,84.598994 38.5080997,84.6927507 38.8680125,84.7658967 C39.0213698,84.8235921 39.1883019,84.8565582 39.3478962,84.8987992 L39.4128346,84.913223 L39.4506236,84.913223 L39.5368412,84.913223 C39.610218,84.936918 39.685796,84.936918 39.7602733,84.936918 C40.0721244,84.9564945 40.3755371,84.936918 40.6514335,84.936918 C40.9295313,84.913223 41.1900186,84.8987992 41.4123501,84.8751042 C41.6390841,84.8555313 41.8291298,84.8462565 41.9802858,84.802985 C42.0580652,84.7813511 42.1303412,84.7813511 42.1839062,84.7658967 C42.2437082,84.7473544 42.2939713,84.7226253 42.3339616,84.7143846 C42.3897279,84.6711131 42.4337539,84.6566893 42.4337539,84.6566893 L42.5713353,84.7648662 C42.5713353,84.7648662 42.537582,84.8225615 42.4642053,84.8977687 C42.4337539,84.9358875 42.3897279,84.9688573 42.3339616,85.0213999 C42.2803966,85.0646714 42.2081205,85.1027902 42.1303412,85.1553329 C41.9707469,85.2470249 41.7766655,85.3634461 41.5539671,85.4335041 C41.3231974,85.5344673 41.059775,85.6241019 40.7710376,85.7024006 C40.4815664,85.7755467 40.1708161,85.8353031 39.8233773,85.8888762 C39.7320233,85.9033001 39.6417699,85.9033001 39.5482146,85.9033001 C39.5052893,85.924934 39.4410846,85.924934 39.3794482,85.924934 L39.2921299,85.924934 L39.2238896,85.924934 L39.1883019,85.924934 L39.1842661,85.924934 L39.1398732,85.9033001 L39.1233635,85.9033001 L39.0642952,85.9033001 L38.9289152,85.8888762 C38.8448988,85.8672423 38.7517104,85.8456048 38.6698954,85.8456048 C38.315119,85.7899705 37.9603425,85.7333093 37.5846538,85.6591291 C37.3935074,85.6447053 37.2119001,85.6024644 37.022955,85.5643455 L36.7437566,85.5118029 L36.6648766,85.5118029 C36.6546039,85.4932569 36.695328,85.5118029 36.6839546,85.5118029 L36.673315,85.5118029 L36.6648766,85.5118029 L36.6208506,85.4932569 L36.4803342,85.4932569 C36.1057461,85.4541076 35.7194177,85.4025954 35.343362,85.3634461 C34.9739103,85.3232662 34.6048254,85.2635098 34.2507827,85.2130282 C34.073578,85.1738788 33.8960063,85.1553329 33.730175,85.1233972 C33.6454248,85.1233972 33.5592072,85.1027902 33.4795935,85.0790952 C33.4352006,85.0790952 33.3922752,85.0646714 33.3493498,85.0646714 C33.2862458,85.0450985 33.2359828,85.0213999 33.1835184,85.0213999 C32.9692584,84.955464 32.8140667,84.8740737 32.6511704,84.7813511 C32.5840307,84.7473544 32.5117546,84.7143846 32.4435143,84.6566893 C32.3752739,84.6134178 32.318407,84.575299 32.2578712,84.5227563 C32.0109585,84.3568841 31.8000005,84.1858628 31.6238964,84.0230858 C31.4411883,83.8664812 31.3025064,83.7243076 31.1733633,83.5934662 C31.0548599,83.4770486 30.969743,83.3668107 30.9037039,83.3132375 C30.8461032,83.2359693 30.8196876,83.1999079 30.8196876,83.1999079 L30.9183793,83.0680324 Z M44.4384058,50.2492224 L44.9325979,50.7663975 C44.9325979,50.7663975 53.7495439,46.3692739 60.2885098,49.6300391 C59.1086123,48.7368284 55.8184004,47.2676734 55.4643578,46.9245715 C54.7614088,47.081205 47.3342178,49.3157993 44.4384058,50.2492224 Z M30.4051091,50.1338462 L30.9268176,49.2972786 C30.9268176,49.2972786 24.1673547,47.7467261 20.1041191,47.6004339 C19.7075179,47.8569857 13.7676729,51.575184 13.7676729,51.575184 C13.7676729,51.575184 21.9799948,47.2717811 30.4051091,50.1338462 Z M40.0269977,89.6534319 C40.0269977,89.6534319 39.9983808,89.6317969 39.9448158,89.6317969 C39.8820787,89.6194334 39.7940266,89.6019191 39.6931336,89.5792532 C39.5819679,89.5617396 39.4601626,89.5401038 39.3112078,89.5215593 C39.1673895,89.5050755 39.0140322,89.4844703 38.8408631,89.4515016 C38.7495091,89.4515016 38.6581551,89.4308967 38.5719375,89.4308967 C38.4827847,89.409261 38.3851937,89.3938077 38.283567,89.3938077 C38.1870766,89.3742327 38.0902193,89.3742327 37.9937289,89.3536275 C37.9486023,89.3536275 37.8932028,89.341264 37.8396378,89.341264 L37.6862805,89.341264 C37.5875888,89.3206595 37.4826601,89.3206595 37.3744295,89.3000543 C37.2676664,89.3000543 37.1594357,89.3000543 37.0556076,89.2773887 C36.8391463,89.2619344 36.6241526,89.2773887 36.3985192,89.2619344 C36.2862528,89.2619344 36.1736195,89.2773887 36.0657558,89.2773887 L35.743632,89.2773887 C35.5249694,89.3000543 35.3110763,89.3216893 35.1023195,89.3216893 C34.8942965,89.3422945 34.6917768,89.3752625 34.4965947,89.3938077 C34.2970101,89.3938077 34.1154027,89.4515016 33.9392986,89.4618044 C33.7617269,89.4834398 33.5958956,89.4834398 33.4520772,89.5215593 C33.3009212,89.5401038 33.1824178,89.5617396 33.0752878,89.5792532 C32.9641221,89.6008893 32.872768,89.6008893 32.819203,89.6008893 C32.7542647,89.6008893 32.7205114,89.6194334 32.7205114,89.6194334 C32.7205114,89.6194334 32.743625,89.5792532 32.7876511,89.5401038 C32.828742,89.5061053 32.8936804,89.4515016 32.973661,89.3752625 C33.0521741,89.3010848 33.1615054,89.211452 33.2800088,89.1104871 C33.3966778,89.0198245 33.5412299,88.9301917 33.7081619,88.8302576 C33.7819055,88.7756539 33.8677563,88.7406249 33.9642467,88.6860219 C34.0086396,88.6643861 34.051565,88.6427507 34.0977923,88.6118431 C34.1502566,88.5891776 34.202721,88.5737236 34.2434451,88.5520882 C34.3516757,88.5160297 34.4588057,88.4645165 34.5615331,88.4212457 C34.6726988,88.3841563 34.7798289,88.3439761 34.8931959,88.312039 C35.1294689,88.2543444 35.3675763,88.2007712 35.6225604,88.1441064 C35.8735088,88.1224725 36.1295935,88.0864111 36.3867789,88.0864111 C36.6428636,88.0864111 36.9022503,88.0864111 37.158335,88.121442 C37.281241,88.1430759 37.4133191,88.1647134 37.5329232,88.1801642 C37.6517935,88.2213746 37.7713975,88.2316799 37.8932028,88.2749478 C38.1250733,88.3316137 38.3382326,88.4222762 38.5510251,88.5016059 C38.7443727,88.5891776 38.9311165,88.6870517 39.0936459,88.7972889 C39.1758278,88.8549835 39.2481039,88.8879515 39.3236819,88.9404949 C39.3941235,89.0023101 39.4623639,89.0424904 39.5210653,89.0950331 C39.6428706,89.1908468 39.739361,89.2784193 39.8167734,89.3752625 C39.966095,89.5225891 40.0269977,89.6534319 40.0269977,89.6534319 Z" id="path-1"></path>
    </defs>
    <g id="Pages" stroke="none" stroke-width="1" fill="none" fill-rule="evenodd">
        <g id="Print" transform="translate(-1077.000000, -7674.000000)">
            <g id="Iconography" transform="translate(379.000000, 6893.000000)">
                <g id="Group-2" transform="translate(4.000000, 616.000000)">
                    <g id="Page-1" transform="translate(0.000000, 165.000000)">
                        <g id="Group-3" transform="translate(694.000000, 0.000000)">
                            <mask id="mask-2" fill="white">
                                <use xlink:href="#path-1"></use>
                            </mask>
                            <g id="Clip-2"></g>
                            <polygon id="Fill-1" fill="#8394A1" mask="url(#mask-2)" points="-3.82476124 93.4310375 75.1123305 93.4310375 75.1123305 -3.43500238 -3.82476124 -3.43500238"></polygon>
                        </g>
                    </g>
                </g>
            </g>
        </g>
    </g>
</svg>