<?xml version="1.0" encoding="UTF-8"?>
<svg width="140px" height="57px" viewBox="0 0 140 57" version="1.1" xmlns="http://www.w3.org/2000/svg" xmlns:xlink="http://www.w3.org/1999/xlink">
    <!-- Generator: Sketch 43.2 (39069) - http://www.bohemiancoding.com/sketch -->
    <title>header-logo</title>
    <desc>Created with Sketch.</desc>
    <defs></defs>
    <g id="Pages" stroke="none" stroke-width="1" fill="none" fill-rule="evenodd">
        <g id="Overview" transform="translate(-104.000000, -22.000000)" fill="#FFFFFF">
            <g id="Header" transform="translate(0.000000, -1.000000)">
                <g id="header-logo" transform="translate(104.000000, 23.000000)">
                    <path d="M9.10641181,20.1893674 C7.44162818,20.1893674 6.0149948,20.7896207 4.86960552,21.9597643 C3.72648434,23.1380825 3.1469854,24.6095205 3.1469854,26.3308695 C3.1469854,27.5278726 3.40101233,28.6127662 3.90906619,29.5400058 C4.4182541,30.4800912 5.14517938,31.2158102 6.06942914,31.745995 C6.98914272,32.2715086 8.0347357,32.5436078 9.1665164,32.5436078 C10.1304579,32.5436078 11.0229543,32.3544229 11.8224587,31.9877312 C12.6026842,31.6198717 13.4713656,30.9483822 14.3967494,30.0106324 C14.4908755,30.109896 16.4289649,32.1967689 16.5332974,32.2972004 C15.2869777,33.5409158 14.0916903,34.415604 12.9814565,34.9002443 C11.853078,35.3930593 10.5489219,35.6488092 9.11094801,35.6488092 C6.45160359,35.6488092 4.24247654,34.7612751 2.55160979,33.0282481 C0.85507279,31.2905499 0,29.0401839 0,26.321527 C0,24.563976 0.387844687,22.9839319 1.15786382,21.6187644 C1.9312851,20.2606037 3.0517253,19.1430115 4.48743108,18.3080288 C5.92994114,17.4800529 7.50173277,17.0619777 9.15744401,17.0619777 C10.5682007,17.0619777 11.947204,17.3714468 13.2536283,17.9857138 C14.5407736,18.5906383 15.6578117,19.461823 16.5979381,20.5700728 L14.3990175,22.7258463 C12.8362983,21.0465385 11.0569757,20.1893674 9.10641181,20.1893674 Z M20.2061856,28.9420377 C20.2061856,27.8694862 20.5549083,26.9753238 21.2339998,26.2850349 C21.9188269,25.590314 22.7848981,25.2401836 23.8115652,25.2401836 C24.8565862,25.2401836 25.7352756,25.58699 26.4086315,26.2717389 C27.0842818,26.9531637 27.4226804,27.851758 27.4226804,28.9420377 C27.4226804,30.0278854 27.0773991,30.9309118 26.3856893,31.6289568 C25.7043035,32.3258937 24.8324968,32.6749162 23.7977998,32.6749162 C22.76425,32.6749162 21.8981789,32.3258937 21.2213816,31.6411448 C20.5514669,30.9486399 20.2061856,30.0467216 20.2061856,28.9420377 Z M17.3195876,28.9678038 C17.3195876,26.9876559 18.0363674,25.3162652 19.4499546,23.9866722 C20.6860113,22.8473466 22.1306664,22.2662905 23.7417564,22.2662905 C24.9056913,22.2662905 26.0141478,22.5647938 27.039387,23.1629398 C28.0668452,23.7588071 28.8734998,24.5825395 29.448255,25.6090719 C30.0241199,26.6356042 30.3092784,27.7589793 30.3092784,28.9450173 C30.3092784,30.1378912 30.018572,31.2681022 29.4438168,32.3140031 C28.8657328,33.3507894 28.0668452,34.1745219 27.0682357,34.7589959 C26.0696262,35.3491666 24.9556218,35.6488092 23.7506329,35.6488092 C21.9853132,35.6488092 20.4574407,34.9845824 19.2047405,33.6982837 C17.9531499,32.4062885 17.3195876,30.8135113 17.3195876,28.9678038 Z M31.7525773,35.6488092 L31.7525773,17.8054509 L34.6391753,17.8054509 L34.6391753,35.6488092 L31.7525773,35.6488092 Z M39.6907216,28.9420377 C39.6907216,27.8694862 40.036003,26.9753238 40.7185359,26.2850349 C41.403363,25.590314 42.268287,25.2401836 43.2926599,25.2401836 C44.3434165,25.2401836 45.2152232,25.58699 45.8908734,26.2717389 C46.5630823,26.9531637 46.9072165,27.851758 46.9072165,28.9420377 C46.9072165,30.0278854 46.560788,30.9309118 45.8725196,31.6289568 C45.1876924,32.3258937 44.3135915,32.6749162 43.2811888,32.6749162 C42.247639,32.6749162 41.3815678,32.3258937 40.7082119,31.6411448 C40.0314145,30.9486399 39.6907216,30.0467216 39.6907216,28.9420377 Z M36.8041237,28.9678038 C36.8041237,26.9876559 37.5185622,25.3162652 38.9341268,23.9866722 C40.1721911,22.8473466 41.6177088,22.2662905 43.2251955,22.2662905 C44.3878222,22.2662905 45.4960894,22.5647938 46.5222628,23.1629398 C47.545108,23.7588071 48.3527342,24.5825395 48.9285007,25.6090719 C49.5031578,26.6356042 49.7938144,27.7589793 49.7938144,28.9450173 C49.7938144,30.1378912 49.4998296,31.2681022 48.9229538,32.3140031 C48.3449686,33.3507894 47.545108,34.1745219 46.5511066,34.7589959 C45.5515583,35.3491666 44.4388535,35.6488092 43.2362893,35.6488092 C41.4668336,35.6488092 39.9403314,34.9845824 38.6878452,33.6982837 C37.4386871,32.4062885 36.8041237,30.8135113 36.8041237,28.9678038 Z M55.0384136,23.9366232 C55.7366428,23.3117085 56.3724911,22.869012 56.9317311,22.6330629 C57.4942544,22.3889373 58.0742881,22.2662905 58.663077,22.2662905 C59.862543,22.2662905 60.891282,22.7124913 61.7295949,23.6130693 C62.4300129,24.3641349 62.7835052,25.5100065 62.7835052,27.0004572 L62.7835052,35.6488092 L59.8669206,35.6488092 L59.8669206,29.9474848 C59.8669206,28.3460679 59.8012564,27.3181709 59.6666448,26.7867014 C59.5298444,26.257568 59.2846981,25.8464092 58.9498107,25.5614014 C58.6061681,25.283402 58.1815396,25.1444022 57.6846805,25.1444022 C57.0389826,25.1444022 56.4775538,25.3756791 56.0146212,25.8335605 C55.5582551,26.2891058 55.2365005,26.9280372 55.0592072,27.7293297 C54.9661829,28.1556734 54.9213124,29.0340581 54.9213124,30.4287275 L54.9213124,35.6488092 L51.9587629,35.6488092 L51.9587629,22.6038612 L54.9213124,22.6038612 L54.9213124,24.0452532 L55.0384136,23.9366232 Z M65.6701031,35.6488092 L65.6701031,22.2662905 L68.556701,22.2662905 L68.556701,35.6488092 L65.6701031,35.6488092 Z M75.3478437,26.2752193 C76.0230242,25.5819096 76.8856909,25.2401836 77.9093888,25.2401836 C78.9549409,25.2401836 79.8337107,25.5720521 80.518093,26.2587901 C81.2047757,26.9356706 81.5463918,27.8294157 81.5463918,28.9203105 C81.5463918,30.0353013 81.2047757,30.9476661 80.518093,31.6365946 C79.8337107,32.3266184 78.9618422,32.6749162 77.9231914,32.6749162 C76.912146,32.6749162 76.0506295,32.3167609 75.3627966,31.6179749 C74.6761138,30.9191889 74.3298969,30.0133958 74.3298969,28.9323585 C74.3298969,27.8589882 74.6692125,26.9641478 75.3478437,26.2752193 Z M71.443299,28.9837543 C71.443299,27.0172783 72.0189695,25.3926 73.159067,24.1382025 C74.2946671,22.8986162 75.6933666,22.2662905 77.3214348,22.2662905 C78.0702562,22.2662905 78.7774765,22.4075669 79.4329763,22.6935376 C80.0896005,22.9840656 80.7057479,23.419288 81.2656774,23.9866722 L81.3916053,24.1268092 L81.3916053,22.5955556 L84.4329897,22.5955556 L84.4329897,35.3195441 L81.3916053,35.3195441 L81.3916053,33.8509534 L81.2690505,33.9774185 C80.6506544,34.5653105 80.031134,34.9982543 79.419484,35.2534632 C78.804461,35.5200654 78.1287228,35.6488092 77.4158807,35.6488092 C75.8046779,35.6488092 74.3947348,35.0016722 73.209663,33.7313242 C72.0392079,32.4632548 71.443299,30.8647809 71.443299,28.9837543 Z M87.3195876,35.6488092 L87.3195876,17.8054509 L90.2061856,17.8054509 L90.2061856,35.6488092 L87.3195876,35.6488092 Z M98.1443299,35.6488092 L98.1443299,17.0619777 L101.286725,17.0619777 L101.286725,32.483617 L106.082474,32.483617 L106.082474,35.6488092 L98.1443299,35.6488092 Z M115.988614,19.3718203 C116.072857,18.6633589 116.370595,18.0935351 116.864518,17.682322 C117.365364,17.269934 118.090091,17.0619777 119.012156,17.0619777 C119.664179,17.0619777 120.418911,17.2182387 121.237113,17.5166619 L121.237113,19.8934735 C120.805509,19.7736343 120.435067,19.6996159 120.150023,19.6996159 C119.751885,19.6996159 119.452993,19.7912577 119.253347,19.9721914 C119.111402,20.1084792 119.041006,20.3751803 119.041006,20.7852185 L119.032928,22.5275871 L121.098631,22.5275871 L121.098631,25.1851985 L119.032928,25.1851985 L119.032928,35.6488092 L115.908986,35.6488092 L115.908986,25.1851985 L114.742268,25.1851985 L114.742268,22.5275871 L115.908986,22.5275871 L115.908986,22.4453444 C115.913602,20.7182495 115.945915,19.6843423 115.988614,19.3718203 Z M130.743982,25.54602 C131.383605,25.943218 131.814186,26.4685445 132.032317,27.0944024 L132.061856,27.1821211 L124.845361,27.1821211 L124.896485,27.0865176 C125.262309,26.3936386 125.669032,25.8998515 126.097341,25.6150122 C126.789225,25.17839 127.603807,24.9517013 128.510413,24.9517013 C129.352262,24.9517013 130.105495,25.1517787 130.743982,25.54602 Z M121.958763,29.0270487 C121.958763,27.0901952 122.575264,25.4598202 123.788344,24.1860542 C124.995889,22.9111488 126.539909,22.2662905 128.359528,22.2662905 C130.308646,22.2662905 131.904687,22.9111488 133.114446,24.1860542 C134.334166,25.4598202 134.948454,27.1722266 134.948454,29.2640284 C134.948454,29.2640284 134.941813,29.6878576 134.934065,29.8052081 L124.835399,29.8052081 L124.852002,29.8940755 C124.995889,30.8237652 125.4032,31.5791381 126.041838,32.1294324 C126.682689,32.6854233 127.518342,32.9600007 128.51559,32.9600007 C129.685504,32.9600007 130.701569,32.5350323 131.548289,31.7010459 C131.630194,31.7409223 133.902505,32.8380929 134.065208,32.9121491 C133.42657,33.8281669 132.666182,34.5185982 131.781829,34.9629352 C130.876447,35.4163868 129.787332,35.6488092 128.541047,35.6488092 C126.599677,35.6488092 125.004744,35.0107869 123.792771,33.758668 C122.575264,32.5042705 121.958763,30.910354 121.958763,29.0270487 Z M108.969072,35.6488092 L108.969072,22.2662905 L111.85567,22.2662905 L111.85567,35.6488092 L108.969072,35.6488092 Z M137.751338,33.3158636 L137.519139,33.3158636 L137.519139,32.6787851 C137.570467,32.6645991 137.660902,32.6529924 137.789223,32.6529924 C138.098414,32.6529924 138.238955,32.7871142 138.238955,32.9908762 C138.238955,33.2217204 138.0202,33.3158636 137.751338,33.3158636 Z M137.018078,34.5642281 L137.018078,32.3396117 C137.209948,32.313819 137.480032,32.2725508 137.827108,32.2725508 C138.225512,32.2725508 138.406383,32.3396117 138.548146,32.4479408 C138.676467,32.5433736 138.76568,32.7058673 138.76568,32.9225256 C138.76568,33.1946381 138.57381,33.3700282 138.329391,33.4525647 L138.329391,33.4783573 C138.534703,33.5467079 138.636137,33.7233876 138.702131,34.0212927 C138.76568,34.3604661 138.817008,34.4816916 138.854893,34.5642281 L138.341612,34.5642281 C138.278062,34.4816916 138.238955,34.2921156 138.174184,34.0212927 C138.137521,33.7904485 138.007979,33.6808297 137.737895,33.6808297 L137.50814,33.6808297 L137.50814,34.5642281 L137.018078,34.5642281 Z M137.852772,35.1871207 C138.76568,35.2013066 139.45861,34.4017344 139.45861,33.4241928 C139.45861,32.4350445 138.76568,31.6354722 137.827108,31.6354722 C136.915422,31.6354722 136.209049,32.4350445 136.209049,33.4112964 C136.209049,34.4017344 136.915422,35.1871207 137.852772,35.1871207 Z M137.840551,35.6488092 C136.633117,35.6488092 135.670103,34.6583713 135.670103,33.4112964 C135.670103,32.1642216 136.633117,31.1879696 137.852772,31.1879696 C139.049207,31.1879696 140,32.1642216 140,33.4112964 C140,34.6583713 139.049207,35.6488092 137.840551,35.6488092 Z M67.6679866,17.099885 C66.2757521,17.099885 65.1432868,15.9331723 65.1432868,14.4988345 C65.1432868,13.0578613 66.2757521,11.8955722 67.6679866,11.8955722 C69.0634414,11.8955722 70.1948332,13.0578613 70.1948332,14.4988345 C70.1948332,15.9331723 69.0634414,17.099885 67.6679866,17.099885 Z M79.5762765,10.7820354 C79.5762765,12.6224384 78.6041299,14.1259919 77.412908,14.1259919 C76.217473,14.1259919 75.2463796,12.6224384 75.2463796,10.7820354 C75.2463796,8.93717073 76.217473,7.4347326 77.412908,7.4347326 C78.6041299,7.4347326 79.5762765,8.93717073 79.5762765,10.7820354 Z M102.308751,7.4347326 C101.313159,7.4347326 100.504112,5.76819239 100.504112,3.722386 C100.504112,1.66988668 101.349231,0 102.346884,0 C103.339384,0 104.112359,1.66988668 104.112359,3.722386 C104.112359,5.76819239 103.302281,7.4347326 102.308751,7.4347326 Z M86.4295975,9.66515239 C85.4335709,9.66515239 84.6278229,7.82802755 84.6278229,5.57201055 C84.6278229,3.31945547 85.4335709,1.48694652 86.4295975,1.48694652 C87.4267987,1.48694652 88.2360704,3.31945547 88.2360704,5.57201055 C88.2360704,7.82802755 87.4267987,9.66515239 86.4295975,9.66515239 Z M110.610095,16.3564117 C109.418072,16.3564117 108.442256,15.02006 108.442256,13.3830859 C108.442256,11.7393052 109.418072,10.4086256 110.610095,10.4086256 C111.803273,10.4086256 112.772153,11.7393052 112.772153,13.3830859 C112.772153,15.02006 111.803273,16.3564117 110.610095,16.3564117 Z M94.3707003,13.3825187 C93.3982648,13.3825187 92.5659673,10.997527 92.5659673,8.17879359 C92.5659673,5.35535838 93.3982648,2.97389304 94.3707003,2.97389304 C95.3516659,2.97389304 96.1742147,5.35535838 96.1742147,8.17879359 C96.1742147,10.997527 95.3516659,13.3825187 94.3707003,13.3825187 Z" id="Logo"></path>
                    <path d="M2.03662109,48.1474609 L4.36767578,48.1474609 C5.4490614,48.1474609 6.23054772,48.3050114 6.7121582,48.6201172 C7.19376868,48.9352229 7.43457031,49.4329393 7.43457031,50.1132812 C7.43457031,50.5716169 7.31640743,50.9529607 7.08007812,51.2573242 C6.84374882,51.5616877 6.50358295,51.7532548 6.05957031,51.8320312 L6.05957031,51.8857422 C6.61100536,51.9895839 7.01651888,52.1945785 7.27612305,52.5007324 C7.53572721,52.8068863 7.66552734,53.2213516 7.66552734,53.7441406 C7.66552734,54.4495478 7.41935468,55.0018697 6.92700195,55.401123 C6.43464923,55.8003763 5.74984163,56 4.87255859,56 L2.03662109,56 L2.03662109,48.1474609 Z M3.3203125,51.3916016 L4.55566406,51.3916016 C5.09277612,51.3916016 5.48486205,51.3065601 5.73193359,51.1364746 C5.97900514,50.9663891 6.10253906,50.6772481 6.10253906,50.269043 C6.10253906,49.900226 5.96915823,49.6334644 5.70239258,49.46875 C5.43562692,49.3040356 5.01220993,49.2216797 4.43212891,49.2216797 L3.3203125,49.2216797 L3.3203125,51.3916016 Z M3.3203125,52.4335938 L3.3203125,54.9204102 L4.68457031,54.9204102 C5.22168237,54.9204102 5.6271959,54.8174652 5.90112305,54.6115723 C6.1750502,54.4056793 6.31201172,54.0807314 6.31201172,53.6367188 C6.31201172,53.2285136 6.17236468,52.925945 5.89306641,52.7290039 C5.61376813,52.5320628 5.18945597,52.4335938 4.62011719,52.4335938 L3.3203125,52.4335938 Z M12.6820312,51.7998047 L13.5736327,51.7998047 C14.1716175,51.7998047 14.6048814,51.6888032 14.8734374,51.4667969 C15.1419934,51.2447906 15.2762694,50.9153668 15.2762694,50.4785156 C15.2762694,50.034503 15.1312514,49.7158213 14.8412108,49.5224609 C14.5511703,49.3291006 14.1143257,49.2324219 13.530664,49.2324219 L12.6820312,49.2324219 L12.6820312,51.7998047 Z M12.6820312,52.8632812 L12.6820312,56 L11.3983397,56 L11.3983397,48.1474609 L13.6166015,48.1474609 C14.6299529,48.1474609 15.3801081,48.3372377 15.8670897,48.7167969 C16.3540713,49.0963561 16.5975585,49.669267 16.5975585,50.4355469 C16.5975585,51.4130908 16.0891,52.1095357 15.0721679,52.5249023 L17.2904296,56 L15.8294921,56 L13.9496093,52.8632812 L12.6820312,52.8632812 Z M25.4006834,56 L24.6165037,53.8193359 L21.6140623,53.8193359 L20.8459959,56 L19.4924803,56 L22.4304686,48.1152344 L23.8269529,48.1152344 L26.7649412,56 L25.4006834,56 Z M24.2781248,52.7128906 L23.542285,50.5751953 C23.4885738,50.4319654 23.4142744,50.2063817 23.3193846,49.8984375 C23.2244948,49.5904933 23.1591471,49.3649096 23.1233397,49.2216797 C23.0266595,49.6621116 22.8852221,50.1437148 22.6990232,50.6665039 L21.9900389,52.7128906 L24.2781248,52.7128906 Z M36.4435544,56 L34.8698239,56 L31.0080075,49.7426758 L30.9650388,49.7426758 L30.9918942,50.0917969 C31.0420247,50.7578158 31.0670896,51.3665337 31.0670896,51.9179688 L31.0670896,56 L29.9015622,56 L29.9015622,48.1474609 L31.4591794,48.1474609 L35.3102536,54.3725586 L35.3424802,54.3725586 C35.3353187,54.2902014 35.3209959,53.9903183 35.2995114,53.4729004 C35.278027,52.9554824 35.2672849,52.5517593 35.2672849,52.2617188 L35.2672849,48.1474609 L36.4435544,48.1474609 L36.4435544,56 Z M47.003027,51.9985352 C47.003027,53.2947656 46.6431673,54.2857225 45.9234371,54.9714355 C45.203707,55.6571486 44.1670962,56 42.8135738,56 L40.6167965,56 L40.6167965,48.1474609 L43.0445309,48.1474609 C44.2942116,48.1474609 45.2663698,48.4840461 45.9610348,49.1572266 C46.6556997,49.830407 47.003027,50.7775004 47.003027,51.9985352 Z M45.6495113,52.0415039 C45.6495113,50.1616117 44.7704511,49.2216797 43.0123043,49.2216797 L41.9004879,49.2216797 L41.9004879,54.9204102 L42.8135738,54.9204102 C44.7042083,54.9204102 45.6495113,53.9607843 45.6495113,52.0415039 Z M58.9588861,51.7407227 L61.8485346,51.7407227 L61.8485346,55.6831055 C61.375876,55.8370776 60.9220231,55.9462887 60.4869623,56.0107422 C60.0519015,56.0751956 59.5819355,56.1074219 59.0770502,56.1074219 C57.8882422,56.1074219 56.9715847,55.7556188 56.3270502,55.052002 C55.6825157,54.3483852 55.3602533,53.3556379 55.3602533,52.0737305 C55.3602533,50.8097268 55.7236937,49.8205602 56.4505854,49.1062012 C57.177477,48.3918421 58.1782808,48.034668 59.4530268,48.034668 C60.2730179,48.034668 61.0500283,48.1922185 61.7840815,48.5073242 L61.3329096,49.5761719 C60.6955366,49.2825506 60.0581732,49.1357422 59.4208002,49.1357422 C58.5829054,49.1357422 57.9204771,49.3989231 57.4334955,49.925293 C56.9465139,50.4516628 56.7030268,51.1713822 56.7030268,52.0844727 C56.7030268,53.0441129 56.9223442,53.7736791 57.3609858,54.2731934 C57.7996273,54.7727076 58.4307245,55.0224609 59.2542963,55.0224609 C59.669663,55.0224609 60.1136689,54.9705409 60.5863276,54.8666992 L60.5863276,52.8417969 L58.9588861,52.8417969 L58.9588861,51.7407227 Z M71.9890618,48.1474609 L71.9890618,53.2285156 C71.9890618,53.8085967 71.8646327,54.3161599 71.6157708,54.7512207 C71.3669089,55.1862815 71.0070492,55.5210763 70.536181,55.7556152 C70.0653127,55.9901542 69.5022487,56.1074219 68.846972,56.1074219 C67.8730088,56.1074219 67.1156921,55.849612 66.5749993,55.3339844 C66.0343065,54.8183568 65.7639642,54.1093795 65.7639642,53.2070312 L65.7639642,48.1474609 L67.0530267,48.1474609 L67.0530267,53.1157227 C67.0530267,53.7638379 67.2034158,54.2418604 67.5041986,54.5498047 C67.8049813,54.8577489 68.2668907,55.0117188 68.8899407,55.0117188 C70.1002332,55.0117188 70.7053704,54.3761457 70.7053704,53.1049805 L70.7053704,48.1474609 L71.9890618,48.1474609 Z M76.0978508,56 L76.0978508,48.1474609 L77.3815422,48.1474609 L77.3815422,56 L76.0978508,56 Z M87.9410148,51.9985352 C87.9410148,53.2947656 87.5811551,54.2857225 86.8614249,54.9714355 C86.1416948,55.6571486 85.105084,56 83.7515616,56 L81.5547843,56 L81.5547843,48.1474609 L83.9825187,48.1474609 C85.2321994,48.1474609 86.2043576,48.4840461 86.8990226,49.1572266 C87.5936875,49.830407 87.9410148,50.7775004 87.9410148,51.9985352 Z M86.5874991,52.0415039 C86.5874991,50.1616117 85.7084389,49.2216797 83.9502921,49.2216797 L82.8384757,49.2216797 L82.8384757,54.9204102 L83.7515616,54.9204102 C85.6421961,54.9204102 86.5874991,53.9607843 86.5874991,52.0415039 Z M96.1694326,56 L91.7275381,56 L91.7275381,48.1474609 L96.1694326,48.1474609 L96.1694326,49.2324219 L93.0112295,49.2324219 L93.0112295,51.3701172 L95.9707022,51.3701172 L95.9707022,52.4443359 L93.0112295,52.4443359 L93.0112295,54.909668 L96.1694326,54.909668 L96.1694326,56 Z M99.9666982,56 L99.9666982,48.1474609 L101.25039,48.1474609 L101.25039,54.8989258 L104.575097,54.8989258 L104.575097,56 L99.9666982,56 Z M108.028612,56 L108.028612,48.1474609 L109.312304,48.1474609 L109.312304,56 L108.028612,56 Z M120.027538,56 L118.453807,56 L114.591991,49.7426758 L114.549022,49.7426758 L114.575878,50.0917969 C114.626008,50.7578158 114.651073,51.3665337 114.651073,51.9179688 L114.651073,56 L113.485546,56 L113.485546,48.1474609 L115.043163,48.1474609 L118.894237,54.3725586 L118.926464,54.3725586 C118.919302,54.2902014 118.904979,53.9903183 118.883495,53.4729004 C118.86201,52.9554824 118.851268,52.5517593 118.851268,52.2617188 L118.851268,48.1474609 L120.027538,48.1474609 L120.027538,56 Z M128.642674,56 L124.20078,56 L124.20078,48.1474609 L128.642674,48.1474609 L128.642674,49.2324219 L125.484471,49.2324219 L125.484471,51.3701172 L128.443944,51.3701172 L128.443944,52.4443359 L125.484471,52.4443359 L125.484471,54.909668 L128.642674,54.909668 L128.642674,56 Z M136.967772,53.8676758 C136.967772,54.5659215 136.715333,55.1137675 136.210448,55.5112305 C135.705562,55.9086934 135.009118,56.1074219 134.121092,56.1074219 C133.233067,56.1074219 132.506186,55.9695652 131.940428,55.6938477 L131.940428,54.4799805 C132.298503,54.6482756 132.678952,54.7807612 133.081786,54.8774414 C133.48462,54.9741216 133.859697,55.0224609 134.20703,55.0224609 C134.715496,55.0224609 135.090574,54.9257822 135.332274,54.7324219 C135.573974,54.5390615 135.694823,54.2794613 135.694823,53.9536133 C135.694823,53.659992 135.583821,53.4111338 135.361815,53.2070312 C135.139809,53.0029287 134.68148,52.7612319 133.986815,52.4819336 C133.270666,52.1918931 132.765788,51.8606789 132.472167,51.4882812 C132.178545,51.1158836 132.031737,50.6682969 132.031737,50.1455078 C132.031737,49.4902311 132.264482,48.9746113 132.729979,48.5986328 C133.195476,48.2226544 133.820307,48.034668 134.604491,48.034668 C135.356448,48.034668 136.104813,48.1993799 136.849608,48.5288086 L136.441405,49.5761719 C135.743159,49.2825506 135.120118,49.1357422 134.572264,49.1357422 C134.156898,49.1357422 133.841797,49.2261547 133.626952,49.4069824 C133.412107,49.5878101 133.304686,49.8268214 133.304686,50.1240234 C133.304686,50.328126 133.347654,50.5026848 133.433592,50.6477051 C133.51953,50.7927253 133.660968,50.9296869 133.857909,51.0585938 C134.05485,51.1875006 134.409338,51.3575836 134.921385,51.5688477 C135.497886,51.8087577 135.920407,52.032551 136.188963,52.2402344 C136.457519,52.4479177 136.654458,52.6824531 136.779784,52.9438477 C136.90511,53.2052422 136.967772,53.5131818 136.967772,53.8676758 Z" id="BRAND-GUIDELINES"></path>
                </g>
            </g>
        </g>
    </g>
</svg>