<?xml version="1.0" encoding="UTF-8"?>
<svg width="190px" height="57px" viewBox="0 0 190 57" version="1.1" xmlns="http://www.w3.org/2000/svg" xmlns:xlink="http://www.w3.org/1999/xlink">
    <!-- Generator: Sketch 41.2 (35397) - http://www.bohemiancoding.com/sketch -->
    <title>logo-my-ph</title>
    <desc>Created with Sketch.</desc>
    <defs></defs>
    <g id="Pages" stroke="none" stroke-width="1" fill="none" fill-rule="evenodd">
        <g id="Web-Mobile" transform="translate(-65.000000, -2857.000000)" fill="#FFFFFF">
            <g id="Logo" transform="translate(13.000000, 374.000000)">
                <g id="Sub-brands" transform="translate(0.000000, 2119.000000)">
                    <g id="logo-my-ph" transform="translate(52.000000, 364.000000)">
                        <g id="design">
                            <g>
                                <g id="Desktop-HD">
                                    <g id="sub-brands">
                                        <g id="logo-box-2">
                                            <g id="logo-my-ph">
                                                <path d="M0,26.2918257 L0,18.8602941 L29.3382353,18.8602941 L29.3382353,39.1176471 L0,39.1176471 L0,35.6619428 L2.10533535,35.6619428 L2.10533535,31.4936186 C2.10533535,30.5921997 2.1842801,29.9319345 2.34217195,29.5128035 C2.50006381,29.0936723 2.7383334,28.7678458 3.05698788,28.5353142 C3.37564235,28.3027825 3.73017602,28.1865184 4.12059952,28.1865184 C4.47083237,28.1865184 4.76938704,28.2783814 5.01627249,28.4621102 C5.26315794,28.6458388 5.44831925,28.9257338 5.57176197,29.3018036 C5.6952047,29.6778732 5.75692514,30.2850301 5.75692514,31.1232923 L5.75692514,35.6619428 L8.12529118,35.6619428 L8.12529118,31.433333 C8.12529118,30.5376555 8.20280057,29.8874379 8.35782164,29.4826606 C8.51284271,29.0778833 8.74967694,28.760669 9.06833146,28.5310081 C9.3869859,28.3013472 9.74726104,28.1865184 10.1491676,28.1865184 C10.6773876,28.1865184 11.0735467,28.3745505 11.3376567,28.7506202 C11.6017667,29.1266899 11.7338197,29.8458047 11.7338197,30.9079863 L11.7338197,35.6619428 L14.1021857,35.6619428 L14.1021857,30.1673337 C14.1021857,29.0419953 13.9916631,28.2295822 13.7706145,27.7300697 C13.5495659,27.2305573 13.1864201,26.8257861 12.6811662,26.5157439 C12.1759122,26.2057017 11.5902858,26.0506829 10.9242692,26.0506829 C10.2812187,26.0506829 9.68841546,26.1942188 9.14584161,26.4812949 C8.60326776,26.768371 8.14538822,27.1874959 7.77218932,27.7386819 C7.48511322,27.1874959 7.1061784,26.768371 6.63537363,26.4812949 C6.16456881,26.1942188 5.63635671,26.0506829 5.05072145,26.0506829 C4.47082772,26.0506829 3.93543882,26.1597702 3.44453868,26.377948 C2.95363854,26.5961259 2.50724189,26.9262584 2.10533535,27.3683557 L2.10533535,26.2918257 L4.84702147e-17,26.2918257 L0,26.2918257 Z M15.2992872,26.2918257 L17.7021021,26.2918257 L20.139366,32.1739856 L22.8263849,26.2918257 L25.2378122,26.2918257 L19.3642644,39.0896144 L16.9356128,39.0896144 L18.8647545,34.9643513 L15.2992872,26.2918257 Z" id="Rectangle-1"></path>
                                                <path d="M49.6178574,24.9562478 C47.875818,23.1258602 45.8923203,22.1915733 43.7179315,22.1915733 C41.862116,22.1915733 40.2717781,22.8458287 38.9949567,24.1212448 C37.7206637,25.405571 37.074668,27.0093877 37.074668,28.8855986 C37.074668,30.1902908 37.3578442,31.3727874 37.9241967,32.3834465 C38.4918133,33.4081071 39.3021524,34.2100154 40.3324587,34.7878986 C41.3577083,35.3606903 42.5232819,35.6572691 43.784933,35.6572691 C44.8594856,35.6572691 45.8543949,35.4510641 46.7456415,35.0513828 C47.615397,34.6504286 48.5837585,33.9185281 49.615329,32.8964132 C49.720256,33.0046072 51.8807388,35.2792265 51.9970433,35.3886934 C50.60771,36.7443004 49.2752647,37.6976803 48.037633,38.2259215 C46.7797743,38.7630728 45.3259679,39.0418314 43.7229883,39.0418314 C40.7584872,39.0418314 38.2958655,38.07445 36.4109738,36.1855103 C34.5197612,34.2914791 33.5665698,31.8386579 33.5665698,28.8754157 C33.5665698,26.9597458 33.9989192,25.2375521 34.8572971,23.7495667 C35.7194676,22.2692184 36.9684769,21.0510815 38.5689282,20.1409791 C40.1769646,19.2385141 41.9291174,18.7828264 43.7748196,18.7828264 C45.3474589,18.7828264 46.8847013,19.1201371 48.341036,19.7896669 C49.7758799,20.4490138 51.0210967,21.3985751 52.0691016,22.6065291 L49.6178574,24.9562478 L49.6178574,24.9562478 Z M57.2230796,34.6736156 L57.2230796,34.6736156 C56.476293,33.9188092 56.091391,32.9357492 56.091391,31.731682 C56.091391,30.5626378 56.4801293,29.5880316 57.2371457,28.8356406 C58.0005559,28.0784188 58.9660077,27.6967886 60.1104837,27.6967886 C61.2754195,27.6967886 62.2549375,28.0747957 63.0055603,28.8211483 C63.7587406,29.5638778 64.1359701,30.5433147 64.1359701,31.731682 C64.1359701,32.9152185 63.7510681,33.8994861 62.9799854,34.660331 C62.2204114,35.4199682 61.2485659,35.8003906 60.0951388,35.8003906 C58.9429904,35.8003906 57.9775385,35.4199682 57.2230796,34.6736156 C57.2230796,34.6736156 57.9775385,35.4199682 57.2230796,34.6736156 L57.2230796,34.6736156 L57.2230796,34.6736156 L57.2230796,34.6736156 L57.2230796,34.6736156 Z M55.2483835,26.3305045 C53.6725887,27.779715 52.8735595,29.6014732 52.8735595,31.7597661 C52.8735595,33.7715235 53.5798222,35.5075957 54.9750313,36.915826 C56.3714773,38.3178471 58.0746714,39.0418314 60.0425595,39.0418314 C61.3858194,39.0418314 62.6276544,38.7152312 63.7408532,38.0719656 C64.854052,37.4349091 65.744611,36.5370692 66.3890294,35.4070079 C67.0297371,34.267012 67.3538017,33.035121 67.3538017,31.7349295 C67.3538017,30.4421891 67.0359215,29.217749 66.3939769,28.0988642 C65.7532692,26.9799793 64.854052,26.0821394 63.7086941,25.4326646 C62.5658101,24.7807061 61.3301594,24.4553478 60.0326644,24.4553478 C58.2367037,24.4553478 56.6262761,25.0886789 55.2483835,26.3305045 L55.2483835,26.3305045 L55.2483835,26.3305045 L55.2483835,26.3305045 L55.2483835,26.3305045 Z M68.9627175,19.5931866 L68.9627175,39.0418314 L72.1805488,39.0418314 L72.1805488,19.5931866 L68.9627175,19.5931866 L68.9627175,19.5931866 Z M78.9460003,34.6736156 L78.9460003,34.6736156 C78.191541,33.9188092 77.8117541,32.9357492 77.8117541,31.731682 C77.8117541,30.5626378 78.1966564,29.5880316 78.9575093,28.8356406 C79.7209195,28.0784188 80.6850926,27.6967886 81.8270108,27.6967886 C82.9983406,27.6967886 83.9701857,28.0747957 84.7233659,28.8211483 C85.4727099,29.5638778 85.8563331,30.5433147 85.8563331,31.731682 C85.8563331,32.9152185 85.4701525,33.8994861 84.702906,34.660331 C83.9394958,35.4199682 82.9650933,35.8003906 81.8142235,35.8003906 C80.6620747,35.8003906 79.6966232,35.4199682 78.9460003,34.6736156 C78.9460003,34.6736156 79.6966232,35.4199682 78.9460003,34.6736156 L78.9460003,34.6736156 L78.9460003,34.6736156 L78.9460003,34.6736156 L78.9460003,34.6736156 Z M76.9683413,26.3305045 C75.3903424,27.779715 74.5939225,29.6014732 74.5939225,31.7597661 C74.5939225,33.7715235 75.3013015,35.5075957 76.693799,36.915826 C78.0900063,38.3178471 79.7916728,39.0418314 81.7641718,39.0418314 C83.1047287,39.0418314 84.345115,38.7152312 85.4593603,38.0719656 C86.5674221,37.4349091 87.4590656,36.5370692 88.1033744,35.4070079 C88.7464455,34.267012 89.0741647,33.035121 89.0741647,31.7349295 C89.0741647,30.4421891 88.7501561,29.217749 88.1095578,28.0988642 C87.4677224,26.9799793 86.5674221,26.0821394 85.4272069,25.4326646 C84.2832812,24.7807061 83.0478418,24.4553478 81.751805,24.4553478 C79.9598612,24.4553478 78.3484719,25.0886789 76.9683413,26.3305045 L76.9683413,26.3305045 L76.9683413,26.3305045 L76.9683413,26.3305045 L76.9683413,26.3305045 Z M97.0311489,24.855117 L97.0311489,24.855117 C96.4077372,25.1122934 95.6989255,25.5948174 94.9205758,26.2759528 L94.7900374,26.3943558 L94.7900374,24.8232883 L91.4875385,24.8232883 L91.4875385,39.0418314 L94.7900374,39.0418314 L94.7900374,33.3521225 C94.7900374,31.831981 94.8400563,30.8745719 94.9437551,30.409872 C95.1413928,29.5364909 95.5000681,28.8400776 96.0088022,28.343549 C96.5248555,27.8444741 97.1507078,27.5923903 97.8704983,27.5923903 C98.4243714,27.5923903 98.8977257,27.7438952 99.2808006,28.046905 C99.6541164,28.3575536 99.9273929,28.8057026 100.079891,29.3824397 C100.229949,29.9617231 100.303148,31.0820954 100.303148,32.8275845 L100.303148,39.0418314 L103.554407,39.0418314 L103.554407,29.6154262 C103.554407,27.9908863 103.160352,26.7419259 102.379562,25.9232902 C101.445054,24.9416912 100.298268,24.4553478 98.9611647,24.4553478 C98.3048132,24.4553478 97.6582215,24.5890286 97.0311489,24.855117 L97.0311489,24.855117 Z M106.772239,24.4553478 L106.772239,39.0418314 L109.99007,39.0418314 L109.99007,24.4553478 L106.772239,24.4553478 L106.772239,24.4553478 Z M116.425733,31.721132 C116.425733,30.5511953 116.803985,29.5758501 117.560488,28.8249418 C118.313145,28.0692583 119.274802,27.6967886 120.415968,27.6967886 C121.581496,27.6967886 122.561104,28.058514 123.324018,28.8070346 C124.089497,29.544811 124.470313,30.5189624 124.470313,31.708 C124.470313,32.9233015 124.089497,33.9177477 123.324018,34.668656 C122.561104,35.4207581 121.589189,35.8003906 120.431355,35.8003906 C119.304293,35.8003906 118.343918,35.4100138 117.577157,34.6483612 C116.811679,33.8867085 116.425733,32.8994253 116.425733,31.721132 C116.425733,31.721132 116.425733,32.8994253 116.425733,31.721132 L116.425733,31.721132 L116.425733,31.721132 L116.425733,31.721132 L116.425733,31.721132 Z M115.120552,26.4956673 L115.120552,26.4956673 C113.84963,27.8629173 113.207902,29.6337606 113.207902,31.7771516 C113.207902,33.8274057 113.872191,35.569687 115.176954,36.9518389 C116.498012,38.3364745 118.069744,39.0418314 119.86583,39.0418314 C120.66047,39.0418314 121.413748,38.9015052 122.099344,38.6109179 C122.781181,38.332749 123.471791,37.8608552 124.161147,37.2200733 L124.297765,37.0822306 L124.297765,38.6829438 L127.688144,38.6829438 L127.688144,24.8142355 L124.297765,24.8142355 L124.297765,26.4832491 L124.157387,26.3305045 C123.533206,25.7120754 122.846356,25.237698 122.114385,24.9210324 C121.383668,24.6093342 120.595295,24.4553478 119.760547,24.4553478 C117.945659,24.4553478 116.386461,25.1445611 115.120552,26.4956673 L115.120552,26.4956673 L115.120552,26.4956673 L115.120552,26.4956673 L115.120552,26.4956673 Z M130.905976,19.5931866 L130.905976,39.0418314 L134.123807,39.0418314 L134.123807,19.5931866 L130.905976,19.5931866 L130.905976,19.5931866 Z M142.972844,18.7828264 L142.972844,39.0418314 L151.821881,39.0418314 L151.821881,35.5918812 L146.475825,35.5918812 L146.475825,18.7828264 L142.972844,18.7828264 L142.972844,18.7828264 Z M163.841151,19.4589803 C163.290552,19.9071885 162.958649,20.5282767 162.864739,21.3004752 C162.81714,21.6411134 162.781119,22.7680366 162.775974,24.6505104 L162.775974,24.740152 L161.475376,24.740152 L161.475376,27.6368568 L162.775974,27.6368568 L162.775974,39.0418314 L166.258384,39.0418314 L166.258384,27.6368568 L168.561124,27.6368568 L168.561124,24.740152 L166.258384,24.740152 L166.267389,22.8410304 C166.267389,22.3941029 166.345863,22.103408 166.504096,21.954859 C166.726651,21.7576475 167.059841,21.6577611 167.503665,21.6577611 C167.821417,21.6577611 168.234366,21.7384386 168.715497,21.8690592 L168.715497,19.2784165 C167.803406,18.9531455 166.96207,18.7828264 166.235228,18.7828264 C165.207358,18.7828264 164.399469,19.0094917 163.841151,19.4589803 L163.841151,19.4589803 Z M176.823399,26.8864284 C177.761849,26.8864284 178.601515,27.104506 179.313268,27.5342153 C180.026287,27.9671474 180.506276,28.5397351 180.749438,29.2218987 L180.782366,29.317509 L172.737787,29.317509 L172.794778,29.2133045 C173.202579,28.4580903 173.655973,27.9198794 174.13343,27.6094144 C174.904707,27.1335113 175.812761,26.8864284 176.823399,26.8864284 C176.823399,26.8864284 175.812761,26.8864284 176.823399,26.8864284 L176.823399,26.8864284 L176.823399,26.8864284 L176.823399,26.8864284 L176.823399,26.8864284 Z M171.559478,26.547824 C170.207199,27.936185 169.519955,29.7132375 169.519955,31.824341 C169.519955,33.8770787 170.207199,35.6143928 171.564413,36.9816427 C172.915458,38.346409 174.693409,39.0418314 176.857549,39.0418314 C178.246842,39.0418314 179.460933,38.788499 180.470206,38.2942524 C181.456037,37.8099404 182.30368,37.0573941 183.0156,36.0589663 C182.834227,35.9782477 180.301171,34.7823696 180.209868,34.7389057 C179.265987,35.647922 178.13333,36.111123 176.829171,36.111123 C175.717489,36.111123 174.785946,35.811843 174.071558,35.2058321 C173.359637,34.6060303 172.905588,33.7827 172.74519,32.7693703 L172.726682,32.6725079 L183.984158,32.6725079 C183.992794,32.5445999 184.000197,32.0826407 184.000197,32.0826407 C184.000197,29.8026489 183.315421,27.936185 181.955739,26.547824 C180.607161,25.1582211 178.827977,24.4553478 176.655201,24.4553478 C174.626782,24.4553478 172.905588,25.1582211 171.559478,26.547824 L171.559478,26.547824 L171.559478,26.547824 L171.559478,26.547824 L171.559478,26.547824 Z M155.039713,24.4553478 L155.039713,39.0418314 L158.257545,39.0418314 L158.257545,24.4553478 L155.039713,24.4553478 L155.039713,24.4553478 Z M186.865865,36.4990013 L187.124709,36.4990013 C187.424422,36.4990013 187.66828,36.3963884 187.66828,36.1447762 C187.66828,35.9226826 187.511612,35.7764945 187.166941,35.7764945 C187.023897,35.7764945 186.923083,35.7891454 186.865865,35.8046076 L186.865865,36.4990013 L186.865865,36.4990013 L186.865865,36.4990013 L186.865865,36.4990013 Z M186.853605,37.8596754 L186.307309,37.8596754 L186.307309,35.4349203 C186.521195,35.4068072 186.822271,35.3618262 187.209174,35.3618262 C187.653295,35.3618262 187.85492,35.4349203 188.012951,35.5529953 C188.155996,35.6570138 188.255446,35.8341264 188.255446,36.0702764 C188.255446,36.3668697 188.04156,36.5580387 187.769093,36.6480007 L187.769093,36.6761138 C187.997965,36.7506135 188.111038,36.9431883 188.184604,37.2678946 C188.255446,37.6375819 188.312664,37.7697135 188.354896,37.8596754 L187.782716,37.8596754 C187.711875,37.7697135 187.66828,37.5630822 187.596077,37.2678946 C187.555206,37.0162823 187.410799,36.8968017 187.109723,36.8968017 L186.853605,36.8968017 L186.853605,37.8596754 L186.853605,37.8596754 L186.853605,37.8596754 L186.853605,37.8596754 Z M185.405444,36.6030197 C185.405444,37.6825629 186.192873,38.5386069 187.237783,38.5386069 C188.255446,38.5540691 189.027889,37.6825629 189.027889,36.6170763 C189.027889,35.5389387 188.255446,34.6674326 187.209174,34.6674326 C186.192873,34.6674326 185.405444,35.5389387 185.405444,36.6030197 C185.405444,36.6030197 185.405444,35.5389387 185.405444,36.6030197 L185.405444,36.6030197 L185.405444,36.6030197 L185.405444,36.6030197 L185.405444,36.6030197 Z M189.631403,36.6030197 C189.631403,37.9622883 188.571507,39.0418314 187.224159,39.0418314 C185.878174,39.0418314 184.804655,37.9622883 184.804655,36.6030197 C184.804655,35.2437512 185.878174,34.1796702 187.237783,34.1796702 C188.571507,34.1796702 189.631403,35.2437512 189.631403,36.6030197 L189.631403,36.6030197 L189.631403,36.6030197 L189.631403,36.6030197 L189.631403,36.6030197 Z" id="logo"></path>
                                                <path d="M105.967781,15.9477711 C105.967781,17.5111499 107.230195,18.7828264 108.782187,18.7828264 C110.337769,18.7828264 111.598986,17.5111499 111.598986,15.9477711 C111.598986,14.3771602 110.337769,13.110305 108.782187,13.110305 C107.230195,13.110305 105.967781,14.3771602 105.967781,15.9477711 Z M119.645326,15.5413856 C120.97324,15.5413856 122.056939,13.9025642 122.056939,11.8965884 C122.056939,9.8857496 120.97324,8.24814386 119.645326,8.24814386 C118.312716,8.24814386 117.230191,9.8857496 117.230191,11.8965884 C117.230191,13.9025642 118.312716,15.5413856 119.645326,15.5413856 Z M145.386218,4.20181419 C145.386218,6.43167256 146.288103,8.24814386 147.397937,8.24814386 C148.505475,8.24814386 149.408508,6.43167256 149.408508,4.20181419 C149.408508,1.96466075 148.546835,0.144541895 147.440446,0.144541895 C146.328314,0.144541895 145.386218,1.96466075 145.386218,4.20181419 Z M127.688144,6.21784112 C127.688144,8.67682179 128.586351,10.6792245 129.69667,10.6792245 C130.808299,10.6792245 131.710434,8.67682179 131.710434,6.21784112 C131.710434,3.76263381 130.808299,1.76526229 129.69667,1.76526229 C128.586351,1.76526229 127.688144,3.76263381 127.688144,6.21784112 Z M154.235255,14.7316437 C154.235255,16.515889 155.323046,17.9724662 156.651851,17.9724662 C157.981945,17.9724662 159.062002,16.515889 159.062002,14.7316437 C159.062002,12.9399795 157.981945,11.4895847 156.651851,11.4895847 C155.323046,11.4895847 154.235255,12.9399795 154.235255,14.7316437 Z M136.537181,9.05914468 C136.537181,12.1314668 137.464984,14.7310254 138.549005,14.7310254 C139.642536,14.7310254 140.559471,12.1314668 140.559471,9.05914468 C140.559471,5.98169773 139.642536,3.38598269 138.549005,3.38598269 C137.464984,3.38598269 136.537181,5.98169773 136.537181,9.05914468 Z" id="logo-dots"></path>
                                                <path d="M88.0307364,44.2539529 L87.9076074,45.1093786 C87.5835805,44.7983132 87.279,44.6427828 86.9938568,44.6427828 C86.8124019,44.6427828 86.6568716,44.7313487 86.5272608,44.9084832 C86.3976508,45.0856177 86.2961238,45.4442016 86.2226776,45.9842457 L86.112509,46.7359835 L87.5641404,46.7359835 L87.4669331,47.5330847 L86.0153017,47.5330847 L85.1339545,53.7867647 L84.2461257,53.7867647 L85.1339545,47.5330847 L84.2461257,47.5330847 L84.3433338,46.7359835 L85.2376421,46.7359835 L85.321889,46.1138557 C85.4255773,45.383716 85.5357444,44.8955234 85.652394,44.6492633 C85.7690435,44.4030031 85.9418548,44.2053499 86.1708341,44.0562978 C86.3998128,43.9072456 86.6525491,43.8327206 86.9290522,43.8327206 C87.2919619,43.8327206 87.6591865,43.97313 88.0307364,44.2539529 L88.0307364,44.2539529 Z M92.2884234,46.5545295 C92.8889526,46.5545295 93.4397892,46.6981791 93.9409505,46.9854826 C94.4421111,47.2727861 94.8330976,47.6724128 95.1139204,48.1843746 C95.3947432,48.6963365 95.5351525,49.2763352 95.5351525,49.9243882 C95.5351525,50.6631686 95.3558609,51.3490144 94.9972715,51.9819462 C94.6386822,52.6148779 94.15697,53.1041506 93.5521204,53.4497788 C92.9472707,53.7954071 92.2625051,53.9682186 91.4978026,53.9682186 C90.5516453,53.9682186 89.7729135,53.6582379 89.1615836,53.0382672 C88.5502537,52.4182966 88.2445933,51.6287638 88.2445933,50.6696455 C88.2445933,49.917904 88.4238849,49.2244976 88.7824742,48.5894057 C89.1410636,47.9543138 89.6324965,47.4564006 90.2567876,47.0956511 C90.8810787,46.7349016 91.5582834,46.5545295 92.2884234,46.5545295 L92.2884234,46.5545295 Z M92.2689819,47.4164357 C91.7073363,47.4164357 91.179181,47.5568451 90.6845,47.837668 C90.1898196,48.118491 89.8096345,48.5040767 89.5439328,48.9944368 C89.278231,49.4847969 89.1453819,50.025913 89.1453819,50.6178014 C89.1453819,51.3609022 89.3743578,51.9646625 89.832315,52.4291005 C90.2902723,52.8935385 90.8821517,53.1257539 91.6079712,53.1257539 C92.1739372,53.1257539 92.6869714,52.990745 93.1470893,52.7207229 C93.6072071,52.4507008 93.9733511,52.0607948 94.2455337,51.5509931 C94.5177157,51.0411914 94.6538053,50.4946749 94.6538053,49.9114272 C94.6538053,49.4232273 94.5522783,48.9901184 94.3492214,48.6120875 C94.1461651,48.2340565 93.8588656,47.9402769 93.4873157,47.7307398 C93.1157651,47.5212027 92.7096583,47.4164357 92.2689819,47.4164357 L92.2689819,47.4164357 Z M97.4339384,46.7359835 L98.3347277,46.7359835 L98.2180789,47.6238116 C98.4600181,47.2868241 98.751638,47.0243665 99.0929458,46.8364311 C99.4342535,46.6484958 99.7841972,46.5545295 100.142787,46.5545295 C100.397687,46.5545295 100.663385,46.6150136 100.939888,46.7359835 L100.512175,47.5654871 C100.287516,47.4747597 100.099584,47.4293967 99.9483712,47.4293967 C99.6329858,47.4293967 99.3208445,47.539564 99.0119394,47.759902 C98.7030343,47.9802401 98.4524579,48.3010215 98.2602016,48.722256 C98.0679461,49.1434904 97.9048555,49.8358166 97.7709244,50.7992553 L97.3561725,53.7867647 L96.4748247,53.7867647 L97.4339384,46.7359835 Z M105.560482,46.7359835 L106.480713,46.7359835 L106.344623,47.7923045 C107.161169,46.9671171 108.094352,46.5545295 109.144197,46.5545295 C110.107636,46.5545295 110.897169,46.8634301 111.512819,47.4812406 C112.128469,48.0990512 112.43629,48.8939842 112.43629,49.8660637 C112.43629,50.9893556 112.036664,51.95386 111.237398,52.7596058 C110.438133,53.5653518 109.49631,53.9682186 108.411901,53.9682186 C107.824333,53.9682186 107.308059,53.8440103 106.863062,53.5955901 C106.418066,53.3471697 106.040041,52.9615839 105.728975,52.4388212 L105.217016,56.3660027 L104.277344,56.3660027 L105.560482,46.7359835 Z M109.04699,47.3840332 C108.468063,47.3840332 107.937747,47.5212024 107.456028,47.7955448 C106.974309,48.0698873 106.593043,48.4641136 106.31222,48.9782356 C106.031397,49.4923576 105.890988,50.051835 105.890988,50.6566844 C105.890988,51.3868241 106.123203,51.9808638 106.587641,52.4388212 C107.052079,52.8967787 107.651519,53.1257539 108.385979,53.1257539 C109.25437,53.1257539 109.99746,52.8125331 110.61527,52.1860818 C111.233081,51.5596306 111.541981,50.7906193 111.541981,49.8790247 C111.541981,49.1316036 111.311926,48.5289233 110.851808,48.0709659 C110.391691,47.6130085 109.79009,47.3840332 109.04699,47.3840332 L109.04699,47.3840332 Z M117.698454,46.5545295 C118.298983,46.5545295 118.84982,46.6981791 119.350981,46.9854826 C119.852142,47.2727861 120.243128,47.6724128 120.523951,48.1843746 C120.804774,48.6963365 120.945183,49.2763352 120.945183,49.9243882 C120.945183,50.6631686 120.765892,51.3490144 120.407302,51.9819462 C120.048713,52.6148779 119.567001,53.1041506 118.962151,53.4497788 C118.357301,53.7954071 117.672536,53.9682186 116.907833,53.9682186 C115.961676,53.9682186 115.182944,53.6582379 114.571614,53.0382672 C113.960284,52.4182966 113.654623,51.6287638 113.654623,50.6696455 C113.654623,49.917904 113.833916,49.2244976 114.192505,48.5894057 C114.551094,47.9543138 115.042527,47.4564006 115.666818,47.0956511 C116.291109,46.7349016 116.968314,46.5545295 117.698454,46.5545295 L117.698454,46.5545295 Z M117.679013,47.4164357 C117.117366,47.4164357 116.589211,47.5568451 116.094531,47.837668 C115.59985,48.118491 115.219665,48.5040767 114.953963,48.9944368 C114.688262,49.4847969 114.555413,50.025913 114.555413,50.6178014 C114.555413,51.3609022 114.784388,51.9646625 115.242346,52.4291005 C115.700303,52.8935385 116.292182,53.1257539 117.018002,53.1257539 C117.583968,53.1257539 118.097002,52.990745 118.55712,52.7207229 C119.017238,52.4507008 119.383382,52.0607948 119.655564,51.5509931 C119.927746,51.0411914 120.063835,50.4946749 120.063835,49.9114272 C120.063835,49.4232273 119.962309,48.9901184 119.759252,48.6120875 C119.556196,48.2340565 119.268896,47.9402769 118.897346,47.7307398 C118.525796,47.5212027 118.119688,47.4164357 117.679013,47.4164357 L117.679013,47.4164357 Z M123.440174,44.0141745 L124.328003,44.0141745 L122.967098,53.7867647 L122.07279,53.7867647 L123.440174,44.0141745 Z M126.414723,43.8327206 C126.613459,43.8327206 126.784111,43.9040054 126.926682,44.046577 C127.069254,44.1891486 127.140539,44.3598001 127.140539,44.5585363 C127.140539,44.7615929 127.069254,44.9333244 126.926682,45.0737358 C126.784111,45.2141473 126.613459,45.284352 126.414723,45.284352 C126.211667,45.284352 126.039935,45.2141473 125.899523,45.0737358 C125.759112,44.9333244 125.688908,44.7615929 125.688908,44.5585363 C125.688908,44.3598001 125.759112,44.1891486 125.899523,44.046577 C126.039935,43.9040054 126.211667,43.8327206 126.414723,43.8327206 L126.414723,43.8327206 Z M125.701868,46.7359835 L126.563774,46.7359835 L125.624102,53.7867647 L124.729794,53.7867647 L125.701868,46.7359835 Z M135.059707,48.2589004 L134.314449,48.6930937 C133.791687,47.8463045 132.992434,47.4229162 131.916665,47.4229162 C131.294535,47.4229162 130.726417,47.5611654 130.212295,47.837668 C129.698172,48.1141706 129.296386,48.4986763 129.006922,48.9911966 C128.717459,49.4837169 128.572729,50.010792 128.572729,50.572438 C128.572729,51.0692786 128.680736,51.5142683 128.896754,51.9074204 C129.112771,52.3005726 129.416272,52.6029928 129.807264,52.8146901 C130.198256,53.0263874 130.659447,53.1322345 131.19085,53.1322345 C131.735214,53.1322345 132.254729,53.0242272 132.74941,52.8082096 C133.24409,52.592192 133.629675,52.3135333 133.906178,51.9722254 L134.651435,52.4971457 C134.184837,53.0069474 133.678283,53.3795723 133.131759,53.6150315 C132.585234,53.8504908 131.951231,53.9682186 131.229733,53.9682186 C130.115082,53.9682186 129.245624,53.6647183 128.621333,53.0577087 C127.997042,52.4506991 127.684901,51.6417251 127.684901,50.6307624 C127.684901,49.5074706 128.094248,48.5472865 128.912955,47.7501813 C129.731662,46.9530761 130.735049,46.5545295 131.923146,46.5545295 C132.636004,46.5545295 133.264606,46.7046596 133.80897,47.0049241 C134.353335,47.3051887 134.770243,47.7231766 135.059707,48.2589004 L135.059707,48.2589004 Z M136.187314,46.7359835 L137.120505,46.7359835 L138.948005,51.9398229 L141.967917,46.7359835 L142.972394,46.7359835 L137.386205,56.3660027 L136.368767,56.3660027 L138.36476,52.9248586 L136.187314,46.7359835 Z M144.605479,44.0141745 L145.486827,44.0141745 L144.968387,47.8052655 C145.694207,46.9714374 146.523702,46.5545295 147.456898,46.5545295 C148.169756,46.5545295 148.751916,46.7770244 149.203393,47.2220208 C149.654869,47.6670171 149.880604,48.2459358 149.880604,48.9587941 C149.880604,49.3519462 149.833081,49.8811816 149.738033,50.546516 L149.29736,53.7867647 L148.403051,53.7867647 L148.843725,50.546516 C148.934452,49.8941426 148.979815,49.375708 148.979815,48.9911966 C148.979815,48.507317 148.828605,48.1163309 148.52618,47.8182265 C148.223756,47.5201222 147.82629,47.3710722 147.333769,47.3710722 C146.875812,47.3710722 146.442703,47.4942005 146.034429,47.7404606 C145.626156,47.9867207 145.310775,48.3193829 145.088276,48.7384572 C144.865779,49.1575314 144.691887,49.8228558 144.566596,50.7344504 L144.145364,53.7867647 L143.264017,53.7867647 L144.605479,44.0141745 Z M155.499196,46.5545295 C156.099725,46.5545295 156.650562,46.6981791 157.151723,46.9854826 C157.652883,47.2727861 158.04387,47.6724128 158.324693,48.1843746 C158.605516,48.6963365 158.745925,49.2763352 158.745925,49.9243882 C158.745925,50.6631686 158.566633,51.3490144 158.208044,51.9819462 C157.849455,52.6148779 157.367742,53.1041506 156.762893,53.4497788 C156.158043,53.7954071 155.473278,53.9682186 154.708575,53.9682186 C153.762418,53.9682186 152.983686,53.6582379 152.372356,53.0382672 C151.761026,52.4182966 151.455365,51.6287638 151.455365,50.6696455 C151.455365,49.917904 151.634657,49.2244976 151.993247,48.5894057 C152.351836,47.9543138 152.843269,47.4564006 153.46756,47.0956511 C154.091851,46.7349016 154.769056,46.5545295 155.499196,46.5545295 L155.499196,46.5545295 Z M155.479754,47.4164357 C154.918108,47.4164357 154.389953,47.5568451 153.895272,47.837668 C153.400592,48.118491 153.020407,48.5040767 152.754705,48.9944368 C152.489003,49.4847969 152.356154,50.025913 152.356154,50.6178014 C152.356154,51.3609022 152.585129,51.9646625 153.043087,52.4291005 C153.501045,52.8935385 154.092924,53.1257539 154.818744,53.1257539 C155.38471,53.1257539 155.897744,52.990745 156.357862,52.7207229 C156.817979,52.4507008 157.184123,52.0607948 157.456306,51.5509931 C157.728488,51.0411914 157.864577,50.4946749 157.864577,49.9114272 C157.864577,49.4232273 157.763051,48.9901184 157.559994,48.6120875 C157.356938,48.2340565 157.069638,47.9402769 156.698088,47.7307398 C156.326538,47.5212027 155.92043,47.4164357 155.479754,47.4164357 L155.479754,47.4164357 Z M161.240917,44.0141745 L162.128745,44.0141745 L160.76784,53.7867647 L159.873532,53.7867647 L161.240917,44.0141745 Z M169.717407,53.7867647 L168.803657,53.7867647 L168.939748,52.7239631 C168.123201,53.553471 167.187858,53.9682186 166.133692,53.9682186 C165.174573,53.9682186 164.386121,53.659318 163.768311,53.0415075 C163.1505,52.423697 162.841599,51.6287639 162.841599,50.6566844 C162.841599,49.5333926 163.242306,48.5688882 164.043732,47.7631423 C164.845157,46.9573964 165.78806,46.5545295 166.872469,46.5545295 C167.460037,46.5545295 167.975231,46.6776577 168.418068,46.9239179 C168.860904,47.170178 169.240009,47.5546837 169.555395,48.0774465 L170.080315,44.0141745 L171.019987,44.0141745 L169.717407,53.7867647 Z M166.230899,53.1387149 C166.814147,53.1387149 167.345543,53.0015458 167.825102,52.7272034 C168.304661,52.4528609 168.684847,52.0586346 168.965669,51.5445126 C169.246493,51.0303906 169.386902,50.4709132 169.386902,49.8660637 C169.386902,49.135924 169.155766,48.5418843 168.693489,48.0839269 C168.231211,47.6259695 167.630691,47.3969942 166.89191,47.3969942 C166.023519,47.3969942 165.28043,47.7102151 164.662619,48.3366663 C164.044809,48.9631176 163.735908,49.7321289 163.735908,50.6437234 C163.735908,51.3911445 163.967044,51.9938248 164.429322,52.4517822 C164.891599,52.9097397 165.492119,53.1387149 166.230899,53.1387149 L166.230899,53.1387149 Z M179.088206,50.442828 L172.802124,50.442828 C172.789163,51.2809765 173.007337,51.9398205 173.456655,52.4193798 C173.905971,52.8989389 174.504331,53.1387149 175.251752,53.1387149 C175.748592,53.1387149 176.208703,53.0371882 176.632098,52.8341316 C177.055493,52.631075 177.405436,52.345936 177.681939,51.9787059 L178.35591,52.5295482 C178.014602,52.9659039 177.568533,53.3147672 177.017688,53.5761485 C176.466843,53.8375299 175.871723,53.9682186 175.232311,53.9682186 C174.1263,53.9682186 173.295725,53.6258358 172.740559,52.9410598 C172.185394,52.2562838 171.907815,51.4861924 171.907815,50.6307624 C171.907815,49.9308652 172.094668,49.2569002 172.468379,48.6088472 C172.842089,47.9607942 173.342162,47.4564006 173.968614,47.0956511 C174.595065,46.7349016 175.27335,46.5545295 176.00349,46.5545295 C176.906443,46.5545295 177.653854,46.8601899 178.245742,47.4715199 C178.837631,48.0828499 179.13357,48.8615819 179.13357,49.8077392 C179.13357,49.9805534 179.118449,50.1922475 179.088206,50.442828 L179.088206,50.442828 Z M178.258703,49.6586878 C178.232781,48.9933534 178.005966,48.4543975 177.578251,48.0418037 C177.150535,47.62921 176.61266,47.4229162 175.964607,47.4229162 C175.26039,47.4229162 174.639348,47.6216495 174.101464,48.019122 C173.56358,48.4165944 173.182314,48.9631109 172.957656,49.6586878 L178.258703,49.6586878 Z M181.019395,46.7359835 L181.920184,46.7359835 L181.803535,47.6238116 C182.045475,47.2868241 182.337094,47.0243665 182.678402,46.8364311 C183.01971,46.6484958 183.369653,46.5545295 183.728243,46.5545295 C183.983144,46.5545295 184.248841,46.6150136 184.525344,46.7359835 L184.097631,47.5654871 C183.872973,47.4747597 183.68504,47.4293967 183.533828,47.4293967 C183.218442,47.4293967 182.906301,47.539564 182.597396,47.759902 C182.288491,47.9802401 182.037914,48.3010215 181.845658,48.722256 C181.653403,49.1434904 181.490311,49.8358166 181.356381,50.7992553 L180.941629,53.7867647 L180.060281,53.7867647 L181.019395,46.7359835 Z M188.64694,47.5266041 L188.154422,48.2589004 C187.75695,47.6929341 187.286039,47.4099552 186.741674,47.4099552 C186.430608,47.4099552 186.164911,47.5114819 185.944573,47.7145386 C185.724235,47.9175952 185.614067,48.1422502 185.614067,48.3885103 C185.614067,48.5786058 185.681032,48.760058 185.814963,48.9328721 C185.944574,49.1056862 186.240513,49.341142 186.702791,49.6392463 C187.376766,50.075602 187.821756,50.4557874 188.037774,50.7798139 C188.249471,51.1081607 188.355318,51.486186 188.355318,51.913901 C188.355318,52.5057893 188.149024,52.9961421 187.73643,53.3849739 C187.323837,53.7738057 186.787041,53.9682186 186.126027,53.9682186 C185.253315,53.9682186 184.518867,53.5815528 183.922658,52.8082096 L184.4735,52.1666404 C184.996263,52.8017323 185.564381,53.1192735 186.177871,53.1192735 C186.527819,53.1192735 186.8324,52.9961452 187.091621,52.7498851 C187.350842,52.503625 187.480451,52.2184859 187.480451,51.8944594 C187.480451,51.6309179 187.383245,51.378181 187.188828,51.1362412 C187.063538,50.9807085 186.726556,50.7171709 186.177871,50.3456206 C185.585982,49.9395074 185.197156,49.6025248 185.011381,49.3346629 C184.825606,49.0711214 184.73272,48.7730215 184.73272,48.4403543 C184.73272,47.9175916 184.929293,47.4726019 185.322445,47.1053718 C185.715597,46.7381418 186.21243,46.5545295 186.81296,46.5545295 C187.167229,46.5545295 187.48801,46.6258143 187.775314,46.7683859 C188.062617,46.9109576 188.353156,47.1636945 188.64694,47.5266041 L188.64694,47.5266041 Z" id="for-policyholders"></path>
                                            </g>
                                        </g>
                                    </g>
                                </g>
                            </g>
                        </g>
                    </g>
                </g>
            </g>
        </g>
    </g>
</svg>