<?xml version="1.0" encoding="UTF-8" standalone="no"?>
<svg width="272px" height="103px" viewBox="0 0 272 103" version="1.1" xmlns="http://www.w3.org/2000/svg" xmlns:xlink="http://www.w3.org/1999/xlink" xmlns:sketch="http://www.bohemiancoding.com/sketch/ns">
    <!-- Generator: Sketch 3.1 (8751) - http://www.bohemiancoding.com/sketch -->
    <title>logo-my-propr</title>
    <desc>Created with Sketch.</desc>
    <defs></defs>
    <g id="design" stroke="none" stroke-width="1" fill="none" fill-rule="evenodd" sketch:type="MSPage">
        <g id="Desktop-HD" sketch:type="MSArtboardGroup" transform="translate(-579.000000, -1110.000000)">
            <g id="sub-brands" sketch:type="MSLayerGroup" transform="translate(15.000000, 985.000000)">
                <g id="logo-box-3" transform="translate(490.000000, 83.000000)" sketch:type="MSShapeGroup">
                    <g id="logo-my-propr" transform="translate(74.000000, 42.000000)">
                        <path d="M0,37.6388241 L0,27 L42,27 L42,56 L0,56 L0,51.0528866 L3.01395376,51.0528866 L3.01395376,45.0856014 C3.01395376,43.795149 3.1269694,42.8499273 3.35300406,42.2499081 C3.57903872,41.6498888 3.92014045,41.1834424 4.37631949,40.850555 C4.83249852,40.5176676 5.34004146,40.3512264 5.89896353,40.3512264 C6.4003495,40.3512264 6.82775408,40.4827355 7.18119009,40.7457577 C7.5346261,41.0087798 7.79969914,41.4094716 7.97641714,41.9478451 C8.15313515,42.4862185 8.24149283,43.3554115 8.24149283,44.5554501 L8.24149283,51.0528866 L11.6319958,51.0528866 L11.6319958,44.9992977 C11.6319958,43.7170647 11.7429566,42.7862269 11.9648815,42.2067562 C12.1868064,41.6272855 12.5258533,41.1731682 12.9820324,40.8443905 C13.4382114,40.5156128 13.9539737,40.3512264 14.5293346,40.3512264 C15.2855233,40.3512264 15.8526563,40.6204091 16.2307506,41.1587826 C16.608845,41.697156 16.7978893,42.7266257 16.7978893,44.2472225 L16.7978893,51.0528866 L20.1883922,51.0528866 L20.1883922,43.1869198 C20.1883922,41.5759091 20.0301704,40.4128755 19.7137218,39.697784 C19.3972733,38.9826926 18.8774014,38.4032306 18.1540905,37.9593807 C17.4307796,37.5155308 16.5924091,37.2936092 15.6389538,37.2936092 C14.7183762,37.2936092 13.8697316,37.4990922 13.0929943,37.9100643 C12.316257,38.3210364 11.6607663,38.9210467 11.1265026,39.7101131 C10.7155305,38.9210467 10.1730554,38.3210364 9.49906119,37.9100643 C8.82506693,37.4990922 8.0688896,37.2936092 7.2305065,37.2936092 C6.40034284,37.2936092 5.63389136,37.4497763 4.93112906,37.7621151 C4.22836675,38.0744539 3.58931471,38.5470647 3.01395376,39.1799618 L3.01395376,37.6388241 L6.9388939e-17,37.6388241 L0,37.6388241 Z M21.9021374,37.6388241 L25.3419567,37.6388241 L28.8310924,46.0596004 L32.6777721,37.6388241 L36.1299206,37.6388241 L27.7214733,55.959869 L24.2446667,55.959869 L27.0063854,50.0542293 L21.9021374,37.6388241 Z" id="Rectangle-1" fill="#67A14C"></path>
                        <path d="M71.0318801,35.726839 C68.5380131,33.1064946 65.6984796,31.7689892 62.5856704,31.7689892 C59.9289239,31.7689892 57.6522297,32.7056074 55.8243591,34.5314663 C54.0001081,36.3700806 53.0753142,38.6660708 53.0753142,41.3520149 C53.0753142,43.2197847 53.4807033,44.9126219 54.2914816,46.3594602 C55.1040696,47.8263428 56.2641339,48.9743379 57.7390988,49.8016233 C59.2068245,50.6216198 60.8754351,51.0461957 62.6815883,51.0461957 C64.2198952,51.0461957 65.6441864,50.750997 66.9200762,50.1788217 C68.1651999,49.6048241 69.5514859,48.5570508 71.0282605,47.0938126 C71.1784717,47.2487008 74.2713734,50.504998 74.4378725,50.6617085 C72.4489322,52.6023669 70.5414316,53.9672055 68.7696641,54.7234245 C66.9689401,55.492399 64.8877014,55.8914639 62.5929095,55.8914639 C58.3489922,55.8914639 54.8235548,54.506581 52.1251835,51.8024147 C49.4177634,49.0909596 48.0531947,45.5795524 48.0531947,41.3374372 C48.0531947,38.5950045 48.672137,36.1295483 49.9009727,33.9993797 C51.1352378,31.8801443 52.9232933,30.1362851 55.2144657,28.8334017 C57.5164967,27.5414517 60.0248418,26.8890989 62.6671101,26.8890989 C64.9184675,26.8890989 67.1191513,27.3719858 69.2040095,28.3304705 C71.2581017,29.2743776 73.0407279,30.6337496 74.5410296,32.3630311 L71.0318801,35.726839 M81.919356,49.6380181 L81.919356,49.6380181 C80.8502721,48.5574531 80.2992545,47.1501252 80.2992545,45.4264079 C80.2992545,43.7528288 80.855764,42.3576032 81.9394928,41.280496 C83.0323748,40.1964732 84.4144953,39.6501395 86.052903,39.6501395 C87.7206006,39.6501395 89.1228579,40.1912865 90.1974337,41.2597492 C91.2756707,42.3230251 91.8157045,43.7251663 91.8157045,45.4264079 C91.8157045,47.1207338 91.2646869,48.5297906 90.1608212,49.6190001 C89.0734311,50.7064808 87.6821575,51.2510855 86.0309355,51.2510855 C84.3815441,51.2510855 82.9994236,50.7064808 81.919356,49.6380181 C81.919356,49.6380181 82.9994236,50.7064808 81.919356,49.6380181 L81.919356,49.6380181 L81.919356,49.6380181 L81.919356,49.6380181 L81.919356,49.6380181 Z M79.0924227,37.6941959 C76.8365481,39.7688551 75.6926746,42.3768458 75.6926746,45.4666125 C75.6926746,48.3466021 76.7037455,50.8319265 78.7010975,52.8479193 C80.7002202,54.8550232 83.138477,55.8914639 85.9556641,55.8914639 C87.8786467,55.8914639 89.6564316,55.42391 91.2500635,54.5030245 C92.8436955,53.5910277 94.118601,52.305699 95.0411368,50.6879271 C95.9583605,49.0559329 96.4222845,47.2923837 96.4222845,45.431057 C96.4222845,43.580397 95.967214,41.8275144 95.0482196,40.2257424 C94.1309959,38.6239704 92.8436955,37.3386417 91.2040253,36.4088672 C89.5678965,35.4755372 87.7989651,35.0097611 85.9414985,35.0097611 C83.370439,35.0097611 81.0649848,35.9164245 79.0924227,37.6941959 L79.0924227,37.6941959 L79.0924227,37.6941959 L79.0924227,37.6941959 L79.0924227,37.6941959 Z M98.7255745,28.0491935 L98.7255745,55.8914639 L103.332154,55.8914639 L103.332154,28.0491935 L98.7255745,28.0491935 M113.017432,49.6380181 L113.017432,49.6380181 C111.937364,48.5574531 111.393669,47.1501252 111.393669,45.4264079 C111.393669,43.7528288 111.944687,42.3576032 113.033908,41.280496 C114.12679,40.1964732 115.50708,39.6501395 117.141826,39.6501395 C118.818677,39.6501395 120.20995,40.1912865 121.288187,41.2597492 C122.360932,42.3230251 122.910119,43.7251663 122.910119,45.4264079 C122.910119,47.1207338 122.357271,48.5297906 121.258897,49.6190001 C120.166015,50.7064808 118.771081,51.2510855 117.12352,51.2510855 C115.474128,51.2510855 114.092008,50.7064808 113.017432,49.6380181 C113.017432,49.6380181 114.092008,50.7064808 113.017432,49.6380181 L113.017432,49.6380181 L113.017432,49.6380181 L113.017432,49.6380181 L113.017432,49.6380181 Z M110.186257,37.6941959 C107.927227,39.7688551 106.787089,42.3768458 106.787089,45.4666125 C106.787089,48.3466021 107.799758,50.8319265 109.793228,52.8479193 C111.792009,54.8550232 114.228079,55.8914639 117.051867,55.8914639 C118.97098,55.8914639 120.746691,55.42391 122.341821,54.5030245 C123.928099,53.5910277 125.204557,52.305699 126.126936,50.6879271 C127.047543,49.0559329 127.516699,47.2923837 127.516699,45.431057 C127.516699,43.580397 127.052855,41.8275144 126.135788,40.2257424 C125.21695,38.6239704 123.928099,37.3386417 122.295791,36.4088672 C120.658171,35.4755372 118.889542,35.0097611 117.034163,35.0097611 C114.468854,35.0097611 112.162023,35.9164245 110.186257,37.6941959 L110.186257,37.6941959 L110.186257,37.6941959 L110.186257,37.6941959 L110.186257,37.6941959 Z M138.90775,35.5820623 L138.90775,35.5820623 C138.015287,35.9502306 137.000567,36.6410018 135.886298,37.6161009 L135.699422,37.7856041 L135.699422,35.5364969 L130.971634,35.5364969 L130.971634,55.8914639 L135.699422,55.8914639 L135.699422,47.7461964 C135.699422,45.5699938 135.771028,44.1993872 135.919481,43.5341326 C136.202415,42.2838185 136.715887,41.286848 137.44418,40.5760281 C138.182951,39.8615629 139.078908,39.5006851 140.109345,39.5006851 C140.902258,39.5006851 141.579902,39.7175763 142.128304,40.1513587 C142.662735,40.5960768 143.053952,41.2376374 143.272265,42.0632821 C143.487085,42.892572 143.591875,44.4964734 143.591875,46.9952789 L143.591875,55.8914639 L148.246309,55.8914639 L148.246309,42.3968207 C148.246309,40.0711636 147.682188,38.2831781 146.564426,37.1112365 C145.226603,35.7060001 143.584889,35.0097611 141.67072,35.0097611 C140.731101,35.0097611 139.805454,35.2011357 138.90775,35.5820623 M152.852889,35.0097611 L152.852889,55.8914639 L157.459469,55.8914639 L157.459469,35.0097611 L152.852889,35.0097611 M166.672629,45.4113047 C166.672629,43.736448 167.214126,42.3401644 168.29712,41.2651799 C169.374608,40.1833592 170.751295,39.6501395 172.384965,39.6501395 C174.05351,39.6501395 175.455896,40.1679779 176.548068,41.2395443 C177.643911,42.2957295 178.189079,43.690304 178.189079,45.3925053 C178.189079,47.1323053 177.643911,48.5559335 176.548068,49.6309181 C175.455896,50.7076116 174.064523,51.2510855 172.406992,51.2510855 C170.793514,51.2510855 169.418662,50.6922303 168.320983,49.6018644 C167.22514,48.5114985 166.672629,47.0981246 166.672629,45.4113047 C166.672629,45.4113047 166.672629,47.0981246 166.672629,45.4113047 L166.672629,45.4113047 L166.672629,45.4113047 L166.672629,45.4113047 L166.672629,45.4113047 Z M164.804159,37.9306395 L164.804159,37.9306395 C162.984734,39.8879658 162.066049,42.4230678 162.066049,45.4915013 C162.066049,48.4266018 163.017031,50.9208151 164.884903,52.8994747 C166.776101,54.8816898 169.02616,55.8914639 171.597399,55.8914639 C172.734989,55.8914639 173.813366,55.6905758 174.794851,55.2745772 C175.770954,54.8763565 176.759616,54.2008033 177.746484,53.2834733 L177.942063,53.0861407 L177.942063,55.377688 L182.795659,55.377688 L182.795659,35.5235371 L177.942063,35.5235371 L177.942063,37.9128618 L177.741101,37.6941959 C176.847537,36.8088658 175.864257,36.1297571 174.816383,35.6764254 C173.770303,35.2302048 172.641685,35.0097611 171.446678,35.0097611 C168.848523,35.0097611 166.616408,35.9964243 164.804159,37.9306395 L164.804159,37.9306395 L164.804159,37.9306395 L164.804159,37.9306395 L164.804159,37.9306395 Z M187.402239,28.0491935 L187.402239,55.8914639 L192.008819,55.8914639 L192.008819,28.0491935 L187.402239,28.0491935 M204.676914,26.8890989 L204.676914,55.8914639 L217.345009,55.8914639 L217.345009,50.9525878 L209.691707,50.9525878 L209.691707,26.8890989 L204.676914,26.8890989 M234.551543,27.8570666 C233.763317,28.4987119 233.288171,29.3878488 233.153731,30.4933119 C233.08559,30.9809623 233.034023,32.5942418 233.026657,35.2891518 L233.026657,35.4174808 L231.164749,35.4174808 L231.164749,39.5643424 L233.026657,39.5643424 L233.026657,55.8914639 L238.012003,55.8914639 L238.012003,39.5643424 L241.308556,39.5643424 L241.308556,35.4174808 L238.012003,35.4174808 L238.024894,32.6987383 C238.024894,32.0589263 238.137235,31.6427735 238.363758,31.430114 C238.682363,31.1477901 239.159351,31.0047948 239.79472,31.0047948 C240.249607,31.0047948 240.840777,31.120291 241.529554,31.3072847 L241.529554,27.5985752 C240.223824,27.1329241 239.019385,26.8890989 237.978853,26.8890989 C236.507375,26.8890989 235.350819,27.2135881 234.551543,27.8570666 M253.136656,38.4900449 C254.480121,38.4900449 255.682169,38.8022401 256.701099,39.4174029 C257.721842,40.0371795 258.408985,40.856884 258.75709,41.833455 L258.804229,41.9703287 L247.287779,41.9703287 L247.369366,41.8211517 C247.953166,40.740003 248.602235,39.9695116 249.285752,39.5250564 C250.389896,38.8437636 251.689848,38.4900449 253.136656,38.4900449 C253.136656,38.4900449 251.689848,38.4900449 253.136656,38.4900449 L253.136656,38.4900449 L253.136656,38.4900449 L253.136656,38.4900449 L253.136656,38.4900449 Z M245.600937,38.0053059 C243.665043,39.9928543 242.681199,42.5368452 242.681199,45.5590566 C242.681199,48.4977127 243.665043,50.9848149 245.608002,52.9421412 C247.54213,54.8959119 250.087407,55.8914639 253.185544,55.8914639 C255.174427,55.8914639 256.912493,55.5287986 258.357348,54.8212455 C259.768643,54.1279147 260.98211,53.0505852 262.00128,51.621257 C261.74163,51.5057019 258.115361,49.793708 257.984653,49.731486 C256.633413,51.0328147 255.011925,51.6959234 253.144918,51.6959234 C251.553458,51.6959234 250.219881,51.2674805 249.197178,50.3999281 C248.178007,49.5412645 247.527999,48.3626021 247.298377,46.9119406 L247.271882,46.7732744 L263.387847,46.7732744 C263.400211,46.590164 263.410809,45.928833 263.410809,45.928833 C263.410809,42.6648448 262.430497,39.9928543 260.484005,38.0053059 C258.55341,36.0159797 256.006367,35.0097611 252.895866,35.0097611 C249.992025,35.0097611 247.527999,36.0159797 245.600937,38.0053059 L245.600937,38.0053059 L245.600937,38.0053059 L245.600937,38.0053059 L245.600937,38.0053059 Z M221.951589,35.0097611 L221.951589,55.8914639 L226.558169,55.8914639 L226.558169,35.0097611 L221.951589,35.0097611 M267.513239,52.2512018 L267.883794,52.2512018 C268.312857,52.2512018 268.661959,52.1043034 268.661959,51.7441006 C268.661959,51.4261562 268.437676,51.2168763 267.944253,51.2168763 C267.739473,51.2168763 267.595151,51.2349871 267.513239,51.2571224 L267.513239,52.2512018 L267.513239,52.2512018 L267.513239,52.2512018 L267.513239,52.2512018 Z M267.495687,54.1991143 L266.713621,54.1991143 L266.713621,50.7278859 C267.019816,50.6876398 267.45083,50.6232459 268.004712,50.6232459 C268.640506,50.6232459 268.929148,50.7278859 269.155382,50.8969196 C269.360162,51.0458303 269.502533,51.2993809 269.502533,51.6374483 C269.502533,52.062045 269.196338,52.3357186 268.80628,52.4645062 L268.80628,52.5047524 C269.133929,52.6114046 269.295802,52.8870906 269.401118,53.3519333 C269.502533,53.8811699 269.584445,54.0703267 269.644904,54.1991143 L268.825783,54.1991143 C268.724368,54.0703267 268.661959,53.7745177 268.558594,53.3519333 C268.500085,52.9917305 268.293354,52.8206845 267.862341,52.8206845 L267.495687,52.8206845 L267.495687,54.1991143 L267.495687,54.1991143 L267.495687,54.1991143 L267.495687,54.1991143 Z M265.422531,52.4001124 C265.422531,53.9455637 266.549797,55.1710583 268.045668,55.1710583 C269.502533,55.1931936 270.608346,53.9455637 270.608346,52.4202355 C270.608346,50.8767965 269.502533,49.6291666 268.004712,49.6291666 C266.549797,49.6291666 265.422531,50.8767965 265.422531,52.4001124 C265.422531,52.4001124 265.422531,50.8767965 265.422531,52.4001124 L265.422531,52.4001124 L265.422531,52.4001124 L265.422531,52.4001124 L265.422531,52.4001124 Z M271.472324,52.4001124 C271.472324,54.3460127 269.955,55.8914639 268.026165,55.8914639 C266.099281,55.8914639 264.562454,54.3460127 264.562454,52.4001124 C264.562454,50.4542122 266.099281,48.9308963 268.045668,48.9308963 C269.955,48.9308963 271.472324,50.4542122 271.472324,52.4001124 L271.472324,52.4001124 L271.472324,52.4001124 L271.472324,52.4001124 L271.472324,52.4001124 Z" id="logo" fill="#265B80"></path>
                        <path d="M151.701244,22.8304934 C151.701244,25.0685935 153.50849,26.8890989 155.730289,26.8890989 C157.957227,26.8890989 159.762759,25.0685935 159.762759,22.8304934 C159.762759,20.5820398 157.957227,18.7684367 155.730289,18.7684367 C153.50849,18.7684367 151.701244,20.5820398 151.701244,22.8304934 Z M171.28173,22.2487205 C173.182743,22.2487205 174.734144,19.9026182 174.734144,17.0309055 C174.734144,14.152231 173.182743,11.8078691 171.28173,11.8078691 C169.373994,11.8078691 167.824274,14.152231 167.824274,17.0309055 C167.824274,19.9026182 169.373994,22.2487205 171.28173,22.2487205 Z M208.131849,6.01522873 C208.131849,9.20744703 209.422968,11.8078691 211.011784,11.8078691 C212.597311,11.8078691 213.890074,9.20744703 213.890074,6.01522873 C213.890074,2.81256697 212.656521,0.206923134 211.072639,0.206923134 C209.480534,0.206923134 208.131849,2.81256697 208.131849,6.01522873 Z M182.795659,8.90133044 C182.795659,12.4215554 184.081513,15.2881529 185.671023,15.2881529 C187.262407,15.2881529 188.553884,12.4215554 188.553884,8.90133044 C188.553884,5.38650735 187.262407,2.52711233 185.671023,2.52711233 C184.081513,2.52711233 182.795659,5.38650735 182.795659,8.90133044 Z M220.799944,21.089511 C220.799944,23.643799 222.357202,25.7290043 224.259492,25.7290043 C226.163627,25.7290043 227.709814,23.643799 227.709814,21.089511 C227.709814,18.5246022 226.163627,16.4482475 224.259492,16.4482475 C222.357202,16.4482475 220.799944,18.5246022 220.799944,21.089511 Z M195.463754,12.9688808 C195.463754,17.3671525 196.791977,21.0886259 198.343839,21.0886259 C199.909314,21.0886259 201.221979,17.3671525 201.221979,12.9688808 C201.221979,8.56327254 199.909314,4.84730153 198.343839,4.84730153 C196.791977,4.84730153 195.463754,8.56327254 195.463754,12.9688808 Z" id="logo-dots" fill="#5B7183"></path>
                        <path d="M205.012141,71.599015 C204.768784,70.079455 204.145643,68.781025 203.205811,67.752325 C201.460934,64.894645 197.792145,63.490105 192.990969,64.241785 C187.787885,65.05705 181.629811,67.65472 178.822194,70.2613 C178.84022,70.329745 178.863163,70.40062 178.888974,70.473115 C178.897987,70.49863 178.907819,70.52455 178.917652,70.55047 C178.936088,70.598665 178.956163,70.647265 178.977467,70.69708 C178.990577,70.727455 179.003687,70.75783 179.018026,70.789015 C179.041379,70.840855 179.067189,70.8931 179.093819,70.946155 C179.10652,70.97248 179.118811,70.997995 179.13274,71.024725 C179.13315,71.025535 179.133559,71.026345 179.133969,71.027155 C179.163057,71.083045 179.195423,71.14015 179.227379,71.19685 C180.15533,73.09873 181.372115,74.17036 182.050974,74.659195 C182.216079,74.78677 182.376269,74.89288 182.524987,74.967805 C182.549978,74.98198 182.566775,74.99089 182.566775,74.99089 C183.624189,73.80343 185.286718,72.55117 187.245863,71.466175 C187.009881,73.445005 186.670247,75.06055 186.085617,77.490955 C186.083568,77.50027 186.08111,77.50918 186.079062,77.51809 C186.058167,77.605165 186.036863,77.69305 186.01515,77.78134 C186.009824,77.80402 186.004498,77.8267 185.999172,77.848975 C185.979916,77.929165 185.960251,78.010165 185.940176,78.09157 C185.931163,78.130045 185.92133,78.168115 185.912317,78.206995 C185.89552,78.275845 185.878722,78.3451 185.861515,78.415165 C185.846767,78.47389 185.832427,78.53383 185.817678,78.59377 C185.804568,78.646825 185.791868,78.69988 185.778348,78.753745 C185.754176,78.852565 185.729595,78.953815 185.704604,79.055875 C185.700097,79.07329 185.696,79.090705 185.691493,79.10812 C185.659947,79.23691 185.627991,79.367725 185.595216,79.50097 C183.213678,89.15212 182.443458,91.68499 181.686348,93.929095 L182.486066,94.9906 C183.82207,96.62113 185.23059,97.66765 187.323705,97.82965 C187.563784,93.132865 188.076718,90.028135 189.819137,83.869705 C190.946608,84.713725 191.596379,84.89881 192.927877,84.689425 C200.46989,83.509255 205.951564,77.459365 205.012141,71.599015 L205.012141,71.599015 Z M202.176665,72.096355 C202.175846,72.08461 202.176256,72.073675 202.175026,72.062335 C201.728053,75.504835 197.641379,78.704335 190.940872,80.02261 C192.462877,74.866555 193.750947,70.723405 194.556811,69.31198 L194.053709,68.64292 C195.082855,68.329045 196.088238,68.091715 197.065762,67.93903 C199.158467,67.610575 200.637863,67.99168 201.605145,68.888755 C201.873493,69.403105 202.057445,69.996025 202.163145,70.656175 C202.240577,71.13772 202.242216,71.619265 202.176665,72.096355 L202.176665,72.096355 Z" id="Fill-1" fill="#67A14C"></path>
                        <path d="M234.439062,72.585595 C233.9503,71.52004 233.237436,71.08102 232.267696,71.232895 C232.024749,71.270965 231.789176,71.348725 231.548278,71.38639 C230.517903,70.117525 229.470731,69.26014 228.552612,68.95396 C227.301824,69.150385 225.939599,69.93568 224.660542,71.239375 C224.499533,71.399755 224.342621,71.567425 224.187758,71.738335 C224.163996,71.76547 224.139414,71.79139 224.115652,71.818525 C223.964066,71.988625 223.815758,72.16318 223.670727,72.342595 C223.655159,72.362035 223.639181,72.38188 223.623203,72.401725 C222.672718,73.58797 221.87259,74.955655 221.260101,76.395835 C221.23552,76.38652 221.210938,76.3768 221.185947,76.367485 C221.174476,76.36303 221.163004,76.35898 221.151533,76.354525 C221.126952,76.34521 221.101551,76.3363 221.076559,76.32739 C221.063449,76.32253 221.050749,76.318075 221.037639,76.31362 C221.011828,76.304305 220.986018,76.295395 220.960207,76.286485 C220.94341,76.280815 220.927022,76.275145 220.910634,76.269475 C220.879088,76.258945 220.847132,76.247605 220.814767,76.23667 C220.789775,76.228165 220.765194,76.21966 220.739793,76.21075 C220.720537,76.20427 220.700053,76.197385 220.680388,76.1905 C220.656626,76.181995 220.632863,76.173895 220.608692,76.164985 C220.590256,76.15891 220.571,76.15162 220.552154,76.14433 C220.527163,76.135825 220.502172,76.12651 220.476771,76.11679 C220.463251,76.11193 220.449731,76.106665 220.436621,76.101805 C220.38541,76.08196 220.332969,76.061305 220.279709,76.039435 C220.257176,76.03012 220.234643,76.02121 220.2117,76.01149 C220.187938,76.001365 220.162947,75.990025 220.138775,75.97909 C220.115013,75.968965 220.091251,75.958435 220.067079,75.9475 C220.042498,75.93616 220.017507,75.923605 219.992515,75.91186 C219.967524,75.900115 219.941714,75.88756 219.916313,75.8746 C219.890912,75.862045 219.865511,75.84949 219.84011,75.836125 C219.81348,75.822355 219.786441,75.80818 219.759811,75.7936 C219.734,75.77983 219.708189,75.765655 219.681969,75.75148 C219.653291,75.734875 219.623793,75.71827 219.594295,75.700855 C219.569304,75.685465 219.543903,75.67129 219.518502,75.655495 C219.484907,75.63565 219.450493,75.61378 219.416079,75.592315 C219.393546,75.57814 219.371423,75.56437 219.34848,75.549385 C219.290714,75.51172 219.232537,75.47203 219.172313,75.430315 C219.091194,75.37321 219.014581,75.313675 218.941656,75.253735 C218.931414,75.245635 218.921991,75.23713 218.911749,75.228625 C218.687648,74.684305 218.650775,74.058175 218.798674,73.34416 L217.997727,72.282655 C217.692097,71.921395 216.841167,71.76871 216.074225,71.88859 C215.630119,71.95744 215.435106,72.02953 215.259758,72.220285 C215.214282,72.318295 215.168806,72.41347 215.12333,72.50662 C215.112269,72.528895 215.101207,72.54955 215.090145,72.571825 C215.055731,72.64108 215.021317,72.70993 214.986903,72.775945 C214.972974,72.80227 214.959044,72.827785 214.945115,72.853705 C214.913568,72.91405 214.882022,72.973585 214.850066,73.031095 C214.835727,73.057015 214.821388,73.08253 214.806639,73.108045 C214.775912,73.163935 214.744775,73.21942 214.713229,73.272475 C214.6993,73.296775 214.68496,73.320265 214.670621,73.34416 C214.639075,73.397215 214.607529,73.45108 214.575573,73.502515 C214.562463,73.523575 214.549352,73.543825 214.536242,73.564075 C214.503057,73.61713 214.469872,73.669375 214.436687,73.720405 C214.424806,73.738225 214.413335,73.75564 214.401454,73.773055 C214.36663,73.825705 214.331396,73.87795 214.296163,73.92898 C214.28674,73.942345 214.276907,73.95571 214.267485,73.969075 C214.229793,74.02294 214.192101,74.075995 214.154,74.127835 C214.147445,74.13715 214.14048,74.146465 214.133515,74.155375 C214.092546,74.211265 214.051167,74.26594 214.009789,74.318995 C214.006101,74.32345 214.002414,74.32831 213.998727,74.33317 C213.201057,75.357415 212.335789,76.01716 211.242322,77.13496 C211.579907,75.947095 211.953956,75.568015 212.748348,74.29186 L211.94822,73.229545 C211.181278,72.57304 209.138145,71.952985 207.607537,71.947315 C207.064696,72.686035 206.71441,73.599715 206.290379,75.34081 C205.083018,80.189875 203.917035,88.13881 203.890405,91.33021 C203.896551,91.33993 203.906793,91.350055 203.913348,91.358965 L204.690123,92.392525 C205.181344,93.13327 207.361722,94.10041 208.342934,94.02832 C208.741154,86.44591 210.587634,81.85726 215.5363,78.10129 C215.5363,78.10129 216.859604,79.15429 218.301718,79.679575 C218.924859,79.906375 219.565617,80.00641 220.144921,80.075665 C219.867969,81.583885 219.817167,83.07388 220.034714,84.430225 C220.297736,86.07331 220.941361,87.432895 221.85989,88.41016 C222.959502,90.240355 224.761326,91.27432 226.911388,91.16254 C233.147714,88.796125 236.873859,82.367965 235.806612,75.70936 C235.547687,74.09341 235.100304,73.06633 234.439062,72.585595 L234.439062,72.585595 Z M232.202145,78.17176 C232.201736,78.159205 232.202145,78.146245 232.201736,78.133285 C232.115291,79.943635 231.712564,81.64423 231.043537,83.14111 C231.041489,83.145565 231.039031,83.150425 231.036982,83.155285 C230.984952,83.271115 230.930872,83.38573 230.875974,83.49913 C230.86778,83.515735 230.859996,83.531935 230.851802,83.54854 C230.796903,83.65951 230.741595,83.770075 230.683419,83.87821 C230.680141,83.884285 230.676863,83.889955 230.673586,83.896435 C230.500696,84.22003 230.313877,84.53188 230.114767,84.831985 C230.092643,84.866005 230.07052,84.900025 230.047577,84.933235 C229.996366,85.009375 229.943106,85.083895 229.889846,85.15801 C229.85748,85.203775 229.824295,85.249135 229.79111,85.29409 C229.740718,85.36213 229.689916,85.42936 229.638295,85.49578 C229.598965,85.546405 229.558815,85.59541 229.519075,85.645225 C229.469912,85.70638 229.420749,85.76713 229.370357,85.82707 C229.316278,85.89106 229.26015,85.953025 229.204432,86.015395 C229.138471,86.089915 229.071692,86.162815 229.004093,86.2345 C228.938952,86.30335 228.87422,86.371795 228.80785,86.43862 C228.764833,86.481145 228.721405,86.52205 228.677978,86.563765 C228.616934,86.622895 228.55548,86.68162 228.492797,86.73832 C228.448551,86.77882 228.403894,86.81851 228.359238,86.857795 C228.293278,86.916115 228.226498,86.97322 228.158899,87.02911 C228.1167,87.064345 228.074912,87.099175 228.032304,87.133195 C227.950775,87.198805 227.868018,87.26239 227.784441,87.32476 C227.754533,87.347035 227.725445,87.370525 227.695128,87.392395 C227.580824,87.475825 227.464471,87.55642 227.34648,87.633775 C227.318621,87.652 227.289943,87.669415 227.261674,87.68764 C227.169903,87.74677 227.077313,87.80428 226.983493,87.86017 C226.942524,87.88447 226.900736,87.907555 226.859357,87.93145 C226.77537,87.97924 226.690564,88.025815 226.604938,88.071175 C226.561101,88.09426 226.517264,88.117345 226.473018,88.139215 C226.383705,88.184575 226.293163,88.22791 226.201802,88.27003 C226.162881,88.288255 226.12396,88.30729 226.083811,88.3243 C225.953529,88.383025 225.822018,88.43851 225.688048,88.489945 C225.617991,88.480225 225.544247,88.44985 225.468863,88.402465 C225.249678,87.95089 225.070643,87.41548 224.985837,86.88574 C224.647432,84.772855 225.489758,81.0019 226.955634,78.27949 C227.98437,76.408795 229.550211,74.455075 231.690031,73.38952 C231.816216,73.77427 231.921916,74.242855 232.015736,74.82808 C232.198868,75.968965 232.256634,77.0896 232.202145,78.17176 L232.202145,78.17176 Z" id="Fill-2" fill="#67A14C"></path>
                        <path d="M251.81859,66.940705 C251.272471,66.78721 250.653018,66.75157 249.990137,66.85525 C248.786053,67.04317 246.987916,67.4668 245.411833,69.42457 C245.598242,69.14674 245.810872,68.862835 246.056278,68.556655 L245.256559,67.49434 C244.789921,66.91357 242.686564,66.425545 240.786414,66.437695 C239.952692,67.4263 239.924013,68.022055 239.718348,69.32251 C239.434841,71.16445 238.782203,74.57779 237.012335,82.37566 C236.972185,82.555885 236.932035,82.735705 236.893115,82.914715 C236.880004,82.974655 236.867304,83.033785 236.854194,83.09332 C236.828383,83.2132 236.802573,83.332675 236.777172,83.45296 C236.762423,83.52343 236.747674,83.5939 236.732925,83.66437 C236.710392,83.7721 236.687859,83.880235 236.665326,83.987965 C236.650167,84.06289 236.634599,84.13822 236.619441,84.213145 C236.598546,84.316015 236.578062,84.418885 236.557577,84.52216 C236.542009,84.5983 236.52685,84.67525 236.511282,84.751795 C236.489159,84.86641 236.467035,84.98062 236.444912,85.094425 C236.419101,85.22767 236.3937,85.36051 236.368709,85.492945 C236.352322,85.58083 236.335934,85.66831 236.319546,85.755385 C236.30111,85.855825 236.283084,85.95586 236.264648,86.05549 C236.252357,86.12434 236.239656,86.192785 236.227366,86.26123 C236.20852,86.36734 236.189674,86.47345 236.170828,86.57956 C236.161405,86.63464 236.151573,86.68891 236.142559,86.743585 C236.121665,86.86144 236.10159,86.978485 236.081925,87.095125 C236.076599,87.12631 236.071683,87.156685 236.066357,87.187465 C235.339564,91.50193 235.055648,95.191075 235.323176,96.863725 C235.515322,98.060905 235.755811,99.04465 236.065128,99.69022 C236.108555,99.882595 236.173286,100.052695 236.249899,100.20214 C236.583797,100.99918 237.009057,101.422405 237.313458,101.638675 C237.437595,101.761795 237.571564,101.837125 237.703075,101.84806 C237.963639,101.929465 238.111128,102.070405 238.631846,102.479455 C238.944031,102.880405 239.21115,103.0015 239.499982,102.99745 C239.919097,97.717465 240.567639,92.23741 241.241991,88.04728 C243.428106,87.67387 250.786167,85.438675 252.751868,81.711865 C254.570079,78.268555 255.391511,74.186155 254.779022,70.35769 C254.779022,70.35769 254.39678,67.575745 251.81859,66.940705 L251.81859,66.940705 Z M250.391634,72.2296 C250.391225,72.197605 250.392863,72.166825 250.392454,72.134425 C250.069617,78.953815 245.705581,82.427905 241.885617,84.493405 C242.031877,83.78911 242.176907,83.167435 242.317432,82.65106 C243.004894,79.968745 242.968841,79.227595 246.21196,73.9306 C247.769198,71.386795 249.445656,70.05637 250.324035,69.48046 C250.417445,70.453675 250.43711,71.36857 250.391634,72.2296 L250.391634,72.2296 Z" id="Fill-3" fill="#67A14C"></path>
                        <path d="M271.356374,68.74741 C270.649656,67.6612 270.409167,66.78397 270.689396,65.43289 L269.889269,64.370575 C269.583639,64.00891 268.73107,63.85663 267.966176,63.97651 C267.521251,64.04617 267.326238,64.11745 267.15048,64.309015 C267.104595,64.40743 267.058709,64.502605 267.013233,64.59535 C267.005449,64.611955 266.997256,64.62694 266.989471,64.642735 C266.95178,64.71847 266.914088,64.7938 266.876396,64.86589 C266.866974,64.88452 266.857141,64.90153 266.847718,64.919755 C266.811256,64.9882 266.775612,65.05624 266.73915,65.12185 C266.730137,65.138455 266.721533,65.153845 266.71252,65.16964 C266.675648,65.235655 266.638775,65.30086 266.601903,65.36404 C266.5933,65.379025 266.584696,65.39239 266.576093,65.40778 C266.538401,65.47096 266.501119,65.53333 266.463427,65.593675 C266.456053,65.605825 266.448678,65.617165 266.441304,65.62891 C266.401974,65.691685 266.363053,65.753245 266.323722,65.813185 C266.318806,65.820475 266.3143,65.827765 266.309383,65.83465 C266.267185,65.89864 266.224987,65.96101 266.182379,66.02176 C266.18033,66.024595 266.178282,66.027835 266.176233,66.03067 C265.299084,67.28617 264.362529,67.955635 263.13796,69.203845 C263.473907,68.0257 263.845907,67.654315 264.63907,66.37978 L263.839352,65.317465 C263.072,64.66096 261.028868,64.040905 259.49826,64.036045 C258.955009,64.773955 258.605952,65.687635 258.181511,67.42954 C256.972921,72.2782 255.807758,80.226325 255.782357,83.41894 L256.582075,84.481255 C257.072885,85.220785 259.253264,86.18833 260.234885,86.11705 C260.630238,78.57109 263.259639,74.13391 267.744533,69.888295 C267.818687,69.972535 267.89448,70.0507 267.973551,70.121575 C268.66511,71.34022 269.221062,71.63992 270.675057,72.094735 C271.355555,71.17174 271.989348,69.968485 271.978696,69.643675 C271.519841,69.102595 272.054079,69.82066 271.356374,68.74741" id="Fill-4" fill="#67A14C"></path>
                    </g>
                </g>
            </g>
        </g>
    </g>
</svg>