<?xml version="1.0" encoding="UTF-8"?>
<svg width="190px" height="54px" viewBox="0 0 190 54" version="1.1" xmlns="http://www.w3.org/2000/svg" xmlns:xlink="http://www.w3.org/1999/xlink">
    <!-- Generator: Sketch 41.2 (35397) - http://www.bohemiancoding.com/sketch -->
    <title>logo-my-brokers</title>
    <desc>Created with Sketch.</desc>
    <defs></defs>
    <g id="Pages" stroke="none" stroke-width="1" fill="none" fill-rule="evenodd">
        <g id="Web-Mobile" transform="translate(-65.000000, -3131.000000)" fill="#FFFFFF">
            <g id="Logo" transform="translate(13.000000, 374.000000)">
                <g id="Sub-brands" transform="translate(0.000000, 2119.000000)">
                    <g id="logo-my-brokers" transform="translate(52.000000, 638.000000)">
                        <g id="design">
                            <g>
                                <g id="Desktop-HD">
                                    <g id="sub-brands">
                                        <g id="logo-box-5">
                                            <g id="logo-my-brokers">
                                                <path d="M49.6178574,24.9562478 C47.875818,23.1258602 45.8923203,22.1915733 43.7179315,22.1915733 C41.862116,22.1915733 40.2717781,22.8458287 38.9949567,24.1212448 C37.7206637,25.405571 37.074668,27.0093877 37.074668,28.8855986 C37.074668,30.1902908 37.3578442,31.3727874 37.9241967,32.3834465 C38.4918133,33.4081071 39.3021524,34.2100154 40.3324587,34.7878986 C41.3577083,35.3606903 42.5232819,35.6572691 43.784933,35.6572691 C44.8594856,35.6572691 45.8543949,35.4510641 46.7456415,35.0513828 C47.615397,34.6504286 48.5837585,33.9185281 49.615329,32.8964132 C49.720256,33.0046072 51.8807388,35.2792265 51.9970433,35.3886934 C50.60771,36.7443004 49.2752647,37.6976803 48.037633,38.2259215 C46.7797743,38.7630728 45.3259679,39.0418314 43.7229883,39.0418314 C40.7584872,39.0418314 38.2958655,38.07445 36.4109738,36.1855103 C34.5197612,34.2914791 33.5665698,31.8386579 33.5665698,28.8754157 C33.5665698,26.9597458 33.9989192,25.2375521 34.8572971,23.7495667 C35.7194676,22.2692184 36.9684769,21.0510815 38.5689282,20.1409791 C40.1769646,19.2385141 41.9291174,18.7828264 43.7748196,18.7828264 C45.3474589,18.7828264 46.8847013,19.1201371 48.341036,19.7896669 C49.7758799,20.4490138 51.0210967,21.3985751 52.0691016,22.6065291 L49.6178574,24.9562478 L49.6178574,24.9562478 Z M57.2230796,34.6736156 L57.2230796,34.6736156 C56.476293,33.9188092 56.091391,32.9357492 56.091391,31.731682 C56.091391,30.5626378 56.4801293,29.5880316 57.2371457,28.8356406 C58.0005559,28.0784188 58.9660077,27.6967886 60.1104837,27.6967886 C61.2754195,27.6967886 62.2549375,28.0747957 63.0055603,28.8211483 C63.7587406,29.5638778 64.1359701,30.5433147 64.1359701,31.731682 C64.1359701,32.9152185 63.7510681,33.8994861 62.9799854,34.660331 C62.2204114,35.4199682 61.2485659,35.8003906 60.0951388,35.8003906 C58.9429904,35.8003906 57.9775385,35.4199682 57.2230796,34.6736156 C57.2230796,34.6736156 57.9775385,35.4199682 57.2230796,34.6736156 L57.2230796,34.6736156 L57.2230796,34.6736156 L57.2230796,34.6736156 L57.2230796,34.6736156 Z M55.2483835,26.3305045 C53.6725887,27.779715 52.8735595,29.6014732 52.8735595,31.7597661 C52.8735595,33.7715235 53.5798222,35.5075957 54.9750313,36.915826 C56.3714773,38.3178471 58.0746714,39.0418314 60.0425595,39.0418314 C61.3858194,39.0418314 62.6276544,38.7152313 63.7408532,38.0719656 C64.854052,37.4349091 65.744611,36.5370692 66.3890294,35.4070079 C67.0297371,34.267012 67.3538017,33.035121 67.3538017,31.7349295 C67.3538017,30.4421891 67.0359215,29.217749 66.3939769,28.0988642 C65.7532692,26.9799793 64.854052,26.0821394 63.7086941,25.4326646 C62.5658101,24.7807061 61.3301594,24.4553478 60.0326644,24.4553478 C58.2367037,24.4553478 56.6262761,25.0886789 55.2483835,26.3305045 L55.2483835,26.3305045 L55.2483835,26.3305045 L55.2483835,26.3305045 L55.2483835,26.3305045 Z M68.9627175,19.5931866 L68.9627175,39.0418314 L72.1805488,39.0418314 L72.1805488,19.5931866 L68.9627175,19.5931866 L68.9627175,19.5931866 Z M78.9460003,34.6736156 L78.9460003,34.6736156 C78.191541,33.9188092 77.8117541,32.9357492 77.8117541,31.731682 C77.8117541,30.5626378 78.1966564,29.5880316 78.9575093,28.8356406 C79.7209195,28.0784188 80.6850926,27.6967886 81.8270108,27.6967886 C82.9983406,27.6967886 83.9701857,28.0747957 84.7233659,28.8211483 C85.4727099,29.5638778 85.8563331,30.5433147 85.8563331,31.731682 C85.8563331,32.9152185 85.4701525,33.8994861 84.702906,34.660331 C83.9394958,35.4199682 82.9650933,35.8003906 81.8142235,35.8003906 C80.6620747,35.8003906 79.6966232,35.4199682 78.9460003,34.6736156 C78.9460003,34.6736156 79.6966232,35.4199682 78.9460003,34.6736156 L78.9460003,34.6736156 L78.9460003,34.6736156 L78.9460003,34.6736156 L78.9460003,34.6736156 Z M76.9683413,26.3305045 C75.3903424,27.779715 74.5939225,29.6014732 74.5939225,31.7597661 C74.5939225,33.7715235 75.3013015,35.5075957 76.693799,36.915826 C78.0900063,38.3178471 79.7916728,39.0418314 81.7641718,39.0418314 C83.1047287,39.0418314 84.345115,38.7152313 85.4593603,38.0719656 C86.5674221,37.4349091 87.4590656,36.5370692 88.1033744,35.4070079 C88.7464455,34.267012 89.0741647,33.035121 89.0741647,31.7349295 C89.0741647,30.4421891 88.7501561,29.217749 88.1095578,28.0988642 C87.4677224,26.9799793 86.5674221,26.0821394 85.4272069,25.4326646 C84.2832812,24.7807061 83.0478418,24.4553478 81.751805,24.4553478 C79.9598612,24.4553478 78.3484719,25.0886789 76.9683413,26.3305045 L76.9683413,26.3305045 L76.9683413,26.3305045 L76.9683413,26.3305045 L76.9683413,26.3305045 Z M97.0311489,24.855117 L97.0311489,24.855117 C96.4077372,25.1122934 95.6989255,25.5948174 94.9205758,26.2759528 L94.7900374,26.3943558 L94.7900374,24.8232883 L91.4875385,24.8232883 L91.4875385,39.0418314 L94.7900374,39.0418314 L94.7900374,33.3521225 C94.7900374,31.831981 94.8400563,30.8745719 94.9437551,30.409872 C95.1413928,29.5364909 95.5000681,28.8400776 96.0088022,28.343549 C96.5248555,27.8444741 97.1507078,27.5923903 97.8704983,27.5923903 C98.4243714,27.5923903 98.8977257,27.7438952 99.2808006,28.046905 C99.6541164,28.3575536 99.9273929,28.8057026 100.079891,29.3824397 C100.229949,29.9617231 100.303148,31.0820954 100.303148,32.8275845 L100.303148,39.0418314 L103.554407,39.0418314 L103.554407,29.6154262 C103.554407,27.9908863 103.160352,26.7419259 102.379562,25.9232902 C101.445054,24.9416912 100.298268,24.4553478 98.9611647,24.4553478 C98.3048132,24.4553478 97.6582215,24.5890286 97.0311489,24.855117 L97.0311489,24.855117 Z M106.772239,24.4553478 L106.772239,39.0418314 L109.99007,39.0418314 L109.99007,24.4553478 L106.772239,24.4553478 L106.772239,24.4553478 Z M116.425733,31.721132 C116.425733,30.5511953 116.803985,29.5758501 117.560488,28.8249418 C118.313145,28.0692583 119.274802,27.6967886 120.415968,27.6967886 C121.581496,27.6967886 122.561104,28.058514 123.324018,28.8070346 C124.089497,29.544811 124.470313,30.5189624 124.470313,31.708 C124.470313,32.9233015 124.089497,33.9177477 123.324018,34.668656 C122.561104,35.4207581 121.589189,35.8003906 120.431355,35.8003906 C119.304293,35.8003906 118.343918,35.4100138 117.577157,34.6483612 C116.811679,33.8867085 116.425733,32.8994253 116.425733,31.721132 C116.425733,31.721132 116.425733,32.8994253 116.425733,31.721132 L116.425733,31.721132 L116.425733,31.721132 L116.425733,31.721132 L116.425733,31.721132 Z M115.120552,26.4956673 L115.120552,26.4956673 C113.84963,27.8629173 113.207902,29.6337606 113.207902,31.7771516 C113.207902,33.8274057 113.872191,35.569687 115.176954,36.9518389 C116.498012,38.3364745 118.069744,39.0418314 119.86583,39.0418314 C120.66047,39.0418314 121.413748,38.9015052 122.099344,38.6109179 C122.781181,38.332749 123.471791,37.8608552 124.161147,37.2200733 L124.297765,37.0822306 L124.297765,38.6829438 L127.688144,38.6829438 L127.688144,24.8142355 L124.297765,24.8142355 L124.297765,26.4832491 L124.157387,26.3305045 C123.533206,25.7120754 122.846356,25.237698 122.114385,24.9210324 C121.383668,24.6093342 120.595295,24.4553478 119.760547,24.4553478 C117.945659,24.4553478 116.386461,25.1445611 115.120552,26.4956673 L115.120552,26.4956673 L115.120552,26.4956673 L115.120552,26.4956673 L115.120552,26.4956673 Z M130.905976,19.5931866 L130.905976,39.0418314 L134.123807,39.0418314 L134.123807,19.5931866 L130.905976,19.5931866 L130.905976,19.5931866 Z M142.972844,18.7828264 L142.972844,39.0418314 L151.821881,39.0418314 L151.821881,35.5918812 L146.475825,35.5918812 L146.475825,18.7828264 L142.972844,18.7828264 L142.972844,18.7828264 Z M163.841151,19.4589803 C163.290552,19.9071885 162.958649,20.5282767 162.864739,21.3004752 C162.81714,21.6411134 162.781119,22.7680366 162.775974,24.6505104 L162.775974,24.740152 L161.475376,24.740152 L161.475376,27.6368568 L162.775974,27.6368568 L162.775974,39.0418314 L166.258384,39.0418314 L166.258384,27.6368568 L168.561124,27.6368568 L168.561124,24.740152 L166.258384,24.740152 L166.267389,22.8410304 C166.267389,22.3941029 166.345863,22.103408 166.504096,21.954859 C166.726651,21.7576475 167.059841,21.6577611 167.503665,21.6577611 C167.821417,21.6577611 168.234366,21.7384386 168.715497,21.8690592 L168.715497,19.2784165 C167.803406,18.9531455 166.96207,18.7828264 166.235228,18.7828264 C165.207358,18.7828264 164.399469,19.0094917 163.841151,19.4589803 L163.841151,19.4589803 Z M176.823399,26.8864284 C177.761849,26.8864284 178.601515,27.104506 179.313268,27.5342153 C180.026287,27.9671474 180.506276,28.5397351 180.749438,29.2218987 L180.782366,29.317509 L172.737787,29.317509 L172.794778,29.2133045 C173.202579,28.4580903 173.655973,27.9198794 174.13343,27.6094144 C174.904707,27.1335113 175.812761,26.8864284 176.823399,26.8864284 C176.823399,26.8864284 175.812761,26.8864284 176.823399,26.8864284 L176.823399,26.8864284 L176.823399,26.8864284 L176.823399,26.8864284 L176.823399,26.8864284 Z M171.559478,26.547824 C170.207199,27.936185 169.519955,29.7132375 169.519955,31.824341 C169.519955,33.8770787 170.207199,35.6143928 171.564413,36.9816428 C172.915458,38.346409 174.693409,39.0418314 176.857549,39.0418314 C178.246842,39.0418314 179.460933,38.788499 180.470206,38.2942524 C181.456037,37.8099404 182.30368,37.0573941 183.0156,36.0589663 C182.834227,35.9782477 180.301171,34.7823696 180.209868,34.7389057 C179.265987,35.647922 178.13333,36.111123 176.829171,36.111123 C175.717489,36.111123 174.785946,35.811843 174.071558,35.2058321 C173.359637,34.6060303 172.905588,33.7827 172.74519,32.7693703 L172.726682,32.6725079 L183.984158,32.6725079 C183.992794,32.5445999 184.000197,32.0826407 184.000197,32.0826407 C184.000197,29.8026489 183.315421,27.936185 181.955739,26.547824 C180.607161,25.1582211 178.827977,24.4553478 176.655201,24.4553478 C174.626782,24.4553478 172.905588,25.1582211 171.559478,26.547824 L171.559478,26.547824 L171.559478,26.547824 L171.559478,26.547824 L171.559478,26.547824 Z M155.039713,24.4553478 L155.039713,39.0418314 L158.257545,39.0418314 L158.257545,24.4553478 L155.039713,24.4553478 L155.039713,24.4553478 Z M186.865865,36.4990013 L187.124709,36.4990013 C187.424422,36.4990013 187.66828,36.3963884 187.66828,36.1447762 C187.66828,35.9226826 187.511612,35.7764945 187.166941,35.7764945 C187.023897,35.7764945 186.923083,35.7891454 186.865865,35.8046076 L186.865865,36.4990013 L186.865865,36.4990013 L186.865865,36.4990013 L186.865865,36.4990013 Z M186.853605,37.8596754 L186.307309,37.8596754 L186.307309,35.4349203 C186.521195,35.4068072 186.822271,35.3618262 187.209174,35.3618262 C187.653295,35.3618262 187.85492,35.4349203 188.012951,35.5529953 C188.155996,35.6570138 188.255446,35.8341264 188.255446,36.0702764 C188.255446,36.3668697 188.04156,36.5580387 187.769093,36.6480007 L187.769093,36.6761138 C187.997965,36.7506135 188.111038,36.9431883 188.184604,37.2678946 C188.255446,37.6375819 188.312664,37.7697135 188.354896,37.8596754 L187.782716,37.8596754 C187.711875,37.7697135 187.66828,37.5630822 187.596077,37.2678946 C187.555206,37.0162823 187.410799,36.8968017 187.109723,36.8968017 L186.853605,36.8968017 L186.853605,37.8596754 L186.853605,37.8596754 L186.853605,37.8596754 L186.853605,37.8596754 Z M185.405444,36.6030197 C185.405444,37.6825629 186.192873,38.5386069 187.237783,38.5386069 C188.255446,38.5540691 189.027889,37.6825629 189.027889,36.6170763 C189.027889,35.5389387 188.255446,34.6674326 187.209174,34.6674326 C186.192873,34.6674326 185.405444,35.5389387 185.405444,36.6030197 C185.405444,36.6030197 185.405444,35.5389387 185.405444,36.6030197 L185.405444,36.6030197 L185.405444,36.6030197 L185.405444,36.6030197 L185.405444,36.6030197 Z M189.631403,36.6030197 C189.631403,37.9622883 188.571507,39.0418314 187.224159,39.0418314 C185.878174,39.0418314 184.804655,37.9622883 184.804655,36.6030197 C184.804655,35.2437512 185.878174,34.1796702 187.237783,34.1796702 C188.571507,34.1796702 189.631403,35.2437512 189.631403,36.6030197 L189.631403,36.6030197 L189.631403,36.6030197 L189.631403,36.6030197 L189.631403,36.6030197 Z" id="logo"></path>
                                                <path d="M105.967781,15.9477711 C105.967781,17.5111499 107.230195,18.7828264 108.782187,18.7828264 C110.337769,18.7828264 111.598986,17.5111499 111.598986,15.9477711 C111.598986,14.3771602 110.337769,13.110305 108.782187,13.110305 C107.230195,13.110305 105.967781,14.3771602 105.967781,15.9477711 Z M119.645326,15.5413856 C120.97324,15.5413856 122.056939,13.9025642 122.056939,11.8965884 C122.056939,9.8857496 120.97324,8.24814386 119.645326,8.24814386 C118.312716,8.24814386 117.230191,9.8857496 117.230191,11.8965884 C117.230191,13.9025642 118.312716,15.5413856 119.645326,15.5413856 Z M145.386218,4.20181419 C145.386218,6.43167256 146.288103,8.24814386 147.397937,8.24814386 C148.505475,8.24814386 149.408508,6.43167256 149.408508,4.20181419 C149.408508,1.96466075 148.546835,0.144541895 147.440446,0.144541895 C146.328314,0.144541895 145.386218,1.96466075 145.386218,4.20181419 Z M127.688144,6.21784112 C127.688144,8.67682179 128.586351,10.6792245 129.69667,10.6792245 C130.808299,10.6792245 131.710434,8.67682179 131.710434,6.21784112 C131.710434,3.76263381 130.808299,1.76526229 129.69667,1.76526229 C128.586351,1.76526229 127.688144,3.76263381 127.688144,6.21784112 Z M154.235255,14.7316437 C154.235255,16.515889 155.323046,17.9724662 156.651851,17.9724662 C157.981945,17.9724662 159.062002,16.515889 159.062002,14.7316437 C159.062002,12.9399795 157.981945,11.4895847 156.651851,11.4895847 C155.323046,11.4895847 154.235255,12.9399795 154.235255,14.7316437 Z M136.537181,9.05914468 C136.537181,12.1314668 137.464984,14.7310254 138.549005,14.7310254 C139.642536,14.7310254 140.559471,12.1314668 140.559471,9.05914468 C140.559471,5.98169773 139.642536,3.38598269 138.549005,3.38598269 C137.464984,3.38598269 136.537181,5.98169773 136.537181,9.05914468 Z" id="logo-dots"></path>
                                                <path d="M0,26.2918257 L0,18.8602941 L29.3382353,18.8602941 L29.3382353,39.1176471 L0,39.1176471 L0,35.6619428 L2.10533535,35.6619428 L2.10533535,31.4936186 C2.10533535,30.5921997 2.1842801,29.9319345 2.34217195,29.5128035 C2.50006381,29.0936723 2.7383334,28.7678458 3.05698788,28.5353142 C3.37564235,28.3027825 3.73017602,28.1865184 4.12059952,28.1865184 C4.47083237,28.1865184 4.76938704,28.2783814 5.01627249,28.4621102 C5.26315794,28.6458388 5.44831925,28.9257338 5.57176197,29.3018036 C5.6952047,29.6778732 5.75692514,30.2850301 5.75692514,31.1232923 L5.75692514,35.6619428 L8.12529118,35.6619428 L8.12529118,31.433333 C8.12529118,30.5376555 8.20280057,29.8874379 8.35782164,29.4826606 C8.51284271,29.0778833 8.74967694,28.760669 9.06833146,28.5310081 C9.3869859,28.3013472 9.74726104,28.1865184 10.1491676,28.1865184 C10.6773876,28.1865184 11.0735467,28.3745505 11.3376567,28.7506202 C11.6017667,29.1266899 11.7338197,29.8458047 11.7338197,30.9079863 L11.7338197,35.6619428 L14.1021857,35.6619428 L14.1021857,30.1673337 C14.1021857,29.0419953 13.9916631,28.2295822 13.7706145,27.7300697 C13.5495659,27.2305573 13.1864201,26.8257861 12.6811662,26.5157439 C12.1759122,26.2057017 11.5902858,26.0506829 10.9242692,26.0506829 C10.2812187,26.0506829 9.68841546,26.1942188 9.14584161,26.4812949 C8.60326776,26.768371 8.14538822,27.1874959 7.77218932,27.7386819 C7.48511322,27.1874959 7.1061784,26.768371 6.63537363,26.4812949 C6.16456881,26.1942188 5.63635671,26.0506829 5.05072145,26.0506829 C4.47082772,26.0506829 3.93543882,26.1597702 3.44453868,26.377948 C2.95363854,26.5961259 2.50724189,26.9262584 2.10533535,27.3683557 L2.10533535,26.2918257 L1.93880859e-17,26.2918257 L0,26.2918257 Z M15.2992872,26.2918257 L17.7021021,26.2918257 L20.139366,32.1739856 L22.8263849,26.2918257 L25.2378122,26.2918257 L19.3642644,39.0896144 L16.9356128,39.0896144 L18.8647545,34.9643513 L15.2992872,26.2918257 Z" id="Rectangle-1"></path>
                                                <path d="M126.926682,44.2539529 L126.803553,45.1093786 C126.479526,44.7983132 126.174946,44.6427828 125.889803,44.6427828 C125.708348,44.6427828 125.552817,44.7313487 125.423207,44.9084832 C125.293597,45.0856177 125.192069,45.4442016 125.118624,45.9842457 L125.008455,46.7359835 L126.460087,46.7359835 L126.362879,47.5330847 L124.911247,47.5330847 L124.0299,53.7867647 L123.142072,53.7867647 L124.0299,47.5330847 L123.142072,47.5330847 L123.239279,46.7359835 L124.133588,46.7359835 L124.217835,46.1138557 C124.321523,45.383716 124.43169,44.8955234 124.54834,44.6492633 C124.664989,44.4030031 124.837801,44.2053499 125.06678,44.0562978 C125.295758,43.9072456 125.548495,43.8327206 125.824998,43.8327206 C126.187908,43.8327206 126.555132,43.97313 126.926682,44.2539529 L126.926682,44.2539529 Z M131.184369,46.5545295 C131.784898,46.5545295 132.335735,46.6981791 132.836896,46.9854826 C133.338057,47.2727861 133.729043,47.6724128 134.009866,48.1843746 C134.290689,48.6963365 134.431098,49.2763352 134.431098,49.9243882 C134.431098,50.6631686 134.251807,51.3490144 133.893217,51.9819462 C133.534628,52.6148779 133.052916,53.1041506 132.448066,53.4497788 C131.843217,53.7954071 131.158451,53.9682186 130.393748,53.9682186 C129.447591,53.9682186 128.668859,53.6582379 128.057529,53.0382672 C127.446199,52.4182966 127.140539,51.6287638 127.140539,50.6696455 C127.140539,49.917904 127.319831,49.2244976 127.67842,48.5894057 C128.037009,47.9543138 128.528442,47.4564006 129.152733,47.0956511 C129.777024,46.7349016 130.45423,46.5545295 131.184369,46.5545295 L131.184369,46.5545295 Z M131.164928,47.4164357 C130.603282,47.4164357 130.075127,47.5568451 129.580446,47.837668 C129.085766,48.118491 128.70558,48.5040767 128.439878,48.9944368 C128.174177,49.4847969 128.041328,50.025913 128.041328,50.6178014 C128.041328,51.3609022 128.270303,51.9646625 128.728261,52.4291005 C129.186218,52.8935385 129.778097,53.1257539 130.503917,53.1257539 C131.069884,53.1257539 131.582918,52.990745 132.043035,52.7207229 C132.503153,52.4507008 132.869297,52.0607948 133.141479,51.5509931 C133.413661,51.0411914 133.549751,50.4946749 133.549751,49.9114272 C133.549751,49.4232273 133.448224,48.9901184 133.245168,48.6120875 C133.042111,48.2340565 132.754812,47.9402769 132.383261,47.7307398 C132.011711,47.5212027 131.605604,47.4164357 131.164928,47.4164357 L131.164928,47.4164357 Z M136.329884,46.7359835 L137.230673,46.7359835 L137.114025,47.6238116 C137.355964,47.2868241 137.647584,47.0243665 137.988891,46.8364311 C138.330199,46.6484958 138.680143,46.5545295 139.038732,46.5545295 C139.293633,46.5545295 139.559331,46.6150136 139.835833,46.7359835 L139.40812,47.5654871 C139.183462,47.4747597 138.99553,47.4293967 138.844318,47.4293967 C138.528932,47.4293967 138.216791,47.539564 137.907885,47.759902 C137.59898,47.9802401 137.348404,48.3010215 137.156148,48.722256 C136.963892,49.1434904 136.800801,49.8358166 136.66687,50.7992553 L136.252118,53.7867647 L135.37077,53.7867647 L136.329884,46.7359835 Z M144.819336,44.0141745 L145.739566,44.0141745 L145.240568,47.7923045 C146.057115,46.9671171 146.990297,46.5545295 148.040143,46.5545295 C149.003582,46.5545295 149.793114,46.8634301 150.408765,47.4812406 C151.024416,48.0990512 151.332236,48.8939842 151.332236,49.8660637 C151.332236,50.9893556 150.932609,51.95386 150.133344,52.7596058 C149.334079,53.5653518 148.392256,53.9682186 147.307847,53.9682186 C146.720279,53.9682186 146.204005,53.8440103 145.759008,53.5955901 C145.314012,53.3471697 144.933826,52.9615839 144.618441,52.4388212 L144.456428,53.7867647 L143.516756,53.7867647 L144.819336,44.0141745 Z M147.942936,47.3840332 C147.364008,47.3840332 146.833693,47.5212024 146.351973,47.7955448 C145.870254,48.0698873 145.488988,48.4641136 145.208166,48.9782356 C144.927343,49.4923576 144.786934,50.051835 144.786934,50.6566844 C144.786934,51.3868241 145.019149,51.9808638 145.483587,52.4388212 C145.948025,52.8967787 146.547465,53.1257539 147.281925,53.1257539 C148.150316,53.1257539 148.893406,52.8125331 149.511216,52.1860818 C150.129027,51.5596306 150.437928,50.7906193 150.437928,49.8790247 C150.437928,49.1316036 150.207872,48.5289233 149.747754,48.0709659 C149.287637,47.6130085 148.686037,47.3840332 147.942936,47.3840332 L147.942936,47.3840332 Z M153.049568,46.7359835 L153.950357,46.7359835 L153.833708,47.6238116 C154.075648,47.2868241 154.367267,47.0243665 154.708575,46.8364311 C155.049883,46.6484958 155.399826,46.5545295 155.758416,46.5545295 C156.013316,46.5545295 156.279014,46.6150136 156.555517,46.7359835 L156.127804,47.5654871 C155.903146,47.4747597 155.715213,47.4293967 155.564,47.4293967 C155.248615,47.4293967 154.936474,47.539564 154.627569,47.759902 C154.318664,47.9802401 154.068087,48.3010215 153.875831,48.722256 C153.683575,49.1434904 153.520485,49.8358166 153.386554,50.7992553 L152.971802,53.7867647 L152.090454,53.7867647 L153.049568,46.7359835 Z M160.586386,46.5545295 C161.186916,46.5545295 161.737752,46.6981791 162.238913,46.9854826 C162.740074,47.2727861 163.13106,47.6724128 163.411883,48.1843746 C163.692706,48.6963365 163.833115,49.2763352 163.833115,49.9243882 C163.833115,50.6631686 163.653823,51.3490144 163.295235,51.9819462 C162.936645,52.6148779 162.454933,53.1041506 161.850083,53.4497788 C161.245234,53.7954071 160.560468,53.9682186 159.795766,53.9682186 C158.849608,53.9682186 158.070877,53.6582379 157.459546,53.0382672 C156.848216,52.4182966 156.542556,51.6287638 156.542556,50.6696455 C156.542556,49.917904 156.721848,49.2244976 157.080437,48.5894057 C157.439027,47.9543138 157.93046,47.4564006 158.554751,47.0956511 C159.179041,46.7349016 159.856246,46.5545295 160.586386,46.5545295 L160.586386,46.5545295 Z M160.566945,47.4164357 C160.005299,47.4164357 159.477143,47.5568451 158.982463,47.837668 C158.487783,48.118491 158.107598,48.5040767 157.841896,48.9944368 C157.576194,49.4847969 157.443345,50.025913 157.443345,50.6178014 C157.443345,51.3609022 157.67232,51.9646625 158.130278,52.4291005 C158.588235,52.8935385 159.180115,53.1257539 159.905934,53.1257539 C160.4719,53.1257539 160.984934,52.990745 161.445052,52.7207229 C161.90517,52.4507008 162.271314,52.0607948 162.543497,51.5509931 C162.815679,51.0411914 162.951768,50.4946749 162.951768,49.9114272 C162.951768,49.4232273 162.850241,48.9901184 162.647184,48.6120875 C162.444128,48.2340565 162.156829,47.9402769 161.785278,47.7307398 C161.413728,47.5212027 161.007621,47.4164357 160.566945,47.4164357 L160.566945,47.4164357 Z M166.503081,44.0141745 L167.384428,44.0141745 L166.639171,49.3476239 L170.034952,46.7359835 L171.4477,46.7359835 L167.352026,49.8855053 L170.961663,53.7867647 L169.75629,53.7867647 L166.503081,50.2872961 L166.030004,53.7867647 L165.122734,53.7867647 L166.503081,44.0141745 Z M179.088206,50.442828 L172.802124,50.442828 C172.789163,51.2809765 173.007337,51.9398205 173.456655,52.4193798 C173.905971,52.8989389 174.504331,53.1387149 175.251752,53.1387149 C175.748592,53.1387149 176.208703,53.0371882 176.632098,52.8341316 C177.055493,52.631075 177.405436,52.345936 177.681939,51.9787059 L178.35591,52.5295482 C178.014602,52.9659039 177.568533,53.3147672 177.017688,53.5761485 C176.466843,53.8375299 175.871723,53.9682186 175.232311,53.9682186 C174.1263,53.9682186 173.295725,53.6258358 172.740559,52.9410598 C172.185394,52.2562838 171.907815,51.4861924 171.907815,50.6307624 C171.907815,49.9308652 172.094668,49.2569002 172.468379,48.6088472 C172.842089,47.9607942 173.342162,47.4564006 173.968614,47.0956511 C174.595065,46.7349016 175.27335,46.5545295 176.00349,46.5545295 C176.906443,46.5545295 177.653854,46.8601899 178.245742,47.4715199 C178.837631,48.0828499 179.13357,48.8615819 179.13357,49.8077392 C179.13357,49.9805534 179.118449,50.1922475 179.088206,50.442828 L179.088206,50.442828 Z M178.258703,49.6586878 C178.232781,48.9933534 178.005966,48.4543975 177.578251,48.0418037 C177.150535,47.62921 176.61266,47.4229162 175.964607,47.4229162 C175.26039,47.4229162 174.639348,47.6216495 174.101464,48.019122 C173.56358,48.4165944 173.182314,48.9631109 172.957656,49.6586878 L178.258703,49.6586878 Z M181.019395,46.7359835 L181.920184,46.7359835 L181.803535,47.6238116 C182.045475,47.2868241 182.337094,47.0243665 182.678402,46.8364311 C183.01971,46.6484958 183.369653,46.5545295 183.728242,46.5545295 C183.983144,46.5545295 184.248841,46.6150136 184.525344,46.7359835 L184.097631,47.5654871 C183.872973,47.4747597 183.68504,47.4293967 183.533828,47.4293967 C183.218442,47.4293967 182.906301,47.539564 182.597396,47.759902 C182.288491,47.9802401 182.037914,48.3010215 181.845658,48.722256 C181.653403,49.1434904 181.490311,49.8358166 181.356381,50.7992553 L180.941629,53.7867647 L180.060281,53.7867647 L181.019395,46.7359835 Z M188.64694,47.5266041 L188.154422,48.2589004 C187.75695,47.6929341 187.286039,47.4099552 186.741674,47.4099552 C186.430608,47.4099552 186.164911,47.5114819 185.944573,47.7145386 C185.724235,47.9175952 185.614067,48.1422502 185.614067,48.3885103 C185.614067,48.5786058 185.681032,48.760058 185.814963,48.9328721 C185.944574,49.1056862 186.240513,49.341142 186.702791,49.6392463 C187.376766,50.075602 187.821756,50.4557874 188.037774,50.7798139 C188.249471,51.1081607 188.355318,51.486186 188.355318,51.913901 C188.355318,52.5057893 188.149024,52.9961421 187.73643,53.3849739 C187.323837,53.7738057 186.787041,53.9682186 186.126027,53.9682186 C185.253315,53.9682186 184.518867,53.5815528 183.922658,52.8082096 L184.4735,52.1666404 C184.996263,52.8017323 185.564381,53.1192735 186.177871,53.1192735 C186.527819,53.1192735 186.8324,52.9961452 187.091621,52.7498851 C187.350842,52.503625 187.480451,52.2184859 187.480451,51.8944594 C187.480451,51.6309179 187.383245,51.378181 187.188828,51.1362412 C187.063538,50.9807085 186.726556,50.7171709 186.177871,50.3456206 C185.585982,49.9395074 185.197156,49.6025248 185.011381,49.3346629 C184.825606,49.0711214 184.73272,48.7730215 184.73272,48.4403543 C184.73272,47.9175916 184.929293,47.4726019 185.322445,47.1053718 C185.715597,46.7381418 186.21243,46.5545295 186.81296,46.5545295 C187.167229,46.5545295 187.48801,46.6258143 187.775314,46.7683859 C188.062617,46.9109576 188.353156,47.1636945 188.64694,47.5266041 L188.64694,47.5266041 Z" id="for-brokers"></path>
                                            </g>
                                        </g>
                                    </g>
                                </g>
                            </g>
                        </g>
                    </g>
                </g>
            </g>
        </g>
    </g>
</svg>