<?xml version="1.0" encoding="UTF-8"?>
<svg width="190px" height="63px" viewBox="0 0 190 63" version="1.1" xmlns="http://www.w3.org/2000/svg" xmlns:xlink="http://www.w3.org/1999/xlink">
    <!-- Generator: Sketch 41.2 (35397) - http://www.bohemiancoding.com/sketch -->
    <title>design</title>
    <desc>Created with Sketch.</desc>
    <defs></defs>
    <g id="Pages" stroke="none" stroke-width="1" fill="none" fill-rule="evenodd">
        <g id="Web-Mobile" transform="translate(-65.000000, -2994.000000)" fill="#FFFFFF">
            <g id="Logo" transform="translate(13.000000, 374.000000)">
                <g id="Sub-brands" transform="translate(0.000000, 2119.000000)">
                    <g id="design" transform="translate(52.000000, 501.000000)">
                        <g id="Desktop-HD">
                            <g id="sub-brands">
                                <g id="logo-box-hover">
                                    <g id="logo-my-empl">
                                        <path d="M49.6178574,27.8459186 C47.875818,25.8035914 45.8923203,24.7611239 43.7179315,24.7611239 C41.862116,24.7611239 40.2717781,25.4911352 38.9949567,26.9142311 C37.7206637,28.3472687 37.074668,30.1367905 37.074668,32.2302469 C37.074668,33.6860087 37.3578442,35.0054259 37.9241967,36.1331087 C38.4918133,37.2764142 39.3021524,38.1711751 40.3324587,38.8159711 C41.3577083,39.455086 42.5232819,39.7860055 43.784933,39.7860055 C44.8594856,39.7860055 45.8543949,39.5559241 46.7456415,39.109964 C47.615397,38.6625835 48.5837585,37.8459367 49.615329,36.7054716 C49.720256,36.8261933 51.8807388,39.3641896 51.9970433,39.4863316 C50.60771,40.9989036 49.2752647,42.0626749 48.037633,42.6520809 C46.7797743,43.2514286 45.3259679,43.5624645 43.7229883,43.5624645 C40.7584872,43.5624645 38.2958655,42.4830705 36.4109738,40.3754115 C34.5197612,38.2620715 33.5665698,35.5252394 33.5665698,32.2188849 C33.5665698,30.0814006 33.9989192,28.159795 34.8572971,26.4995165 C35.7194676,24.8477595 36.9684769,23.4885752 38.5689282,22.4730925 C40.1769646,21.4661315 41.9291174,20.95768 43.7748196,20.95768 C45.3474589,20.95768 46.8847013,21.3340478 48.341036,22.081102 C49.7758799,22.8167943 51.0210967,23.8763048 52.0691016,25.2241272 L49.6178574,27.8459186 L49.6178574,27.8459186 Z M57.2230796,38.6884553 L57.2230796,38.6884553 C56.476293,37.8462502 56.091391,36.7493623 56.091391,35.4058767 C56.091391,34.1014695 56.4801293,33.0140143 57.2371457,32.1745042 C58.0005559,31.3296041 58.9660077,30.9037852 60.1104837,30.9037852 C61.2754195,30.9037852 62.2549375,31.3255615 63.0055603,32.1583339 C63.7587406,32.9870637 64.1359701,34.079909 64.1359701,35.4058767 C64.1359701,36.7264543 63.7510681,37.8246897 62.9799854,38.6736324 C62.2204114,39.5212277 61.2485659,39.945699 60.0951388,39.945699 C58.9429904,39.945699 57.9775385,39.5212277 57.2230796,38.6884553 C57.2230796,38.6884553 57.9775385,39.5212277 57.2230796,38.6884553 L57.2230796,38.6884553 L57.2230796,38.6884553 L57.2230796,38.6884553 L57.2230796,38.6884553 Z M55.2483835,29.3792997 C53.6725887,30.9963135 52.8735595,33.0290122 52.8735595,35.4372127 C52.8735595,37.6819105 53.5798222,39.6190015 54.9750313,41.19029 C56.3714773,42.7546504 58.0746714,43.5624645 60.0425595,43.5624645 C61.3858194,43.5624645 62.6276544,43.1980475 63.7408532,42.4802985 C64.854052,41.7694775 65.744611,40.7676772 66.3890294,39.5067667 C67.0297371,38.2347712 67.3538017,36.8602402 67.3538017,35.4095003 C67.3538017,33.9670741 67.0359215,32.6008568 66.3939769,31.3524169 C65.7532692,30.1039769 64.854052,29.1021766 63.7086941,28.3774994 C62.5658101,27.6500511 61.3301594,27.2870197 60.0326644,27.2870197 C58.2367037,27.2870197 56.6262761,27.9936838 55.2483835,29.3792997 L55.2483835,29.3792997 L55.2483835,29.3792997 L55.2483835,29.3792997 L55.2483835,29.3792997 Z M68.9627175,21.8618714 L68.9627175,43.5624645 L72.1805488,43.5624645 L72.1805488,21.8618714 L68.9627175,21.8618714 L68.9627175,21.8618714 Z M78.9460003,38.6884553 L78.9460003,38.6884553 C78.191541,37.8462502 77.8117541,36.7493623 77.8117541,35.4058767 C77.8117541,34.1014695 78.1966564,33.0140143 78.9575093,32.1745042 C79.7209195,31.3296041 80.6850926,30.9037852 81.8270108,30.9037852 C82.9983406,30.9037852 83.9701857,31.3255615 84.7233659,32.1583339 C85.4727099,32.9870637 85.8563331,34.079909 85.8563331,35.4058767 C85.8563331,36.7264543 85.4701525,37.8246897 84.702906,38.6736324 C83.9394958,39.5212277 82.9650933,39.945699 81.8142235,39.945699 C80.6620747,39.945699 79.6966232,39.5212277 78.9460003,38.6884553 C78.9460003,38.6884553 79.6966232,39.5212277 78.9460003,38.6884553 L78.9460003,38.6884553 L78.9460003,38.6884553 L78.9460003,38.6884553 L78.9460003,38.6884553 Z M76.9683413,29.3792997 C75.3903424,30.9963135 74.5939225,33.0290122 74.5939225,35.4372127 C74.5939225,37.6819105 75.3013015,39.6190015 76.693799,41.19029 C78.0900063,42.7546504 79.7916728,43.5624645 81.7641718,43.5624645 C83.1047287,43.5624645 84.345115,43.1980475 85.4593603,42.4802985 C86.5674221,41.7694775 87.4590656,40.7676772 88.1033744,39.5067667 C88.7464455,38.2347712 89.0741647,36.8602402 89.0741647,35.4095003 C89.0741647,33.9670741 88.7501561,32.6008568 88.1095578,31.3524169 C87.4677224,30.1039769 86.5674221,29.1021766 85.4272069,28.3774994 C84.2832812,27.6500511 83.0478418,27.2870197 81.751805,27.2870197 C79.9598612,27.2870197 78.3484719,27.9936838 76.9683413,29.3792997 L76.9683413,29.3792997 L76.9683413,29.3792997 L76.9683413,29.3792997 L76.9683413,29.3792997 Z M97.0311489,27.733078 L97.0311489,27.733078 C96.4077372,28.0200327 95.6989255,28.5584279 94.9205758,29.3184316 L94.7900374,29.4505444 L94.7900374,27.6975638 L91.4875385,27.6975638 L91.4875385,43.5624645 L94.7900374,43.5624645 L94.7900374,37.2139472 C94.7900374,35.5177893 94.8400563,34.4495224 94.9437551,33.9310151 C95.1413928,32.9565056 95.5000681,32.1794551 96.0088022,31.6254337 C96.5248555,31.0685711 97.1507078,30.7872987 97.8704983,30.7872987 C98.4243714,30.7872987 98.8977257,30.9563462 99.2808006,31.2944413 C99.6541164,31.6410599 99.9273929,32.1410997 100.079891,32.7846169 C100.229949,33.4309752 100.303148,34.6810749 100.303148,36.6286733 L100.303148,43.5624645 L103.554407,43.5624645 L103.554407,33.0445808 C103.554407,31.2319363 103.160352,29.8383594 102.379562,28.9249343 C101.445054,27.8296765 100.298268,27.2870197 98.9611647,27.2870197 C98.3048132,27.2870197 97.6582215,27.4361793 97.0311489,27.733078 L97.0311489,27.733078 Z M106.772239,27.2870197 L106.772239,43.5624645 L109.99007,43.5624645 L109.99007,27.2870197 L106.772239,27.2870197 L106.772239,27.2870197 Z M116.425733,35.3941051 C116.425733,34.0887021 116.803985,33.0004223 117.560488,32.1625667 C118.313145,31.3193829 119.274802,30.9037852 120.415968,30.9037852 C121.581496,30.9037852 122.561104,31.3073945 123.324018,32.142586 C124.089497,32.9657892 124.470313,34.0527369 124.470313,35.3794527 C124.470313,36.7354732 124.089497,37.8450658 123.324018,38.6829215 C122.561104,39.522109 121.589189,39.945699 120.431355,39.945699 C119.304293,39.945699 118.343918,39.5101207 117.577157,38.6602767 C116.811679,37.8104327 116.425733,36.7088324 116.425733,35.3941051 C116.425733,35.3941051 116.425733,36.7088324 116.425733,35.3941051 L116.425733,35.3941051 L116.425733,35.3941051 L116.425733,35.3941051 L116.425733,35.3941051 Z M115.120552,29.5635867 L115.120552,29.5635867 C113.84963,31.0891498 113.207902,33.0650381 113.207902,35.4566113 C113.207902,37.7442632 113.872191,39.6882824 115.176954,41.2304729 C116.498012,42.7754347 118.069744,43.5624645 119.86583,43.5624645 C120.66047,43.5624645 121.413748,43.40589 122.099344,43.0816558 C122.781181,42.7712779 123.471791,42.2447437 124.161147,41.529766 L124.297765,41.3759626 L124.297765,43.1620215 L127.688144,43.1620215 L127.688144,27.6874627 L124.297765,27.6874627 L124.297765,29.5497305 L124.157387,29.3792997 C123.533206,28.689263 122.846356,28.1599577 122.114385,27.8066257 C121.383668,27.4588361 120.595295,27.2870197 119.760547,27.2870197 C117.945659,27.2870197 116.386461,28.0560366 115.120552,29.5635867 L115.120552,29.5635867 L115.120552,29.5635867 L115.120552,29.5635867 L115.120552,29.5635867 Z M130.905976,21.8618714 L130.905976,43.5624645 L134.123807,43.5624645 L134.123807,21.8618714 L130.905976,21.8618714 L130.905976,21.8618714 Z M142.972844,20.95768 L142.972844,43.5624645 L151.821881,43.5624645 L151.821881,39.7130464 L146.475825,39.7130464 L146.475825,20.95768 L142.972844,20.95768 L142.972844,20.95768 Z M163.841151,21.7121254 C163.290552,22.2122313 162.958649,22.9052351 162.864739,23.766846 C162.81714,24.1469265 162.781119,25.4043355 162.775974,27.5047801 L162.775974,27.6048012 L161.475376,27.6048012 L161.475376,30.8369139 L162.775974,30.8369139 L162.775974,43.5624645 L166.258384,43.5624645 L166.258384,30.8369139 L168.561124,30.8369139 L168.561124,27.6048012 L166.258384,27.6048012 L166.267389,25.4857813 C166.267389,24.9871043 166.345863,24.6627499 166.504096,24.4970006 C166.726651,24.276954 167.059841,24.1655018 167.503665,24.1655018 C167.821417,24.1655018 168.234366,24.2555209 168.715497,24.401266 L168.715497,21.5106542 C167.803406,21.1477203 166.96207,20.95768 166.235228,20.95768 C165.207358,20.95768 164.399469,21.2105907 163.841151,21.7121254 L163.841151,21.7121254 Z M176.823399,29.9995938 C177.761849,29.9995938 178.601515,30.2429224 179.313268,30.7223876 C180.026287,31.2054487 180.506276,31.8443361 180.749438,32.605487 L180.782366,32.712168 L172.737787,32.712168 L172.794778,32.5958976 C173.202579,31.7532376 173.655973,31.1527076 174.13343,30.806294 C174.904707,30.2752863 175.812761,29.9995938 176.823399,29.9995938 C176.823399,29.9995938 175.812761,29.9995938 176.823399,29.9995938 L176.823399,29.9995938 L176.823399,29.9995938 L176.823399,29.9995938 L176.823399,29.9995938 Z M171.559478,29.6217825 C170.207199,31.1709011 169.519955,33.1537176 169.519955,35.5092647 C169.519955,37.7996878 170.207199,39.7381646 171.564413,41.2637277 C172.915458,42.7865196 174.693409,43.5624645 176.857549,43.5624645 C178.246842,43.5624645 179.460933,43.2797989 180.470206,42.7283237 C181.456037,42.1879335 182.30368,41.3482502 183.0156,40.234215 C182.834227,40.14415 180.301171,38.8098018 180.209868,38.7613053 C179.265987,39.7755762 178.13333,40.2924109 176.829171,40.2924109 C175.717489,40.2924109 174.785946,39.9584774 174.071558,39.2822969 C173.359637,38.6130444 172.905588,37.694381 172.74519,36.5637184 L172.726682,36.4556403 L183.984158,36.4556403 C183.992794,36.3129219 184.000197,35.7974728 184.000197,35.7974728 C184.000197,33.253482 183.315421,31.1709011 181.955739,29.6217825 C180.607161,28.0712783 178.827977,27.2870197 176.655201,27.2870197 C174.626782,27.2870197 172.905588,28.0712783 171.559478,29.6217825 L171.559478,29.6217825 L171.559478,29.6217825 L171.559478,29.6217825 L171.559478,29.6217825 Z M155.039713,27.2870197 L155.039713,43.5624645 L158.257545,43.5624645 L158.257545,27.2870197 L155.039713,27.2870197 L155.039713,27.2870197 Z M186.865865,40.7252014 L187.124709,40.7252014 C187.424422,40.7252014 187.66828,40.6107071 187.66828,40.3299608 C187.66828,40.0821512 187.511612,39.9190359 187.166941,39.9190359 C187.023897,39.9190359 186.923083,39.9331517 186.865865,39.9504042 L186.865865,40.7252014 L186.865865,40.7252014 L186.865865,40.7252014 L186.865865,40.7252014 Z M186.853605,42.2434273 L186.307309,42.2434273 L186.307309,39.5379111 C186.521195,39.5065428 186.822271,39.4563534 187.209174,39.4563534 C187.653295,39.4563534 187.85492,39.5379111 188.012951,39.6696579 C188.155996,39.7857207 188.255446,39.983341 188.255446,40.2468347 C188.255446,40.5777704 188.04156,40.7910748 187.769093,40.8914534 L187.769093,40.9228217 C187.997965,41.0059477 188.111038,41.2208206 188.184604,41.5831245 C188.255446,41.9956177 188.312664,42.1430488 188.354896,42.2434273 L187.782716,42.2434273 C187.711875,42.1430488 187.66828,41.9124917 187.596077,41.5831245 C187.555206,41.3023782 187.410799,41.1690629 187.109723,41.1690629 L186.853605,41.1690629 L186.853605,42.2434273 L186.853605,42.2434273 L186.853605,42.2434273 L186.853605,42.2434273 Z M185.405444,40.8412641 C185.405444,42.045807 186.192873,43.0009719 187.237783,43.0009719 C188.255446,43.0182244 189.027889,42.045807 189.027889,40.8569483 C189.027889,39.6539737 188.255446,38.6815563 187.209174,38.6815563 C186.192873,38.6815563 185.405444,39.6539737 185.405444,40.8412641 C185.405444,40.8412641 185.405444,39.6539737 185.405444,40.8412641 L185.405444,40.8412641 L185.405444,40.8412641 L185.405444,40.8412641 L185.405444,40.8412641 Z M189.631403,40.8412641 C189.631403,42.3579217 188.571507,43.5624645 187.224159,43.5624645 C185.878174,43.5624645 184.804655,42.3579217 184.804655,40.8412641 C184.804655,39.3246066 185.878174,38.1373162 187.237783,38.1373162 C188.571507,38.1373162 189.631403,39.3246066 189.631403,40.8412641 L189.631403,40.8412641 L189.631403,40.8412641 L189.631403,40.8412641 L189.631403,40.8412641 Z" id="logo"></path>
                                        <path d="M105.967781,17.7943552 C105.967781,19.5387567 107.230195,20.95768 108.782187,20.95768 C110.337769,20.95768 111.598986,19.5387567 111.598986,17.7943552 C111.598986,16.041884 110.337769,14.6283404 108.782187,14.6283404 C107.230195,14.6283404 105.967781,16.041884 105.967781,17.7943552 Z M119.645326,17.3409145 C120.97324,17.3409145 122.056939,15.5123348 122.056939,13.2740881 C122.056939,11.0304153 120.97324,9.20319209 119.645326,9.20319209 C118.312716,9.20319209 117.230191,11.0304153 117.230191,13.2740881 C117.230191,15.5123348 118.312716,17.3409145 119.645326,17.3409145 Z M145.386218,4.68834004 C145.386218,7.17639254 146.288103,9.20319209 147.397937,9.20319209 C148.505475,9.20319209 149.408508,7.17639254 149.408508,4.68834004 C149.408508,2.19214779 148.546835,0.161278325 147.440446,0.161278325 C146.328314,0.161278325 145.386218,2.19214779 145.386218,4.68834004 Z M127.688144,6.93780167 C127.688144,9.68150641 128.586351,11.9157662 129.69667,11.9157662 C130.808299,11.9157662 131.710434,9.68150641 131.710434,6.93780167 C131.710434,4.1983072 130.808299,1.96966108 129.69667,1.96966108 C128.586351,1.96966108 127.688144,4.1983072 127.688144,6.93780167 Z M154.235255,16.437413 C154.235255,18.4282551 155.323046,20.0534886 156.651851,20.0534886 C157.981945,20.0534886 159.062002,18.4282551 159.062002,16.437413 C159.062002,14.4382929 157.981945,12.8199576 156.651851,12.8199576 C155.323046,12.8199576 154.235255,14.4382929 154.235255,16.437413 Z M136.537181,10.1080983 C136.537181,13.536163 137.464984,16.4367231 138.549005,16.4367231 C139.642536,16.4367231 140.559471,13.536163 140.559471,10.1080983 C140.559471,6.67431536 139.642536,3.77804384 138.549005,3.77804384 C137.464984,3.77804384 136.537181,6.67431536 136.537181,10.1080983 Z" id="logo-dots"></path>
                                        <path d="M0,29.3361423 L0,21.0441176 L29.3382353,21.0441176 L29.3382353,43.6470588 L0,43.6470588 L0,39.7912204 L2.10533535,39.7912204 L2.10533535,35.1402481 C2.10533535,34.1344544 2.1842801,33.3977375 2.34217195,32.9300754 C2.50006381,32.4624133 2.7383334,32.0988595 3.05698788,31.8394032 C3.37564235,31.5799468 3.73017602,31.4502206 4.12059952,31.4502206 C4.47083237,31.4502206 4.76938704,31.5527203 5.01627249,31.7577229 C5.26315794,31.9627254 5.44831925,32.2750293 5.57176197,32.694644 C5.6952047,33.1142585 5.75692514,33.7917178 5.75692514,34.727042 L5.75692514,39.7912204 L8.12529118,39.7912204 L8.12529118,35.072982 C8.12529118,34.0735945 8.20280057,33.3480886 8.35782164,32.8964423 C8.51284271,32.4447961 8.74967694,32.0908517 9.06833146,31.8345985 C9.3869859,31.5783453 9.74726104,31.4502206 10.1491676,31.4502206 C10.6773876,31.4502206 11.0735467,31.6600247 11.3376567,32.0796394 C11.6017667,32.4992539 11.7338197,33.3016347 11.7338197,34.4868058 L11.7338197,39.7912204 L14.1021857,39.7912204 L14.1021857,33.6603934 C14.1021857,32.4047527 13.9916631,31.4982706 13.7706145,30.9409199 C13.5495659,30.3835692 13.1864201,29.9319297 12.6811662,29.5859879 C12.1759122,29.2400461 11.5902858,29.0670778 10.9242692,29.0670778 C10.2812187,29.0670778 9.68841546,29.2272336 9.14584161,29.5475501 C8.60326776,29.8678666 8.14538822,30.3355217 7.77218932,30.9505293 C7.48511322,30.3355217 7.1061784,29.8678666 6.63537363,29.5475501 C6.16456881,29.2272336 5.63635671,29.0670778 5.05072145,29.0670778 C4.47082772,29.0670778 3.93543882,29.1887962 3.44453868,29.4322368 C2.95363854,29.6756773 2.50724189,30.0440357 2.10533535,30.5373232 L2.10533535,29.3361423 L1.93880859e-17,29.3361423 L0,29.3361423 Z M15.2992872,29.3361423 L17.7021021,29.3361423 L20.139366,35.8993944 L22.8263849,29.3361423 L25.2378122,29.3361423 L19.3642644,43.6157802 L16.9356128,43.6157802 L18.8647545,39.0128552 L15.2992872,29.3361423 Z" id="Rectangle-1"></path>
                                        <path d="M102.099896,49.3780948 L101.976767,50.3325698 C101.65274,49.9854863 101.348161,49.8119471 101.063017,49.8119471 C100.881562,49.8119471 100.726032,49.910768 100.596421,50.1084128 C100.466811,50.3060576 100.365284,50.7061618 100.291838,51.3087373 L100.18167,52.1475184 L101.633301,52.1475184 L101.536094,53.0369155 L100.084462,53.0369155 L99.2031143,60.0147059 L98.3152863,60.0147059 L99.2031143,53.0369155 L98.3152863,53.0369155 L98.4124936,52.1475184 L99.3068019,52.1475184 L99.3910488,51.4533548 C99.4947371,50.6386726 99.6049043,50.0939524 99.7215538,49.819178 C99.8382033,49.5444035 100.011015,49.3238641 100.239994,49.1575533 C100.468973,48.9912424 100.72171,48.9080882 100.998212,48.9080882 C101.361122,48.9080882 101.728346,49.0647555 102.099896,49.3780948 L102.099896,49.3780948 Z M106.357583,51.945054 C106.958112,51.945054 107.508949,52.1053367 108.01011,52.4259069 C108.511272,52.7464772 108.902257,53.1923764 109.18308,53.763618 C109.463903,54.3348596 109.604313,54.9820161 109.604313,55.7051068 C109.604313,56.5294302 109.425021,57.2946898 109.066431,58.0009084 C108.707842,58.7071269 108.22613,59.2530522 107.62128,59.6387006 C107.016431,60.024349 106.331665,60.2171702 105.566962,60.2171702 C104.620805,60.2171702 103.842073,59.8712971 103.230743,59.1795403 C102.619414,58.4877835 102.313753,57.6068312 102.313753,56.536657 C102.313753,55.6978718 102.493045,54.9241763 102.851634,54.2155474 C103.210223,53.5069186 103.701656,52.9513522 104.325947,52.5488317 C104.950239,52.1463112 105.627444,51.945054 106.357583,51.945054 L106.357583,51.945054 Z M106.338142,52.9067598 C105.776496,52.9067598 105.248341,53.0634271 104.75366,53.3767664 C104.25898,53.6901058 103.878794,54.1203382 103.613093,54.6674769 C103.347391,55.2146155 103.214542,55.8183872 103.214542,56.47881 C103.214542,57.307954 103.443518,57.9816235 103.901475,58.4998384 C104.359432,59.0180534 104.951312,59.277157 105.677131,59.277157 C106.243098,59.277157 106.756132,59.1265154 107.216249,58.8252277 C107.676367,58.5239398 108.042512,58.0888868 108.314694,57.5200554 C108.586876,56.951224 108.722965,56.3414267 108.722965,55.6906451 C108.722965,55.1459168 108.621438,54.6626584 108.418382,54.2408555 C108.215325,53.8190526 107.928026,53.4912564 107.556476,53.2574571 C107.184925,53.0236577 106.778818,52.9067598 106.338142,52.9067598 L106.338142,52.9067598 Z M111.503098,52.1475184 L112.403888,52.1475184 L112.287239,53.1381477 C112.529179,52.7621405 112.820798,52.4692932 113.162106,52.2595969 C113.503413,52.0499006 113.853357,51.945054 114.211946,51.945054 C114.466847,51.945054 114.732545,52.0125415 115.009047,52.1475184 L114.581335,53.0730699 C114.356676,52.9718371 114.168744,52.9212216 114.017532,52.9212216 C113.702146,52.9212216 113.390005,53.0441451 113.081099,53.289996 C112.772194,53.5358468 112.521618,53.8937713 112.329362,54.3637803 C112.137106,54.8337892 111.974015,55.6062796 111.840084,56.6812744 L111.425332,60.0147059 L110.543985,60.0147059 L111.503098,52.1475184 Z M125.863881,56.2835765 L119.577799,56.2835765 C119.564837,57.2187738 119.783012,57.953905 120.232328,58.4889922 C120.681645,59.0240792 121.280005,59.2916188 122.027427,59.2916188 C122.524267,59.2916188 122.984378,59.1783363 123.407772,58.9517679 C123.831167,58.7251994 124.18111,58.4070443 124.457613,57.9972929 L125.131584,58.6119169 C124.790277,59.098798 124.344207,59.488056 123.793362,59.7797026 C123.242517,60.0713492 122.647397,60.2171702 122.007984,60.2171702 C120.901974,60.2171702 120.071399,59.8351431 119.516234,59.0710772 C118.961068,58.3070114 118.68349,57.4477515 118.68349,56.4932718 C118.68349,55.7123338 118.870342,54.9603308 119.244052,54.23724 C119.617764,53.5141493 120.117837,52.9513522 120.744288,52.5488317 C121.370739,52.1463112 122.049024,51.945054 122.779164,51.945054 C123.682118,51.945054 124.429528,52.2861067 125.021416,52.9682222 C125.613304,53.6503378 125.909244,54.5192388 125.909244,55.5749511 C125.909244,55.7677754 125.894124,56.0039815 125.863881,56.2835765 L125.863881,56.2835765 Z M125.034377,55.4086411 C125.008455,54.666268 124.78164,54.0649066 124.353925,53.6045389 C123.92621,53.1441711 123.388334,52.9139907 122.740281,52.9139907 C122.036063,52.9139907 121.415022,53.1357352 120.877138,53.5792308 C120.339254,54.0227264 119.957989,54.6325238 119.73333,55.4086411 L125.034377,55.4086411 Z M128.170938,52.1475184 L129.058766,52.1475184 L128.916195,53.2610725 C129.188377,52.8513211 129.53616,52.5295506 129.959555,52.2957512 C130.38295,52.0619519 130.808498,51.945054 131.236213,51.945054 C131.767617,51.945054 132.238528,52.1210034 132.648962,52.4729076 C132.964348,52.747682 133.199803,53.1574273 133.355336,53.7021556 C133.675042,53.1429655 134.069268,52.7103227 134.538027,52.4042143 C135.006785,52.0981059 135.483097,51.945054 135.966976,51.945054 C136.61935,51.945054 137.155065,52.1788498 137.57414,52.6464485 C137.993214,53.1140471 138.202748,53.719024 138.202748,54.4613971 C138.202748,54.7988394 138.174666,55.2109949 138.118502,55.697876 L137.593581,60.0147059 L136.712233,60.0147059 L137.18531,56.2401913 C137.284678,55.4496121 137.334361,54.8711482 137.334361,54.5047823 C137.334361,54.0468248 137.199352,53.6684131 136.92933,53.3695356 C136.659308,53.070658 136.303964,52.9212216 135.863288,52.9212216 C135.39669,52.9212216 134.962502,53.0839145 134.560708,53.4093054 C134.158915,53.7346961 133.873776,54.1191337 133.705283,54.5626292 C133.536789,55.0061249 133.40934,55.5653066 133.322934,56.2401913 L132.843376,60.0147059 L131.942587,60.0147059 L132.473988,55.697876 C132.534473,55.2399185 132.564715,54.863917 132.564715,54.5698602 C132.564715,54.0636966 132.430787,53.6587719 132.162924,53.3550738 C131.895063,53.0513757 131.545119,52.899529 131.113083,52.899529 C130.750174,52.899529 130.402391,52.9947345 130.069724,53.1851483 C129.737057,53.3755622 129.464878,53.6250248 129.253181,53.9335435 C129.041483,54.2420622 128.880553,54.6240894 128.770384,55.0796365 C128.660215,55.5351837 128.58137,55.9461341 128.533846,56.3125 L128.06725,60.0147059 L127.166461,60.0147059 L128.170938,52.1475184 Z M140.70422,52.1475184 L141.624451,52.1475184 L141.48836,53.3261503 C142.304907,52.4054148 143.238089,51.945054 144.287935,51.945054 C145.251374,51.945054 146.040906,52.2897221 146.656557,52.9790685 C147.272208,53.668415 147.580028,54.5553929 147.580028,55.640029 C147.580028,56.8933862 147.180401,57.9695701 146.381136,58.8686128 C145.581871,59.7676557 144.640048,60.2171702 143.555639,60.2171702 C142.968071,60.2171702 142.451797,60.0785799 142.0068,59.8013952 C141.561804,59.5242104 141.183778,59.0939779 140.872713,58.5106847 L140.360754,62.8925925 L139.421081,62.8925925 L140.70422,52.1475184 Z M144.190728,52.8706055 C143.6118,52.8706055 143.081485,53.0236574 142.599765,53.3297658 C142.118046,53.6358742 141.73678,54.0757478 141.455958,54.6493997 C141.175135,55.2230516 141.034726,55.8473106 141.034726,56.5221953 C141.034726,57.3368775 141.266941,57.9997007 141.731379,58.5106847 C142.195817,59.0216688 142.795257,59.277157 143.529717,59.277157 C144.398108,59.277157 145.141198,58.9276685 145.759008,58.2286808 C146.376819,57.5296931 146.68572,56.6716384 146.68572,55.6544907 C146.68572,54.8205262 146.455664,54.1480618 145.995546,53.6370778 C145.535429,53.1260937 144.933829,52.8706055 144.190728,52.8706055 L144.190728,52.8706055 Z M149.893566,49.1105526 L150.781394,49.1105526 L149.420489,60.0147059 L148.52618,60.0147059 L149.893566,49.1105526 Z M155.499196,51.945054 C156.099725,51.945054 156.650562,52.1053367 157.151723,52.4259069 C157.652883,52.7464772 158.04387,53.1923764 158.324693,53.763618 C158.605516,54.3348596 158.745925,54.9820161 158.745925,55.7051068 C158.745925,56.5294302 158.566633,57.2946898 158.208044,58.0009084 C157.849455,58.7071269 157.367742,59.2530522 156.762893,59.6387006 C156.158043,60.024349 155.473278,60.2171702 154.708575,60.2171702 C153.762418,60.2171702 152.983686,59.8712971 152.372356,59.1795403 C151.761026,58.4877835 151.455365,57.6068312 151.455365,56.536657 C151.455365,55.6978718 151.634657,54.9241763 151.993247,54.2155474 C152.351836,53.5069186 152.843269,52.9513522 153.46756,52.5488317 C154.091851,52.1463112 154.769056,51.945054 155.499196,51.945054 L155.499196,51.945054 Z M155.479754,52.9067598 C154.918108,52.9067598 154.389953,53.0634271 153.895272,53.3767664 C153.400592,53.6901058 153.020407,54.1203382 152.754705,54.6674769 C152.489003,55.2146155 152.356154,55.8183872 152.356154,56.47881 C152.356154,57.307954 152.585129,57.9816235 153.043087,58.4998384 C153.501045,59.0180534 154.092924,59.277157 154.818744,59.277157 C155.38471,59.277157 155.897744,59.1265154 156.357862,58.8252277 C156.817979,58.5239398 157.184123,58.0888868 157.456306,57.5200554 C157.728488,56.951224 157.864577,56.3414267 157.864577,55.6906451 C157.864577,55.1459168 157.763051,54.6626584 157.559994,54.2408555 C157.356938,53.8190526 157.069638,53.4912564 156.698088,53.2574571 C156.326537,53.0236577 155.92043,52.9067598 155.479754,52.9067598 L155.479754,52.9067598 Z M160.087388,52.1475184 L161.02058,52.1475184 L162.84808,57.9539077 L165.867992,52.1475184 L166.872469,52.1475184 L161.28628,62.8925925 L160.268842,62.8925925 L162.264835,59.0530001 L160.087388,52.1475184 Z M174.454651,56.2835765 L168.168568,56.2835765 C168.155607,57.2187738 168.373782,57.953905 168.823099,58.4889922 C169.272415,59.0240792 169.870776,59.2916188 170.618196,59.2916188 C171.115037,59.2916188 171.575147,59.1783363 171.998542,58.9517679 C172.421937,58.7251994 172.771881,58.4070443 173.048383,57.9972929 L173.722355,58.6119169 C173.381046,59.098798 172.934977,59.488056 172.384132,59.7797026 C171.833287,60.0713492 171.238167,60.2171702 170.598755,60.2171702 C169.492745,60.2171702 168.662169,59.8351431 168.107003,59.0710772 C167.551838,58.3070114 167.27426,57.4477515 167.27426,56.4932718 C167.27426,55.7123338 167.461112,54.9603308 167.834823,54.23724 C168.208533,53.5141493 168.708607,52.9513522 169.335058,52.5488317 C169.961509,52.1463112 170.639794,51.945054 171.369934,51.945054 C172.272888,51.945054 173.020298,52.2861067 173.612186,52.9682222 C174.204075,53.6503378 174.500014,54.5192388 174.500014,55.5749511 C174.500014,55.7677754 174.484893,56.0039815 174.454651,56.2835765 L174.454651,56.2835765 Z M173.625147,55.4086411 C173.599225,54.666268 173.37241,54.0649066 172.944695,53.6045389 C172.51698,53.1441711 171.979104,52.9139907 171.331051,52.9139907 C170.626834,52.9139907 170.005792,53.1357352 169.467908,53.5792308 C168.930024,54.0227264 168.548758,54.6325238 168.3241,55.4086411 L173.625147,55.4086411 Z M183.080193,56.2835765 L176.794111,56.2835765 C176.78115,57.2187738 176.999324,57.953905 177.448641,58.4889922 C177.897958,59.0240792 178.496317,59.2916188 179.243738,59.2916188 C179.740579,59.2916188 180.20069,59.1783363 180.624085,58.9517679 C181.047479,58.7251994 181.397422,58.4070443 181.673925,57.9972929 L182.347897,58.6119169 C182.006589,59.098798 181.560519,59.488056 181.009674,59.7797026 C180.458829,60.0713492 179.86371,60.2171702 179.224297,60.2171702 C178.118286,60.2171702 177.287711,59.8351431 176.732546,59.0710772 C176.177381,58.3070114 175.899802,57.4477515 175.899802,56.4932718 C175.899802,55.7123338 176.086654,54.9603308 176.460365,54.23724 C176.834076,53.5141493 177.334149,52.9513522 177.9606,52.5488317 C178.587051,52.1463112 179.265337,51.945054 179.995476,51.945054 C180.89843,51.945054 181.64584,52.2861067 182.237728,52.9682222 C182.829617,53.6503378 183.125556,54.5192388 183.125556,55.5749511 C183.125556,55.7677754 183.110435,56.0039815 183.080193,56.2835765 L183.080193,56.2835765 Z M182.250689,55.4086411 C182.224767,54.666268 181.997952,54.0649066 181.570237,53.6045389 C181.142522,53.1441711 180.604646,52.9139907 179.956593,52.9139907 C179.252375,52.9139907 178.631334,53.1357352 178.09345,53.5792308 C177.555567,54.0227264 177.174301,54.6325238 176.949643,55.4086411 L182.250689,55.4086411 Z M188.64694,53.0296846 L188.154422,53.8467731 C187.75695,53.2152738 187.286039,52.899529 186.741674,52.899529 C186.430608,52.899529 186.164911,53.0128114 185.944573,53.2393799 C185.724235,53.4659483 185.614067,53.716616 185.614067,53.9913905 C185.614067,54.203497 185.681032,54.4059594 185.814963,54.5987836 C185.944574,54.7916078 186.240513,55.0543268 186.702791,55.3869485 C187.376766,55.8738296 187.821756,56.2980365 188.037774,56.6595818 C188.249471,57.0259477 188.355318,57.4477443 188.355318,57.9249842 C188.355318,58.585407 188.149024,59.1325375 187.73643,59.5663919 C187.323837,60.0002463 186.787041,60.2171702 186.126027,60.2171702 C185.253315,60.2171702 184.518867,59.7857326 183.922658,58.9228444 L184.4735,58.2069882 C184.996263,58.9156171 185.564381,59.2699262 186.177871,59.2699262 C186.527819,59.2699262 186.8324,59.132541 187.091621,58.8577665 C187.350842,58.5829921 187.480451,58.2648369 187.480451,57.9032916 C187.480451,57.6092347 187.383245,57.3272336 187.188828,57.0572797 C187.063538,56.8837379 186.726556,56.5896855 186.177871,56.1751135 C185.585982,55.7219767 185.197156,55.3459751 185.011381,55.0470976 C184.825606,54.7530407 184.73272,54.420424 184.73272,54.0492374 C184.73272,53.4659443 184.929293,52.9694294 185.322445,52.559678 C185.715597,52.1499266 186.21243,51.945054 186.81296,51.945054 C187.167229,51.945054 187.48801,52.0245928 187.775314,52.1836727 C188.062617,52.3427527 188.353156,52.6247538 188.64694,53.0296846 L188.64694,53.0296846 Z" id="for-employees"></path>
                                    </g>
                                </g>
                            </g>
                        </g>
                    </g>
                </g>
            </g>
        </g>
    </g>
</svg>