<svg width="74" height="80" viewBox="0 0 74 80" xmlns="http://www.w3.org/2000/svg"><path d="M24.058 67.676a3.567 3.567 0 0 1 3.567 3.568 3.567 3.567 0 0 1-3.567 3.567 3.567 3.567 0 0 1-3.568-3.567 3.567 3.567 0 0 1 3.568-3.568m9.721-30.12c0-6.734 8.848-3.026 9.085-8.31l-.004-.253a.004.004 0 0 0-.003-.003l-.721.53c-4.285 0-5.417-2.188-5.663-3.746 3.704-1.68 3.703-8.913 3.836-9.929.524-3.986 3.77-6.173 7.207-6.104 3.438-.069 6.682 2.118 7.205 6.104.134 1.016.134 8.25 3.837 9.929-.244 1.558-1.379 3.747-5.662 3.747l-.72-.531-.006.003-.001.253c.237 5.284 9.084 1.576 9.084 8.31 0 5.03-27.474 5.021-27.474 0M6.544 78.999a153.732 153.732 0 0 0 35.028 0c3.616-.429 6.544-4.026 6.544-7.83V51.985c6.452-.148 12.86-2.676 17.784-7.6 10.154-10.153 10.154-26.615 0-36.77A25.92 25.92 0 0 0 47.516 0a25.916 25.916 0 0 0-16.534 5.936 25.98 25.98 0 0 0-6.966 8.928c-3.66 7.722-3.299 16.876 1.083 24.316l-3.425 12.663 12.66-3.427a25.88 25.88 0 0 0 7.71 3v12.757H6.072V14.865h14.03a29.524 29.524 0 0 1 5.812-9.072c-6.465-.078-12.935.25-19.369.988C2.927 7.209 0 10.806 0 14.61v56.56c0 3.803 2.927 7.4 6.544 7.83" fill="#8394A1" fill-rule="evenodd"/></svg>