<svg width="190" height="70" viewBox="0 0 190 70" xmlns="http://www.w3.org/2000/svg" xmlns:xlink="http://www.w3.org/1999/xlink"><defs><path id="a" d="M.077.103v24.475h22.43V.103H.076z"/><path id="c" d="M.02 14.119h12.657V.916H.02V14.12z"/></defs><g fill="none" fill-rule="evenodd"><g transform="translate(0 22.945)"><mask id="b" fill="#fff"><use xlink:href="#a"/></mask><path d="M19.525 7.562c-2.119-2.212-4.532-3.34-7.178-3.34-2.257 0-4.19.79-5.744 2.332-1.55 1.552-2.335 3.487-2.335 5.754 0 1.577.345 3.006 1.032 4.226.69 1.237 1.677 2.207 2.93 2.905 1.247.69 2.665 1.049 4.198 1.049 1.308 0 2.518-.248 3.602-.732 1.059-.482 2.238-1.367 3.491-2.602.13.132 2.757 2.878 2.898 3.01-1.691 1.64-3.31 2.79-4.817 3.43-1.53.647-3.299.984-5.249.984-3.604 0-6.6-1.17-8.893-3.451C1.159 18.839 0 15.875 0 12.297 0 9.984.527 7.9 1.57 6.104c1.049-1.79 2.569-3.26 4.514-4.36a12.862 12.862 0 0 1 6.334-1.64 13.361 13.361 0 0 1 10.088 4.62l-2.98 2.838" fill="#FFF" mask="url(#b)"/></g><path d="M26.248 31.636c-1.96 1.793-2.953 4.05-2.953 6.723 0 2.489.877 4.64 2.612 6.384 1.737 1.737 3.854 2.633 6.3 2.633 1.67 0 3.213-.405 4.598-1.2a8.733 8.733 0 0 0 3.292-3.302 9.124 9.124 0 0 0 1.201-4.546 8.9 8.9 0 0 0-1.195-4.502 8.75 8.75 0 0 0-3.338-3.303 9.13 9.13 0 0 0-4.569-1.209c-2.233 0-4.236.784-5.948 2.322m2.545 10.452c-.898-.959-1.36-2.213-1.36-3.744 0-1.49.468-2.73 1.378-3.687.916-.967 2.08-1.452 3.455-1.452 1.401 0 2.578.48 3.482 1.431.904.946 1.359 2.194 1.359 3.708 0 1.506-.462 2.76-1.392 3.727-.91.97-2.079 1.452-3.467 1.452-1.385 0-2.547-.482-3.455-1.435m15.092 4.844h4.157V23.474h-4.157zm9.705-15.296c-1.96 1.793-2.95 4.05-2.95 6.723 0 2.489.879 4.64 2.61 6.384 1.736 1.737 3.854 2.633 6.306 2.633 1.666 0 3.209-.405 4.595-1.2a8.766 8.766 0 0 0 3.287-3.302 9.101 9.101 0 0 0 1.205-4.546 8.927 8.927 0 0 0-1.196-4.502 8.816 8.816 0 0 0-3.336-3.303 9.147 9.147 0 0 0-4.572-1.209c-2.226 0-4.23.784-5.95 2.322m2.554 10.452c-.909-.959-1.364-2.213-1.364-3.744 0-1.49.462-2.73 1.378-3.687.917-.967 2.078-1.452 3.45-1.452 1.408 0 2.578.48 3.483 1.431.902.946 1.363 2.194 1.363 3.708 0 1.506-.465 2.76-1.388 3.727-.917.97-2.09 1.452-3.474 1.452-1.386 0-2.546-.482-3.448-1.435m22.378-12.291c-.788.31-1.68.893-2.66 1.714l-.167.144v-1.898h-4.161v17.175h4.16v-6.874c0-1.835.066-2.991.197-3.551.248-1.057.7-1.899 1.34-2.498.652-.602 1.442-.906 2.35-.906.696 0 1.293.184 1.775.547.471.376.813.918 1.006 1.615.19.698.282 2.053.282 4.16v7.507h4.098V35.546c0-1.961-.496-3.47-1.48-4.46-1.177-1.185-2.623-1.773-4.308-1.773-.829 0-1.642.161-2.432.484m12.165 17.135h4.16V29.757h-4.16zm9.86-15.092c-1.558 1.692-2.347 3.886-2.347 6.54 0 2.538.817 4.696 2.417 6.408 1.62 1.714 3.548 2.588 5.752 2.588.974 0 1.898-.176 2.74-.535.837-.343 1.684-.926 2.53-1.721l.166-.17v1.982h4.16V29.757h-4.16v2.069l-.17-.189c-.768-.768-1.608-1.356-2.508-1.746a7.21 7.21 0 0 0-2.887-.578c-2.228 0-4.139.853-5.693 2.527m1.792 6.486c0-1.506.454-2.762 1.364-3.728.9-.973 2.054-1.455 3.422-1.455 1.4 0 2.574.467 3.487 1.432.92.948 1.375 2.204 1.375 3.734 0 1.566-.454 2.849-1.375 3.815-.913.97-2.08 1.459-3.469 1.459-1.35 0-2.503-.504-3.422-1.486-.918-.98-1.382-2.25-1.382-3.77m17.786 8.605h4.157V23.05h-4.157zm15.575-23.894v23.895h10.774v-4.07h-6.506V23.038h-4.268m25.201.378c-.657.54-1.054 1.284-1.165 2.21-.057.41-.1 1.765-.11 4.024v.108h-1.553v3.478h1.553v13.696h4.165V33.236h2.752v-3.478h-2.752l.011-2.28c0-.537.094-.886.284-1.065.266-.236.665-.356 1.194-.356.382 0 .872.095 1.448.253V23.2c-1.09-.39-2.095-.596-2.963-.596-1.23 0-2.195.271-2.864.812m9.234 8.488c-1.685 1.72-2.541 3.92-2.541 6.535 0 2.54.856 4.692 2.546 6.387 1.684 1.689 3.9 2.55 6.596 2.55 1.732 0 3.245-.315 4.504-.928 1.228-.598 2.286-1.53 3.171-2.766-.224-.1-3.382-1.58-3.494-1.634-1.179 1.127-2.59 1.7-4.217 1.7-1.383 0-2.543-.373-3.437-1.123-.885-.742-1.45-1.76-1.651-3.017l-.021-.12h14.028c.01-.156.02-.73.02-.73 0-2.823-.853-5.135-2.547-6.854-1.682-1.72-3.898-2.59-6.606-2.59-2.53 0-4.673.87-6.35 2.59m6.56.887c1.139 0 2.157.312 3.022.925a4.54 4.54 0 0 1 1.743 2.416l.041.138h-9.768l.07-.148c.493-1.082 1.045-1.855 1.626-2.296.934-.683 2.036-1.035 3.265-1.035m-27.412-15.1c0 2.22 1.299 4.032 2.885 4.032 1.587 0 2.875-1.812 2.875-4.032 0-2.226-1.288-4.032-2.875-4.032-1.586 0-2.885 1.806-2.885 4.032m-21.612-6.192c0 3.689 1.048 6.808 2.274 6.808 1.24 0 2.28-3.12 2.28-6.808 0-3.691-1.04-6.806-2.28-6.806-1.226 0-2.274 3.115-2.274 6.806m-38.273 7.7a3.62 3.62 0 0 0 3.616 3.617 3.618 3.618 0 1 0-3.616-3.617m17.072-.118c1.738 0 3.16-2.071 3.16-4.61 0-2.542-1.422-4.615-3.16-4.615-1.744 0-3.164 2.073-3.164 4.615 0 2.539 1.42 4.61 3.164 4.61m32.242-13.719c0 2.82 1.208 5.117 2.694 5.117 1.48 0 2.692-2.297 2.692-5.117 0-2.829-1.154-5.132-2.634-5.132-1.488 0-2.752 2.303-2.752 5.132m-22.513 2.525c0 3.005 1.053 5.451 2.357 5.451 1.306 0 2.367-2.446 2.367-5.451 0-3.003-1.061-5.445-2.367-5.445-1.304 0-2.357 2.442-2.357 5.445m33.888 39.045h4.164V29.757h-4.164zM10.574 57.459H7.426v-1.048h7.456v1.048h-3.148v9.333h-1.16V57.46m9.427 5.163c0-1.435-.746-1.877-1.517-1.877-1.008 0-1.934.773-1.934 2.208v3.838h-1.076v-10.38h1.076v4.65h.027c.47-.882 1.216-1.283 2.196-1.283.828 0 2.306.428 2.306 2.375v4.638h-1.078v-4.17m7.109.085c-.151-1.258-.87-2.043-2.112-2.043-1.409 0-2.057 1.103-2.14 2.043h4.252zm.98 2.14c-.593 1.31-1.587 2.138-3.175 2.138-1.932 0-3.244-1.464-3.244-3.382 0-2.319 1.27-3.906 3.3-3.906 1.96 0 3.3 1.243 3.3 3.589v.303h-5.44c0 1.602.98 2.43 2.14 2.43 1.242 0 1.78-.773 2.015-1.34l1.105.167zm7.978-4.101c-1.146 0-2.264.843-2.264 2.651 0 1.45.856 2.622 2.305 2.622 1.45 0 2.195-1.214 2.195-2.65 0-1.823-1.049-2.623-2.236-2.623zm-3.342-4.335h1.078v4.68h.027c.29-.442.911-1.312 2.443-1.312 1.437 0 3.19 1.021 3.19 3.562 0 2.153-1.422 3.644-3.328 3.644-1.42 0-1.987-.856-2.305-1.394h-.027v1.201h-1.078v-10.38zm12.673 6.296c-.151-1.258-.87-2.043-2.112-2.043-1.41 0-2.057 1.103-2.14 2.043h4.252zm.98 2.14c-.593 1.31-1.587 2.138-3.176 2.138-1.932 0-3.244-1.464-3.244-3.382 0-2.319 1.271-3.906 3.3-3.906 1.96 0 3.3 1.243 3.3 3.589v.303h-5.44c0 1.602.98 2.43 2.14 2.43 1.243 0 1.78-.773 2.016-1.34l1.104.167zm5.327-2.224c0-1.435-.745-1.877-1.518-1.877-1.008 0-1.932.773-1.932 2.208v3.838h-1.078V59.89h1.078v1.173h.027c.469-.882 1.214-1.283 2.195-1.283.828 0 2.305.428 2.305 2.375v4.638h-1.077v-4.17m7.109.084c-.152-1.258-.87-2.043-2.112-2.043-1.408 0-2.057 1.103-2.14 2.043h4.252zm.98 2.14c-.594 1.31-1.587 2.138-3.175 2.138-1.932 0-3.244-1.464-3.244-3.382 0-2.319 1.27-3.906 3.3-3.906 1.96 0 3.298 1.243 3.298 3.589v.303h-5.438c0 1.602.98 2.43 2.14 2.43 1.241 0 1.78-.773 2.014-1.34l1.105.167zm1.476-4.074h-1.284v-.884h1.284v-1.973c0-1.105.815-1.505 1.656-1.505.305 0 .608 0 .816.041v1.05c-.18-.043-.416-.043-.65-.043-.552 0-.745.278-.745.692v1.738h1.395v.884h-1.395v6.02H61.27v-6.02m3.88-2.916c.375 0 .673.296.673.672 0 .38-.298.675-.673.675a.667.667 0 0 1-.674-.675c0-.376.297-.672.674-.672m-.54 8.935h1.076V59.89H64.61zm1.948-6.902h1.282v-2.015h1.078v2.014h1.394v.884h-1.394v4.238c0 .621.18.897.663.897.248 0 .51-.014.718-.04v.966c-.387.028-.76.041-1.092.041-.924 0-1.367-.359-1.367-1.738v-4.364h-1.282v-.884m8.778 2.057c-.055-.633-.483-1.282-1.697-1.282-.98 0-1.657.413-1.657 1.076 0 .662.524.967 1.808 1.173 1.767.29 2.775.719 2.775 1.973 0 1.008-.773 2.099-2.926 2.099-2.197 0-2.803-1.09-2.927-2.221h1.076c.042.58.456 1.255 1.823 1.255 1.076 0 1.892-.373 1.877-1.077-.014-.553-.36-.786-2.085-1.077-1.394-.233-2.499-.69-2.499-2.014 0-1.34 1.16-2.154 2.83-2.154 1.547 0 2.678.897 2.678 2.25h-1.076m7.605 4.073c1.491 0 2.402-1.12 2.402-2.679 0-1.56-.91-2.677-2.402-2.677-1.491 0-2.401 1.117-2.401 2.677s.91 2.678 2.401 2.678zm0 .965c-2.498 0-3.562-1.808-3.562-3.644s1.243-3.644 3.562-3.644c2.499 0 3.561 1.808 3.561 3.644s-1.241 3.644-3.56 3.644z" fill="#FFF"/><g transform="translate(86.469 55.495)"><mask id="d" fill="#fff"><use xlink:href="#c"/></mask><path d="M1.303 5.278H.02v-.884h1.284V2.421c0-1.105.815-1.505 1.658-1.505.303 0 .606 0 .814.042v1.049c-.18-.043-.414-.043-.65-.043-.552 0-.745.278-.745.692v1.738h1.395v.884H2.38v6.02H1.303v-6.02m8.033-.109c-1.256 0-2.235.827-2.235 2.497 0 1.56.648 2.665 2.195 2.665 1.09 0 2.305-.828 2.305-2.678 0-1.256-.732-2.484-2.265-2.484zm2.265-.775h1.076v6.24c0 2.154-.993 3.562-3.575 3.562-1.684 0-2.816-.828-2.927-2.263l1.16-.056c.096.553.4 1.353 1.795 1.353 1.987 0 2.471-1.297 2.471-2.885V9.78h-.028c-.51 1.132-1.532 1.519-2.458 1.519-2.028 0-3.174-1.546-3.174-3.534 0-2.141 1.49-3.562 3.3-3.562.925 0 1.793.497 2.332 1.366h.028V4.394z" fill="#FFF" mask="url(#d)"/></g><path d="M103.3 66.02c1.49 0 2.402-1.12 2.402-2.679 0-1.56-.911-2.677-2.402-2.677-1.49 0-2.401 1.117-2.401 2.677s.91 2.678 2.401 2.678zm0 .965c-2.498 0-3.56-1.808-3.56-3.644s1.241-3.644 3.56-3.644c2.499 0 3.562 1.808 3.562 3.644s-1.243 3.644-3.562 3.644zm7.619-.965c1.491 0 2.403-1.12 2.403-2.679 0-1.56-.912-2.677-2.403-2.677s-2.4 1.117-2.4 2.677.909 2.678 2.4 2.678zm0 .965c-2.499 0-3.561-1.808-3.561-3.644s1.241-3.644 3.56-3.644c2.5 0 3.563 1.808 3.563 3.644s-1.242 3.644-3.562 3.644zm7.453-6.239c-1.186 0-2.236.8-2.236 2.623 0 1.436.746 2.65 2.196 2.65 1.449 0 2.305-1.173 2.305-2.622 0-1.808-1.118-2.65-2.265-2.65zm2.265 4.845h-.027c-.32.538-.885 1.394-2.305 1.394-1.907 0-3.329-1.49-3.329-3.644 0-2.54 1.755-3.562 3.19-3.562 1.532 0 2.153.87 2.444 1.312h.027v-4.68h1.077v10.381h-1.077v-1.201zm9.578-2.968c0-1.435-.744-1.877-1.519-1.877-1.006 0-1.932.773-1.932 2.208v3.838h-1.077v-10.38h1.077v4.65h.029c.468-.882 1.214-1.283 2.194-1.283.827 0 2.305.428 2.305 2.375v4.638h-1.077v-4.17m6.515.898l-1.822.083c-1.173.056-1.864.373-1.864 1.27 0 .69.594 1.229 1.573 1.229.94 0 2.113-.525 2.113-1.725v-.856zm0 2.361h-.028c-.483.856-1.517 1.104-2.32 1.104-1.641 0-2.497-.966-2.497-2.056 0-1.27.69-2.016 2.581-2.111.76-.042 1.505-.084 2.264-.111v-.524c0-.884-.372-1.603-1.754-1.603-1.268 0-1.683.538-1.822 1.312h-1.062c.22-1.546 1.27-2.195 2.898-2.195 1.851 0 2.818.841 2.818 2.32v3.423c0 .427.054.965.095 1.352h-1.173v-.91zm2.097-5.991h1.05v1.518h.028c.276-.73.827-1.629 1.987-1.629h.388v1.132h-.346c-1.408 0-2.03.967-2.03 2.596v3.285h-1.077V59.89m6.529.856c-1.187 0-2.235.8-2.235 2.623 0 1.436.745 2.65 2.194 2.65 1.45 0 2.306-1.173 2.306-2.622 0-1.808-1.119-2.65-2.265-2.65zm2.265 4.845h-.027c-.317.538-.884 1.394-2.306 1.394-1.905 0-3.326-1.49-3.326-3.644 0-2.54 1.753-3.562 3.188-3.562 1.533 0 2.154.87 2.444 1.312h.027v-4.68h1.077v10.381h-1.077v-1.201zm3.684-5.701h1.187l1.711 5.274h.027l1.713-5.275h1.022l1.753 5.275h.027l1.712-5.275h1.145l-2.375 6.903h-1.062l-1.697-5.273h-.028l-1.683 5.273h-1.05l-2.402-6.903m13.638 6.131c1.491 0 2.402-1.12 2.402-2.679 0-1.56-.911-2.677-2.402-2.677-1.49 0-2.401 1.117-2.401 2.677s.91 2.678 2.401 2.678zm0 .965c-2.498 0-3.562-1.808-3.562-3.644s1.243-3.644 3.562-3.644c2.499 0 3.562 1.808 3.562 3.644s-1.242 3.644-3.562 3.644zm4.43-7.095h1.049v1.518h.028c.276-.73.828-1.629 1.988-1.629h.387v1.132h-.346c-1.408 0-2.029.967-2.029 2.596v3.285h-1.077V59.89m5.135 3.27v3.632h-1.078v-10.38h1.078v6.53l3.092-3.053h1.476l-3.34 3.15 3.396 3.753h-1.505l-3.12-3.631m5.603 2.252a.772.772 0 1 1 0 1.545.772.772 0 1 1 0-1.545m7.389-20.55h.262c.275 0 .534-.086.534-.324 0-.199-.137-.347-.497-.347-.148 0-.236.012-.3.024v.647zm0 1.17h-.386v-2.079c.212-.036.436-.062.723-.062.348 0 .522.062.648.162.123.088.209.25.209.449 0 .248-.186.41-.398.485v.025c.177.075.275.236.338.51.06.31.111.436.162.51h-.4c-.062-.074-.113-.261-.173-.535-.05-.236-.186-.336-.474-.336h-.25v.87zm-1.23-1.095c0 .921.683 1.643 1.605 1.643.882.013 1.555-.722 1.555-1.632 0-.908-.673-1.641-1.58-1.641-.897 0-1.58.733-1.58 1.63zm3.597 0a1.972 1.972 0 0 1-2.005 2.004c-1.134 0-2.028-.871-2.028-2.004 0-1.109.894-1.979 2.041-1.979 1.12 0 1.992.87 1.992 1.979zm-7.804 16.3h.184c.195 0 .377-.06.377-.229 0-.14-.096-.245-.35-.245-.104 0-.168.01-.211.018v.456zm0 .827h-.273v-1.469c.149-.025.307-.043.51-.043.247 0 .37.043.458.114a.384.384 0 0 1 .147.317c0 .175-.13.291-.281.343v.017c.125.053.195.166.239.361.042.218.078.307.115.36h-.282c-.045-.053-.08-.184-.124-.378-.034-.168-.13-.238-.333-.238h-.176v.616zm-.87-.774c0 .65.482 1.161 1.134 1.161.624.008 1.098-.51 1.098-1.152 0-.642-.474-1.16-1.116-1.16-.634 0-1.116.518-1.116 1.15zm2.54 0c0 .8-.616 1.416-1.415 1.416-.8 0-1.432-.616-1.432-1.416 0-.782.632-1.398 1.441-1.398.79 0 1.407.616 1.407 1.398z" fill="#FFF"/></g></svg>