<?xml version="1.0" encoding="UTF-8"?>
<svg width="190px" height="70px" viewBox="0 0 190 70" version="1.1" xmlns="http://www.w3.org/2000/svg" xmlns:xlink="http://www.w3.org/1999/xlink">
    <defs>
        <polygon id="path-1" points="0.0774345774 0.103314028 0.0774345774 24.5778028 22.5063599 24.5778028 22.5063599 0.103314028 0.0774345774 0.103314028"></polygon>
        <polygon id="path-3" points="0.0193586444 14.1189046 12.6773309 14.1189046 12.6773309 0.916309166 0.0193586444 0.916309166 0.0193586444 14.1189046"></polygon>
    </defs>
    <g id="Pages" stroke="none" stroke-width="1" fill="none" fill-rule="evenodd">
        <g id="Print-Mobile" transform="translate(-65.000000, -2400.000000)">
            <g id="Logo" transform="translate(15.000000, 559.000000)">
                <g id="Reverse" transform="translate(0.000000, 1234.000000)">
                    <g id="05-logo-rev-with-tag" transform="translate(50.000000, 607.000000)">
                        <g id="Group-3" transform="translate(0.000000, 22.945088)">
                            <mask id="mask-2" fill="white">
                                <use xlink:href="#path-1"></use>
                            </mask>
                            <g id="Clip-2"></g>
                            <path d="M19.5251287,7.56155441 C17.4060024,5.34950665 14.9926248,4.22283355 12.3469434,4.22283355 C10.0897254,4.22283355 8.15644216,5.01266624 6.6025883,6.55361433 C5.05260618,8.10617761 4.26793579,10.0407515 4.26793579,12.308294 C4.26793579,13.8853782 4.61251966,15.3140462 5.30039683,16.5336408 C5.99085514,17.7713034 6.97685543,18.7405262 8.23000501,19.438728 C9.4767017,20.1291863 10.895045,20.4879665 12.4282497,20.4879665 C13.7356035,20.4879665 14.946164,20.2401759 16.0302481,19.7562098 C17.0885207,19.2735342 18.2681074,18.3894895 19.521257,17.154408 C19.6503146,17.2860468 22.2779279,20.0323931 22.4186007,20.1640319 C20.7279458,21.8043544 19.1082726,22.9542578 17.60217,23.5930931 C16.0728371,24.2409624 14.303457,24.5778028 12.3533963,24.5778028 C8.74881667,24.5778028 5.75209853,23.4085407 3.46003504,21.1268018 C1.15893751,18.83861 0,15.8754469 0,12.2966788 C0,9.98396611 0.526555127,7.90097598 1.56934077,6.10449378 C2.61857929,4.31446446 4.13887816,2.84320749 6.08377663,1.74492707 C8.04029029,0.654390104 10.1723223,0.103314028 12.4179251,0.103314028 C14.3305591,0.103314028 16.2006042,0.511136136 17.9712748,1.31903689 C19.716134,2.11661304 21.2312706,3.26393536 22.5063599,4.72357715 L19.5251287,7.56155441" id="Fill-1" fill="#FFFFFF" mask="url(#mask-2)"></path>
                        </g>
                        <path d="M26.2477406,31.6358966 C24.2886458,33.4285071 23.294902,35.685725 23.294902,38.3585085 C23.294902,40.8480302 24.1724939,42.9994208 25.9070285,44.7429894 C27.6441441,46.4801051 29.7606893,47.3757651 32.2076219,47.3757651 C33.8776276,47.3757651 35.4198663,46.9705241 36.8046547,46.1755291 C38.189443,45.3882776 39.2954669,44.2732196 40.0969148,42.8742349 C40.8944909,41.4623445 41.2984413,39.9381739 41.2984413,38.3275347 C41.2984413,36.7259295 40.9009438,35.2095024 40.1033677,33.8260046 C39.3070821,32.4399256 38.189443,31.3274489 36.7646468,30.5234198 C35.3424317,29.7155191 33.8079365,29.3141499 32.1960067,29.3141499 C29.9633097,29.3141499 27.9603353,30.0975297 26.2477406,31.6358966 M28.792757,42.088274 L28.792757,42.088274 C27.8945159,41.1293758 27.4337802,39.8749356 27.4337802,38.3443122 C27.4337802,36.8536966 27.9009688,35.6134527 28.8108251,34.6571357 C29.7271343,33.6904941 30.8912341,33.2052374 32.2656978,33.2052374 C33.6672637,33.2052374 34.8442693,33.6853318 35.7476727,34.6364865 C36.6523667,35.5824789 37.1066495,36.8304662 37.1066495,38.3443122 C37.1066495,39.8504147 36.6446232,41.1035643 35.7154083,42.0714965 C34.8042614,43.0407193 33.6362899,43.5233948 32.2476298,43.5233948 C30.8628414,43.5233948 29.7013228,43.0407193 28.792757,42.088274" id="Fill-4" fill="#FFFFFF"></path>
                        <polygon id="Fill-5" fill="#FFFFFF" points="43.8847562 46.9318068 48.0417024 46.9318068 48.0417024 23.4742921 43.8847562 23.4742921"></polygon>
                        <path d="M53.5898899,31.6358966 C51.6295045,33.4285071 50.6396325,35.685725 50.6396325,38.3585085 C50.6396325,40.8480302 51.5185149,42.9994208 53.2504683,44.7429894 C54.9862934,46.4801051 57.1041291,47.3757651 59.5562241,47.3757651 C61.2223581,47.3757651 62.7645967,46.9705241 64.1506757,46.1755291 C65.5277206,45.3882776 66.6376162,44.2732196 67.4377735,42.8742349 C68.2379308,41.4623445 68.6431717,39.9381739 68.6431717,38.3275347 C68.6431717,36.7259295 68.2418025,35.2095024 67.4468075,33.8260046 C66.6479408,32.4399256 65.5277206,31.3274489 64.1106678,30.5234198 C62.6858716,29.7155191 61.1513764,29.3141499 59.5394466,29.3141499 C57.3132025,29.3141499 55.3089375,30.0975297 53.5898899,31.6358966 M56.1426498,42.088274 L56.1426498,42.088274 C55.2340841,41.1293758 54.7785107,39.8749356 54.7785107,38.3443122 C54.7785107,36.8536966 55.240537,35.6134527 56.1568461,34.6571357 C57.0744459,33.6904941 58.234674,33.2052374 59.6078471,33.2052374 C61.0145753,33.2052374 62.185128,33.6853318 63.089822,34.6364865 C63.9919348,35.5824789 64.4526705,36.8304662 64.4526705,38.3443122 C64.4526705,39.8504147 63.9880631,41.1035643 63.065301,42.0714965 C62.1477013,43.0407193 60.975858,43.5233948 59.5910696,43.5233948 C58.2049907,43.5233948 57.0447626,43.0407193 56.1426498,42.088274" id="Fill-6" fill="#FFFFFF"></path>
                        <path d="M78.5212427,29.7968254 L78.5212427,29.7968254 C77.7327006,30.1078543 76.8409123,30.6899042 75.8600744,31.5107107 L75.69359,31.6552553 L75.69359,29.7568175 L71.5327721,29.7568175 L71.5327721,46.9318068 L75.69359,46.9318068 L75.69359,40.0581975 C75.69359,38.222998 75.7594094,37.0666416 75.8897576,36.5065315 C76.1375483,35.4495495 76.58925,34.6080938 77.2306664,34.0092664 C77.8824074,33.4065673 78.6722401,33.1032819 79.5795152,33.1032819 C80.2764264,33.1032819 80.8726727,33.2865437 81.3553482,33.6504862 C81.8264086,34.0260439 82.1684113,34.5680859 82.3607071,35.2649971 C82.5517124,35.9631989 82.6433433,37.318304 82.6433433,39.4258151 L82.6433433,46.9318068 L86.7409231,46.9318068 L86.7409231,35.5463428 C86.7409231,33.5846668 86.2453418,32.0759831 85.2619226,31.0861111 C84.0836265,29.9013621 82.638181,29.3128593 80.9526884,29.3128593 C80.1241384,29.3128593 79.3110754,29.4741813 78.5212427,29.7968254" id="Fill-7" fill="#FFFFFF"></path>
                        <polygon id="Fill-8" fill="#FFFFFF" points="90.6862148 46.9318068 94.8457422 46.9318068 94.8457422 29.7568175 90.6862148 29.7568175"></polygon>
                        <path d="M100.546218,31.8398077 L100.546218,31.8398077 C98.9884921,33.5317532 98.1986594,35.7257329 98.1986594,38.3791577 C98.1986594,40.9177213 99.0155942,43.0755649 100.615909,44.7881596 C102.236873,46.5020449 104.163703,47.3757651 106.368007,47.3757651 C107.342392,47.3757651 108.266445,47.2002467 109.107901,46.8414665 C109.945485,46.4981732 110.792103,45.9148327 111.63743,45.1198377 L111.803915,44.9494816 L111.803915,46.9318068 L115.964733,46.9318068 L115.964733,29.7568175 L111.803915,29.7568175 L111.803915,31.8256113 L111.633559,31.6371872 C110.865666,30.8692943 110.025501,30.2807915 109.125969,29.8910375 C108.230309,29.5038646 107.263667,29.3128593 106.23895,29.3128593 C104.011415,29.3128593 102.100072,30.1659302 100.546218,31.8398077 M102.337538,38.3262441 C102.337538,36.8201416 102.79182,35.5644108 103.701677,34.5977692 C104.602499,33.6246747 105.756274,33.1432897 107.124285,33.1432897 C108.52327,33.1432897 109.697694,33.6104783 110.611422,34.5745388 C111.531603,35.5231124 111.985886,36.7788431 111.985886,38.3094666 C111.985886,39.8749356 111.531603,41.1577685 110.611422,42.1244101 C109.697694,43.0936329 108.531013,43.5827613 107.142353,43.5827613 C105.79112,43.5827613 104.638635,43.0794366 103.719745,42.097308 C102.802145,41.11647 102.337538,39.846543 102.337538,38.3262441" id="Fill-9" fill="#FFFFFF"></path>
                        <polygon id="Fill-10" fill="#FFFFFF" points="120.12426 46.9318068 124.281206 46.9318068 124.281206 23.0496925 120.12426 23.0496925"></polygon>
                        <polyline id="Fill-11" fill="#FFFFFF" points="135.698935 23.0380774 135.698935 46.9330974 146.472666 46.9330974 146.472666 42.8626198 139.96687 42.8626198 139.96687 23.0380774 135.698935 23.0380774"></polyline>
                        <path d="M160.900018,23.4162162 C160.243115,23.9556771 159.845617,24.7003396 159.734627,25.6256828 C159.677842,26.0360861 159.635253,27.3911912 159.624928,29.6496997 L159.624928,29.7581081 L158.072365,29.7581081 L158.072365,33.2362112 L159.624928,33.2362112 L159.624928,46.9318068 L163.789618,46.9318068 L163.789618,33.2362112 L166.542417,33.2362112 L166.542417,29.7581081 L163.789618,29.7581081 L163.801233,27.4776598 C163.801233,26.9407801 163.895445,26.5923245 164.08516,26.4129344 C164.351019,26.1767589 164.749807,26.0567353 165.278943,26.0567353 C165.660954,26.0567353 166.151373,26.152238 166.72697,26.3096883 L166.72697,23.1993994 C165.636433,22.8096454 164.632365,22.6044437 163.763807,22.6044437 C162.533887,22.6044437 161.568536,22.8754648 160.900018,23.4162162" id="Fill-12" fill="#FFFFFF"></path>
                        <path d="M170.134091,31.9043365 C168.448599,33.6233841 167.592947,35.8238167 167.592947,38.4385242 C167.592947,40.979669 168.448599,43.1310596 170.139254,44.8255863 C171.823456,46.5149507 174.039375,47.3757651 176.735389,47.3757651 C178.467342,47.3757651 179.979898,47.0608644 181.2395,46.4478407 C182.466838,45.8503039 183.525111,44.9172172 184.410446,43.6821357 C184.185886,43.5814708 181.027846,42.1011798 180.915566,42.0482661 C179.737269,43.1749392 178.32667,43.7479551 176.699253,43.7479551 C175.315755,43.7479551 174.155527,43.3749785 173.262448,42.6251537 C172.377113,41.8830724 171.81184,40.8648077 171.610511,39.6077864 L171.589861,39.4877628 L185.618426,39.4877628 C185.62875,39.331603 185.637784,38.7585872 185.637784,38.7585872 C185.637784,35.9348062 184.784713,33.6233841 183.091477,31.9043365 C181.408566,30.1839983 179.192646,29.3141499 176.485017,29.3141499 C173.955488,29.3141499 171.81184,30.1839983 170.134091,31.9043365 M176.694091,32.7909624 C177.833669,32.7909624 178.851934,33.1032819 179.71662,33.7163056 C180.581306,34.3370728 181.165937,35.1565887 181.460189,36.1322644 L181.501487,36.2703561 L171.733115,36.2703561 L171.802806,36.1219398 C172.295807,35.0404369 172.848173,34.2673817 173.428933,33.8260046 C174.36331,33.1432897 175.465462,32.7909624 176.694091,32.7909624" id="Fill-13" fill="#FFFFFF"></path>
                        <path d="M149.28225,17.6912198 C149.28225,19.911011 150.58057,21.7229801 152.166688,21.7229801 C153.754097,21.7229801 155.042092,19.911011 155.042092,17.6912198 C155.042092,15.4649757 153.754097,13.6594595 152.166688,13.6594595 C150.58057,13.6594595 149.28225,15.4649757 149.28225,17.6912198" id="Fill-14" fill="#FFFFFF"></path>
                        <path d="M127.67026,11.4990347 C127.67026,15.1875018 128.718207,18.3068247 129.944255,18.3068247 C131.184499,18.3068247 132.223413,15.1875018 132.223413,11.4990347 C132.223413,7.80798656 131.184499,4.69253539 129.944255,4.69253539 C128.718207,4.69253539 127.67026,7.80798656 127.67026,11.4990347" id="Fill-15" fill="#FFFFFF"></path>
                        <path d="M89.3969291,19.1986129 C89.3969291,21.1938438 91.0191835,22.8160982 93.0131238,22.8160982 C95.0122265,22.8160982 96.6331903,21.1938438 96.6331903,19.1986129 C96.6331903,17.1969291 95.0122265,15.579837 93.0131238,15.579837 C91.0191835,15.579837 89.3969291,17.1969291 89.3969291,19.1986129" id="Fill-16" fill="#FFFFFF"></path>
                        <path d="M106.468672,19.0811705 C108.207079,19.0811705 109.629294,17.0097955 109.629294,14.4712319 C109.629294,11.9287967 108.207079,9.85613113 106.468672,9.85613113 C104.725104,9.85613113 103.30547,11.9287967 103.30547,14.4712319 C103.30547,17.0097955 104.725104,19.0811705 106.468672,19.0811705" id="Fill-17" fill="#FFFFFF"></path>
                        <path d="M138.71114,5.36234449 C138.71114,8.18225368 139.919119,10.4794795 141.404572,10.4794795 C142.884863,10.4794795 144.096715,8.18225368 144.096715,5.36234449 C144.096715,2.53340126 142.942939,0.22972258 141.462648,0.22972258 C139.974614,0.22972258 138.71114,2.53340126 138.71114,5.36234449" id="Fill-18" fill="#FFFFFF"></path>
                        <path d="M116.198327,7.88671171 C116.198327,10.8924639 117.251437,13.338106 118.554919,13.338106 C119.860982,13.338106 120.921836,10.8924639 120.921836,7.88671171 C120.921836,4.88354068 119.860982,2.44177034 118.554919,2.44177034 C117.251437,2.44177034 116.198327,4.88354068 116.198327,7.88671171" id="Fill-19" fill="#FFFFFF"></path>
                        <polygon id="Fill-20" fill="#FFFFFF" points="150.086279 46.9318068 154.249678 46.9318068 154.249678 29.7568175 150.086279 29.7568175"></polygon>
                        <polyline id="Fill-21" fill="#FFFFFF" points="10.5736915 57.4590376 7.42597598 57.4590376 7.42597598 56.4110897 14.8816352 56.4110897 14.8816352 57.4590376 11.7339196 57.4590376 11.7339196 66.7924853 10.5736915 66.7924853 10.5736915 57.4590376"></polyline>
                        <path d="M20.0013514,62.6226333 C20.0013514,61.1875125 19.2553983,60.7461354 18.4836336,60.7461354 C17.4756936,60.7461354 16.5503504,61.5191906 16.5503504,62.9543115 L16.5503504,66.7924853 L15.4740097,66.7924853 L15.4740097,56.4110897 L16.5503504,56.4110897 L16.5503504,61.0623266 L16.5774525,61.0623266 C17.0472222,60.1795724 17.7931753,59.7794938 18.7727227,59.7794938 C19.6012727,59.7794938 21.0789826,60.2066745 21.0789826,62.1541542 L21.0789826,66.7924853 L20.0013514,66.7924853 L20.0013514,62.6226333" id="Fill-22" fill="#FFFFFF"></path>
                        <path d="M27.1098456,62.7065208 C26.9588481,61.4494995 26.2399971,60.6635385 24.9984627,60.6635385 C23.5891534,60.6635385 22.9412841,61.7669813 22.8573967,62.7065208 L27.1098456,62.7065208 Z M28.0906835,64.8462963 C27.4970184,66.1575218 26.5032747,66.9847812 24.9145753,66.9847812 C22.9825826,66.9847812 21.6713571,65.5212677 21.6713571,63.6034713 C21.6713571,61.2843057 22.9412841,59.6968969 24.9700701,59.6968969 C26.9304555,59.6968969 28.2700736,60.9397219 28.2700736,63.2859896 L28.2700736,63.589275 L22.8302946,63.589275 C22.8302946,65.1908802 23.8111326,66.0194301 24.9700701,66.0194301 C26.212895,66.0194301 26.7510654,65.2463749 26.9859502,64.679812 L28.0906835,64.8462963 L28.0906835,64.8462963 Z" id="Fill-23" fill="#FFFFFF"></path>
                        <path d="M36.0677356,60.7461354 C34.9217038,60.7461354 33.8040648,61.5888817 33.8040648,63.3969791 C33.8040648,64.8462963 34.6597169,66.0194301 36.109034,66.0194301 C37.5583512,66.0194301 38.3043043,64.8049979 38.3043043,63.3685864 C38.3043043,61.5462927 37.2550658,60.7461354 36.0677356,60.7461354 Z M32.7264336,56.4110897 L33.8040648,56.4110897 L33.8040648,61.0907193 L33.8311669,61.0907193 C34.1215465,60.6493422 34.7423137,59.7794938 36.2742278,59.7794938 C37.7106392,59.7794938 39.4632418,60.8003396 39.4632418,63.3414843 C39.4632418,65.4941656 38.0423173,66.9847812 36.1361361,66.9847812 C34.7152116,66.9847812 34.1486486,66.1291291 33.8311669,65.5909588 L33.8040648,65.5909588 L33.8040648,66.7924853 L32.7264336,66.7924853 L32.7264336,56.4110897 L32.7264336,56.4110897 Z" id="Fill-24" fill="#FFFFFF"></path>
                        <path d="M45.3986022,62.7065208 C45.2476047,61.4494995 44.5287538,60.6635385 43.2872194,60.6635385 C41.8779101,60.6635385 41.2300408,61.7669813 41.1461533,62.7065208 L45.3986022,62.7065208 Z M46.3794402,64.8462963 C45.7857751,66.1575218 44.7920313,66.9847812 43.2033319,66.9847812 C41.2713392,66.9847812 39.9588231,65.5212677 39.9588231,63.6034713 C39.9588231,61.2843057 41.2300408,59.6968969 43.2588267,59.6968969 C45.2192121,59.6968969 46.5588303,60.9397219 46.5588303,63.2859896 L46.5588303,63.589275 L41.1190512,63.589275 C41.1190512,65.1908802 42.0998892,66.0194301 43.2588267,66.0194301 C44.5016517,66.0194301 45.039822,65.2463749 45.2747068,64.679812 L46.3794402,64.8462963 L46.3794402,64.8462963 Z" id="Fill-25" fill="#FFFFFF"></path>
                        <path d="M51.7056485,62.6226333 C51.7056485,61.1875125 50.960986,60.7461354 50.1879308,60.7461354 C49.1799907,60.7461354 48.2559381,61.5191906 48.2559381,62.9543115 L48.2559381,66.7924853 L47.1783069,66.7924853 L47.1783069,59.8891928 L48.2559381,59.8891928 L48.2559381,61.0623266 L48.2830402,61.0623266 C48.7515194,60.1795724 49.4974725,59.7794938 50.4783105,59.7794938 C51.3055699,59.7794938 52.7832797,60.2066745 52.7832797,62.1541542 L52.7832797,66.7924853 L51.7056485,66.7924853 L51.7056485,62.6226333" id="Fill-26" fill="#FFFFFF"></path>
                        <path d="M58.8154333,62.7065208 C58.6631453,61.4494995 57.9442943,60.6635385 56.7027599,60.6635385 C55.2947412,60.6635385 54.6455813,61.7669813 54.5629844,62.7065208 L58.8154333,62.7065208 Z M59.7949807,64.8462963 C59.2013156,66.1575218 58.2075719,66.9847812 56.620163,66.9847812 C54.6881703,66.9847812 53.3756542,65.5212677 53.3756542,63.6034713 C53.3756542,61.2843057 54.6455813,59.6968969 56.6756578,59.6968969 C58.6360432,59.6968969 59.9743708,60.9397219 59.9743708,63.2859896 L59.9743708,63.589275 L54.5358823,63.589275 C54.5358823,65.1908802 55.5154297,66.0194301 56.6756578,66.0194301 C57.9171922,66.0194301 58.4553625,65.2463749 58.6902474,64.679812 L59.7949807,64.8462963 L59.7949807,64.8462963 Z" id="Fill-27" fill="#FFFFFF"></path>
                        <path d="M61.2714,60.7732375 L59.9872766,60.7732375 L59.9872766,59.8891928 L61.2714,59.8891928 L61.2714,57.9159016 C61.2714,56.8111683 62.0857536,56.4110897 62.9272094,56.4110897 C63.2317854,56.4110897 63.5350708,56.4110897 63.7428536,56.4523881 L63.7428536,57.5016266 C63.5621729,57.4590376 63.327288,57.4590376 63.0936937,57.4590376 C62.541327,57.4590376 62.3477406,57.7365115 62.3477406,58.1507865 L62.3477406,59.8891928 L63.7428536,59.8891928 L63.7428536,60.7732375 L62.3477406,60.7732375 L62.3477406,66.7924853 L61.2714,66.7924853 L61.2714,60.7732375" id="Fill-28" fill="#FFFFFF"></path>
                        <path d="M65.1495817,57.8565351 C65.5251394,57.8565351 65.8232625,58.1533677 65.8232625,58.5289254 C65.8232625,58.9083548 65.5251394,59.2038968 65.1495817,59.2038968 C64.7727334,59.2038968 64.4759009,58.9083548 64.4759009,58.5289254 C64.4759009,58.1533677 64.7727334,57.8565351 65.1495817,57.8565351" id="Fill-29" fill="#FFFFFF"></path>
                        <polygon id="Fill-30" fill="#FFFFFF" points="64.6101208 66.7924853 65.6864615 66.7924853 65.6864615 59.8891928 64.6101208 59.8891928"></polygon>
                        <path d="M66.5576005,59.8891928 L67.8404333,59.8891928 L67.8404333,57.8746032 L68.9180645,57.8746032 L68.9180645,59.8891928 L70.3118869,59.8891928 L70.3118869,60.7732375 L68.9180645,60.7732375 L68.9180645,65.0114901 C68.9180645,65.6322573 69.0974546,65.9084406 69.5814207,65.9084406 C69.8292114,65.9084406 70.0911983,65.8942442 70.2989811,65.8671421 L70.2989811,66.8337838 C69.9118082,66.8621765 69.5388317,66.8750822 69.2071536,66.8750822 C68.283101,66.8750822 67.8404333,66.516302 67.8404333,65.136676 L67.8404333,60.7732375 L66.5576005,60.7732375 L66.5576005,59.8891928" id="Fill-31" fill="#FFFFFF"></path>
                        <path d="M75.3361004,61.9463714 C75.2806056,61.3126984 74.8534249,60.6635385 73.6389926,60.6635385 C72.6581546,60.6635385 71.9818926,61.076523 71.9818926,61.7398792 C71.9818926,62.4019448 72.5058666,62.7065208 73.78999,62.913013 C75.5567889,63.2033927 76.564729,63.631864 76.564729,64.8863042 C76.564729,65.8942442 75.7916738,66.9847812 73.6389926,66.9847812 C71.4424317,66.9847812 70.8358609,65.8942442 70.7119655,64.7636994 L71.7883062,64.7636994 C71.8296046,65.3431682 72.2438796,66.0194301 73.6105999,66.0194301 C74.6869405,66.0194301 75.5025847,65.6464536 75.4883884,64.9417989 C75.474192,64.3894323 75.1283176,64.155838 73.4028171,63.8654583 C72.0089947,63.631864 70.9042614,63.175 70.9042614,61.8508687 C70.9042614,60.5112505 72.0644895,59.6968969 73.7344952,59.6968969 C75.2806056,59.6968969 76.412441,60.5938474 76.412441,61.9463714 L75.3361004,61.9463714" id="Fill-32" fill="#FFFFFF"></path>
                        <path d="M82.9414665,66.0194301 C84.4320821,66.0194301 85.3432289,64.9005005 85.3432289,63.3414843 C85.3432289,61.7811776 84.4320821,60.6635385 82.9414665,60.6635385 C81.4495603,60.6635385 80.539704,61.7811776 80.539704,63.3414843 C80.539704,64.9005005 81.4495603,66.0194301 82.9414665,66.0194301 Z M82.9414665,66.9847812 C80.4429108,66.9847812 79.3794759,65.1766838 79.3794759,63.3414843 C79.3794759,61.5049943 80.6223009,59.6968969 82.9414665,59.6968969 C85.4400222,59.6968969 86.5021665,61.5049943 86.5021665,63.3414843 C86.5021665,65.1766838 85.2606321,66.9847812 82.9414665,66.9847812 L82.9414665,66.9847812 Z" id="Fill-33" fill="#FFFFFF"></path>
                        <g id="Group-37" transform="translate(86.468611, 55.494780)">
                            <mask id="mask-4" fill="white">
                                <use xlink:href="#path-3"></use>
                            </mask>
                            <g id="Clip-35"></g>
                            <path d="M1.30348205,5.27845703 L0.0193586444,5.27845703 L0.0193586444,4.39441227 L1.30348205,4.39441227 L1.30348205,2.42112112 C1.30348205,1.31638782 2.11783569,0.916309166 2.96058201,0.916309166 C3.26386744,0.916309166 3.56715287,0.916309166 3.77493565,0.957607608 L3.77493565,2.00684613 C3.59554555,1.96425711 3.36066066,1.96425711 3.12577578,1.96425711 C2.57340912,1.96425711 2.37982268,2.24173102 2.37982268,2.65600601 L2.37982268,4.39441227 L3.77493565,4.39441227 L3.77493565,5.27845703 L2.37982268,5.27845703 L2.37982268,11.2977048 L1.30348205,11.2977048 L1.30348205,5.27845703" id="Fill-34" fill="#FFFFFF" mask="url(#mask-4)"></path>
                            <path d="M9.33602889,5.16875804 C8.08029816,5.16875804 7.10075075,5.99601745 7.10075075,7.66602317 C7.10075075,9.2263299 7.74862005,10.3310632 9.29602102,10.3310632 C10.3852674,10.3310632 11.6009903,9.50251323 11.6009903,7.6531174 C11.6009903,6.39738667 10.8692335,5.16875804 9.33602889,5.16875804 Z M11.6009903,4.39441227 L12.6773309,4.39441227 L12.6773309,10.6343486 C12.6773309,12.7883205 11.6835872,14.1963392 9.10243458,14.1963392 C7.41823252,14.1963392 6.28639711,13.3677892 6.17540755,11.9326684 L7.33563564,11.8771736 C7.43113828,12.4295403 7.73571429,13.2296976 9.12953668,13.2296976 C11.1170242,13.2296976 11.6009903,11.9326684 11.6009903,10.3452595 L11.6009903,9.77869655 L11.5725976,9.77869655 C11.06282,10.910532 10.0406835,11.2977048 9.11534034,11.2977048 C7.08655441,11.2977048 5.94052267,9.75159445 5.94052267,7.76410696 C5.94052267,5.6230409 7.43113828,4.2021164 9.24052624,4.2021164 C10.1658694,4.2021164 11.0344273,4.69898827 11.5725976,5.56754612 L11.6009903,5.56754612 L11.6009903,4.39441227 L11.6009903,4.39441227 Z" id="Fill-36" fill="#FFFFFF" mask="url(#mask-4)"></path>
                        </g>
                        <path d="M103.300307,66.0194301 C104.790923,66.0194301 105.70207,64.9005005 105.70207,63.3414843 C105.70207,61.7811776 104.790923,60.6635385 103.300307,60.6635385 C101.809692,60.6635385 100.898545,61.7811776 100.898545,63.3414843 C100.898545,64.9005005 101.809692,66.0194301 103.300307,66.0194301 Z M103.300307,66.9847812 C100.801752,66.9847812 99.7396075,65.1766838 99.7396075,63.3414843 C99.7396075,61.5049943 100.981142,59.6968969 103.300307,59.6968969 C105.798863,59.6968969 106.862298,61.5049943 106.862298,63.3414843 C106.862298,65.1766838 105.619473,66.9847812 103.300307,66.9847812 L103.300307,66.9847812 Z" id="Fill-38" fill="#FFFFFF"></path>
                        <path d="M110.918579,66.0194301 C112.410485,66.0194301 113.321632,64.9005005 113.321632,63.3414843 C113.321632,61.7811776 112.410485,60.6635385 110.918579,60.6635385 C109.427964,60.6635385 108.518107,61.7811776 108.518107,63.3414843 C108.518107,64.9005005 109.427964,66.0194301 110.918579,66.0194301 Z M110.918579,66.9847812 C108.420024,66.9847812 107.357879,65.1766838 107.357879,63.3414843 C107.357879,61.5049943 108.599414,59.6968969 110.918579,59.6968969 C113.417135,59.6968969 114.48057,61.5049943 114.48057,63.3414843 C114.48057,65.1766838 113.239035,66.9847812 110.918579,66.9847812 L110.918579,66.9847812 Z" id="Fill-39" fill="#FFFFFF"></path>
                        <path d="M118.371657,60.7461354 C117.185618,60.7461354 116.136379,61.5462927 116.136379,63.3685864 C116.136379,64.8049979 116.882332,66.0194301 118.33165,66.0194301 C119.780967,66.0194301 120.636619,64.8462963 120.636619,63.3969791 C120.636619,61.5888817 119.51898,60.7461354 118.371657,60.7461354 Z M120.636619,65.5909588 L120.609517,65.5909588 C120.290744,66.1291291 119.725472,66.9847812 118.304547,66.9847812 C116.398366,66.9847812 114.976151,65.4941656 114.976151,63.3414843 C114.976151,60.8003396 116.731335,59.7794938 118.165165,59.7794938 C119.69837,59.7794938 120.319137,60.6493422 120.609517,61.0907193 L120.636619,61.0907193 L120.636619,56.4110897 L121.71425,56.4110897 L121.71425,66.7924853 L120.636619,66.7924853 L120.636619,65.5909588 L120.636619,65.5909588 Z" id="Fill-40" fill="#FFFFFF"></path>
                        <path d="M130.215276,62.6226333 C130.215276,61.1875125 129.470613,60.7461354 128.696268,60.7461354 C127.689618,60.7461354 126.764275,61.5191906 126.764275,62.9543115 L126.764275,66.7924853 L125.686644,66.7924853 L125.686644,56.4110897 L126.764275,56.4110897 L126.764275,61.0623266 L126.792668,61.0623266 C127.261147,60.1795724 128.0071,59.7794938 128.986647,59.7794938 C129.813907,59.7794938 131.291617,60.2066745 131.291617,62.1541542 L131.291617,66.7924853 L130.215276,66.7924853 L130.215276,62.6226333" id="Fill-41" fill="#FFFFFF"></path>
                        <path d="M136.730105,63.5208744 L134.907811,63.6034713 C133.734678,63.6589661 133.044219,63.9764479 133.044219,64.8733984 C133.044219,65.5638567 133.637884,66.102027 134.617432,66.102027 C135.556971,66.102027 136.730105,65.5767625 136.730105,64.3765265 L136.730105,63.5208744 Z M136.730105,65.8813385 L136.701712,65.8813385 C136.219037,66.7369906 135.185285,66.9847812 134.382547,66.9847812 C132.740934,66.9847812 131.885282,66.0194301 131.885282,64.9288932 C131.885282,63.6589661 132.574449,62.913013 134.466434,62.8175104 C135.225293,62.7762119 135.971246,62.7336229 136.730105,62.7065208 L136.730105,62.1825468 C136.730105,61.2985021 136.358419,60.5796511 134.976212,60.5796511 C133.707575,60.5796511 133.2933,61.1178214 133.153918,61.8921672 L132.091774,61.8921672 C132.312462,60.3460568 133.361701,59.6968969 134.990408,59.6968969 C136.841095,59.6968969 137.807736,60.5383526 137.807736,62.0160625 L137.807736,65.4399614 C137.807736,65.8671421 137.861941,66.4053125 137.903239,66.7924853 L136.730105,66.7924853 L136.730105,65.8813385 L136.730105,65.8813385 Z" id="Fill-42" fill="#FFFFFF"></path>
                        <path d="M138.827292,59.8891928 L139.87653,59.8891928 L139.87653,61.4082011 L139.904923,61.4082011 C140.181106,60.6777349 140.732182,59.7794938 141.89241,59.7794938 L142.279583,59.7794938 L142.279583,60.9113292 L141.933709,60.9113292 C140.52569,60.9113292 139.904923,61.8779708 139.904923,63.5066781 L139.904923,66.7924853 L138.827292,66.7924853 L138.827292,59.8891928" id="Fill-43" fill="#FFFFFF"></path>
                        <path d="M145.356317,60.7461354 C144.168987,60.7461354 143.121039,61.5462927 143.121039,63.3685864 C143.121039,64.8049979 143.865701,66.0194301 145.315019,66.0194301 C146.764336,66.0194301 147.621278,64.8462963 147.621278,63.3969791 C147.621278,61.5888817 146.502349,60.7461354 145.356317,60.7461354 Z M147.621278,65.5909588 L147.594176,65.5909588 C147.276695,66.1291291 146.710132,66.9847812 145.287916,66.9847812 C143.383026,66.9847812 141.962101,65.4941656 141.962101,63.3414843 C141.962101,60.8003396 143.714704,59.7794938 145.149825,59.7794938 C146.683029,59.7794938 147.303797,60.6493422 147.594176,61.0907193 L147.621278,61.0907193 L147.621278,56.4110897 L148.697619,56.4110897 L148.697619,66.7924853 L147.621278,66.7924853 L147.621278,65.5909588 L147.621278,65.5909588 Z" id="Fill-44" fill="#FFFFFF"></path>
                        <polyline id="Fill-45" fill="#FFFFFF" points="151.304583 59.8891928 152.491913 59.8891928 154.203218 65.1637781 154.23032 65.1637781 155.942914 59.8891928 156.965051 59.8891928 158.717653 65.1637781 158.744755 65.1637781 160.45735 59.8891928 161.602091 59.8891928 159.227431 66.7924853 158.165287 66.7924853 156.468179 61.5191906 156.439786 61.5191906 154.756875 66.7924853 153.706346 66.7924853 151.304583 59.8891928"></polyline>
                        <path d="M164.943393,66.0194301 C166.434009,66.0194301 167.345156,64.9005005 167.345156,63.3414843 C167.345156,61.7811776 166.434009,60.6635385 164.943393,60.6635385 C163.452778,60.6635385 162.541631,61.7811776 162.541631,63.3414843 C162.541631,64.9005005 163.452778,66.0194301 164.943393,66.0194301 Z M164.943393,66.9847812 C162.444838,66.9847812 161.381403,65.1766838 161.381403,63.3414843 C161.381403,61.5049943 162.624228,59.6968969 164.943393,59.6968969 C167.441949,59.6968969 168.505384,61.5049943 168.505384,63.3414843 C168.505384,65.1766838 167.262559,66.9847812 164.943393,66.9847812 L164.943393,66.9847812 Z" id="Fill-46" fill="#FFFFFF"></path>
                        <path d="M169.372651,59.8891928 L170.42189,59.8891928 L170.42189,61.4082011 L170.450282,61.4082011 C170.726466,60.6777349 171.277542,59.7794938 172.43777,59.7794938 L172.824943,59.7794938 L172.824943,60.9113292 L172.479068,60.9113292 C171.07105,60.9113292 170.450282,61.8779708 170.450282,63.5066781 L170.450282,66.7924853 L169.372651,66.7924853 L169.372651,59.8891928" id="Fill-47" fill="#FFFFFF"></path>
                        <polyline id="Fill-48" fill="#FFFFFF" points="174.507854 63.1608037 174.507854 66.7924853 173.430223 66.7924853 173.430223 56.4110897 174.507854 56.4110897 174.507854 62.9414057 177.600075 59.8891928 179.076494 59.8891928 175.736483 63.0381989 179.131989 66.7924853 177.627177 66.7924853 174.507854 63.1608037"></polyline>
                        <path d="M180.110246,65.4128593 C180.538717,65.4128593 180.884592,65.7574432 180.884592,66.1846239 C180.884592,66.6130952 180.538717,66.9576791 180.110246,66.9576791 C179.683065,66.9576791 179.337191,66.6130952 179.337191,66.1846239 C179.337191,65.7574432 179.683065,65.4128593 180.110246,65.4128593" id="Fill-49" fill="#FFFFFF"></path>
                        <path d="M187.498795,44.863013 L187.760782,44.863013 C188.035675,44.863013 188.295081,44.7765444 188.295081,44.5390784 C188.295081,44.3403296 188.15828,44.1919133 187.798209,44.1919133 C187.649793,44.1919133 187.562033,44.2035285 187.498795,44.2164343 L187.498795,44.863013 Z M187.498795,46.0322751 L187.112913,46.0322751 L187.112913,43.9544473 C187.324567,43.9183112 187.549128,43.8924996 187.835636,43.8924996 C188.184091,43.8924996 188.358319,43.9544473 188.483505,44.0538217 C188.6074,44.1415809 188.692578,44.3041935 188.692578,44.5029422 C188.692578,44.7507329 188.506735,44.9133455 188.295081,44.9881989 L188.295081,45.0127199 C188.47189,45.0875733 188.569974,45.2488953 188.633212,45.5224975 C188.692578,45.8335264 188.744201,45.9587123 188.794534,46.0322751 L188.395746,46.0322751 C188.332508,45.9587123 188.282175,45.7715787 188.221518,45.4979765 C188.171185,45.2618011 188.035675,45.1624267 187.747876,45.1624267 L187.498795,45.1624267 L187.498795,46.0322751 Z M186.268876,44.9378664 C186.268876,45.8593379 186.951591,46.5807701 187.874353,46.5807701 C188.755817,46.5936758 189.429497,45.8593379 189.429497,44.9494816 C189.429497,44.0409159 188.755817,43.3078686 187.848541,43.3078686 C186.951591,43.3078686 186.268876,44.0409159 186.268876,44.9378664 Z M189.865712,44.9378664 C189.865712,46.0709924 188.993283,46.9421314 187.861447,46.9421314 C186.727031,46.9421314 185.832661,46.0709924 185.832661,44.9378664 C185.832661,43.8292614 186.727031,42.959413 187.874353,42.959413 C188.993283,42.959413 189.865712,43.8292614 189.865712,44.9378664 L189.865712,44.9378664 Z" id="Fill-50" fill="#FFFFFF"></path>
                        <path d="M182.061597,61.237845 L182.24615,61.237845 C182.441027,61.237845 182.622998,61.1771879 182.622998,61.009413 C182.622998,60.8687402 182.527495,60.7642035 182.273252,60.7642035 C182.168715,60.7642035 182.105477,60.7732375 182.061597,60.7822716 L182.061597,61.237845 Z M182.061597,62.0651044 L181.789286,62.0651044 L181.789286,60.5964286 C181.937702,60.570617 182.096443,60.552549 182.299063,60.552549 C182.545563,60.552549 182.668168,60.5964286 182.757218,60.6674103 C182.843687,60.7293579 182.904344,60.8442192 182.904344,60.9836015 C182.904344,61.1591198 182.773995,61.2752717 182.622998,61.3268948 L182.622998,61.3436722 C182.748184,61.3965859 182.817875,61.5101566 182.861755,61.7050336 C182.904344,61.923141 182.94048,62.0121908 182.976616,62.0651044 L182.69527,62.0651044 C182.6501,62.0121908 182.615255,61.880552 182.571375,61.6869655 C182.536529,61.5191906 182.441027,61.4494995 182.238406,61.4494995 L182.061597,61.4494995 L182.061597,62.0651044 Z M181.191749,61.2907586 C181.191749,61.9412091 181.674424,62.4522773 182.326165,62.4522773 C182.949514,62.4600207 183.424446,61.9412091 183.424446,61.2997926 C183.424446,60.6583762 182.949514,60.1408551 182.308097,60.1408551 C181.674424,60.1408551 181.191749,60.6583762 181.191749,61.2907586 Z M183.732894,61.2907586 C183.732894,62.0909159 183.115998,62.7065208 182.317131,62.7065208 C181.516974,62.7065208 180.884592,62.0909159 180.884592,61.2907586 C180.884592,60.5086694 181.516974,59.8930645 182.326165,59.8930645 C183.115998,59.8930645 183.732894,60.5086694 183.732894,61.2907586 L183.732894,61.2907586 Z" id="Fill-51" fill="#FFFFFF"></path>
                    </g>
                </g>
            </g>
        </g>
    </g>
</svg>