<svg width="189" height="70" viewBox="0 0 189 70" xmlns="http://www.w3.org/2000/svg" xmlns:xlink="http://www.w3.org/1999/xlink"><title>CL-2014-logo-tag-rev</title><defs><path id="a" d="M.077.103v24.345h22.31V.103H.078z"/><path id="c" d="M.02 14.045h12.59V.91H.02v13.134z"/></defs><g fill="none" fill-rule="evenodd"><g transform="translate(0 22.824)"><mask id="b" fill="#fff"><use xlink:href="#a"/></mask><path d="M19.422 7.522c-2.108-2.2-4.508-3.321-7.14-3.321-2.245 0-4.168.785-5.714 2.318-1.542 1.545-2.323 3.469-2.323 5.725 0 1.568.343 2.99 1.027 4.203a7.4 7.4 0 0 0 2.915 2.89c1.24.686 2.65 1.043 4.176 1.043 1.3 0 2.505-.246 3.583-.728 1.053-.48 2.226-1.36 3.473-2.588.128.131 2.742 2.863 2.882 2.994-1.682 1.632-3.293 2.775-4.791 3.41-1.522.645-3.282.98-5.222.98-3.585 0-6.566-1.163-8.846-3.432C1.152 18.739 0 15.792 0 12.232c0-2.3.524-4.373 1.561-6.16 1.044-1.78 2.556-3.244 4.49-4.336A12.794 12.794 0 0 1 12.354.103a13.29 13.29 0 0 1 10.035 4.596l-2.966 2.823" fill="#FFF" mask="url(#b)"/></g><path d="M26.11 31.47c-1.95 1.783-2.938 4.028-2.938 6.687 0 2.476.873 4.616 2.599 6.35 1.728 1.728 3.833 2.62 6.267 2.62 1.661 0 3.195-.404 4.573-1.195a8.687 8.687 0 0 0 3.275-3.283 9.076 9.076 0 0 0 1.195-4.523 8.853 8.853 0 0 0-1.189-4.478 8.704 8.704 0 0 0-3.32-3.285 9.082 9.082 0 0 0-4.545-1.203c-2.221 0-4.214.78-5.917 2.31m2.531 10.397c-.893-.954-1.352-2.202-1.352-3.724 0-1.483.465-2.717 1.37-3.668.912-.962 2.07-1.445 3.437-1.445 1.394 0 2.565.478 3.464 1.424.9.941 1.351 2.183 1.351 3.688 0 1.499-.46 2.745-1.384 3.708-.906.964-2.068 1.444-3.45 1.444-1.377 0-2.532-.48-3.436-1.427m15.013 4.818h4.135V23.35h-4.135zm9.654-15.215c-1.95 1.783-2.935 4.028-2.935 6.687 0 2.476.874 4.616 2.597 6.35 1.727 1.728 3.834 2.62 6.273 2.62 1.657 0 3.191-.404 4.57-1.195a8.72 8.72 0 0 0 3.27-3.283 9.053 9.053 0 0 0 1.199-4.523 8.88 8.88 0 0 0-1.19-4.478 8.77 8.77 0 0 0-3.319-3.285 9.098 9.098 0 0 0-4.547-1.203c-2.214 0-4.208.78-5.918 2.31m2.54 10.397c-.905-.954-1.358-2.202-1.358-3.724 0-1.483.46-2.717 1.371-3.668.913-.962 2.067-1.445 3.433-1.445 1.4 0 2.564.478 3.464 1.424.897.941 1.355 2.183 1.355 3.688 0 1.499-.462 2.745-1.38 3.708-.912.964-2.078 1.444-3.456 1.444-1.378 0-2.532-.48-3.43-1.427M78.108 29.64c-.784.31-1.672.888-2.647 1.705l-.166.144V29.6h-4.139v17.085h4.14v-6.838c0-1.825.065-2.975.194-3.533.247-1.051.696-1.888 1.334-2.484.648-.6 1.434-.9 2.337-.9.693 0 1.286.181 1.766.543.469.374.809.913 1 1.606.19.695.281 2.043.281 4.14v7.466h4.076V35.359c0-1.951-.493-3.452-1.47-4.437-1.173-1.178-2.61-1.763-4.287-1.763a6.35 6.35 0 0 0-2.419.481m12.101 17.045h4.138V29.6h-4.138zm9.808-15.013c-1.55 1.683-2.335 3.866-2.335 6.505 0 2.525.812 4.672 2.404 6.375 1.613 1.705 3.53 2.574 5.722 2.574.97 0 1.889-.174 2.726-.531.833-.342 1.675-.922 2.516-1.713l.165-.17v1.973h4.14V29.6h-4.14v2.058l-.169-.187c-.764-.764-1.6-1.35-2.494-1.737a7.172 7.172 0 0 0-2.872-.575c-2.216 0-4.117.848-5.663 2.513m1.782 6.453c0-1.499.452-2.748 1.357-3.71.896-.967 2.044-1.446 3.404-1.446 1.392 0 2.56.465 3.47 1.424.915.943 1.366 2.192 1.366 3.715 0 1.557-.451 2.833-1.367 3.795-.909.964-2.07 1.45-3.45 1.45-1.345 0-2.491-.5-3.405-1.477-.913-.976-1.375-2.24-1.375-3.751m17.693 8.56h4.135V22.928h-4.135zm15.493-23.768v23.77h10.717v-4.05h-6.472v-19.72h-4.245m25.068.376c-.653.537-1.049 1.277-1.16 2.198-.056.408-.098 1.756-.108 4.003v.107h-1.545v3.46h1.545v13.624h4.143V33.06h2.738V29.6h-2.738l.011-2.268c0-.534.094-.88.283-1.06.264-.234.66-.353 1.187-.353.38 0 .868.095 1.44.251v-3.094c-1.084-.387-2.083-.592-2.947-.592-1.224 0-2.184.27-2.849.808m9.186 8.444c-1.677 1.71-2.528 3.9-2.528 6.5 0 2.528.851 4.668 2.533 6.354 1.675 1.68 3.88 2.536 6.561 2.536 1.723 0 3.228-.313 4.48-.923 1.221-.594 2.274-1.522 3.155-2.75-.224-.1-3.365-1.573-3.477-1.626-1.172 1.12-2.575 1.69-4.194 1.69-1.376 0-2.53-.37-3.418-1.116-.881-.738-1.443-1.751-1.644-3.002l-.02-.12h13.954c.01-.154.02-.724.02-.724 0-2.81-.849-5.109-2.533-6.819-1.674-1.71-3.878-2.576-6.572-2.576-2.516 0-4.648.865-6.317 2.576m6.525.882c1.134 0 2.147.311 3.007.92a4.516 4.516 0 0 1 1.734 2.404l.041.137h-9.717l.07-.147c.49-1.076 1.04-1.845 1.617-2.284.93-.68 2.026-1.03 3.248-1.03m-27.267-15.02c0 2.208 1.291 4.01 2.869 4.01 1.579 0 2.86-1.802 2.86-4.01 0-2.214-1.281-4.01-2.86-4.01-1.578 0-2.87 1.796-2.87 4.01m-21.498-6.159c0 3.669 1.043 6.771 2.262 6.771 1.234 0 2.268-3.102 2.268-6.771 0-3.672-1.034-6.771-2.268-6.771-1.22 0-2.262 3.099-2.262 6.77m-38.072 7.66a3.602 3.602 0 0 0 3.598 3.598 3.599 3.599 0 1 0-3.597-3.598m16.981-.118c1.73 0 3.144-2.06 3.144-4.585 0-2.529-1.414-4.59-3.144-4.59-1.734 0-3.146 2.061-3.146 4.59 0 2.525 1.412 4.586 3.146 4.586m32.073-13.647c0 2.805 1.202 5.09 2.68 5.09 1.472 0 2.677-2.285 2.677-5.09 0-2.814-1.147-5.105-2.62-5.105-1.48 0-2.737 2.291-2.737 5.105m-22.394 2.511c0 2.99 1.047 5.423 2.344 5.423 1.3 0 2.354-2.433 2.354-5.423 0-2.987-1.055-5.416-2.354-5.416-1.297 0-2.344 2.429-2.344 5.416m33.709 38.84h4.142V29.6h-4.142zM10.518 57.157H7.387v-1.043h7.416v1.043h-3.13v9.284h-1.155v-9.284m9.378 5.136c0-1.428-.742-1.867-1.51-1.867-1.002 0-1.923.77-1.923 2.197v3.818h-1.07V56.114h1.07v4.627h.027c.468-.878 1.21-1.276 2.184-1.276.824 0 2.294.425 2.294 2.362v4.614h-1.072v-4.148m7.071.083c-.15-1.25-.865-2.032-2.1-2.032-1.402 0-2.046 1.098-2.13 2.032h4.23zm.976 2.129c-.59 1.304-1.58 2.127-3.16 2.127-1.921 0-3.226-1.456-3.226-3.363 0-2.307 1.264-3.886 3.282-3.886 1.95 0 3.282 1.236 3.282 3.57v.302h-5.41c0 1.593.975 2.417 2.128 2.417 1.236 0 1.771-.769 2.005-1.333l1.099.166zm7.935-4.079c-1.14 0-2.252.839-2.252 2.637 0 1.442.851 2.609 2.293 2.609 1.442 0 2.184-1.208 2.184-2.637 0-1.813-1.044-2.609-2.225-2.609zm-3.324-4.312h1.072v4.655h.027c.289-.439.906-1.304 2.43-1.304 1.43 0 3.173 1.015 3.173 3.543 0 2.141-1.414 3.624-3.31 3.624-1.413 0-1.977-.85-2.293-1.386h-.027v1.195h-1.072V56.114zm12.606 6.262c-.15-1.25-.866-2.032-2.1-2.032-1.403 0-2.047 1.098-2.13 2.032h4.23zm.975 2.129c-.59 1.304-1.579 2.127-3.16 2.127-1.92 0-3.226-1.456-3.226-3.363 0-2.307 1.264-3.886 3.282-3.886 1.95 0 3.283 1.236 3.283 3.57v.302h-5.411c0 1.593.975 2.417 2.128 2.417 1.236 0 1.772-.769 2.005-1.333l1.1.166zm5.299-2.212c0-1.428-.741-1.867-1.51-1.867-1.003 0-1.922.77-1.922 2.197v3.818H46.93v-6.867h1.072v1.167h.027c.466-.878 1.208-1.276 2.184-1.276.823 0 2.292.425 2.292 2.362v4.614h-1.071v-4.148m7.072.083c-.152-1.25-.867-2.032-2.102-2.032-1.4 0-2.046 1.098-2.128 2.032h4.23zm.974 2.129c-.59 1.304-1.579 2.127-3.158 2.127-1.922 0-3.227-1.456-3.227-3.363 0-2.307 1.263-3.886 3.282-3.886 1.95 0 3.282 1.236 3.282 3.57v.302h-5.41c0 1.593.974 2.417 2.128 2.417 1.235 0 1.77-.769 2.004-1.333l1.1.166zm1.469-4.052h-1.277v-.879h1.277v-1.963c0-1.099.81-1.497 1.647-1.497.303 0 .605 0 .811.041V57.2c-.18-.042-.413-.042-.645-.042-.55 0-.742.276-.742.688v1.729h1.387v.88H62.02v5.987h-1.071v-5.988m3.858-2.902c.373 0 .67.295.67.669a.664.664 0 0 1-.67.671.664.664 0 0 1-.67-.671c0-.374.295-.669.67-.669m-.537 8.888h1.07v-6.866h-1.07zm1.937-6.866h1.276V57.57h1.072v2.004h1.387v.88h-1.387v4.215c0 .618.179.893.66.893.247 0 .507-.015.714-.042v.962a15.18 15.18 0 0 1-1.086.041c-.92 0-1.36-.357-1.36-1.73v-4.34h-1.276v-.879m8.733 2.046c-.056-.63-.48-1.276-1.689-1.276-.975 0-1.648.411-1.648 1.07 0 .66.521.962 1.799 1.168 1.757.289 2.76.715 2.76 1.963 0 1.002-.77 2.087-2.91 2.087-2.186 0-2.789-1.085-2.912-2.21h1.07c.042.577.454 1.25 1.813 1.25 1.07 0 1.882-.371 1.868-1.072-.014-.55-.358-.782-2.075-1.07-1.386-.233-2.485-.688-2.485-2.005 0-1.332 1.154-2.142 2.815-2.142 1.538 0 2.664.892 2.664 2.237h-1.07m7.565 4.052c1.483 0 2.39-1.113 2.39-2.664 0-1.552-.907-2.664-2.39-2.664-1.484 0-2.39 1.112-2.39 2.664 0 1.55.906 2.664 2.39 2.664zm0 .96c-2.485 0-3.543-1.798-3.543-3.624 0-1.827 1.236-3.625 3.543-3.625 2.485 0 3.542 1.798 3.542 3.625 0 1.826-1.235 3.624-3.542 3.624z" fill="#FFF"/><g transform="translate(86.014 55.203)"><mask id="d" fill="#fff"><use xlink:href="#c"/></mask><path d="M1.297 5.25H.019v-.879h1.278V2.408c0-1.099.81-1.497 1.648-1.497.302 0 .603 0 .81.042v1.043c-.178-.042-.412-.042-.646-.042-.55 0-.742.276-.742.688v1.73h1.388v.879H2.367v5.987h-1.07V5.251m7.99-.109c-1.25 0-2.224.822-2.224 2.484 0 1.552.645 2.65 2.184 2.65 1.084 0 2.293-.823 2.293-2.663 0-1.25-.728-2.471-2.253-2.471zm2.253-.77h1.07v6.206c0 2.143-.988 3.544-3.555 3.544-1.676 0-2.802-.825-2.912-2.252l1.154-.055c.095.55.398 1.345 1.784 1.345 1.978 0 2.459-1.29 2.459-2.87v-.563h-.028c-.507 1.126-1.524 1.511-2.445 1.511-2.018 0-3.158-1.538-3.158-3.515 0-2.13 1.483-3.543 3.283-3.543.92 0 1.784.494 2.32 1.358h.028V4.371z" fill="#FFF" mask="url(#d)"/></g><path d="M102.757 65.672c1.482 0 2.389-1.113 2.389-2.664 0-1.552-.907-2.664-2.39-2.664-1.482 0-2.388 1.112-2.388 2.664 0 1.55.906 2.664 2.389 2.664zm0 .96c-2.486 0-3.542-1.798-3.542-3.624 0-1.827 1.235-3.625 3.542-3.625 2.485 0 3.543 1.798 3.543 3.625 0 1.826-1.236 3.624-3.543 3.624zm7.578-.96c1.484 0 2.39-1.113 2.39-2.664 0-1.552-.906-2.664-2.39-2.664-1.483 0-2.388 1.112-2.388 2.664 0 1.55.905 2.664 2.388 2.664zm0 .96c-2.486 0-3.542-1.798-3.542-3.624 0-1.827 1.235-3.625 3.542-3.625 2.485 0 3.543 1.798 3.543 3.625 0 1.826-1.235 3.624-3.543 3.624zm7.414-6.206c-1.18 0-2.224.796-2.224 2.61 0 1.428.742 2.636 2.184 2.636 1.442 0 2.293-1.167 2.293-2.609 0-1.798-1.112-2.637-2.253-2.637zm2.253 4.82h-.027c-.317.535-.88 1.386-2.293 1.386-1.896 0-3.311-1.483-3.311-3.624 0-2.528 1.746-3.543 3.172-3.543 1.525 0 2.143.865 2.432 1.304h.027v-4.655h1.072v10.327h-1.072v-1.195zm9.528-2.953c0-1.428-.74-1.867-1.511-1.867-1.001 0-1.922.77-1.922 2.197v3.818h-1.072V56.114h1.072v4.627h.028c.466-.878 1.208-1.276 2.183-1.276.823 0 2.293.425 2.293 2.362v4.614h-1.071v-4.148m6.48.894l-1.812.082c-1.167.055-1.854.37-1.854 1.263 0 .687.59 1.222 1.565 1.222.935 0 2.101-.522 2.101-1.716v-.851zm0 2.348h-.028c-.48.85-1.508 1.097-2.307 1.097-1.633 0-2.484-.96-2.484-2.045 0-1.263.686-2.005 2.568-2.1.755-.041 1.497-.084 2.251-.11v-.522c0-.88-.37-1.594-1.744-1.594-1.262 0-1.674.535-1.813 1.305h-1.056c.22-1.538 1.263-2.183 2.883-2.183 1.84 0 2.802.837 2.802 2.307v3.406c0 .424.054.96.095 1.345h-1.167v-.906zm2.087-5.961h1.043v1.511h.029c.274-.727.822-1.62 1.977-1.62h.385v1.126h-.344c-1.4 0-2.018.961-2.018 2.581v3.269h-1.072v-6.867m6.494.852c-1.18 0-2.223.796-2.223 2.61 0 1.428.74 2.636 2.182 2.636s2.294-1.167 2.294-2.609c0-1.798-1.113-2.637-2.253-2.637zm2.253 4.82h-.027c-.315.535-.879 1.386-2.294 1.386-1.895 0-3.308-1.483-3.308-3.624 0-2.528 1.743-3.543 3.17-3.543 1.526 0 2.144.865 2.432 1.304h.027v-4.655h1.071v10.327h-1.07v-1.195zm3.664-5.672h1.181l1.703 5.247h.027l1.703-5.247h1.017l1.743 5.247h.027l1.704-5.247h1.139l-2.363 6.867h-1.056l-1.688-5.246h-.029l-1.674 5.246h-1.045l-2.389-6.867m13.567 6.098c1.483 0 2.39-1.113 2.39-2.664 0-1.552-.907-2.664-2.39-2.664-1.482 0-2.389 1.112-2.389 2.664 0 1.55.906 2.664 2.39 2.664zm0 .96c-2.485 0-3.543-1.798-3.543-3.624 0-1.827 1.236-3.625 3.543-3.625 2.486 0 3.544 1.798 3.544 3.625 0 1.826-1.237 3.624-3.544 3.624zm4.406-7.058h1.044v1.511h.028c.275-.727.823-1.62 1.977-1.62h.385v1.126h-.344c-1.4 0-2.018.961-2.018 2.581v3.269h-1.072v-6.867m5.109 3.254v3.613h-1.073V56.114h1.072v6.496l3.076-3.036h1.469l-3.322 3.132 3.377 3.735h-1.497l-3.103-3.613m5.573 2.241a.768.768 0 1 1 0 1.536.768.768 0 1 1 0-1.536m7.35-20.442h.26c.274 0 .532-.086.532-.322 0-.198-.136-.346-.494-.346-.148 0-.235.012-.298.025v.643zm0 1.163h-.384v-2.067a4.1 4.1 0 0 1 .719-.062c.347 0 .52.062.644.161a.536.536 0 0 1 .208.447c0 .246-.184.408-.395.482v.025c.176.074.273.235.336.507.06.31.11.434.16.507h-.396c-.063-.073-.113-.26-.173-.531-.05-.235-.185-.334-.471-.334h-.248v.865zm-1.223-1.089c0 .917.679 1.635 1.597 1.635.876.012 1.547-.718 1.547-1.623 0-.904-.67-1.633-1.573-1.633-.892 0-1.571.73-1.571 1.621zm3.577 0a1.962 1.962 0 0 1-1.993 1.994c-1.129 0-2.018-.866-2.018-1.994 0-1.102.89-1.968 2.03-1.968 1.114 0 1.981.866 1.981 1.968zm-7.763 16.215h.184c.194 0 .375-.06.375-.228 0-.14-.095-.244-.348-.244-.104 0-.167.01-.21.018v.454zm0 .822h-.27v-1.46c.147-.026.305-.044.507-.044.245 0 .367.044.455.114a.382.382 0 0 1 .147.315c0 .174-.13.29-.28.341v.017c.124.052.194.165.237.36.043.216.079.305.115.357h-.28c-.045-.052-.08-.183-.124-.376-.034-.167-.13-.236-.33-.236h-.177v.612zm-.865-.77c0 .647.48 1.156 1.129 1.156.62.007 1.092-.509 1.092-1.147s-.472-1.153-1.11-1.153c-.63 0-1.11.515-1.11 1.144zm2.528 0c0 .796-.614 1.408-1.408 1.408-.796 0-1.425-.612-1.425-1.408 0-.778.629-1.39 1.434-1.39a1.38 1.38 0 0 1 1.399 1.39z" fill="#FFF"/></g></svg>