<svg width="361" height="286" viewBox="0 0 361 286" xmlns="http://www.w3.org/2000/svg"><title>Group 20</title><g fill="none" fill-rule="evenodd" opacity=".3"><path fill="#33526C" d="M.5 41.883h360.261v1.605H.5zm0 199.823h360.261v1.605H.5z"/><path fill="#33526C" d="M32.523 285.844V.152h1.601v285.692m293.012 0V.152h1.602v285.692m-121.688 0V.152h1.6v285.692m34.426 0V.152h1.6v285.692"/><path fill="#5B7183" d="M244.193 243.518h84.545V209.18H277.66V41.883h-33.468zM129.51 75.81c-17.73 0-32.925 6.511-45.123 19.205-12.175 12.783-18.347 28.745-18.347 47.42 0 12.984 2.705 24.754 8.116 34.813 5.423 10.198 13.166 18.18 23.01 23.93 9.794 5.702 20.93 8.654 32.984 8.654 10.267 0 19.772-2.053 28.287-6.03 8.31-3.991 17.562-11.276 27.418-21.449 1.002 1.077 21.644 23.716 22.755 24.805-13.274 13.493-26.004 22.982-37.829 28.239-12.018 5.346-25.907 8.12-41.222 8.12-28.324 0-51.852-9.628-69.86-28.428-18.069-18.85-27.176-43.264-27.176-72.756 0-19.067 4.13-36.207 12.332-51.017 8.237-14.734 20.17-26.858 35.461-35.916 15.364-8.982 32.104-13.517 49.738-13.517 15.025 0 29.712 3.357 43.626 10.02 13.709 6.563 25.605 16.014 35.618 28.036l-23.42 23.387c-16.643-18.218-35.593-27.517-56.368-27.517z"/></g></svg>