<?xml version="1.0" encoding="UTF-8"?>
<svg width="361px" height="286px" viewBox="0 0 361 286" version="1.1" xmlns="http://www.w3.org/2000/svg" xmlns:xlink="http://www.w3.org/1999/xlink">
    <!-- Generator: Sketch 41.2 (35397) - http://www.bohemiancoding.com/sketch -->
    <title>Group 20</title>
    <desc>Created with Sketch.</desc>
    <defs></defs>
    <g id="Components" stroke="none" stroke-width="1" fill="none" fill-rule="evenodd" opacity="0.3">
        <g id="Overview" transform="translate(-74.000000, -150.000000)">
            <g id="Hero-Banner" transform="translate(0.000000, 89.000000)">
                <g id="Group-20" transform="translate(74.000000, 61.000000)">
                    <rect id="Rectangle" fill="#33526C" x="0.5" y="41.8825492" width="360.26081" height="1.6050079"></rect>
                    <rect id="Rectangle" fill="#33526C" x="0.5" y="241.706033" width="360.26081" height="1.6050079"></rect>
                    <polyline id="Rectangle" fill="#33526C" points="32.5231831 285.84375 32.5231831 0.15234375 34.1243423 0.15234375 34.1243423 285.84375"></polyline>
                    <polyline id="Rectangle" fill="#33526C" points="327.136468 285.84375 327.136468 0.15234375 328.737627 0.15234375 328.737627 285.84375"></polyline>
                    <polyline id="Rectangle" fill="#33526C" points="207.049531 285.84375 207.049531 0.15234375 208.65069 0.15234375 208.65069 285.84375"></polyline>
                    <polyline id="Rectangle" fill="#33526C" points="243.075612 285.84375 243.075612 0.15234375 244.676771 0.15234375 244.676771 285.84375"></polyline>
                    <polygon id="Fill-34" fill="#5B7183" points="244.193053 243.517677 328.737627 243.517677 328.737627 209.18079 277.660876 209.18079 277.660876 41.8825492 244.193053 41.8825492"></polygon>
                    <path d="M129.510297,75.8093443 C111.779651,75.8093443 96.585406,82.3210593 84.3865288,95.0151029 C72.2118077,107.797827 66.0399004,123.760397 66.0399004,142.43407 C66.0399004,155.419494 68.745394,167.188722 74.1563812,177.247675 C79.5794464,187.445983 87.3215062,195.427268 97.1651547,201.178861 C106.960491,206.879778 118.096496,209.831587 130.150436,209.831587 C140.416818,209.831587 149.922279,207.779257 158.437337,203.801283 C166.747068,199.81064 175.998889,192.526134 185.854616,182.353163 C186.857098,183.430003 207.498565,206.068981 208.60975,207.15849 C195.335922,220.650662 182.605608,230.139523 170.781152,235.397036 C158.763446,240.74323 144.873635,243.517677 129.558609,243.517677 C101.235473,243.517677 77.7073415,233.88946 59.6988999,215.0891 C41.6300677,196.238065 32.5231831,171.825468 32.5231831,142.33272 C32.5231831,123.266318 36.6538921,106.125558 44.8549195,91.3158407 C53.0921812,76.5821354 65.0253403,64.4581836 80.3162103,55.4000587 C95.6795488,46.417946 112.41979,41.8825492 130.053811,41.8825492 C145.078963,41.8825492 159.765928,45.2397563 173.679895,51.9034957 C187.388534,58.4658855 199.285459,67.9167404 209.298201,79.9393425 L185.878772,103.325774 C169.235155,85.1081746 150.284622,75.8093443 129.510297,75.8093443 Z" id="Fill-25" fill="#5B7183"></path>
                </g>
            </g>
        </g>
    </g>
</svg>