<svg width="137" height="65" viewBox="0 0 137 65" xmlns="http://www.w3.org/2000/svg" xmlns:xlink="http://www.w3.org/1999/xlink"><title>Group 29</title><defs><rect id="a" width="137" height="65" rx="4"/><mask id="b" x="0" y="0" width="137" height="65" fill="#fff"><use xlink:href="#a"/></mask></defs><g fill="none" fill-rule="evenodd"><use stroke="#DEE5EB" mask="url(#b)" stroke-width="2" fill="#FFF" xlink:href="#a"/><path d="M21.13 32.012c-1.303 0-2.42.47-3.317 1.386-.895.922-1.348 2.072-1.348 3.42 0 .937.199 1.787.596 2.512a4.353 4.353 0 0 0 1.692 1.727c.72.41 1.539.623 2.424.623.755 0 1.454-.147 2.08-.435.611-.287 1.292-.812 2.016-1.546.074.078 1.592 1.71 1.673 1.789-.976.975-1.912 1.658-2.781 2.037-.883.386-1.905.586-3.031.586-2.082 0-3.812-.695-5.136-2.051C14.67 40.7 14 38.939 14 36.81c0-1.374.304-2.611.906-3.68.606-1.063 1.484-1.938 2.607-2.59a7.255 7.255 0 0 1 3.658-.976c1.104 0 2.184.242 3.207.722a7.74 7.74 0 0 1 2.619 2.024l-1.722 1.686c-1.224-1.314-2.617-1.984-4.145-1.984zm6.322 6.651c0 1.48.507 2.76 1.509 3.796 1.003 1.032 2.225 1.565 3.638 1.565a5.147 5.147 0 0 0 4.556-2.676c.46-.84.694-1.745.694-2.703 0-.951-.23-1.854-.69-2.675a5.122 5.122 0 0 0-1.928-1.963 5.157 5.157 0 0 0-2.639-.72c-1.289 0-2.446.467-3.435 1.381-1.131 1.066-1.705 2.407-1.705 3.995zm2.39-.007c0-.887.27-1.624.795-2.193.53-.574 1.201-.862 1.996-.862.809 0 1.489.285 2.01.85.523.563.785 1.305.785 2.205 0 .895-.267 1.64-.803 2.214-.527.576-1.201.863-2.003.863-.8 0-1.47-.287-1.995-.852-.519-.57-.785-1.316-.785-2.225zm9.5-8.84h2.4V43.76h-2.4V29.817zm3.9 8.847c0 1.48.508 2.76 1.509 3.796 1.002 1.032 2.225 1.565 3.641 1.565a5.15 5.15 0 0 0 2.653-.714 5.145 5.145 0 0 0 1.898-1.962c.462-.84.696-1.745.696-2.703 0-.951-.231-1.854-.69-2.675a5.16 5.16 0 0 0-1.927-1.963 5.166 5.166 0 0 0-2.64-.72c-1.285 0-2.443.467-3.435 1.381-1.132 1.066-1.704 2.407-1.704 3.995zm2.391-.007c0-.887.267-1.624.796-2.193.53-.574 1.2-.862 1.993-.862.812 0 1.488.285 2.01.85.522.563.788 1.305.788 2.205 0 .895-.269 1.64-.802 2.214-.53.576-1.206.863-2.006.863-.8 0-1.47-.287-1.991-.852-.525-.57-.788-1.316-.788-2.225zm12.174-4.062l-.096.086v-1.13h-2.403v10.21h2.403v-4.086c0-1.09.038-1.779.113-2.11.143-.63.404-1.13.775-1.485a1.905 1.905 0 0 1 1.356-.539c.402 0 .747.11 1.025.325.272.224.47.545.581.96.11.414.163 1.22.163 2.473v4.462h2.366v-6.768c0-1.166-.286-2.063-.854-2.65a3.335 3.335 0 0 0-2.488-1.055 3.59 3.59 0 0 0-1.404.288c-.456.185-.97.53-1.537 1.019zm8.562-1.043h2.402V43.76h-2.402V33.551zm4.338 5.125c0 1.51.472 2.792 1.396 3.809.936 1.02 2.049 1.539 3.321 1.539.563 0 1.097-.104 1.583-.318.483-.204.972-.551 1.46-1.023l.097-.101v1.178h2.402V33.551h-2.402v1.229l-.1-.111a4.697 4.697 0 0 0-1.447-1.038 4.062 4.062 0 0 0-1.667-.344c-1.286 0-2.39.507-3.287 1.502-.9 1.006-1.356 2.31-1.356 3.887zm3.178-2.248c.52-.579 1.186-.865 1.976-.865.808 0 1.486.279 2.014.852.53.564.794 1.31.794 2.22 0 .93-.263 1.692-.794 2.267-.528.577-1.201.867-2.003.867-.78 0-1.446-.299-1.977-.883-.53-.583-.798-1.338-.798-2.241 0-.895.262-1.642.788-2.217zm9.483-6.864h2.4V43.76h-2.4V29.564zm8.994 14.196h6.222v-2.419h-3.757V29.557h-2.465V43.76zm13.88-12.665c-.033.244-.057 1.05-.063 2.392v.065h-.897v2.067h.897v8.141h2.405v-8.14h1.59v-2.068h-1.59l.007-1.356c0-.319.054-.526.163-.633.154-.14.384-.211.69-.211.22 0 .504.056.836.15v-1.85c-.63-.23-1.21-.352-1.711-.352-.71 0-1.268.16-1.654.482-.38.32-.609.763-.673 1.313zm4.538 7.617c0 1.51.494 2.789 1.471 3.796.972 1.004 2.252 1.516 3.809 1.516 1 0 1.873-.187 2.6-.552.71-.355 1.32-.91 1.832-1.644-.13-.06-1.954-.94-2.018-.97-.68.668-1.495 1.01-2.434 1.01-.8 0-1.47-.222-1.986-.668-.511-.441-.838-1.046-.954-1.793l-.012-.073h8.101c.006-.092.012-.433.012-.433 0-1.678-.493-3.052-1.47-4.073-.973-1.023-2.252-1.54-3.815-1.54-1.462 0-2.7.517-3.668 1.54-.974 1.021-1.468 2.33-1.468 3.884zm7.001-2.807c.5.369.837.855 1.007 1.436l.024.081h-5.641l.04-.087c.285-.643.604-1.103.94-1.365a3.067 3.067 0 0 1 1.885-.615c.658 0 1.246.185 1.745.55zm-15.91-7.13c.918 0 1.661-1.076 1.661-2.396 0-1.323-.743-2.396-1.66-2.396-.916 0-1.666 1.073-1.666 2.396 0 1.32.75 2.396 1.666 2.396zm-12.832-2.03c.716 0 1.316-1.854 1.316-4.046 0-2.194-.6-4.046-1.316-4.046-.708 0-1.313 1.852-1.313 4.046 0 2.192.605 4.046 1.313 4.046zm-21.327 2.68c1.155 0 2.09-.964 2.09-2.15 0-1.19-.935-2.15-2.09-2.15-1.151 0-2.088.96-2.088 2.15 0 1.186.937 2.15 2.088 2.15zm9.596-4.96c0-1.512-.821-2.744-1.825-2.744-1.007 0-1.827 1.232-1.827 2.744 0 1.508.82 2.74 1.827 2.74 1.004 0 1.825-1.232 1.825-2.74zm18.35-2.372c.854 0 1.554-1.366 1.554-3.042 0-1.682-.667-3.051-1.521-3.051-.86 0-1.59 1.37-1.59 3.05 0 1.677.699 3.043 1.556 3.043zm-13.196 1.699c.754 0 1.367-1.454 1.367-3.24 0-1.787-.613-3.238-1.367-3.238-.753 0-1.36 1.451-1.36 3.237 0 1.787.607 3.24 1.36 3.24zm18.209 9.76h2.404V43.76h-2.404V33.551zm21.814 10.213a1.167 1.167 0 0 1-1.172-1.19c0-.66.517-1.177 1.18-1.177.645 0 1.149.518 1.149 1.177 0 .673-.504 1.19-1.157 1.19zm.007-.214c.51.008.898-.43.898-.97s-.389-.975-.913-.975c-.518 0-.912.436-.912.969 0 .547.394.976.927.976zm-.44-.326V41.99c.123-.021.252-.037.418-.037.2 0 .302.037.374.096.071.052.12.148.12.267 0 .148-.107.244-.229.289v.014c.102.045.159.14.195.303.035.185.064.26.093.303h-.23c-.036-.043-.065-.155-.1-.317-.03-.14-.108-.2-.274-.2h-.144v.517h-.223zm.374-.695c.16 0 .309-.051.309-.192 0-.118-.079-.207-.287-.207a.804.804 0 0 0-.173.015v.384h.151z" fill="#5B7183"/><path d="M88.8 33c0 11.046-8.955 20-20 20-11.046 0-20-8.954-20-20s8.954-20 20-20c11.045 0 20 8.954 20 20" fill="#FEFEFE"/><path d="M87.8 33c0 10.493-8.507 19-19 19-10.494 0-19-8.507-19-19 0-10.494 8.506-19 19-19 10.493 0 19 8.506 19 19" fill="#7E2724"/><path fill="#FEFEFE" d="M74.737 41.424L68.8 35.487l-5.938 5.937-2.486-2.486L66.313 33l-5.937-5.937 2.486-2.487 5.938 5.937 5.937-5.937 2.487 2.487L71.287 33l5.937 5.938z"/></g></svg>