<svg width="18" height="16" viewBox="0 0 18 16" xmlns="http://www.w3.org/2000/svg"><title>Shape</title><path d="M13.378 14a.64.64 0 0 0-.199-.469.644.644 0 0 0-.47-.198.644.644 0 0 0-.47.198.64.64 0 0 0-.199.469c0 .18.066.337.199.469a.643.643 0 0 0 .47.198.644.644 0 0 0 .47-.198.64.64 0 0 0 .199-.469zm2.676 0a.64.64 0 0 0-.2-.469.644.644 0 0 0-.47-.198.644.644 0 0 0-.47.198.64.64 0 0 0-.198.469c0 .18.066.337.198.469.133.132.29.198.47.198a.644.644 0 0 0 .47-.198.64.64 0 0 0 .2-.469zm1.337-2.333V15a.963.963 0 0 1-.292.708.97.97 0 0 1-.711.292H1.003a.97.97 0 0 1-.71-.292A.963.963 0 0 1 0 15v-3.333c0-.278.098-.514.293-.709a.97.97 0 0 1 .71-.291h4.86l1.411 1.416c.404.39.878.584 1.422.584.543 0 1.017-.195 1.421-.584l1.421-1.416h4.85a.97.97 0 0 1 .71.291.96.96 0 0 1 .293.709zM13.995 5.74c.118.284.07.527-.147.729l-4.682 4.666a.622.622 0 0 1-.47.198.622.622 0 0 1-.47-.198L3.542 6.47c-.216-.202-.265-.445-.146-.73a.625.625 0 0 1 .616-.406H6.69V.667a.64.64 0 0 1 .199-.47.644.644 0 0 1 .47-.197h2.675c.182 0 .338.066.47.198a.64.64 0 0 1 .2.469v4.666h2.675c.293 0 .498.136.617.407z" fill="#FFF" fill-rule="evenodd"/></svg>