<?xml version="1.0" encoding="UTF-8"?>
<svg width="18px" height="16px" viewBox="0 0 18 16" version="1.1" xmlns="http://www.w3.org/2000/svg" xmlns:xlink="http://www.w3.org/1999/xlink">
    <!-- Generator: Sketch 41.2 (35397) - http://www.bohemiancoding.com/sketch -->
    <title>Shape</title>
    <desc>Created with Sketch.</desc>
    <defs></defs>
    <g id="Components" stroke="none" stroke-width="1" fill="none" fill-rule="evenodd">
        <g id="Print-Mobile" transform="translate(-238.000000, -296.000000)" fill="#FFFFFF">
            <g id="Hero-Banner" transform="translate(-2.000000, 80.000000)">
                <g id="Group-53" transform="translate(17.000000, 203.000000)">
                    <path d="M236.377926,27 C236.377926,26.8194444 236.311734,26.6631944 236.179348,26.53125 C236.046962,26.3993056 235.89019,26.3333333 235.70903,26.3333333 C235.527871,26.3333333 235.371098,26.3993056 235.238712,26.53125 C235.106327,26.6631944 235.040134,26.8194444 235.040134,27 C235.040134,27.1805556 235.106327,27.3368056 235.238712,27.46875 C235.371098,27.6006944 235.527871,27.6666667 235.70903,27.6666667 C235.89019,27.6666667 236.046962,27.6006944 236.179348,27.46875 C236.311734,27.3368056 236.377926,27.1805556 236.377926,27 Z M239.053512,27 C239.053512,26.8194444 238.987319,26.6631944 238.854933,26.53125 C238.722547,26.3993056 238.565775,26.3333333 238.384615,26.3333333 C238.203456,26.3333333 238.046683,26.3993056 237.914298,26.53125 C237.781912,26.6631944 237.715719,26.8194444 237.715719,27 C237.715719,27.1805556 237.781912,27.3368056 237.914298,27.46875 C238.046683,27.6006944 238.203456,27.6666667 238.384615,27.6666667 C238.565775,27.6666667 238.722547,27.6006944 238.854933,27.46875 C238.987319,27.3368056 239.053512,27.1805556 239.053512,27 Z M240.391304,24.6666667 L240.391304,28 C240.391304,28.2777778 240.293757,28.5138889 240.098662,28.7083333 C239.903567,28.9027778 239.666667,29 239.38796,29 L224.003344,29 C223.724638,29 223.487737,28.9027778 223.292642,28.7083333 C223.097547,28.5138889 223,28.2777778 223,28 L223,24.6666667 C223,24.3888889 223.097547,24.1527778 223.292642,23.9583333 C223.487737,23.7638889 223.724638,23.6666667 224.003344,23.6666667 L228.863294,23.6666667 L230.274247,25.0833333 C230.678372,25.4722222 231.152174,25.6666667 231.695652,25.6666667 C232.23913,25.6666667 232.712932,25.4722222 233.117057,25.0833333 L234.538462,23.6666667 L239.38796,23.6666667 C239.666667,23.6666667 239.903567,23.7638889 240.098662,23.9583333 C240.293757,24.1527778 240.391304,24.3888889 240.391304,24.6666667 Z M236.994565,18.7395833 C237.113016,19.0243056 237.064242,19.2673611 236.848244,19.46875 L232.16597,24.1354167 C232.040552,24.2673611 231.883779,24.3333333 231.695652,24.3333333 C231.507525,24.3333333 231.350753,24.2673611 231.225334,24.1354167 L226.54306,19.46875 C226.327062,19.2673611 226.278289,19.0243056 226.396739,18.7395833 C226.51519,18.46875 226.720736,18.3333333 227.013378,18.3333333 L229.688963,18.3333333 L229.688963,13.6666667 C229.688963,13.4861111 229.755156,13.3298611 229.887542,13.1979167 C230.019928,13.0659722 230.1767,13 230.35786,13 L233.033445,13 C233.214604,13 233.371377,13.0659722 233.503763,13.1979167 C233.636148,13.3298611 233.702341,13.4861111 233.702341,13.6666667 L233.702341,18.3333333 L236.377926,18.3333333 C236.670569,18.3333333 236.876115,18.46875 236.994565,18.7395833 Z" id="Shape"></path>
                </g>
            </g>
        </g>
    </g>
</svg>