<?xml version="1.0" encoding="UTF-8"?>
<svg width="18px" height="16px" viewBox="0 0 18 16" version="1.1" xmlns="http://www.w3.org/2000/svg" xmlns:xlink="http://www.w3.org/1999/xlink">
    <!-- Generator: Sketch 41.2 (35397) - http://www.bohemiancoding.com/sketch -->
    <title>Shape</title>
    <desc>Created with Sketch.</desc>
    <defs></defs>
    <g id="Components" stroke="none" stroke-width="1" fill="none" fill-rule="evenodd">
        <g id="Print-Mobile" transform="translate(-253.000000, -1330.000000)" fill="#1F3340">
            <g id="Logo" transform="translate(13.000000, 383.000000)">
                <g id="Single-Color" transform="translate(0.000000, 536.000000)">
                    <g id="download-btn" transform="translate(0.000000, 397.000000)">
                        <path d="M253.377926,28 C253.377926,27.8194444 253.311734,27.6631944 253.179348,27.53125 C253.046962,27.3993056 252.89019,27.3333333 252.70903,27.3333333 C252.527871,27.3333333 252.371098,27.3993056 252.238712,27.53125 C252.106327,27.6631944 252.040134,27.8194444 252.040134,28 C252.040134,28.1805556 252.106327,28.3368056 252.238712,28.46875 C252.371098,28.6006944 252.527871,28.6666667 252.70903,28.6666667 C252.89019,28.6666667 253.046962,28.6006944 253.179348,28.46875 C253.311734,28.3368056 253.377926,28.1805556 253.377926,28 Z M256.053512,28 C256.053512,27.8194444 255.987319,27.6631944 255.854933,27.53125 C255.722547,27.3993056 255.565775,27.3333333 255.384615,27.3333333 C255.203456,27.3333333 255.046683,27.3993056 254.914298,27.53125 C254.781912,27.6631944 254.715719,27.8194444 254.715719,28 C254.715719,28.1805556 254.781912,28.3368056 254.914298,28.46875 C255.046683,28.6006944 255.203456,28.6666667 255.384615,28.6666667 C255.565775,28.6666667 255.722547,28.6006944 255.854933,28.46875 C255.987319,28.3368056 256.053512,28.1805556 256.053512,28 Z M257.391304,25.6666667 L257.391304,29 C257.391304,29.2777778 257.293757,29.5138889 257.098662,29.7083333 C256.903567,29.9027778 256.666667,30 256.38796,30 L241.003344,30 C240.724638,30 240.487737,29.9027778 240.292642,29.7083333 C240.097547,29.5138889 240,29.2777778 240,29 L240,25.6666667 C240,25.3888889 240.097547,25.1527778 240.292642,24.9583333 C240.487737,24.7638889 240.724638,24.6666667 241.003344,24.6666667 L245.863294,24.6666667 L247.274247,26.0833333 C247.678372,26.4722222 248.152174,26.6666667 248.695652,26.6666667 C249.23913,26.6666667 249.712932,26.4722222 250.117057,26.0833333 L251.538462,24.6666667 L256.38796,24.6666667 C256.666667,24.6666667 256.903567,24.7638889 257.098662,24.9583333 C257.293757,25.1527778 257.391304,25.3888889 257.391304,25.6666667 Z M253.994565,19.7395833 C254.113016,20.0243056 254.064242,20.2673611 253.848244,20.46875 L249.16597,25.1354167 C249.040552,25.2673611 248.883779,25.3333333 248.695652,25.3333333 C248.507525,25.3333333 248.350753,25.2673611 248.225334,25.1354167 L243.54306,20.46875 C243.327062,20.2673611 243.278289,20.0243056 243.396739,19.7395833 C243.51519,19.46875 243.720736,19.3333333 244.013378,19.3333333 L246.688963,19.3333333 L246.688963,14.6666667 C246.688963,14.4861111 246.755156,14.3298611 246.887542,14.1979167 C247.019928,14.0659722 247.1767,14 247.35786,14 L250.033445,14 C250.214604,14 250.371377,14.0659722 250.503763,14.1979167 C250.636148,14.3298611 250.702341,14.4861111 250.702341,14.6666667 L250.702341,19.3333333 L253.377926,19.3333333 C253.670569,19.3333333 253.876115,19.46875 253.994565,19.7395833 Z" id="Shape"></path>
                    </g>
                </g>
            </g>
        </g>
    </g>
</svg>