<svg width="87" height="90" viewBox="0 0 87 90" xmlns="http://www.w3.org/2000/svg" xmlns:xlink="http://www.w3.org/1999/xlink"><defs><path d="M41.33 0h2.793C56.12.72 65.66 10.667 65.66 22.79v7.611c0 12.59-10.289 22.833-22.934 22.833-12.645 0-22.933-10.242-22.933-22.833v-7.61C19.793 10.667 29.333.72 41.33 0zM0 78.813v-.268c11.535-11.416 26.837-17.7 43.11-17.7 16.336 0 31.694 6.333 43.244 17.834L75.542 89.44c-8.662-8.625-20.18-13.375-32.432-13.375-12.252 0-23.77 4.75-32.434 13.374L0 78.813zM35.082 22.79c0-4.197 3.43-7.611 7.644-7.611 4.215 0 7.645 3.414 7.645 7.61V30.4c0 4.197-3.43 7.611-7.645 7.611-4.214 0-7.644-3.414-7.644-7.61V22.79z" id="a"/></defs><g fill="none" fill-rule="evenodd"><mask id="b" fill="#fff"><use xlink:href="#a"/></mask><path fill="#8394A1" mask="url(#b)" d="M-3.758 93.056h93.735V-3.657H-3.758z"/></g></svg>