<svg width="94" height="90" viewBox="0 0 94 90" xmlns="http://www.w3.org/2000/svg" xmlns:xlink="http://www.w3.org/1999/xlink"><title>print-icon-12</title><defs><path d="M54.884 5.783l-.626-2.293 3.562 4.136v1.778c2.664 1.129 4.858 2.835 6.586 5.12a47.505 47.505 0 0 0-2.138-.471c-1.324-.258-1.762-.221-1.316.108.489.384 1.395 1.935 2.72 4.65 1.254 2.613 2.002 4.42 2.246 5.42.188.771-.128 3.106-.949 7.007a136.081 136.081 0 0 1-1.275 5.613l-.475.77c-.17.458.138.557.928.3.78-.257 1.26.016 1.448.815.1.413.121.85.065 1.306l-1.469 5.078c-1.023 3.443-1.685 5.322-1.988 5.637-.315.312-.79.334-1.426.063-.33-.085-.517-.3-.562-.642l.088.964c-.015 1.015-.137 2.188-.367 3.514-.244 1.33-.958 2.899-2.137 4.714l-2.29 2.658c-.432 1.7-.707 2.733-.82 3.107-.044 0-.066.02-.066.063-.027.157-.008.137.065-.063.26.015 1.355.992 3.282 2.934a108.64 108.64 0 0 1 3.326 3.409c16.282 5.385 26.886 8.819 31.81 10.306v8.206H.334v-3.343a86.17 86.17 0 0 1 4.103-1.07c1.123-.87 4.384-2.7 9.782-5.486a354.92 354.92 0 0 1 7.58-3.857v-.877c0-1.872.756-3.615 2.267-5.227.749-.804 1.497-1.415 2.246-1.845a5.305 5.305 0 0 0 1.403-2.272c.23-.715.468-1.184.713-1.413-.59-1.415-1.41-2.536-2.461-3.366-1.743-1.4-2.973-3.82-3.694-7.262a27.94 27.94 0 0 1-.497-3.343l-.065-1.414c-1.021.357-1.734.478-2.137.364-.403-.114-.986-1.707-1.749-4.778-.835-3.328-1.173-6.007-1.015-8.036.144-1.871.785-2.771 1.921-2.7.562.045 1.101.273 1.62.686a133.31 133.31 0 0 1-1.123-3.728c-.777-2.7-1.201-4.843-1.273-6.428-.073-1.514.748-3.807 2.462-6.879.417-.742.97-1.713 1.662-2.914.446-.843.612-1.32.497-1.436-.186-.2-.186-.456 0-.77.273-.443.425-.743.454-.9.07-.528.698-1.086 1.879-1.673.476-.242 2.758-1.478 6.845-3.705l.432-.622-1.145-.708-.799-1.413-.626-1.586 3.563.75-.8-.217 1.426-.276c.345-.359.46-.537.345-.537l.087-.772.625.429.54-.171.52-.986.26.685c.2.53.417 1.007.647 1.436.201.4.381.636.54.707.288.129.518.279.69.45.305.286.562.37.779.257a.469.469 0 0 0 .215-.257c-.302-.529-.605-.943-.906-1.242-.172-.187-.33-.494-.475-.922l-.13-.579 1.511.62 1.34 1.157 1.597.087-.712-.964c0-.356-.153-.684-.453-.985-.188-.186.1-.093.863.278.375.186.771.393 1.189.622l.884.085.56.236a8.55 8.55 0 0 1 1.124.728c.347.258.583.1.713-.471.1-.715.166-1.15.193-1.307.03-.186.26-.344.692-.473.215-.056.424-.106.625-.15l1.447 2.401c.172.286.525.786 1.057 1.5l.327-.257c.214-.2.286-.407.214-.622L49.807.486l.324.044c.245.085.468.28.67.579.288.457.972 1.599 2.052 3.428l1.23 2.12.8-.874z" id="a"/></defs><g fill="none" fill-rule="evenodd"><mask id="b" fill="#fff"><use xlink:href="#a"/></mask><path fill="#8394A1" mask="url(#b)" d="M-4.067 94.356H97.506V-4.159H-4.067z"/></g></svg>