<svg width="101" height="90" viewBox="0 0 101 90" xmlns="http://www.w3.org/2000/svg" xmlns:xlink="http://www.w3.org/1999/xlink"><defs><path d="M.306 89.774v-9.086s.588-5.578 7.264-7.309c0 0 10.752-3.95 19.173-7.637 4.355-1.906 5.292-3.052 9.686-5.005 0 0 .458-2.27.293-3.62h3.436s.785.46 0-4.873c0 0-4.188-1.118-4.383-9.612 0 0-3.146 1.065-3.338-4.082-.131-3.49-2.815-6.519 1.047-9.02l-1.963-5.333s-3.926-21.53 7.362-18.37C34.12.1 65.875-5.626 67.938 12.545c0 0 1.47 9.81 0 16.526 0 0 4.637-.54 1.537 8.428 0 0-1.701 6.452-4.32 5.004 0 0 .428 8.163-3.695 9.548 0 0 .293 4.344.293 4.64l3.928.593s-.59 3.556.098 3.95c0 0 4.657 3.21 10.207 4.643 10.7 2.763 23.362 7.504 23.362 11.653 0 0 1.08 5.53 1.08 12.245H.306z" id="a"/></defs><g fill="none" fill-rule="evenodd"><mask id="b" fill="#fff"><use xlink:href="#a"/></mask><path fill="#8394A1" mask="url(#b)" d="M-3.44 93.552h107.613v-97.11H-3.439z"/></g></svg>