<svg width="72" height="90" viewBox="0 0 72 90" xmlns="http://www.w3.org/2000/svg" xmlns:xlink="http://www.w3.org/1999/xlink"><defs><path d="M71.175 26.067v.092c-.31-.086-.819-.15-1.289-.161.767 2.6 1.24 5.395 1.262 8.317.11 9.402-2.533 19.676-2.533 19.676-1.652 1.512-.992 7.022-.992 7.022h-.66c-.111-18.918-6.716-16.864-6.716-17.623 0-.753 1.212-2.7 1.212-8.206 0-5.517-7.606-7.792-8.482-7.353-.864.415-2.155 2.926-11.063.673-.019.387-.063.866-.097 1.388l.097-1.4c-.165-.039-.331-.085-.504-.121-9.355-2.488-15.084-1.295-15.529-1.295-1.317 1.295-10.021 5.185-10.787 6.697-.78 1.513 0 4.436.878 5.839-.44-.111-1.983-2.488-1.983-2.488s-.659 2.917-1.1 3.785c-.438 3.892-4.076 7.881-4.404 8.647 0 1.511-1.436 11.139-1.436 11.139H6.39c.224-4.225-.993-6.6-1.647-7.998-.664-1.411-2.646-12.87-2.427-13.952.113-.534-.1-2.097-.337-3.808-.15.45-1.372 1.865-1.951 3.014.182-.7 1.512-2.576 1.586-3.842a8.03 8.03 0 0 1 .14-.935c-.15-1.157-.246-2.241-.202-2.967 0-.17.01-.336.01-.495a12.13 12.13 0 0 0-1.02 1.297c.097-.658.59-1.754 1.212-2.94.29-1.686.857-3.059 1.613-4.28-.181.177-.37.371-.545.568.165-.41.638-.998 1.264-1.64 1.598-2.204 3.702-4.128 5.6-6.993 1.018-1.992 2.1-4.187 2.348-4.439-.362.092-.4.186-.59-.095.29-.063.945-.195 1.657-.353a22.637 22.637 0 0 1 3.033-2.54c.112-.637.2-1.256.349-1.473.176-.241.94-.036 1.662.192a37.56 37.56 0 0 1 3.404-1.757c.164-.327.31-.626.465-.74-.042.17-.042.302.327.394.222-.093.439-.177.656-.268.41-.42.83-1.215.85-1.717.37.29.692.729.88 1.072.117-.048.246-.094.376-.129.115-.43.203-.868.332-.99.47.371 1.79.326 2.493.048.7-.282 1.653-1.503 2.426-1.876-.366.373-.44.279-.702.745.59-.234 4.447-.372 5.808-.326-.262-.186-1.174-.744-1.837-1.13 1.21.095 2.208.944 3.45 1.36.698-.045-.47-.37-1.06-.938.61 0 1.618.673 2.388 1.034.301.01.591.028.891.05 1.341-.15 3.343-.022 4.877.14-.676.045-.676.121-1.415.296 1.93.344 3.76.848 5.493 1.472 1.508.162 3.38.544 4.389.905-.676-.091-.839-.009-1.852.124.044.016.084.036.125.056 1.222.22 3.547.977 4.333 1.463-.334 0-.634-.038-1.178.156.116.066.228.133.34.208 1.544.49 4.227 2.187 4.717 2.679-.034-.01-.062-.02-.084-.02.104.025.252.082-.304-.027 0 .195.334.531.606.848a29 29 0 0 1 1.224 1.064c1.347.51 2.869 1.24 4.07 2.127-.935-.317-.954-.251-2.32-.438.193.204.38.408.574.626 1.582 1.334 4.599 4.087 5.284 5.39-.37-.569-.957-.569-1.47-.893.654.606.79 1.63 1.158 2.833.354.72.688 1.466.998 2.22.754 1.242 1.409 1.745 2.318 2.99zm-49.09 26.469c-.047.176-.072.36-.072.547 0 1.31 1.104 2.366 2.459 2.366 1.357 0 2.455-1.055 2.455-2.366 0-.245-.039-.481-.111-.703l.05.015c.194.055.366.133.549.202.17.072.343.153.503.224.085.047.16.083.246.123.075.053.15.095.22.133.143.09.295.17.425.257.256.184.506.338.706.512.203.164.381.306.513.422.278.25.43.405.43.405l.1-.098-.411-.423a6.506 6.506 0 0 0-.499-.466c-.188-.183-.433-.357-.68-.565-.129-.1-.278-.18-.43-.286-.067-.046-.144-.104-.217-.151a3.398 3.398 0 0 1-.244-.14c-.17-.093-.336-.192-.513-.274-.187-.082-.364-.171-.565-.238a5.356 5.356 0 0 0-.6-.204c-.099-.03-.209-.057-.31-.086-.105-.026-.208-.047-.315-.076a8.14 8.14 0 0 0-1.33-.147c-.45.007-.901.017-1.334.09-.22.029-.436.086-.65.128-.21.052-.417.096-.615.167a9.994 9.994 0 0 0-1.132.418c-.355.157-.685.324-.968.484-.29.17-.553.329-.78.481a14.51 14.51 0 0 0-.572.412c-.154.125-.272.216-.358.291-.038.033-.075.062-.097.084a.107.107 0 0 1-.03.025l.65.655s.012-.003.033-.024c.011-.006.045-.043.076-.07.065-.066.172-.156.298-.28.142-.112.308-.25.516-.4a6.61 6.61 0 0 1 .686-.484c.27-.183.558-.333.88-.5a8.123 8.123 0 0 1 1.02-.452l.017-.008zm26.55.008c-.169.084-.327.16-.485.252-.363.2-.697.418-1.009.638-.304.22-.58.447-.829.665-.25.204-.467.423-.645.607-.186.192-.346.363-.472.506a4.274 4.274 0 0 0-.368.476l.107.076s.132-.162.398-.442c.121-.129.29-.287.481-.46.193-.192.404-.384.658-.576.259-.201.545-.405.842-.612a15.89 15.89 0 0 1 1.008-.568c.05-.025.1-.048.153-.072-.03.147-.045.3-.045.456 0 1.304 1.099 2.364 2.457 2.364 1.356 0 2.455-1.06 2.455-2.364 0-.394-.1-.763-.273-1.088.023.006.047.012.07.02.184.02.369.076.553.129.089.023.181.042.27.078.078.026.168.064.248.086.086.03.175.06.261.094.074.027.153.07.233.106.15.069.305.116.447.2.27.148.526.27.743.41.212.136.408.252.552.365.286.214.467.338.467.338l.498-.665s-.188-.117-.512-.335c-.17-.107-.373-.227-.613-.36-.236-.143-.526-.258-.83-.404a7.436 7.436 0 0 0-.495-.2c-.073-.024-.164-.061-.257-.092a5.035 5.035 0 0 0-.27-.08 2.652 2.652 0 0 0-.294-.09c-.09-.036-.185-.042-.288-.07-.197-.043-.399-.09-.62-.119a7.062 7.062 0 0 0-.316-.045c-.105-.012-.212-.007-.327-.017a2.368 2.368 0 0 0-.324-.023 2.595 2.595 0 0 1-.33 0 8.417 8.417 0 0 0-1.333.152c-.223.056-.454.09-.656.16-.116.032-.22.068-.324.1-.106.039-.212.082-.31.117l-.31.122a2.024 2.024 0 0 1-.142.066 8.585 8.585 0 0 0-.212.07l-.013.029zm-14.35 19.785c-.188.135-.6.2-1.073.161-.578-.055-1.036-.237-1.107-.437l-.1.08s-.01-.024-.027-.032c-.02-.043-.051-.082-.051-.156a.434.434 0 0 1 .103-.207.918.918 0 0 1 .204-.15c.156-.11.357-.178.594-.259.118-.04.25-.056.391-.07.07-.023.145-.023.214-.038h.077c.008 0 .046.015.079.015.06 0 .103.023.15.038.344.113.601.3.878.485.274.187.552.376.84.561.284.191.59.355.895.471.314.131.642.197.943.18h.247a2.47 2.47 0 0 1 .239-.049c.167-.04.321-.08.483-.13.32-.135.62-.3.921-.472.289-.185.584-.352.867-.538.29-.17.566-.318.878-.429.148-.063.313-.093.482-.093.165 0 .296.015.417.053.254.058.451.167.604.262a.757.757 0 0 1 .196.147.373.373 0 0 1 .125.17c.006.04.01.077 0 .11-.012.043-.026.058-.043.058-.028.043-.043.043-.043.043l-.06-.088c-.093.192-.54.37-1.096.414-.449.026-.841-.028-1.04-.143l-.043.035c-.26.191-.532.414-.838.613a5.95 5.95 0 0 1-1.02.576c-.192.08-.39.15-.602.214-.104.02-.211.036-.318.057l-.182.02h-.15c-.46 0-.892-.1-1.279-.267-.384-.164-.716-.39-1.019-.599-.268-.2-.511-.416-.736-.606zm-2.187-.305a.112.112 0 0 1-.002-.011v.008l.002.003zm-8.274 7.034s3.247.408 4.463.408c1.228 0 2.374-.239 4.383-.188 1.968.039 3.726 1.027 4.252 1.123.525.094 1.908-.917 3.169-.785 1.4.13 2.455 1.12 4.088 1.417 1.652.303 4.374 1.303 4.844 1.303.481 0-1.76-.07-6.644-.85-3.03-.471-4.609.631-5.66.408-2.616-.558-2.3-1.379-4.19-1.493-1.98-.133-5.768-.711-8.705-1.343zm.985-3.006s-.033.019-.106.056c-.076.02-.178.075-.312.13-.27.09-.66.223-1.125.361-.225.066-.473.12-.73.198a5.277 5.277 0 0 0-.739.28c-.053.02-.106.05-.16.072a.414.414 0 0 0-.15.1 1.26 1.26 0 0 0-.214.178c-.018.044-.048.061-.06.101a.346.346 0 0 1-.025.055c0 .014-.011.036-.011.057-.033.057-.033.148-.033.257 0 .211.07.466.15.733.09.255.195.52.31.765.027.072.056.132.088.199.03.06.058.113.085.19.06.11.118.242.181.352.109.244.225.47.333.68.096.22.192.4.278.59.08.168.15.319.216.451.105.261.16.427.16.427s-.14-.09-.364-.28c-.11-.09-.248-.19-.39-.337a6.509 6.509 0 0 1-.484-.451c-.087-.09-.17-.18-.262-.279-.085-.112-.172-.2-.268-.31a6.248 6.248 0 0 1-.264-.358c-.09-.112-.17-.243-.262-.374-.037-.057-.087-.13-.118-.204-.044-.073-.084-.132-.121-.205a4.188 4.188 0 0 1-.223-.467 3.193 3.193 0 0 1-.256-1.1c0-.202.021-.43.096-.654.023-.057.044-.114.066-.166a.931.931 0 0 1 .088-.149c.062-.11.145-.19.222-.284.073-.09.158-.169.245-.227.091-.051.183-.12.268-.163.086-.037.183-.077.268-.109.086-.038.172-.058.246-.079.344-.088.655-.126.945-.168.288 0 .557-.01.804 0 .492 0 .894.042 1.18.08.137.021.255.031.332.031a.557.557 0 0 0 .116.021zm6.11 7.016l.129.058c.086.051.2.09.352.187.3.145.724.356 1.232.574.064.02.126.038.195.081a.988.988 0 0 1 .192.065c.136.044.27.08.377.1h.46c.17.014.348.014.52.034.37 0 .739.035 1.113.057.376.024.757.06 1.141.09h.207l.03.022h.074l.282.059c.19.054.375.072.557.129.364.075.728.169 1.088.242.153.058.32.09.48.133l.065.014h.124c.073.024.149.024.223.024.312.02.616 0 .891 0 .279-.024.539-.038.761-.062.227-.02.417-.029.568-.072.078-.022.15-.022.204-.037.06-.019.11-.043.15-.052a.366.366 0 0 1 .1-.057l.137.108s-.033.058-.107.133c-.03.038-.074.07-.13.123-.054.044-.126.082-.204.134-.16.092-.353.208-.576.279a5.67 5.67 0 0 1-.783.268c-.29.074-.6.133-.948.187-.091.014-.181.014-.275.014-.043.022-.107.022-.169.022h-.195l-.044-.022h-.076l-.135-.014a1.1 1.1 0 0 0-.26-.043 28.464 28.464 0 0 1-1.084-.187c-.191-.014-.373-.057-.562-.095l-.28-.052h-.078c-.01-.019.03 0 .019 0h-.02l-.043-.019h-.14c-.375-.039-.762-.09-1.138-.13-.37-.04-.738-.1-1.092-.15-.177-.04-.355-.058-.52-.09a.895.895 0 0 1-.251-.044c-.045 0-.088-.014-.13-.014-.064-.02-.114-.044-.166-.044a2.5 2.5 0 0 1-.533-.24c-.067-.034-.14-.067-.207-.124a1.455 1.455 0 0 1-.186-.134 5.24 5.24 0 0 1-.634-.5c-.183-.157-.321-.299-.45-.43-.12-.116-.204-.226-.27-.28a19.133 19.133 0 0 1-.084-.113l.098-.132zm13.52-32.819l.494.517s8.817-4.397 15.356-1.136c-1.18-.893-4.47-2.362-4.825-2.705-.703.156-8.13 2.39-11.026 3.324zm-14.034-.115l.522-.837s-6.76-1.55-10.823-1.697c-.396.257-6.336 3.975-6.336 3.975s8.212-4.303 16.637-1.441zm9.622 39.52s-.029-.022-.082-.022a9.507 9.507 0 0 1-.252-.053c-.111-.017-.233-.039-.382-.057a6.278 6.278 0 0 1-.47-.07c-.091 0-.183-.021-.27-.021a1.226 1.226 0 0 0-.287-.037c-.097-.02-.194-.02-.29-.04-.045 0-.1-.013-.154-.013h-.154c-.098-.02-.203-.02-.312-.04-.106 0-.215 0-.318-.024-.217-.015-.432 0-.657-.015-.113 0-.225.015-.333.015h-.322a6.285 6.285 0 0 1-.642.045c-.208.02-.41.053-.605.072-.2 0-.382.058-.558.068-.177.021-.343.021-.487.06-.151.018-.27.04-.377.057-.11.022-.202.022-.256.022-.065 0-.098.018-.098.018s.023-.04.067-.079c.04-.034.106-.088.186-.165.078-.074.188-.164.306-.265.117-.09.261-.18.428-.28.074-.054.16-.09.256-.144.045-.022.088-.043.134-.074.052-.023.105-.038.145-.06.109-.036.216-.087.319-.13.11-.038.218-.078.331-.11.236-.058.475-.111.73-.168.25-.022.507-.058.764-.058.256 0 .515 0 .771.035.123.022.255.044.375.06.119.04.238.05.36.094.232.057.445.147.658.227.193.087.38.185.543.295.082.058.154.091.23.143.07.062.138.102.197.155.122.096.218.183.296.28.15.148.21.278.21.278z" id="a"/></defs><g fill="none" fill-rule="evenodd"><mask id="b" fill="#fff"><use xlink:href="#a"/></mask><path fill="#8394A1" mask="url(#b)" d="M-3.825 93.431h78.937V-3.435H-3.825z"/></g></svg>