<svg width="90" height="90" viewBox="0 0 90 90" xmlns="http://www.w3.org/2000/svg" xmlns:xlink="http://www.w3.org/1999/xlink"><defs><path d="M89.672 89.608H.021V88.51c0-17.001 2.31-26.395 7.049-28.72 1.23-.605 2.817-1.526 4.649-2.593 5.244-3.052 12.97-7.549 21.61-9.821-5.64-5.384-9.444-14.83-9.444-23.857C23.885 9.895 32.699.006 44.844.006c12.144 0 20.958 9.981 20.958 23.733 0 8.921-3.645 18.02-9.237 23.431 11.739 2.722 21.74 9.165 26.157 12.01 6.319 4.072 6.886 26.74 6.93 29.313l.02 1.115z" id="a"/></defs><g fill="none" fill-rule="evenodd"><mask id="b" fill="#fff"><use xlink:href="#a"/></mask><path fill="#8394A1" mask="url(#b)" d="M-3.725 93.385h97.142V-3.77H-3.725z"/></g></svg>