<svg width="67" height="97" viewBox="0 0 67 97" xmlns="http://www.w3.org/2000/svg" xmlns:xlink="http://www.w3.org/1999/xlink"><title>guidelines-icon</title><defs><path id="a" d="M0 .216V33.02h24.24V.216H0z"/><path id="c" d="M20.28 33.022V.216H.98v32.806h19.3z"/></defs><g fill="none" fill-rule="evenodd"><g transform="translate(0 14.936)"><mask id="b" fill="#fff"><use xlink:href="#a"/></mask><path d="M10.764.981a1.256 1.256 0 0 0-1.636-.67l-8.36 3.48a1.25 1.25 0 0 0-.673 1.63l.857 2.042L3.625 6.35a.68.68 0 0 1 .887.363.677.677 0 0 1-.365.884L1.473 8.709l1.349 3.22L7.53 9.97a.683.683 0 0 1 .887.364.678.678 0 0 1-.365.883l-4.708 1.96 1.347 3.22 2.674-1.112a.68.68 0 0 1 .888.362.678.678 0 0 1-.365.883l-2.674 1.114 1.349 3.22 4.709-1.96a.675.675 0 1 1 .522 1.247l-4.71 1.96 1.349 3.22 2.674-1.113a.682.682 0 0 1 .888.363.678.678 0 0 1-.366.883l-2.673 1.113 1.349 3.22 4.708-1.96a.677.677 0 0 1 .522 1.248l-4.709 1.96.828 1.977H24.24L10.764.981z" fill="#84919C" mask="url(#b)"/></g><g transform="translate(46.003 14.936)"><mask id="d" fill="#fff"><use xlink:href="#c"/></mask><path d="M18.504 11.628a.165.165 0 0 1-.288.105l-1.67-1.876a1.528 1.528 0 0 0-1.271-.505l-2.505.216a.165.165 0 0 1-.138-.274l3.611-3.996.183-.042 2.112.84.104.156-.138 5.376zM18.51.545l-7.468 8.05c-.28.303-.504.654-.656 1.037L.979 33.022h11.039l7.884-19.607c.153-.383.236-.79.24-1.203l.138-10.964c.011-.931-1.136-1.388-1.77-.703z" fill="#84919C" mask="url(#d)"/></g><path d="M40.385 27.668l-10.273-.189c-.054 6.378.085 13.5.368 20.48h9.075c.368-6.91.651-13.957.83-20.29m-10.226-3.804l-.005.28.343.007 9.625.179.344.006.006-.282c2-1.646 3.32-4.237 3.374-7.18C43.94 11.799 38.033 6.107 37.212 0c-4.69 4.49-10.063 11.49-10.157 16.564-.056 2.944 1.166 5.582 3.104 7.3M7.46 86.209c0 5.958 4.844 10.789 10.822 10.789H50.58c5.977 0 10.823-4.831 10.823-10.789v-34.63H7.459v34.63z" fill="#84919C"/></g></svg>