<svg width="140" height="57" viewBox="0 0 140 57" xmlns="http://www.w3.org/2000/svg"><title>header-logo</title><path d="M9.106 20.19c-1.664 0-3.091.6-4.236 1.77-1.144 1.178-1.723 2.65-1.723 4.37 0 1.198.254 2.283.762 3.21a5.557 5.557 0 0 0 2.16 2.206c.92.526 1.966.798 3.098.798a6.33 6.33 0 0 0 2.655-.556c.78-.368 1.65-1.04 2.575-1.977.094.099 2.032 2.186 2.136 2.286-1.246 1.244-2.441 2.119-3.552 2.603-1.128.493-2.432.749-3.87.749-2.66 0-4.869-.888-6.56-2.62C.856 31.29 0 29.04 0 26.321c0-1.758.388-3.338 1.158-4.703.773-1.358 1.894-2.476 3.33-3.311a9.269 9.269 0 0 1 4.67-1.246c1.41 0 2.79.31 4.096.924a9.868 9.868 0 0 1 3.344 2.584l-2.199 2.156c-1.563-1.68-3.342-2.537-5.293-2.537zm11.1 8.752c0-1.073.349-1.967 1.028-2.657.685-.695 1.55-1.045 2.578-1.045 1.045 0 1.923.347 2.597 1.032.675.681 1.014 1.58 1.014 2.67 0 1.086-.346 1.989-1.037 2.687-.682.697-1.554 1.046-2.588 1.046s-1.9-.35-2.577-1.034c-.67-.692-1.015-1.594-1.015-2.699zm-2.886.026c0-1.98.716-3.652 2.13-4.981 1.236-1.14 2.68-1.72 4.292-1.72a6.46 6.46 0 0 1 3.297.896 6.406 6.406 0 0 1 2.41 2.446 6.734 6.734 0 0 1 .86 3.336 6.91 6.91 0 0 1-.865 3.369 6.396 6.396 0 0 1-2.376 2.445c-.998.59-2.112.89-3.317.89-1.766 0-3.294-.664-4.546-1.95-1.252-1.293-1.885-2.885-1.885-4.731zm14.433 6.68V17.806h2.886V35.65h-2.886zm7.938-6.706c0-1.073.345-1.967 1.028-2.657.684-.695 1.55-1.045 2.574-1.045 1.05 0 1.922.347 2.598 1.032.672.681 1.016 1.58 1.016 2.67 0 1.086-.346 1.989-1.034 2.687-.685.697-1.56 1.046-2.592 1.046-1.033 0-1.9-.35-2.573-1.034-.677-.692-1.017-1.594-1.017-2.699zm-2.887.026c0-1.98.715-3.652 2.13-4.981 1.238-1.14 2.684-1.72 4.291-1.72 1.163 0 2.271.298 3.297.896a6.439 6.439 0 0 1 2.407 2.446 6.751 6.751 0 0 1 .865 3.336 6.892 6.892 0 0 1-.871 3.369 6.423 6.423 0 0 1-5.687 3.335c-1.77 0-3.296-.664-4.548-1.95-1.25-1.293-1.884-2.885-1.884-4.731zm18.234-5.031c.699-.625 1.334-1.068 1.894-1.304a4.32 4.32 0 0 1 1.731-.367c1.2 0 2.228.446 3.067 1.347.7.751 1.054 1.897 1.054 3.387v8.649h-2.917v-5.702c0-1.6-.066-2.629-.2-3.16-.137-.53-.382-.94-.717-1.226-.344-.278-.768-.417-1.265-.417a2.3 2.3 0 0 0-1.67.69c-.457.455-.778 1.094-.956 1.895-.093.427-.138 1.305-.138 2.7v5.22H51.96V22.604h2.962v1.441l.117-.108zM65.67 35.649V22.266h2.887V35.65H65.67zm9.678-9.374c.675-.693 1.538-1.035 2.561-1.035 1.046 0 1.925.332 2.61 1.019.686.677 1.027 1.57 1.027 2.661 0 1.115-.341 2.028-1.028 2.717-.684.69-1.556 1.038-2.595 1.038-1.01 0-1.872-.358-2.56-1.057-.687-.699-1.033-1.605-1.033-2.686 0-1.073.34-1.968 1.018-2.657zm-3.905 2.709c0-1.967.576-3.591 1.716-4.846 1.136-1.24 2.534-1.872 4.162-1.872.75 0 1.456.142 2.112.428.657.29 1.273.725 1.833 1.293l.126.14v-1.531h3.041V35.32h-3.041v-1.47l-.123.126c-.618.588-1.238 1.021-1.85 1.276a5.008 5.008 0 0 1-2.003.396c-1.611 0-3.021-.647-4.206-1.918-1.17-1.268-1.767-2.866-1.767-4.747zm15.877 6.665V17.805h2.886V35.65H87.32zm10.824 0V17.062h3.143v15.422h4.795v3.165h-7.938zm17.845-16.277c.084-.709.382-1.278.876-1.69.5-.412 1.225-.62 2.147-.62.652 0 1.407.156 2.225.455v2.376c-.431-.12-.802-.193-1.087-.193-.398 0-.697.091-.897.272-.142.136-.212.403-.212.813l-.008 1.743h2.066v2.657h-2.066V35.65h-3.124V25.185h-1.167v-2.657h1.167v-.083c.005-1.727.037-2.76.08-3.073zm14.755 6.174c.64.397 1.07.923 1.288 1.548l.03.088h-7.217l.051-.095c.366-.693.773-1.187 1.201-1.472.692-.437 1.507-.663 2.413-.663.842 0 1.595.2 2.234.594zm-8.785 3.481c0-1.937.616-3.567 1.83-4.84 1.207-1.276 2.75-1.92 4.57-1.92 1.95 0 3.546.644 4.755 1.92 1.22 1.273 1.834 2.985 1.834 5.077 0 0-.006.424-.014.541h-10.099l.017.09c.144.929.551 1.684 1.19 2.234.64.556 1.476.831 2.474.831 1.17 0 2.186-.425 3.032-1.259.082.04 2.355 1.137 2.517 1.211-.638.916-1.399 1.607-2.283 2.05-.906.454-1.995.687-3.241.687-1.941 0-3.536-.638-4.748-1.89-1.218-1.255-1.834-2.849-1.834-4.732zm-12.99 6.622V22.266h2.887V35.65h-2.887zm28.782-2.333h-.232v-.637a1.1 1.1 0 0 1 .27-.026c.31 0 .45.134.45.338 0 .23-.219.325-.488.325zm-.733 1.248V32.34c.192-.026.462-.067.81-.067.398 0 .578.067.72.175a.572.572 0 0 1 .218.475c0 .272-.192.447-.437.53v.025c.206.069.307.245.373.543.064.34.115.46.153.543h-.513c-.064-.082-.103-.272-.168-.543-.036-.23-.166-.34-.436-.34h-.23v.883h-.49zm.835.623c.913.014 1.606-.785 1.606-1.763 0-.989-.693-1.789-1.632-1.789-.912 0-1.618.8-1.618 1.776 0 .99.706 1.776 1.644 1.776zm-.012.462c-1.208 0-2.17-.99-2.17-2.238 0-1.247.962-2.223 2.182-2.223 1.196 0 2.147.976 2.147 2.223 0 1.247-.95 2.238-2.16 2.238zm-70.173-18.55c-1.392 0-2.525-1.166-2.525-2.6 0-1.441 1.133-2.603 2.525-2.603 1.395 0 2.527 1.162 2.527 2.603 0 1.434-1.132 2.6-2.527 2.6zm11.908-6.317c0 1.84-.972 3.344-2.163 3.344-1.196 0-2.167-1.504-2.167-3.344 0-1.845.971-3.347 2.167-3.347 1.191 0 2.163 1.502 2.163 3.347zm22.733-3.347c-.996 0-1.805-1.667-1.805-3.713 0-2.052.845-3.722 1.843-3.722.992 0 1.765 1.67 1.765 3.722 0 2.046-.81 3.713-1.803 3.713zm-15.88 2.23c-.995 0-1.801-1.837-1.801-4.093 0-2.253.806-4.085 1.802-4.085.997 0 1.806 1.832 1.806 4.085 0 2.256-.81 4.093-1.806 4.093zm24.181 6.691c-1.192 0-2.168-1.336-2.168-2.973 0-1.644.976-2.974 2.168-2.974 1.193 0 2.162 1.33 2.162 2.974 0 1.637-.969 2.973-2.162 2.973zm-16.24-2.973c-.972 0-1.804-2.385-1.804-5.204 0-2.824.832-5.205 1.805-5.205.98 0 1.803 2.381 1.803 5.205 0 2.819-.822 5.204-1.803 5.204zM2.037 48.147h2.33c1.082 0 1.864.158 2.345.473.482.315.723.813.723 1.493 0 .459-.119.84-.355 1.144-.236.305-.576.496-1.02.575v.054c.551.104.957.309 1.216.615.26.306.39.72.39 1.243 0 .706-.247 1.258-.739 1.657-.492.4-1.177.599-2.054.599H2.037v-7.853zm1.283 3.245h1.236c.537 0 .929-.085 1.176-.256.247-.17.37-.459.37-.867 0-.369-.133-.636-.4-.8-.266-.165-.69-.247-1.27-.247H3.32v2.17zm0 1.042v2.486h1.365c.537 0 .942-.103 1.216-.308.274-.206.411-.531.411-.975 0-.408-.14-.711-.419-.908-.28-.197-.704-.295-1.273-.295h-1.3zm9.362-.634h.892c.598 0 1.03-.111 1.3-.333.268-.222.402-.552.402-.988 0-.444-.145-.763-.435-.957-.29-.193-.727-.29-1.31-.29h-.849V51.8zm0 1.063V56h-1.284v-7.853h2.219c1.013 0 1.763.19 2.25.57.487.38.73.952.73 1.719 0 .977-.508 1.674-1.525 2.089L17.29 56h-1.46l-1.88-3.137h-1.268zM25.401 56l-.784-2.18h-3.003L20.846 56h-1.354l2.938-7.885h1.397L26.765 56H25.4zm-1.123-3.287l-.736-2.138a13.199 13.199 0 0 1-.223-.677c-.095-.308-.16-.533-.196-.676-.096.44-.238.922-.424 1.445l-.709 2.046h2.288zM36.444 56H34.87l-3.862-6.257h-.043l.027.349c.05.666.075 1.275.075 1.826V56h-1.165v-7.853h1.557l3.851 6.226h.032a36.426 36.426 0 0 1-.042-.9 31.087 31.087 0 0 1-.033-1.211v-4.115h1.177V56zm10.559-4.001c0 1.296-.36 2.287-1.08 2.972-.72.686-1.756 1.029-3.11 1.029h-2.196v-7.853h2.428c1.25 0 2.221.337 2.916 1.01.695.673 1.042 1.62 1.042 2.842zm-1.353.043c0-1.88-.88-2.82-2.638-2.82H41.9v5.698h.914c1.89 0 2.836-.96 2.836-2.878zm13.309-.301h2.89v3.942a8.363 8.363 0 0 1-1.362.328 9.639 9.639 0 0 1-1.41.096c-1.189 0-2.105-.351-2.75-1.055-.644-.704-.967-1.696-.967-2.978 0-1.264.364-2.253 1.09-2.968.727-.714 1.728-1.071 3.003-1.071.82 0 1.597.157 2.331.472l-.451 1.07a4.536 4.536 0 0 0-1.912-.441c-.838 0-1.5.263-1.988.79-.486.526-.73 1.245-.73 2.158 0 .96.22 1.69.658 2.19.439.499 1.07.748 1.893.748a6.2 6.2 0 0 0 1.332-.155v-2.025H58.96V51.74zm13.03-3.594v5.082c0 .58-.124 1.087-.373 1.522-.25.435-.609.77-1.08 1.005-.47.234-1.034.351-1.689.351-.974 0-1.731-.257-2.272-.773-.54-.516-.811-1.225-.811-2.127v-5.06h1.289v4.969c0 .648.15 1.126.451 1.434.301.308.763.462 1.386.462 1.21 0 1.815-.636 1.815-1.907v-4.958h1.284zM76.098 56v-7.853h1.284V56h-1.284zm11.843-4.001c0 1.296-.36 2.287-1.08 2.972-.72.686-1.756 1.029-3.11 1.029h-2.196v-7.853h2.428c1.25 0 2.221.337 2.916 1.01.695.673 1.042 1.62 1.042 2.842zm-1.354.043c0-1.88-.879-2.82-2.637-2.82h-1.112v5.698h.914c1.89 0 2.835-.96 2.835-2.878zM96.17 56h-4.441v-7.853h4.441v1.085h-3.158v2.138h2.96v1.074h-2.96v2.466h3.158V56zm3.798 0v-7.853h1.283V54.9h3.325V56h-4.608zm8.062 0v-7.853h1.283V56h-1.283zm11.999 0h-1.574l-3.862-6.257h-.043l.027.349c.05.666.075 1.275.075 1.826V56h-1.165v-7.853h1.557l3.851 6.226h.032a36.42 36.42 0 0 1-.043-.9 31.086 31.086 0 0 1-.032-1.211v-4.115h1.177V56zm8.615 0H124.2v-7.853h4.442v1.085h-3.159v2.138h2.96v1.074h-2.96v2.466h3.159V56zm8.325-2.132c0 .698-.253 1.246-.758 1.643-.504.398-1.2.596-2.089.596-.888 0-1.615-.137-2.18-.413V54.48c.358.168.738.3 1.14.397a4.84 4.84 0 0 0 1.126.145c.508 0 .884-.096 1.125-.29a.946.946 0 0 0 .363-.778.976.976 0 0 0-.333-.747c-.222-.204-.68-.446-1.375-.725-.716-.29-1.221-.621-1.515-.994-.293-.372-.44-.82-.44-1.342 0-.656.232-1.171.698-1.547.465-.376 1.09-.564 1.874-.564.752 0 1.5.164 2.246.494l-.409 1.047c-.698-.293-1.32-.44-1.869-.44-.415 0-.73.09-.945.271a.89.89 0 0 0-.322.717c0 .204.043.379.129.524.086.145.227.282.424.41.197.13.551.3 1.063.51.577.24 1 .465 1.268.672.269.208.465.442.59.704.126.261.189.57.189.924z" fill="#FFF" fill-rule="evenodd"/></svg>