<?xml version="1.0" encoding="UTF-8"?>
<svg width="190px" height="12px" viewBox="0 0 190 12" version="1.1" xmlns="http://www.w3.org/2000/svg" xmlns:xlink="http://www.w3.org/1999/xlink">
    <!-- Generator: Sketch 41.2 (35397) - http://www.bohemiancoding.com/sketch -->
    <title>logo-my-acct-admin</title>
    <desc>Created with Sketch.</desc>
    <defs></defs>
    <g id="Pages" stroke="none" stroke-width="1" fill="none" fill-rule="evenodd">
        <g id="Web-Mobile" transform="translate(-65.000000, -3431.000000)" fill="#5B7183">
            <g id="Logo" transform="translate(13.000000, 374.000000)">
                <g id="Sub-brands" transform="translate(0.000000, 2119.000000)">
                    <g id="logo-my-acct-admin" transform="translate(52.000000, 938.000000)">
                        <g id="design">
                            <g>
                                <g id="Desktop-HD">
                                    <g id="sub-brands">
                                        <g id="logo-box-4">
                                            <g id="logo-my-acct-admin">
                                                <path d="M11.2311048,11.6193712 L16.7102989,11.6193712 L16.7102989,0.625512644 L0.281027019,0.625512644 L0.281027019,4.89810633 L0.281027019,4.89810633 L1.46000478,4.89810633 L1.46000478,5.48234944 C1.68507053,5.24241907 1.93505052,5.06325298 2.20995226,4.94484578 C2.48485399,4.82643859 2.78466923,4.76723588 3.10940695,4.76723588 C3.4373599,4.76723588 3.73315616,4.84513418 3.99680461,5.00093312 C4.26045306,5.15673206 4.47265473,5.3841951 4.63341597,5.68332908 C4.8424056,5.3841951 5.09881595,5.15673206 5.40265471,5.00093312 C5.70649349,4.84513418 6.03846049,4.76723588 6.39856568,4.76723588 C6.77153177,4.76723588 7.09947979,4.85136604 7.38241962,5.0196289 C7.6653594,5.18789175 7.86871931,5.40756497 7.99250551,5.67865511 C8.11629166,5.94974526 8.17818379,6.39064966 8.17818379,7.00138148 L8.17818379,9.98335828 L6.85191014,9.98335828 L6.85191014,7.40334076 C6.85191014,6.82688466 6.77796104,6.43661417 6.63006073,6.23251759 C6.48216037,6.02842097 6.26031316,5.92637418 5.96451249,5.92637418 C5.73944671,5.92637418 5.53769438,5.98869281 5.35924939,6.113332 C5.1808044,6.23797115 5.04817836,6.4101264 4.96136728,6.6298029 C4.87455621,6.8494794 4.83115133,7.20235869 4.83115133,7.68845137 L4.83115133,9.98335828 L3.50487765,9.98335828 L3.50487765,7.52018939 C3.50487765,7.06525646 3.4703145,6.73574664 3.40118716,6.53165007 C3.33205982,6.32755344 3.22837037,6.17565175 3.0901157,6.07594042 C2.95186102,5.97622909 2.78467183,5.92637418 2.58854311,5.92637418 C2.36990781,5.92637418 2.17137064,5.98947181 1.99292566,6.11566897 C1.81448067,6.24186612 1.68105083,6.41869524 1.59263215,6.64616168 C1.50421346,6.87362812 1.46000478,7.23196034 1.46000478,7.72116898 L1.46000478,9.98335828 L0.281027019,9.98335828 L0.281027019,11.6193712 L9.87308215,11.6193712 L10.8451996,9.60476876 L8.84855487,4.89810633 L10.1941198,4.89810633 L11.558976,8.09041065 L13.0636937,4.89810633 L14.4140815,4.89810633 L11.2311048,11.6193712 Z" id="Rectangle-1"></path>
                                                <path d="M22.6738504,0.73483071 L24.8771589,0.73483071 L29.2682597,11.7880749 L27.0106443,11.7880749 L26.1184595,9.511302 L21.4635823,9.511302 L20.5326069,11.7880749 L18.2749915,11.7880749 L22.6738504,0.73483071 Z M23.7910209,3.66533054 L22.2704277,7.45995212 L25.303856,7.45995212 L23.7910209,3.66533054 Z M37.9262704,5.2658343 L36.1651752,6.20509705 C35.8341601,5.86946549 35.5070289,5.63653067 35.1837719,5.50628556 C34.8605149,5.37604049 34.4816635,5.31091891 34.0472061,5.31091891 C33.255873,5.31091891 32.6158338,5.54009671 32.1270693,5.99845926 C31.6383047,6.45682176 31.3939261,7.04416823 31.3939261,7.76051619 C31.3939261,8.4568265 31.6292537,9.02538787 32.0999158,9.4662174 C32.5705779,9.90704694 33.188636,10.1274584 33.9541086,10.1274584 C34.900605,10.1274584 35.6376198,9.8143739 36.1651752,9.18819561 L37.8331729,10.2927686 C36.9280533,11.4299085 35.6505609,11.9984698 34.0006573,11.9984698 C32.5162613,11.9984698 31.3538466,11.5726749 30.5133785,10.7210724 C29.6729104,9.86946995 29.2526826,8.87260903 29.2526826,7.73045979 C29.2526826,6.9389704 29.456978,6.2101098 29.8655748,5.54385608 C30.2741716,4.87760236 30.8443883,4.35412514 31.5762421,3.97340873 C32.3080959,3.59269232 33.1265703,3.40233697 34.0316898,3.40233697 C34.8695719,3.40233697 35.6221029,3.56388855 36.2893053,3.88699656 C36.9565077,4.21010456 37.5021572,4.66971255 37.9262704,5.2658343 Z M45.2809155,6.20509705 C44.9499004,5.86946549 44.6227692,5.63653067 44.2995122,5.50628556 C43.9762552,5.37604049 43.5974038,5.31091891 43.1629464,5.31091891 C42.3716133,5.31091891 41.7315741,5.54009671 41.2428096,5.99845926 C40.754045,6.45682176 40.5096664,7.04416823 40.5096664,7.76051619 C40.5096664,8.4568265 40.7449939,9.02538787 41.2156561,9.4662174 C41.6863182,9.90704694 42.3043763,10.1274584 43.0698488,10.1274584 C44.0163452,10.1274584 44.7533601,9.8143739 45.2809155,9.18819561 L46.9489131,10.2927686 C46.0437936,11.4299085 44.7663012,11.9984698 43.1163976,11.9984698 C41.6320015,11.9984698 40.4695869,11.5726749 39.6291188,10.7210724 C38.7886506,9.86946995 38.3684229,8.87260903 38.3684229,7.73045979 C38.3684229,6.9389704 38.5727183,6.2101098 38.9813151,5.54385608 C39.3899119,4.87760236 39.9601286,4.35412514 40.6919824,3.97340873 C41.4238362,3.59269232 42.2423106,3.40233697 43.1474301,3.40233697 C43.9853122,3.40233697 44.7378432,3.56388855 45.4050456,3.88699656 C46.072248,4.21010456 46.6178975,4.66971255 47.0420107,5.2658343 L45.2809155,6.20509705 Z M52.0656529,3.40233697 C52.8621579,3.40233697 53.6108101,3.59519699 54.3116313,3.98092283 C55.0124521,4.36664867 55.5593949,4.89012588 55.9524754,5.55137015 C56.3455558,6.21261448 56.542093,6.92644702 56.542093,7.69288927 C56.542093,8.46434096 56.3442629,9.18568754 55.9485961,9.85695071 C55.5529299,10.5282138 55.0137455,11.0529434 54.3310264,11.4311551 C53.6483078,11.8093668 52.8957769,11.9984698 52.0734113,11.9984698 C50.8631369,11.9984698 49.8300232,11.5814413 48.9740387,10.7473718 C48.1180543,9.91330228 47.6900684,8.900161 47.6900684,7.70791747 C47.6900684,6.43051376 48.1736536,5.3660266 49.1408385,4.51442408 C49.9890648,3.77302896 50.9639933,3.40233697 52.0656529,3.40233697 Z M52.0966855,5.33346121 C51.4398275,5.33346121 50.8928846,5.555125 50.4558413,5.99845926 C50.0187979,6.44179352 49.8002794,7.00910253 49.8002794,7.70040339 C49.8002794,8.41174195 50.0162119,8.98781735 50.4480832,9.42864688 C50.8799546,9.86947642 51.4268969,10.0898879 52.0889276,10.0898879 C52.7509578,10.0898879 53.3017793,9.86697174 53.7414088,9.42113276 C54.1810382,8.97529383 54.4008496,8.4017231 54.4008496,7.70040339 C54.4008496,6.99908368 54.1849174,6.42926994 53.7530459,5.99094514 C53.3211749,5.55262033 52.7690599,5.33346121 52.0966855,5.33346121 Z M57.7239947,3.51880555 L59.8652381,3.51880555 L59.8652381,7.45619508 C59.8652381,8.22263733 59.9195445,8.75488088 60.0281588,9.05294178 C60.1367732,9.35100262 60.3113295,9.58268513 60.5518324,9.74799623 C60.7923358,9.91330729 61.0884345,9.99596158 61.4401381,9.99596158 C61.7918416,9.99596158 62.0905266,9.91455965 62.3362021,9.75175327 C62.5818772,9.58894689 62.7641914,9.34975036 62.88315,9.03415649 C62.9710759,8.79871346 63.0150385,8.29527365 63.0150385,7.523822 L63.0150385,3.51880555 L65.1407656,3.51880555 L65.1407656,6.98280662 C65.1407656,8.41049319 65.0243948,9.3873167 64.7916498,9.91330646 C64.5071837,10.554513 64.0882488,11.0466818 63.5348329,11.3898275 C62.9814171,11.7329733 62.2780205,11.9045435 61.4246217,11.9045435 C60.4988139,11.9045435 59.7501623,11.7041695 59.1786438,11.3034154 C58.6071253,10.9026612 58.2049996,10.3441186 57.9722546,9.6277706 C57.806747,9.13183738 57.7239947,8.23015412 57.7239947,6.92269382 L57.7239947,3.51880555 Z M67.0349478,3.61273183 L69.1451584,3.61273183 L69.1451584,4.44679717 C69.6261647,4.0560619 70.0619089,3.78430459 70.4524031,3.63151708 C70.8428977,3.47872958 71.2424371,3.40233697 71.6510344,3.40233697 C72.4889163,3.40233697 73.2000708,3.68536531 73.7845193,4.25143051 C74.2758703,4.73233545 74.5215418,5.44366333 74.5215418,6.38543553 L74.5215418,11.7880749 L72.426847,11.7880749 L72.426847,8.20384821 C72.426847,7.22701007 72.3815919,6.57829908 72.2910797,6.25769577 C72.200568,5.9370925 72.0428209,5.69288662 71.8178338,5.52507084 C71.5928472,5.35725501 71.3148502,5.2733484 70.9838351,5.2733484 C70.5545499,5.2733484 70.1860426,5.41235787 69.8783018,5.69038107 C69.5705609,5.96840422 69.3572145,6.35287193 69.2382559,6.84379575 C69.1761906,7.09927648 69.1451584,7.6528098 69.1451584,8.50441232 L69.1451584,11.7880749 L67.0349478,11.7880749 L67.0349478,3.61273183 Z M76.5941606,0.599576872 L78.7043718,0.599576872 L78.7043718,3.61273183 L79.9611887,3.61273183 L79.9611887,5.37854585 L78.7043718,5.37854585 L78.7043718,11.7880749 L76.5941606,11.7880749 L76.5941606,5.37854585 L75.5080228,5.37854585 L75.5080228,3.61273183 L76.5941606,3.61273183 L76.5941606,0.599576872 Z M88.895289,0.73483071 L91.0985977,0.73483071 L95.4896982,11.7880749 L93.2320826,11.7880749 L92.3398982,9.511302 L87.6850211,9.511302 L86.7540456,11.7880749 L84.49643,11.7880749 L88.895289,0.73483071 Z M90.0124594,3.66533054 L88.4918663,7.45995212 L91.5252945,7.45995212 L90.0124594,3.66533054 Z M102.122837,0.456808931 L104.233048,0.456808931 L104.233048,11.7880749 L102.122837,11.7880749 L102.122837,10.9239532 C101.709068,11.3046696 101.294013,11.5789316 100.877658,11.7467474 C100.461303,11.9145632 100.010043,11.9984698 99.5238644,11.9984698 C98.4325485,11.9984698 97.4886526,11.5889553 96.6921475,10.7699141 C95.895642,9.9508729 95.4973954,8.93272222 95.4973954,7.71543159 C95.4973954,6.45305613 95.8827119,5.41862508 96.6533564,4.61210741 C97.4240015,3.80558975 98.3601395,3.40233697 99.4617991,3.40233697 C99.9686659,3.40233697 100.444493,3.49500997 100.889295,3.68035875 C101.334097,3.86570752 101.745273,4.14372653 102.122837,4.51442408 L102.122837,0.456808931 Z M99.8962544,5.2958907 C99.2393963,5.2958907 98.6937469,5.52005916 98.2592891,5.96840286 C97.8248318,6.41674652 97.6076066,6.99156956 97.6076066,7.69288927 C97.6076066,8.39921843 97.828711,8.98030318 98.2709267,9.43616096 C98.7131419,9.89201879 99.2574984,10.1199443 99.9040128,10.1199443 C100.571215,10.1199443 101.124622,9.89577582 101.564252,9.44743212 C102.003882,8.99908846 102.223693,8.411742 102.223693,7.68537519 C102.223693,6.97403663 102.003882,6.39796123 101.564252,5.9571317 C101.124622,5.51630217 100.568629,5.2958907 99.8962544,5.2958907 Z M106.12723,3.61273183 L108.252958,3.61273183 L108.252958,4.55199459 C108.615005,4.16626876 109.017131,3.87823105 109.459346,3.68787285 C109.901562,3.49751464 110.383854,3.40233697 110.906238,3.40233697 C111.433793,3.40233697 111.90962,3.52757075 112.333733,3.77804207 C112.757846,4.02851339 113.0992,4.39419604 113.357806,4.87510098 C113.693994,4.39419604 114.106463,4.02851339 114.595228,3.77804207 C115.083992,3.52757075 115.618005,3.40233697 116.197281,3.40233697 C116.797246,3.40233697 117.324794,3.53758945 117.77994,3.80809848 C118.235085,4.07860751 118.562216,4.43176678 118.761343,4.86758688 C118.960469,5.30340698 119.060031,6.01223019 119.060031,6.99407778 L119.060031,11.7880749 L116.926545,11.7880749 L116.926545,7.64029055 C116.926545,6.7135467 116.807588,6.08612543 116.569671,5.75800799 C116.331754,5.42989055 115.974884,5.2658343 115.49905,5.2658343 C115.137002,5.2658343 114.812457,5.3660213 114.525405,5.5663984 C114.238352,5.76677545 114.025006,6.04354211 113.885359,6.39670669 C113.745712,6.74987122 113.67589,7.31718028 113.67589,8.09865082 L113.67589,11.7880749 L111.542404,11.7880749 L111.542404,7.8281431 C111.542404,7.09676685 111.486805,6.56702797 111.375604,6.23891053 C111.264404,5.91079309 111.097606,5.66658721 110.875205,5.50628556 C110.652804,5.3459839 110.383858,5.2658343 110.06836,5.2658343 C109.716656,5.2658343 109.397283,5.36727367 109.110231,5.57015544 C108.823179,5.77303721 108.608539,6.05731789 108.466306,6.42300605 C108.324073,6.78869415 108.252958,7.36476955 108.252958,8.15124954 L108.252958,11.7880749 L106.12723,11.7880749 L106.12723,3.61273183 Z M121.572766,0.246414072 C121.945158,0.246414072 122.264531,0.376657206 122.530895,0.637147382 C122.797259,0.897637559 122.930439,1.21322669 122.930439,1.58392425 C122.930439,1.94961238 122.798552,2.2614445 122.534774,2.51942997 C122.270996,2.77741543 121.955503,2.90640623 121.588282,2.90640623 C121.210718,2.90640623 120.888759,2.77491075 120.622395,2.51191587 C120.356031,2.24892098 120.222852,1.92957483 120.222852,1.55386784 C120.222852,1.19318914 120.354738,0.88511403 120.618516,0.62963328 C120.882294,0.37415253 121.200374,0.246414072 121.572766,0.246414072 Z M120.509902,3.61273183 L122.63563,3.61273183 L122.63563,11.7880749 L120.509902,11.7880749 L120.509902,3.61273183 Z M124.320342,3.61273183 L126.430553,3.61273183 L126.430553,4.44679717 C126.91156,4.0560619 127.347303,3.78430459 127.737798,3.63151708 C128.128292,3.47872958 128.527832,3.40233697 128.936429,3.40233697 C129.774311,3.40233697 130.485466,3.68536531 131.069914,4.25143051 C131.561265,4.73233545 131.806936,5.44366333 131.806936,6.38543553 L131.806936,11.7880749 L129.712242,11.7880749 L129.712242,8.20384821 C129.712242,7.22701007 129.666986,6.57829908 129.576475,6.25769577 C129.485963,5.9370925 129.328215,5.69288662 129.103229,5.52507084 C128.878242,5.35725501 128.600245,5.2733484 128.26923,5.2733484 C127.839944,5.2733484 127.471437,5.41235787 127.163696,5.69038107 C126.855956,5.96840422 126.64261,6.35287193 126.523651,6.84379575 C126.461586,7.09927648 126.430553,7.6528098 126.430553,8.50441232 L126.430553,11.7880749 L124.320342,11.7880749 L124.320342,3.61273183 Z M134.453657,0.246414072 C134.826049,0.246414072 135.145422,0.376657206 135.411786,0.637147382 C135.67815,0.897637559 135.811329,1.21322669 135.811329,1.58392425 C135.811329,1.94961238 135.679443,2.2614445 135.415665,2.51942997 C135.151887,2.77741543 134.836393,2.90640623 134.469173,2.90640623 C134.091609,2.90640623 133.76965,2.77491075 133.503286,2.51191587 C133.236922,2.24892098 133.103743,1.92957483 133.103743,1.55386784 C133.103743,1.19318914 133.23563,0.88511403 133.499407,0.62963328 C133.763185,0.37415253 134.081265,0.246414072 134.453657,0.246414072 Z M133.390793,3.61273183 L135.51652,3.61273183 L135.51652,11.7880749 L133.390793,11.7880749 L133.390793,3.61273183 Z M142.368147,4.75487535 L141.057023,6.02475862 C140.524296,5.51379711 140.04071,5.25832019 139.606253,5.25832019 C139.368336,5.25832019 139.182143,5.30716137 139.047668,5.40484521 C138.913193,5.50252901 138.845957,5.62400579 138.845957,5.76927915 C138.845957,5.87948652 138.888626,5.9809259 138.973965,6.07360025 C139.059306,6.16627465 139.270066,6.29276079 139.606253,6.45306244 L140.382066,6.82876755 C141.199259,7.21950279 141.760425,7.61774624 142.06558,8.02350978 C142.370734,8.42927332 142.523309,8.9051617 142.523309,9.4511892 C142.523309,10.177556 142.247899,10.7836875 141.697069,11.2696019 C141.146239,11.7555163 140.407931,11.9984698 139.482123,11.9984698 C138.25116,11.9984698 137.268474,11.5326001 136.534034,10.6008468 L137.837399,9.22576613 C138.085661,9.50629401 138.376588,9.73296716 138.710189,9.90579234 C139.04379,10.0786176 139.339889,10.1650289 139.598495,10.1650289 C139.877789,10.1650289 140.102773,10.0999073 140.273452,9.96966222 C140.444132,9.83941715 140.52947,9.68913658 140.52947,9.51881612 C140.52947,9.20322226 140.221735,8.89514713 139.606253,8.59458156 L138.892505,8.24893285 C137.527068,7.58267913 136.844359,6.74862211 136.844359,5.74673683 C136.844359,5.10052082 137.101668,4.54823983 137.616293,4.08987731 C138.130918,3.63151479 138.789059,3.40233697 139.590737,3.40233697 C140.138981,3.40233697 140.654891,3.51880438 141.138484,3.75174272 C141.622076,3.98468104 142.03196,4.31905525 142.368147,4.75487535 Z M144.421686,0.599576872 L146.531896,0.599576872 L146.531896,3.61273183 L147.788713,3.61273183 L147.788713,5.37854585 L146.531896,5.37854585 L146.531896,11.7880749 L144.421686,11.7880749 L144.421686,5.37854585 L143.335547,5.37854585 L143.335547,3.61273183 L144.421686,3.61273183 L144.421686,0.599576872 Z M149.024714,3.61273183 L150.840116,3.61273183 L150.840116,4.64216382 C151.036656,4.23640027 151.297844,3.92832517 151.623687,3.71792926 C151.94953,3.50753334 152.3064,3.40233697 152.694309,3.40233697 C152.968431,3.40233697 153.255478,3.47246788 153.555461,3.61273183 L152.89602,5.37854585 C152.647759,5.25831959 152.443464,5.19820737 152.283128,5.19820737 C151.957285,5.19820737 151.681874,5.39357205 151.456887,5.78430735 C151.2319,6.17504259 151.119409,6.94147337 151.119409,8.08362257 L151.127167,8.48187 L151.127167,11.7880749 L149.024714,11.7880749 L149.024714,3.61273183 Z M159.88813,3.61273183 L161.998341,3.61273183 L161.998341,11.7880749 L159.88813,11.7880749 L159.88813,10.9239532 C159.474361,11.3046696 159.059305,11.5789316 158.64295,11.7467474 C158.226595,11.9145632 157.775335,11.9984698 157.289157,11.9984698 C156.197841,11.9984698 155.253945,11.5889553 154.45744,10.7699141 C153.660935,9.9508729 153.262688,8.93272222 153.262688,7.71543159 C153.262688,6.45305613 153.648005,5.41862508 154.418649,4.61210741 C155.189294,3.80558975 156.125432,3.40233697 157.227092,3.40233697 C157.733959,3.40233697 158.209786,3.49500997 158.654588,3.68035875 C159.099389,3.86570752 159.510566,4.14372653 159.88813,4.51442408 L159.88813,3.61273183 Z M157.661547,5.2958907 C157.004689,5.2958907 156.459039,5.52005916 156.024582,5.96840286 C155.590125,6.41674652 155.372899,6.99156956 155.372899,7.69288927 C155.372899,8.39921843 155.594003,8.98030318 156.036219,9.43616096 C156.478435,9.89201879 157.022791,10.1199443 157.669305,10.1199443 C158.336508,10.1199443 158.889915,9.89577582 159.329545,9.44743212 C159.769174,8.99908846 159.988986,8.411742 159.988986,7.68537519 C159.988986,6.97403663 159.769174,6.39796123 159.329545,5.9571317 C158.889915,5.51630217 158.333922,5.2958907 157.661547,5.2958907 Z M164.26701,0.599576872 L166.377221,0.599576872 L166.377221,3.61273183 L167.634038,3.61273183 L167.634038,5.37854585 L166.377221,5.37854585 L166.377221,11.7880749 L164.26701,11.7880749 L164.26701,5.37854585 L163.180872,5.37854585 L163.180872,3.61273183 L164.26701,3.61273183 L164.26701,0.599576872 Z M170.196678,0.246414072 C170.56907,0.246414072 170.888444,0.376657206 171.154807,0.637147382 C171.421171,0.897637559 171.554351,1.21322669 171.554351,1.58392425 C171.554351,1.94961238 171.422464,2.2614445 171.158687,2.51942997 C170.894909,2.77741543 170.579415,2.90640623 170.212195,2.90640623 C169.834631,2.90640623 169.512671,2.77491075 169.246308,2.51191587 C168.979944,2.24892098 168.846764,1.92957483 168.846764,1.55386784 C168.846764,1.19318914 168.978651,0.88511403 169.242429,0.62963328 C169.506206,0.37415253 169.824287,0.246414072 170.196678,0.246414072 Z M169.133815,3.61273183 L171.259542,3.61273183 L171.259542,11.7880749 L169.133815,11.7880749 L169.133815,3.61273183 Z M176.908659,3.40233697 C177.705164,3.40233697 178.453816,3.59519699 179.154637,3.98092283 C179.855458,4.36664867 180.402401,4.89012588 180.795481,5.55137015 C181.188562,6.21261448 181.385099,6.92644702 181.385099,7.69288927 C181.385099,8.46434096 181.187269,9.18568754 180.791602,9.85695071 C180.395935,10.5282138 179.856751,11.0529434 179.174032,11.4311551 C178.491313,11.8093668 177.738783,11.9984698 176.916417,11.9984698 C175.706143,11.9984698 174.673029,11.5814413 173.817044,10.7473718 C172.96106,9.91330228 172.533074,8.900161 172.533074,7.70791747 C172.533074,6.43051376 173.016659,5.3660266 173.983844,4.51442408 C174.83207,3.77302896 175.806999,3.40233697 176.908659,3.40233697 Z M176.939691,5.33346121 C176.282833,5.33346121 175.73589,5.555125 175.298847,5.99845926 C174.861804,6.44179352 174.643285,7.00910253 174.643285,7.70040339 C174.643285,8.41174195 174.859217,8.98781735 175.291089,9.42864688 C175.72296,9.86947642 176.269903,10.0898879 176.931933,10.0898879 C177.593963,10.0898879 178.144785,9.86697174 178.584414,9.42113276 C179.024044,8.97529383 179.243855,8.4017231 179.243855,7.70040339 C179.243855,6.99908368 179.027923,6.42926994 178.596052,5.99094514 C178.16418,5.55262033 177.612066,5.33346121 176.939691,5.33346121 Z M182.471805,3.61273183 L184.582017,3.61273183 L184.582017,4.44679717 C185.063023,4.0560619 185.498767,3.78430459 185.889261,3.63151708 C186.279756,3.47872958 186.679295,3.40233697 187.087892,3.40233697 C187.925775,3.40233697 188.636929,3.68536531 189.221377,4.25143051 C189.712728,4.73233545 189.9584,5.44366333 189.9584,6.38543553 L189.9584,11.7880749 L187.863705,11.7880749 L187.863705,8.20384821 C187.863705,7.22701007 187.81845,6.57829908 187.727938,6.25769577 C187.637426,5.9370925 187.479679,5.69288662 187.254692,5.52507084 C187.029705,5.35725501 186.751708,5.2733484 186.420693,5.2733484 C185.991408,5.2733484 185.6229,5.41235787 185.31516,5.69038107 C185.007419,5.96840422 184.794073,6.35287193 184.675114,6.84379575 C184.613049,7.09927648 184.582017,7.6528098 184.582017,8.50441232 L184.582017,11.7880749 L182.471805,11.7880749 L182.471805,3.61273183 Z" id="Account-Administrati-copy-3"></path>
                                            </g>
                                        </g>
                                    </g>
                                </g>
                            </g>
                        </g>
                    </g>
                </g>
            </g>
        </g>
    </g>
</svg>