<svg width="272" height="103" viewBox="0 0 272 103" xmlns="http://www.w3.org/2000/svg"><title>logo-my-propr</title><g fill="none" fill-rule="evenodd"><path d="M0 37.639V27h42v29H0v-4.947h3.014v-5.967c0-1.29.113-2.236.339-2.836.226-.6.567-1.067 1.023-1.4a2.528 2.528 0 0 1 1.523-.499c.501 0 .929.132 1.282.395.354.263.619.663.795 1.202.177.538.265 1.407.265 2.607v6.498h3.391v-6.054c0-1.282.111-2.213.333-2.792.222-.58.56-1.034 1.017-1.363a2.581 2.581 0 0 1 1.547-.493c.757 0 1.324.27 1.702.808.378.538.567 1.568.567 3.088v6.806h3.39v-7.866c0-1.611-.158-2.774-.474-3.49-.317-.714-.837-1.294-1.56-1.738-.723-.443-1.562-.665-2.515-.665-.92 0-1.77.205-2.546.616-.777.411-1.432 1.011-1.966 1.8-.411-.789-.954-1.389-1.628-1.8a4.278 4.278 0 0 0-2.268-.616c-.83 0-1.597.156-2.3.468-.703.312-1.342.785-1.917 1.418v-1.541H0zm21.902 0h3.44l3.49 8.42 3.846-8.42h3.452l-8.409 18.32h-3.476l2.761-5.905-5.104-12.415z" fill="#67A14C"/><path d="M71.032 35.727c-2.494-2.62-5.334-3.958-8.446-3.958-2.657 0-4.934.937-6.762 2.762-1.824 1.84-2.749 4.135-2.749 6.821 0 1.868.406 3.56 1.216 5.007.813 1.467 1.973 2.615 3.448 3.443 1.468.82 3.136 1.244 4.943 1.244 1.538 0 2.962-.295 4.238-.867 1.245-.574 2.631-1.622 4.108-3.085.15.155 3.243 3.411 3.41 3.568-1.99 1.94-3.897 3.305-5.668 4.061-1.801.77-3.882 1.168-6.177 1.168-4.244 0-7.77-1.384-10.468-4.089-2.707-2.711-4.072-6.222-4.072-10.465 0-2.742.62-5.207 1.848-7.338 1.234-2.119 3.022-3.863 5.313-5.166a15.051 15.051 0 0 1 7.453-1.944c2.251 0 4.452.483 6.537 1.441 2.054.944 3.837 2.304 5.337 4.033l-3.51 3.364M81.92 49.638c-1.069-1.08-1.62-2.488-1.62-4.212 0-1.673.557-3.068 1.64-4.146 1.093-1.084 2.475-1.63 4.114-1.63 1.668 0 3.07.541 4.144 1.61 1.079 1.063 1.619 2.465 1.619 4.166 0 1.695-.551 3.104-1.655 4.193-1.088 1.087-2.479 1.632-4.13 1.632-1.65 0-3.032-.545-4.112-1.613 0 0 1.08 1.068 0 0zm-2.827-11.944c-2.255 2.075-3.4 4.683-3.4 7.773 0 2.88 1.012 5.365 3.01 7.38 1.998 2.008 4.436 3.044 7.254 3.044 1.923 0 3.7-.467 5.294-1.388a10.087 10.087 0 0 0 3.791-3.815 10.593 10.593 0 0 0 1.381-5.257c0-1.85-.455-3.603-1.374-5.205a10.107 10.107 0 0 0-3.844-3.817 10.488 10.488 0 0 0-5.263-1.4c-2.57 0-4.876.907-6.849 2.685zm19.634-9.645v27.842h4.606V28.05h-4.606m14.291 21.589c-1.08-1.08-1.623-2.488-1.623-4.212 0-1.673.55-3.068 1.64-4.146 1.093-1.084 2.473-1.63 4.108-1.63 1.677 0 3.068.541 4.146 1.61 1.073 1.063 1.622 2.465 1.622 4.166 0 1.695-.553 3.104-1.651 4.193-1.093 1.087-2.488 1.632-4.135 1.632-1.65 0-3.032-.545-4.107-1.613 0 0 1.075 1.068 0 0zm-2.83-11.944c-2.26 2.075-3.4 4.683-3.4 7.773 0 2.88 1.013 5.365 3.006 7.38 1.999 2.008 4.435 3.044 7.259 3.044 1.919 0 3.695-.467 5.29-1.388a10.123 10.123 0 0 0 3.785-3.815 10.567 10.567 0 0 0 1.39-5.257c0-1.85-.464-3.603-1.381-5.205a10.159 10.159 0 0 0-3.84-3.817 10.494 10.494 0 0 0-5.262-1.4c-2.565 0-4.872.907-6.848 2.685zm28.72-2.112c-.892.368-1.906 1.059-3.02 2.034l-.188.17v-2.25h-4.727v20.355h4.727v-8.145c0-2.176.072-3.547.22-4.212.283-1.25.797-2.247 1.525-2.958a3.712 3.712 0 0 1 2.665-1.075c.793 0 1.47.217 2.02.65.534.445.925 1.087 1.143 1.912.215.83.32 2.433.32 4.932v8.896h4.654V42.397c0-2.326-.564-4.114-1.682-5.286-1.337-1.405-2.98-2.101-4.893-2.101-.94 0-1.866.191-2.763.572m13.945-.572v20.88h4.606V35.01h-4.606m13.82 10.401c0-1.675.541-3.07 1.624-4.146 1.078-1.082 2.454-1.615 4.088-1.615 1.669 0 3.07.518 4.163 1.59 1.096 1.056 1.641 2.45 1.641 4.153 0 1.74-.545 3.163-1.64 4.238-1.093 1.077-2.484 1.62-4.142 1.62-1.613 0-2.988-.559-4.086-1.65-1.096-1.09-1.648-2.503-1.648-4.19 0 0 0 1.687 0 0zm-1.869-7.48c-1.82 1.957-2.738 4.492-2.738 7.56 0 2.936.951 5.43 2.819 7.408 1.891 1.983 4.141 2.992 6.712 2.992 1.138 0 2.216-.2 3.198-.616.976-.399 1.965-1.074 2.951-1.992l.196-.197v2.292h4.854V35.524h-4.854v2.389l-.2-.219c-.894-.885-1.878-1.564-2.926-2.018a8.515 8.515 0 0 0-3.37-.666c-2.597 0-4.83.986-6.642 2.92zm22.598-9.882v27.842h4.607V28.05h-4.607m17.275-1.16v29.002h12.668v-4.938h-7.653V26.889h-5.015m29.875.968c-.789.642-1.264 1.53-1.398 2.636-.068.488-.12 2.101-.127 4.796v.128h-1.862v4.147h1.862v16.327h4.985V39.564h3.297v-4.147h-3.297l.013-2.718c0-.64.112-1.056.339-1.269.318-.282.795-.425 1.43-.425.456 0 1.047.115 1.736.302V27.6c-1.306-.466-2.51-.71-3.551-.71-1.472 0-2.628.325-3.427.968m18.585 10.633c1.343 0 2.545.312 3.564.927 1.02.62 1.708 1.44 2.056 2.416l.047.137h-11.516l.081-.149c.584-1.081 1.233-1.851 1.917-2.296 1.104-.681 2.404-1.035 3.85-1.035 0 0-1.446 0 0 0zm-7.536-.485c-1.936 1.988-2.92 4.532-2.92 7.554 0 2.939.984 5.426 2.927 7.383 1.934 1.954 4.48 2.95 7.578 2.95 1.988 0 3.726-.363 5.171-1.07 1.412-.694 2.625-1.771 3.644-3.2-.26-.116-3.886-1.828-4.016-1.89-1.352 1.3-2.973 1.964-4.84 1.964-1.592 0-2.925-.429-3.948-1.296-1.019-.859-1.669-2.037-1.899-3.488l-.026-.139h16.116c.012-.183.023-.844.023-.844 0-3.264-.98-5.936-2.927-7.924-1.93-1.989-4.478-2.995-7.588-2.995-2.904 0-5.368 1.006-7.295 2.995zm-23.65-2.995V55.89h4.607V35.01h-4.606m45.561 17.241h.37c.43 0 .779-.147.779-.507 0-.318-.224-.527-.718-.527-.205 0-.349.018-.43.04v.994zm-.017 1.948h-.782v-3.471c.306-.04.737-.105 1.29-.105.637 0 .925.105 1.151.274.205.149.348.402.348.74 0 .425-.307.699-.697.828v.04c.328.106.49.382.595.847.102.53.183.718.244.847h-.82c-.1-.129-.163-.424-.266-.847-.059-.36-.266-.531-.697-.531h-.366v1.378zm-2.073-1.799c0 1.546 1.127 2.771 2.623 2.771 1.457.022 2.562-1.225 2.562-2.75 0-1.544-1.105-2.792-2.603-2.792-1.455 0-2.582 1.248-2.582 2.771 0 0 0-1.523 0 0zm6.05 0c0 1.946-1.518 3.491-3.447 3.491-1.927 0-3.464-1.545-3.464-3.49 0-1.947 1.537-3.47 3.484-3.47 1.909 0 3.426 1.523 3.426 3.47z" fill="#265B80"/><path d="M151.701 22.83c0 2.239 1.807 4.06 4.03 4.06 2.226 0 4.032-1.821 4.032-4.06 0-2.248-1.806-4.062-4.033-4.062-2.222 0-4.029 1.814-4.029 4.062zm19.58-.581c1.902 0 3.453-2.346 3.453-5.218 0-2.879-1.551-5.223-3.452-5.223-1.908 0-3.458 2.344-3.458 5.223 0 2.872 1.55 5.218 3.458 5.218zm36.85-16.234c0 3.192 1.292 5.793 2.88 5.793 1.586 0 2.88-2.6 2.88-5.793 0-3.202-1.234-5.808-2.818-5.808-1.592 0-2.941 2.606-2.941 5.808zm-25.335 2.886c0 3.52 1.286 6.387 2.875 6.387 1.591 0 2.883-2.866 2.883-6.387 0-3.514-1.292-6.374-2.883-6.374-1.59 0-2.875 2.86-2.875 6.374zM220.8 21.09c0 2.554 1.557 4.639 3.46 4.639 1.904 0 3.45-2.085 3.45-4.64 0-2.564-1.546-4.64-3.45-4.64-1.903 0-3.46 2.076-3.46 4.64zm-25.336-8.121c0 4.398 1.328 8.12 2.88 8.12 1.565 0 2.878-3.722 2.878-8.12 0-4.406-1.313-8.122-2.878-8.122-1.552 0-2.88 3.716-2.88 8.122z" fill="#5B7183"/><path d="M205.012 71.599c-.243-1.52-.866-2.818-1.806-3.847-1.745-2.857-5.414-4.262-10.215-3.51-5.203.815-11.361 3.413-14.169 6.02a2.649 2.649 0 0 0 .096.288 4.09 4.09 0 0 0 .176.396l.039.079.001.002.093.17c.928 1.902 2.145 2.973 2.824 3.462a3.028 3.028 0 0 0 .516.332c1.057-1.188 2.72-2.44 4.679-3.525-.236 1.979-.576 3.595-1.16 6.025l-.007.027c-.02.087-.042.175-.064.263l-.016.068-.059.243-.028.115-.05.208-.044.179-.04.16-.073.302-.014.052-.096.393c-2.381 9.651-3.152 12.184-3.909 14.428l.8 1.062c1.336 1.63 2.745 2.677 4.838 2.839.24-4.697.753-7.802 2.495-13.96 1.128.844 1.777 1.029 3.109.82 7.542-1.18 13.024-7.23 12.084-13.091zm-2.835.497c-.001-.011 0-.022-.002-.034-.447 3.443-4.534 6.642-11.234 7.96 1.522-5.155 2.81-9.299 3.616-10.71l-.503-.67a21.98 21.98 0 0 1 3.012-.703c2.092-.328 3.572.053 4.54.95.267.514.451 1.107.557 1.767.078.482.08.963.014 1.44zm32.263.49c-.49-1.066-1.203-1.505-2.172-1.353-.243.038-.479.116-.72.153-1.03-1.268-2.077-2.126-2.995-2.432-1.251.196-2.613.982-3.892 2.285-.161.16-.318.328-.473.5-.024.026-.049.052-.072.08a14.29 14.29 0 0 0-.493.583 17.163 17.163 0 0 0-2.363 3.994l-.074-.029-.034-.012-.075-.028a5.871 5.871 0 0 0-.116-.04l-.05-.018-.096-.032a8.42 8.42 0 0 1-.075-.026l-.06-.02-.071-.026a2.146 2.146 0 0 1-.132-.048l-.04-.015a8.447 8.447 0 0 1-.157-.063l-.068-.028-.073-.032a3.553 3.553 0 0 1-.072-.031l-.074-.036a2.631 2.631 0 0 1-.077-.037l-.076-.039a3.845 3.845 0 0 1-.08-.042l-.078-.043-.088-.05-.075-.046a2.848 2.848 0 0 1-.103-.063l-.068-.043a3.89 3.89 0 0 1-.407-.296l-.03-.024c-.223-.545-.26-1.17-.112-1.885l-.801-1.061c-.306-.362-1.157-.514-1.924-.394-.444.068-.639.14-.814.331a16.04 16.04 0 0 1-.137.287c-.01.022-.022.043-.033.065-.034.07-.069.138-.103.204l-.042.078a7.944 7.944 0 0 1-.232.418l-.042.072-.095.159-.04.061a5.958 5.958 0 0 1-.1.156l-.035.053c-.034.053-.07.105-.105.156l-.029.04a8.405 8.405 0 0 1-.268.364c-.798 1.024-1.663 1.684-2.757 2.802.338-1.188.712-1.567 1.506-2.843l-.8-1.062c-.767-.657-2.81-1.277-4.34-1.283-.543.739-.894 1.653-1.318 3.394-1.207 4.849-2.373 12.798-2.4 15.99l.023.028.777 1.034c.491.74 2.672 1.707 3.653 1.635.398-7.582 2.245-12.17 7.193-15.927 0 0 1.324 1.053 2.766 1.579.623.226 1.264.326 1.843.396-.277 1.508-.328 2.998-.11 4.354.263 1.643.906 3.003 1.825 3.98 1.1 1.83 2.901 2.864 5.051 2.753 6.237-2.367 9.963-8.795 8.896-15.454-.26-1.616-.707-2.643-1.368-3.123zm-2.238 5.586v-.039c-.087 1.81-.49 3.511-1.158 5.008l-.007.014c-.052.116-.106.23-.161.344l-.024.05c-.055.11-.11.221-.169.33l-.01.017c-.172.324-.36.636-.558.936l-.067.101a8.85 8.85 0 0 1-.257.361c-.05.068-.101.135-.153.202l-.119.15c-.05.06-.098.121-.149.181-.054.064-.11.126-.166.188a9.412 9.412 0 0 1-.2.22c-.065.068-.13.137-.196.204l-.13.125a7.464 7.464 0 0 1-.319.294 7.954 7.954 0 0 1-.327.275 6.56 6.56 0 0 1-.248.192c-.03.022-.059.046-.089.067a7.73 7.73 0 0 1-.349.242l-.084.054a9.938 9.938 0 0 1-.279.172l-.124.071a9.622 9.622 0 0 1-.657.339c-.04.018-.078.037-.118.054-.13.059-.262.115-.396.166a.567.567 0 0 1-.22-.088 5.592 5.592 0 0 1-.482-1.516c-.339-2.113.504-5.884 1.97-8.607 1.028-1.87 2.594-3.824 4.734-4.89.126.385.232.854.326 1.44.183 1.14.24 2.26.186 3.343zm19.617-11.232a4.299 4.299 0 0 0-1.829-.085c-1.204.188-3.002.612-4.578 2.57.186-.278.399-.562.644-.868l-.8-1.063c-.466-.58-2.57-1.068-4.47-1.056-.833.988-.862 1.584-1.068 2.885-.283 1.841-.936 5.255-2.706 13.053l-.119.539-.039.178-.077.36-.044.211-.068.324-.046.225-.061.31-.047.229a263.568 263.568 0 0 1-.142.74l-.05.263-.054.3-.038.206-.056.319c-.01.055-.02.109-.028.164l-.061.351-.016.092c-.726 4.315-1.01 8.004-.743 9.677.192 1.197.433 2.18.742 2.826.044.193.108.363.185.512.334.797.76 1.22 1.063 1.437.125.123.259.198.39.21.26.08.408.221.929.63.312.401.58.522.868.518.42-5.28 1.068-10.76 1.742-14.95 2.186-.373 9.544-2.608 11.51-6.335 1.818-3.443 2.64-7.526 2.027-11.354 0 0-.382-2.782-2.96-3.417zm-1.427 5.29v-.096c-.322 6.82-4.686 10.294-8.506 12.36.146-.705.29-1.327.431-1.843.688-2.682.652-3.423 3.895-8.72 1.557-2.544 3.234-3.875 4.112-4.45.093.973.113 1.888.068 2.749zm20.964-3.483c-.706-1.086-.947-1.963-.667-3.314l-.8-1.062c-.305-.362-1.158-.514-1.923-.394-.445.07-.64.14-.816.332a16.14 16.14 0 0 1-.137.286l-.024.048-.113.223-.028.054c-.037.068-.072.136-.109.202a11.893 11.893 0 0 1-.137.242l-.026.044-.113.186-.022.035-.117.184-.015.022a7.896 7.896 0 0 1-.127.187l-.006.009c-.877 1.255-1.813 1.925-3.038 3.173.336-1.178.708-1.55 1.501-2.824l-.8-1.063c-.767-.656-2.81-1.276-4.34-1.281-.544.738-.893 1.652-1.317 3.394-1.21 4.848-2.374 12.796-2.4 15.989l.8 1.062c.49.74 2.671 1.707 3.653 1.636.395-7.546 3.025-11.983 7.51-16.229.074.085.15.163.229.234.691 1.218 1.247 1.518 2.701 1.973.68-.923 1.314-2.127 1.304-2.451-.46-.541.075.177-.623-.897" fill="#67A14C"/></g></svg>