<svg width="190" height="57" viewBox="0 0 190 57" xmlns="http://www.w3.org/2000/svg"><title>logo-my-ph</title><path d="M0 26.292V18.86h29.338v20.258H0v-3.456h2.105v-4.168c0-.902.08-1.562.237-1.981.158-.42.396-.745.715-.978a1.762 1.762 0 0 1 1.064-.348c.35 0 .648.091.895.275.247.184.432.464.556.84.123.376.185.983.185 1.821v4.539h2.368v-4.229c0-.895.078-1.546.233-1.95a2.04 2.04 0 0 1 .71-.952c.319-.23.68-.344 1.081-.344.528 0 .925.188 1.189.564.264.376.396 1.095.396 2.157v4.754h2.368v-5.495c0-1.125-.11-1.937-.331-2.437-.221-.5-.585-.904-1.09-1.214-.505-.31-1.09-.465-1.757-.465-.643 0-1.236.143-1.778.43-.543.287-1 .706-1.374 1.258-.287-.552-.666-.97-1.137-1.258a2.983 2.983 0 0 0-1.584-.43c-.58 0-1.116.109-1.606.327a4.01 4.01 0 0 0-1.34.99v-1.076H0zm15.3 0h2.402l2.437 5.882 2.687-5.882h2.412L19.364 39.09h-2.428l1.929-4.126-3.566-8.672zm34.318-1.336c-1.742-1.83-3.726-2.764-5.9-2.764-1.856 0-3.446.654-4.723 1.93-1.274 1.284-1.92 2.887-1.92 4.764 0 1.304.283 2.487.85 3.497a6.123 6.123 0 0 0 2.407 2.405c1.026.573 2.191.87 3.453.87 1.074 0 2.07-.207 2.96-.607.87-.4 1.839-1.132 2.87-2.155.105.109 2.266 2.383 2.382 2.493-1.39 1.355-2.722 2.309-3.96 2.837-1.257.537-2.711.816-4.314.816-2.965 0-5.427-.968-7.312-2.856-1.891-1.895-2.844-4.347-2.844-7.31 0-1.916.432-3.638 1.29-5.126.862-1.48 2.111-2.699 3.712-3.609a10.514 10.514 0 0 1 5.206-1.358 10.967 10.967 0 0 1 8.294 3.824l-2.451 2.35zm7.605 9.718c-.747-.755-1.132-1.738-1.132-2.942 0-1.17.39-2.144 1.146-2.896.764-.758 1.729-1.14 2.873-1.14 1.165 0 2.145.379 2.896 1.125.753.743 1.13 1.722 1.13 2.91 0 1.184-.385 2.168-1.156 2.93-.76.759-1.731 1.14-2.885 1.14-1.152 0-2.117-.381-2.872-1.127 0 0 .755.746 0 0zm-1.975-8.343c-1.575 1.449-2.374 3.27-2.374 5.429 0 2.012.706 3.748 2.101 5.156 1.396 1.402 3.1 2.126 5.068 2.126 1.343 0 2.585-.327 3.698-.97a7.046 7.046 0 0 0 2.648-2.665 7.4 7.4 0 0 0 .965-3.672 7.213 7.213 0 0 0-.96-3.636 7.06 7.06 0 0 0-2.685-2.666 7.326 7.326 0 0 0-3.676-.978c-1.796 0-3.407.634-4.785 1.876zm13.715-6.738v19.449h3.218V19.593h-3.218zm9.983 15.08c-.754-.754-1.134-1.737-1.134-2.941 0-1.17.385-2.144 1.146-2.896.763-.758 1.727-1.14 2.869-1.14 1.171 0 2.143.379 2.896 1.125.75.743 1.133 1.722 1.133 2.91 0 1.184-.386 2.168-1.153 2.93-.764.759-1.738 1.14-2.889 1.14-1.152 0-2.117-.381-2.868-1.127 0 0 .75.746 0 0zm-1.978-8.342c-1.578 1.449-2.374 3.27-2.374 5.429 0 2.012.707 3.748 2.1 5.156 1.396 1.402 3.098 2.126 5.07 2.126 1.34 0 2.581-.327 3.695-.97a7.071 7.071 0 0 0 2.644-2.665 7.382 7.382 0 0 0 .971-3.672 7.231 7.231 0 0 0-.964-3.636 7.096 7.096 0 0 0-2.683-2.666 7.33 7.33 0 0 0-3.675-.978c-1.792 0-3.404.634-4.784 1.876zm20.063-1.476c-.623.257-1.332.74-2.11 1.421l-.131.118v-1.57h-3.302v14.218h3.302v-5.69c0-1.52.05-2.477.154-2.942.197-.874.556-1.57 1.065-2.066a2.593 2.593 0 0 1 1.861-.752c.554 0 1.028.152 1.41.455.374.31.647.759.8 1.335.15.58.223 1.7.223 3.446v6.214h3.251v-9.427c0-1.624-.394-2.873-1.174-3.692-.935-.981-2.082-1.468-3.419-1.468-.656 0-1.303.134-1.93.4zm9.741-.4v14.587h3.218V24.455h-3.218zm9.654 7.266c0-1.17.378-2.145 1.134-2.896.753-.756 1.715-1.128 2.856-1.128 1.165 0 2.145.362 2.908 1.11.765.738 1.146 1.712 1.146 2.901 0 1.215-.38 2.21-1.146 2.96-.763.753-1.735 1.132-2.893 1.132-1.127 0-2.087-.39-2.854-1.152-.765-.761-1.151-1.749-1.151-2.927 0 0 0 1.178 0 0zm-1.305-5.225c-1.271 1.367-1.913 3.138-1.913 5.281 0 2.05.664 3.793 1.969 5.175 1.321 1.384 2.893 2.09 4.689 2.09.794 0 1.548-.14 2.233-.431.682-.278 1.373-.75 2.062-1.39l.137-.139v1.6h3.39V24.815h-3.39v1.67l-.14-.153a6.687 6.687 0 0 0-2.044-1.41 5.948 5.948 0 0 0-2.353-.466c-1.815 0-3.375.69-4.64 2.04zm15.785-6.903v19.449h3.218V19.593h-3.218zm12.067-.81v20.259h8.849v-3.45h-5.346v-16.81h-3.503zm20.868.676c-.55.448-.882 1.07-.976 1.841-.048.341-.084 1.468-.089 3.35v.09h-1.3v2.897h1.3v11.405h3.482V27.637h2.303V24.74h-2.303l.01-1.899c0-.447.078-.738.236-.886.223-.197.556-.297 1-.297.317 0 .73.08 1.211.211v-2.59c-.912-.326-1.753-.496-2.48-.496-1.028 0-1.836.226-2.394.676zm12.982 7.427c.939 0 1.779.219 2.49.648.713.433 1.193 1.006 1.436 1.688l.033.096h-8.044l.057-.105c.408-.755.861-1.293 1.338-1.604.772-.475 1.68-.723 2.69-.723 0 0-1.01 0 0 0zm-5.264-.338c-1.352 1.388-2.039 3.165-2.039 5.276 0 2.053.687 3.79 2.044 5.158 1.351 1.364 3.13 2.06 5.294 2.06 1.389 0 2.603-.254 3.612-.748.986-.484 1.834-1.237 2.546-2.235-.182-.08-2.715-1.277-2.806-1.32-.944.909-2.077 1.372-3.38 1.372-1.113 0-2.044-.3-2.758-.905-.712-.6-1.166-1.423-1.327-2.437l-.018-.096h11.257c.009-.128.016-.59.016-.59 0-2.28-.685-4.147-2.044-5.535-1.349-1.39-3.128-2.093-5.3-2.093-2.03 0-3.75.703-5.097 2.093zm-16.52-2.093v14.587h3.219V24.455h-3.218zM186.867 36.5h.259c.3 0 .543-.103.543-.354 0-.222-.156-.369-.501-.369-.143 0-.244.013-.301.029v.694zm-.012 1.36h-.547v-2.424c.214-.028.515-.073.902-.073.444 0 .646.073.804.191a.618.618 0 0 1 .242.517c0 .297-.213.488-.486.578v.028c.229.075.342.267.416.592.07.37.128.502.17.592h-.572c-.071-.09-.115-.297-.187-.592-.04-.252-.185-.371-.486-.371h-.256v.963zm-1.449-1.256c0 1.08.788 1.936 1.833 1.936 1.017.015 1.79-.856 1.79-1.922 0-1.078-.773-1.95-1.819-1.95-1.016 0-1.804.872-1.804 1.936 0 0 0-1.064 0 0zm4.226 0c0 1.36-1.06 2.439-2.407 2.439a2.415 2.415 0 0 1-2.42-2.439 2.405 2.405 0 0 1 2.434-2.423c1.334 0 2.393 1.064 2.393 2.423zm-83.664-20.656c0 1.563 1.262 2.835 2.814 2.835a2.828 2.828 0 0 0 2.817-2.835 2.825 2.825 0 0 0-2.817-2.838 2.825 2.825 0 0 0-2.814 2.838zm13.677-.407c1.328 0 2.412-1.638 2.412-3.644 0-2.011-1.084-3.649-2.412-3.649-1.332 0-2.415 1.638-2.415 3.649 0 2.006 1.083 3.644 2.415 3.644zm25.741-11.34c0 2.23.902 4.047 2.012 4.047 1.107 0 2.01-1.816 2.01-4.046 0-2.237-.861-4.057-1.968-4.057-1.112 0-2.054 1.82-2.054 4.057zm-17.698 2.017c0 2.459.898 4.461 2.009 4.461 1.111 0 2.013-2.002 2.013-4.461 0-2.455-.902-4.453-2.013-4.453-1.11 0-2.009 1.998-2.009 4.453zm26.547 8.514c0 1.784 1.088 3.24 2.417 3.24 1.33 0 2.41-1.456 2.41-3.24 0-1.792-1.08-3.242-2.41-3.242-1.329 0-2.417 1.45-2.417 3.242zm-17.698-5.673c0 3.072.928 5.672 2.012 5.672 1.094 0 2.01-2.6 2.01-5.672 0-3.077-.916-5.673-2.01-5.673-1.084 0-2.012 2.596-2.012 5.673zM88.03 44.254l-.122.855c-.324-.31-.629-.466-.914-.466-.182 0-.337.088-.467.265-.13.178-.23.536-.304 1.076l-.11.752h1.451l-.097.797h-1.452l-.881 6.254h-.888l.888-6.254h-.888l.097-.797h.895l.084-.622c.104-.73.214-1.218.33-1.465a1.42 1.42 0 0 1 1.277-.816c.363 0 .73.14 1.102.421zm4.258 2.3c.601 0 1.152.144 1.653.431a3.04 3.04 0 0 1 1.173 1.2c.28.511.421 1.091.421 1.74a4.11 4.11 0 0 1-.538 2.057 3.821 3.821 0 0 1-1.445 1.468c-.605.345-1.29.518-2.054.518-.946 0-1.725-.31-2.336-.93-.612-.62-.917-1.41-.917-2.368 0-.752.179-1.446.537-2.08a3.917 3.917 0 0 1 1.475-1.494 3.99 3.99 0 0 1 2.031-.541zm-.019.862c-.562 0-1.09.14-1.585.422-.494.28-.874.666-1.14 1.156a3.352 3.352 0 0 0-.399 1.624c0 .743.23 1.347.687 1.811.458.465 1.05.697 1.776.697a2.99 2.99 0 0 0 1.54-.405c.46-.27.825-.66 1.098-1.17a3.43 3.43 0 0 0 .408-1.64c0-.488-.102-.92-.305-1.299a2.17 2.17 0 0 0-.862-.881 2.438 2.438 0 0 0-1.218-.315zm5.165-.68h.9l-.116.888c.242-.337.534-.6.875-.788a2.152 2.152 0 0 1 1.05-.281c.255 0 .52.06.797.181l-.428.83c-.224-.091-.412-.137-.564-.137-.315 0-.627.11-.936.33-.309.221-.56.542-.752.963-.192.421-.355 1.114-.49 2.077l-.414 2.988h-.881l.959-7.051zm8.126 0h.92l-.135 1.056c.816-.825 1.75-1.237 2.8-1.237.963 0 1.752.308 2.368.926.615.618.923 1.413.923 2.385 0 1.123-.4 2.088-1.199 2.894-.799.805-1.74 1.208-2.825 1.208-.588 0-1.104-.124-1.549-.372-.445-.249-.823-.634-1.134-1.157l-.512 3.927h-.94l1.283-9.63zm3.487.648a3.15 3.15 0 0 0-1.591.412 2.958 2.958 0 0 0-1.144 1.182 3.445 3.445 0 0 0-.421 1.679c0 .73.232 1.324.697 1.782.464.458 1.064.687 1.798.687.868 0 1.611-.313 2.23-.94.617-.626.926-1.395.926-2.307 0-.747-.23-1.35-.69-1.808-.46-.458-1.062-.687-1.805-.687zm8.651-.83c.601 0 1.152.144 1.653.431a3.04 3.04 0 0 1 1.173 1.2c.28.511.421 1.091.421 1.74a4.11 4.11 0 0 1-.538 2.057 3.821 3.821 0 0 1-1.445 1.468c-.605.345-1.29.518-2.054.518-.946 0-1.725-.31-2.336-.93-.612-.62-.917-1.41-.917-2.368 0-.752.179-1.446.538-2.08a3.917 3.917 0 0 1 1.474-1.494 3.99 3.99 0 0 1 2.031-.541zm-.019.862c-.562 0-1.09.14-1.584.422a2.89 2.89 0 0 0-1.141 1.156 3.352 3.352 0 0 0-.399 1.624c0 .743.23 1.347.687 1.811.458.465 1.05.697 1.776.697a2.99 2.99 0 0 0 1.54-.405c.46-.27.825-.66 1.098-1.17a3.43 3.43 0 0 0 .408-1.64c0-.488-.102-.92-.305-1.299a2.17 2.17 0 0 0-.862-.881 2.438 2.438 0 0 0-1.218-.315zm5.761-3.402h.888l-1.36 9.773h-.895l1.367-9.773zm2.975-.181c.198 0 .37.071.512.214a.698.698 0 0 1 .214.512.695.695 0 0 1-.214.515.704.704 0 0 1-.512.21.7.7 0 0 1-.515-.21.7.7 0 0 1-.211-.515c0-.2.07-.37.21-.512a.695.695 0 0 1 .516-.214zm-.713 2.903h.862l-.94 7.05h-.894l.972-7.05zm9.358 1.523l-.746.434c-.522-.847-1.322-1.27-2.397-1.27a3.54 3.54 0 0 0-1.705.415 3.038 3.038 0 0 0-1.205 1.153 3.07 3.07 0 0 0-.434 1.581c0 .497.108.942.324 1.335.216.394.52.696.91.908.391.211.852.317 1.384.317a3.85 3.85 0 0 0 1.558-.324c.495-.216.88-.494 1.157-.836l.745.525c-.466.51-.973.883-1.52 1.118-.546.235-1.18.353-1.901.353-1.115 0-1.984-.303-2.609-.91-.624-.607-.936-1.416-.936-2.427 0-1.124.41-2.084 1.228-2.88.819-.798 1.822-1.196 3.01-1.196.713 0 1.342.15 1.886.45.544.3.961.718 1.25 1.254zm1.127-1.523h.934l1.827 5.204 3.02-5.204h1.004l-5.586 9.63h-1.017l1.996-3.441-2.178-6.189zm8.418-2.722h.882l-.519 3.791c.726-.834 1.556-1.25 2.489-1.25.713 0 1.295.222 1.746.667.452.445.678 1.024.678 1.737 0 .393-.048.922-.143 1.588l-.44 3.24h-.895l.44-3.24c.091-.653.137-1.171.137-1.556 0-.484-.151-.875-.454-1.173-.302-.298-.7-.447-1.192-.447-.458 0-.891.123-1.3.37a2.532 2.532 0 0 0-.946.997c-.222.42-.396 1.085-.521 1.996l-.422 3.053h-.881l1.341-9.773zm10.894 2.54c.6 0 1.152.144 1.653.431a3.04 3.04 0 0 1 1.173 1.2c.28.511.42 1.091.42 1.74a4.1 4.1 0 0 1-.537 2.057 3.821 3.821 0 0 1-1.445 1.468c-.605.345-1.29.518-2.054.518-.947 0-1.725-.31-2.337-.93-.611-.62-.917-1.41-.917-2.368 0-.752.18-1.446.538-2.08a3.917 3.917 0 0 1 1.475-1.494 3.99 3.99 0 0 1 2.031-.541zm-.02.862c-.56 0-1.089.14-1.584.422-.494.28-.875.666-1.14 1.156a3.352 3.352 0 0 0-.399 1.624c0 .743.23 1.347.687 1.811.458.465 1.05.697 1.776.697.566 0 1.079-.135 1.539-.405.46-.27.826-.66 1.098-1.17.272-.51.409-1.056.409-1.64 0-.488-.102-.92-.305-1.299a2.17 2.17 0 0 0-.862-.881 2.438 2.438 0 0 0-1.218-.315zm5.762-3.402h.888l-1.361 9.773h-.894l1.367-9.773zm8.476 9.773h-.913l.136-1.063c-.817.83-1.752 1.244-2.806 1.244-.96 0-1.748-.309-2.366-.926-.618-.618-.926-1.413-.926-2.385 0-1.124.4-2.088 1.202-2.894.801-.806 1.744-1.208 2.828-1.208.588 0 1.103.123 1.546.369.443.246.822.63 1.137 1.153l.525-4.063h.94l-1.303 9.773zm-3.486-.648c.583 0 1.115-.137 1.594-.412.48-.274.86-.668 1.14-1.182a3.448 3.448 0 0 0 .422-1.679c0-.73-.231-1.324-.694-1.782-.462-.458-1.062-.687-1.801-.687-.868 0-1.612.313-2.23.94-.617.626-.926 1.395-.926 2.307 0 .747.231 1.35.693 1.808.463.458 1.063.687 1.802.687zm12.857-2.696h-6.286c-.013.838.205 1.497.655 1.976.449.48 1.047.72 1.795.72a3.15 3.15 0 0 0 1.38-.305 2.82 2.82 0 0 0 1.05-.855l.674.55a3.652 3.652 0 0 1-1.338 1.047 4.111 4.111 0 0 1-1.786.392c-1.106 0-1.936-.342-2.491-1.027-.556-.685-.833-1.455-.833-2.31a4 4 0 0 1 .56-2.022 4.036 4.036 0 0 1 1.5-1.513 4.008 4.008 0 0 1 2.035-.541c.903 0 1.65.305 2.243.917.592.61.888 1.39.888 2.336 0 .173-.016.384-.046.635zm-.83-.784c-.025-.666-.252-1.205-.68-1.617-.427-.413-.965-.62-1.613-.62-.705 0-1.326.2-1.864.597-.537.398-.919.944-1.143 1.64h5.3zm2.761-2.923h.901l-.116.888c.241-.337.533-.6.874-.788a2.152 2.152 0 0 1 1.05-.281c.255 0 .52.06.797.181l-.427.83c-.225-.091-.413-.137-.564-.137-.316 0-.628.11-.937.33-.309.221-.56.542-.751.963-.193.421-.356 1.114-.49 2.077l-.414 2.988h-.882l.96-7.051zm7.628.79l-.493.733c-.397-.566-.868-.849-1.412-.849a1.13 1.13 0 0 0-.797.305c-.22.203-.33.427-.33.674 0 .19.066.371.2.544.13.173.426.408.888.706.674.437 1.119.817 1.335 1.14.211.33.317.707.317 1.135 0 .592-.206 1.082-.619 1.471-.412.389-.949.583-1.61.583-.873 0-1.607-.386-2.203-1.16l.55-.641c.523.635 1.091.952 1.705.952.35 0 .654-.123.914-.37.259-.245.388-.53.388-.855 0-.263-.097-.516-.291-.758-.125-.155-.462-.419-1.011-.79-.592-.406-.98-.743-1.167-1.011a1.515 1.515 0 0 1-.278-.895c0-.522.196-.967.59-1.335.393-.367.89-.55 1.49-.55.354 0 .675.07.962.213.288.143.578.396.872.759z" fill="#FFF" fill-rule="evenodd"/></svg>