<?xml version="1.0" encoding="UTF-8" standalone="no"?>
<svg width="232px" height="58px" viewBox="0 0 232 58" version="1.1" xmlns="http://www.w3.org/2000/svg" xmlns:xlink="http://www.w3.org/1999/xlink" xmlns:sketch="http://www.bohemiancoding.com/sketch/ns">
    <!-- Generator: Sketch 3.1 (8751) - http://www.bohemiancoding.com/sketch -->
    <title>logo-one-color</title>
    <desc>Created with Sketch.</desc>
    <defs></defs>
    <g id="design" stroke="none" stroke-width="1" fill="none" fill-rule="evenodd" sketch:type="MSPage">
        <g id="Desktop-HD" sketch:type="MSArtboardGroup" transform="translate(-599.000000, -801.000000)" fill="#FFFFFF">
            <g id="logo-usage" sketch:type="MSLayerGroup" transform="translate(15.000000, 665.000000)">
                <g id="logo-box-hover-2" transform="translate(490.000000, 83.000000)" sketch:type="MSShapeGroup">
                    <g id="logo-one-color" transform="translate(94.050000, 53.500000)">
                        <path d="M23.7804323,36.5445946 C21.199464,33.8439189 18.2601152,32.4675676 15.0378344,32.4675676 C12.2886787,32.4675676 9.93405593,33.4324324 8.0415554,35.3148649 C6.15377041,37.2114865 5.19808908,39.5747748 5.19808908,42.3448198 C5.19808908,44.2698198 5.6177715,46.0166667 6.45556451,47.5065315 C7.29650121,49.0184685 8.49739025,50.2024775 10.0236511,51.0554054 C11.5420526,51.8988739 13.2695095,52.3371622 15.1368605,52.3371622 C16.7291388,52.3371622 18.2035288,52.0344595 19.523878,51.4432432 C20.8127903,50.8536036 22.249456,49.7736486 23.7757168,48.2648649 C23.9329012,48.4256757 27.1331762,51.7806306 27.3045072,51.9414414 C25.2453912,53.9452703 23.2727266,55.35 21.4383843,56.1288288 C19.5757488,56.9218468 17.4207503,57.3333333 15.0456936,57.3333333 C10.6555325,57.3333333 7.00728186,55.904955 4.21411455,53.1175676 C1.41151618,50.3222973 0,46.7024775 0,42.3290541 C0,39.5038288 0.641312472,36.9608108 1.91136266,34.7662162 C3.18927207,32.5795045 5.04090465,30.7822072 7.409674,29.4405405 C9.79258995,28.1067568 12.3892767,27.4351351 15.1242858,27.4351351 C17.453759,27.4351351 19.7313614,27.9333333 21.8879318,28.9202703 C24.0130653,29.8945946 25.8584105,31.2961712 27.4113926,33.0792793 L23.7804323,36.5445946" id="Fill-1"></path>
                        <path d="M31.9681692,37.9256757 C29.5821096,40.1155405 28.3717895,42.872973 28.3717895,46.1364865 C28.3717895,49.1792793 29.4406436,51.8074324 31.5532023,53.9373874 C33.6689048,56.0578829 36.2467294,57.1536036 39.2269462,57.1536036 C41.2609127,57.1536036 43.1392666,56.656982 44.8258556,55.6873874 C46.5124445,54.7256757 47.859515,53.3619369 48.8356303,51.6545045 C49.8070301,49.9297297 50.2990174,48.0677928 50.2990174,46.0986486 C50.2990174,44.1436937 49.8148893,42.2896396 48.8434896,40.6011261 C47.8736616,38.9063063 46.5124445,37.5488739 44.7771284,36.5666667 C43.044956,35.5797297 41.1760331,35.0894144 39.2127996,35.0894144 C36.493509,35.0894144 34.0540066,36.0463964 31.9681692,37.9256757 M35.0678462,50.6943694 L35.0678462,50.6943694 C33.9738426,49.5213964 33.4126941,47.9905405 33.4126941,46.1207207 C33.4126941,44.2981982 33.9817018,42.7831081 35.089852,41.6148649 C36.2058615,40.4355856 37.6220932,39.8427928 39.2976792,39.8427928 C41.0047021,39.8427928 42.4382241,40.4292793 43.5385151,41.5912162 C44.6403779,42.7468468 45.1936671,44.2713964 45.1936671,46.1207207 C45.1936671,47.9605856 44.6309469,49.4914414 43.499219,50.6722973 C42.3894969,51.8563063 40.9669778,52.4459459 39.2756734,52.4459459 C37.5890844,52.4459459 36.1744246,51.8563063 35.0678462,50.6943694" id="Fill-4"></path>
                        <path d="M53.4489933,27.9554054 L58.5119038,27.9554054 L58.5119038,56.6112613 L53.4489933,56.6112613 L53.4489933,27.9554054 Z" id="Fill-5"></path>
                        <path d="M65.2692624,37.9256757 C62.881631,40.1155405 61.6760264,42.872973 61.6760264,46.1364865 C61.6760264,49.1792793 62.7464523,51.8074324 64.8558674,53.9373874 C66.969998,56.0578829 69.5493944,57.1536036 72.5358986,57.1536036 C74.5651496,57.1536036 76.4435035,56.656982 78.1316643,55.6873874 C79.8088221,54.7256757 81.1606082,53.3619369 82.1351517,51.6545045 C83.1096952,49.9297297 83.6032543,48.0677928 83.6032543,46.0986486 C83.6032543,44.1436937 83.1144107,42.2896396 82.1461546,40.6011261 C81.173183,38.9063063 79.8088221,37.5488739 78.0829371,36.5666667 C76.347621,35.5797297 74.4786981,35.0894144 72.5154646,35.0894144 C69.8040332,35.0894144 67.362959,36.0463964 65.2692624,37.9256757 M68.3783704,50.6943694 L68.3783704,50.6943694 C67.2717921,49.5213964 66.716931,47.9905405 66.716931,46.1207207 C66.716931,44.2981982 67.2796513,42.7831081 68.3956607,41.6148649 C69.513242,40.4355856 70.92633,39.8427928 72.5987724,39.8427928 C74.3120827,39.8427928 75.7377454,40.4292793 76.8396083,41.5912162 C77.9383274,42.7468468 78.4994759,44.2713964 78.4994759,46.1207207 C78.4994759,47.9605856 77.9336119,49.4914414 76.8097432,50.6722973 C75.6921619,51.8563063 74.2649273,52.4459459 72.5783384,52.4459459 C70.8901776,52.4459459 69.4770896,51.8563063 68.3783704,50.6943694" id="Fill-6"></path>
                        <path d="M95.6341505,35.6790541 L95.6341505,35.6790541 C94.6737536,36.059009 93.5876092,36.770045 92.3930076,37.7727477 L92.1902396,37.9493243 L92.1902396,35.6301802 L87.1226136,35.6301802 L87.1226136,56.6112613 L92.1902396,56.6112613 L92.1902396,48.2144144 C92.1902396,45.9725225 92.2704037,44.5583333 92.42916,43.8756757 C92.7309541,42.5844595 93.2810996,41.5565315 94.0623062,40.825 C94.8560876,40.0887387 95.8180563,39.7182432 96.9230628,39.7182432 C97.7718587,39.7182432 98.4980508,39.9421171 99.0859206,40.3867117 C99.6596437,40.8454955 100.076182,41.5060811 100.310387,42.3574324 C100.54302,43.2103604 100.654621,44.8657658 100.654621,47.4418919 L100.654621,56.6112613 L105.645227,56.6112613 L105.645227,42.7027027 C105.645227,40.3063063 105.041639,38.4617117 103.843893,37.2540541 C102.408799,35.8067568 100.648334,35.0878378 98.5955051,35.0878378 C97.5863811,35.0878378 96.5961192,35.2849099 95.6341505,35.6790541" id="Fill-7"></path>
                        <path d="M110.450355,35.6301802 L115.516409,35.6301802 L115.516409,56.6112613 L110.450355,56.6112613 L110.450355,35.6301802 Z" id="Fill-8"></path>
                        <path d="M122.459245,38.1747748 L122.459245,38.1747748 C120.562029,40.2416667 119.60006,42.9218468 119.60006,46.1632883 C119.60006,49.2644144 120.595038,51.9004505 122.544125,53.990991 C124.518361,56.0862613 126.865125,57.1536036 129.549835,57.1536036 C130.736577,57.1536036 131.862018,56.9391892 132.88686,56.5009009 C133.906987,56.0815315 134.938117,55.3673423 135.967675,54.3977477 L136.170443,54.1896396 L136.170443,56.6112613 L141.238069,56.6112613 L141.238069,35.6301802 L136.170443,35.6301802 L136.170443,38.1558559 L135.961388,37.9272523 C135.027712,36.9891892 134.00287,36.2702703 132.908866,35.7941441 C131.818006,35.3211712 130.640695,35.0878378 129.39265,35.0878378 C126.679647,35.0878378 124.351746,36.129955 122.459245,38.1747748 M124.640965,46.0986486 C124.640965,44.2587838 125.194254,42.7247748 126.302404,41.5423423 C127.399552,40.3536036 128.804781,39.7655405 130.470936,39.7655405 C132.174815,39.7655405 133.603621,40.3378378 134.718059,41.5155405 C135.837212,42.6743243 136.392073,44.2083333 136.392073,46.0781532 C136.392073,47.9905405 135.837212,49.5560811 134.718059,50.7369369 C133.603621,51.9225225 132.184246,52.5184685 130.492941,52.5184685 C128.84722,52.5184685 127.443563,51.9051802 126.32441,50.7054054 C125.206829,49.5072072 124.640965,47.9558559 124.640965,46.0986486" id="Fill-9"></path>
                        <path d="M146.304123,27.4367117 L151.367034,27.4367117 L151.367034,56.6112613 L146.304123,56.6112613 L146.304123,27.4367117 Z" id="Fill-10"></path>
                        <path d="M165.27314,27.4209459 L165.27314,56.6112613 L178.394896,56.6112613 L178.394896,51.6403153 L170.471229,51.6403153 L170.471229,27.4209459 L165.27314,27.4209459" id="Fill-11"></path>
                        <path d="M195.966544,27.8844595 C195.166475,28.5434685 194.682347,29.4531532 194.547168,30.5835586 C194.478007,31.0849099 194.426136,32.7403153 194.413561,35.4993243 L194.413561,35.6317568 L192.522633,35.6317568 L192.522633,39.8806306 L194.413561,39.8806306 L194.413561,56.6112613 L199.485903,56.6112613 L199.485903,39.8806306 L202.838647,39.8806306 L202.838647,35.6317568 L199.485903,35.6317568 L199.50005,32.8459459 C199.50005,32.1900901 199.614794,31.7644144 199.845855,31.5452703 C200.169655,31.2567568 200.655355,31.1101351 201.299811,31.1101351 C201.765077,31.1101351 202.362378,31.2268018 203.063421,31.4175676 L203.063421,27.618018 C201.735212,27.1434685 200.512317,26.8927928 199.454466,26.8927928 C197.956498,26.8927928 196.780759,27.2238739 195.966544,27.8844595" id="Fill-12"></path>
                        <path d="M207.213089,38.2536036 C205.160261,40.3536036 204.118128,43.0416667 204.118128,46.2358108 C204.118128,49.3400901 205.160261,51.9682432 207.220949,54.0382883 C209.270634,56.102027 211.96949,57.1536036 215.253073,57.1536036 C217.362488,57.1536036 219.20469,56.7689189 220.73881,56.020045 C222.233634,55.2900901 223.522546,54.1502252 224.600831,52.6414414 C224.32733,52.5184685 220.481027,50.7101351 220.344277,50.6454955 C218.909183,52.0202703 217.191157,52.7218468 215.210633,52.7218468 C213.524044,52.7218468 212.110956,52.2662162 211.02324,51.3502252 C209.944955,50.4436937 209.256487,49.1997748 209.011279,47.6641892 L208.98613,47.515991 L226.072077,47.515991 C226.084652,47.3252252 226.095655,46.6252252 226.095655,46.6252252 C226.095655,43.1772523 225.056666,40.3536036 222.994406,38.2536036 C220.944721,36.152027 218.245865,35.0894144 214.949707,35.0894144 C211.86732,35.0894144 209.256487,36.152027 207.213089,38.2536036 M215.202774,39.3367117 C216.590713,39.3367117 217.830898,39.7182432 218.884033,40.4671171 C219.937169,41.2254505 220.649215,42.225 221.007595,43.4184685 L221.057894,43.5855856 L209.160605,43.5855856 L209.245484,43.4058559 C209.845929,42.0846847 210.518678,41.1403153 211.226008,40.6011261 C212.364023,39.7655405 213.706378,39.3367117 215.202774,39.3367117" id="Fill-13"></path>
                        <path d="M181.816801,20.8907658 C181.816801,23.6024775 183.398077,25.8144144 185.329873,25.8144144 C187.263242,25.8144144 188.831942,23.6024775 188.831942,20.8907658 C188.831942,18.1711712 187.263242,15.9655405 185.329873,15.9655405 C183.398077,15.9655405 181.816801,18.1711712 181.816801,20.8907658" id="Fill-14"></path>
                        <path d="M155.494697,13.3263514 C155.494697,17.8322072 156.771034,21.6427928 158.264286,21.6427928 C159.774829,21.6427928 161.040163,17.8322072 161.040163,13.3263514 C161.040163,8.81734234 159.774829,5.01148649 158.264286,5.01148649 C156.771034,5.01148649 155.494697,8.81734234 155.494697,13.3263514" id="Fill-15"></path>
                        <path d="M108.880082,22.7322072 C108.880082,25.1695946 110.855891,27.1497748 113.28439,27.1497748 C115.719177,27.1497748 117.693413,25.1695946 117.693413,22.7322072 C117.693413,20.2853604 115.719177,18.3114865 113.28439,18.3114865 C110.855891,18.3114865 108.880082,20.2853604 108.880082,22.7322072" id="Fill-16"></path>
                        <path d="M129.672439,22.5871622 C131.789713,22.5871622 133.521885,20.0567568 133.521885,16.9572072 C133.521885,13.8497748 131.789713,11.3177928 129.672439,11.3177928 C127.548877,11.3177928 125.819848,13.8497748 125.819848,16.9572072 C125.819848,20.0567568 127.548877,22.5871622 129.672439,22.5871622" id="Fill-17"></path>
                        <path d="M168.941825,5.82972973 C168.941825,9.27454955 170.414643,12.0808559 172.222264,12.0808559 C174.025169,12.0808559 175.501131,9.27454955 175.501131,5.82972973 C175.501131,2.37387387 174.095902,-0.440315315 172.292997,-0.440315315 C170.48066,-0.440315315 168.941825,2.37387387 168.941825,5.82972973" id="Fill-18"></path>
                        <path d="M141.522573,8.91351351 C141.522573,12.5853604 142.805198,15.572973 144.39276,15.572973 C145.983467,15.572973 147.275523,12.5853604 147.275523,8.91351351 C147.275523,5.24324324 145.983467,2.26036036 144.39276,2.26036036 C142.805198,2.26036036 141.522573,5.24324324 141.522573,8.91351351" id="Fill-19"></path>
                        <path d="M182.79606,35.6301802 L187.86683,35.6301802 L187.86683,56.6112613 L182.79606,56.6112613 L182.79606,35.6301802 Z" id="Fill-20"></path>
                        <path d="M228.362254,54.084009 L228.681339,54.084009 C229.016142,54.084009 229.332082,53.9783784 229.332082,53.6882883 C229.332082,53.4454955 229.165467,53.2626126 228.726922,53.2626126 C228.54616,53.2626126 228.439275,53.2783784 228.362254,53.2941441 L228.362254,54.084009 L228.362254,54.084009 Z M228.362254,55.5123874 L227.892273,55.5123874 L227.892273,52.9740991 C228.150055,52.929955 228.423556,52.8984234 228.772506,52.8984234 C229.196904,52.8984234 229.409103,52.9740991 229.561572,53.0954955 C229.712469,53.2011261 229.81621,53.3997748 229.81621,53.6441441 C229.81621,53.9468468 229.589865,54.1454955 229.332082,54.2369369 L229.332082,54.2668919 C229.547425,54.3583333 229.666885,54.5554054 229.743906,54.8896396 C229.81621,55.2695946 229.879084,55.4225225 229.940386,55.5123874 L229.454686,55.5123874 C229.377666,55.4225225 229.316364,55.1939189 229.242487,54.8596847 C229.181185,54.5711712 229.016142,54.4481982 228.66562,54.4481982 L228.362254,54.4481982 L228.362254,55.5123874 L228.362254,55.5123874 Z M226.864287,54.1754505 C226.864287,55.2995495 227.695792,56.1824324 228.819661,56.1824324 C229.893231,56.1981982 230.713734,55.2995495 230.713734,54.1896396 C230.713734,53.0797297 229.893231,52.1842342 228.788224,52.1842342 C227.695792,52.1842342 226.864287,53.0797297 226.864287,54.1754505 L226.864287,54.1754505 Z M231.245017,54.1754505 C231.245017,55.5581081 230.18245,56.6222973 228.803943,56.6222973 C227.422292,56.6222973 226.333003,55.5581081 226.333003,54.1754505 C226.333003,52.8211712 227.422292,51.756982 228.819661,51.756982 C230.18245,51.756982 231.245017,52.8211712 231.245017,54.1754505 L231.245017,54.1754505 Z" id="Fill-21"></path>
                    </g>
                </g>
            </g>
        </g>
    </g>
</svg>