<svg width="232" height="58" viewBox="0 0 232 58" xmlns="http://www.w3.org/2000/svg"><title>logo-one-color</title><path d="M23.83 37.045c-2.58-2.701-5.52-4.077-8.742-4.077-2.75 0-5.104.964-6.996 2.847-1.888 1.896-2.844 4.26-2.844 7.03 0 1.925.42 3.672 1.258 5.162.84 1.511 2.041 2.695 3.568 3.548 1.518.844 3.246 1.282 5.113 1.282 1.592 0 3.067-.303 4.387-.894 1.289-.59 2.725-1.67 4.252-3.178.157.16 3.357 3.516 3.529 3.676-2.06 2.004-4.032 3.409-5.867 4.188-1.862.793-4.017 1.204-6.392 1.204-4.39 0-8.039-1.428-10.832-4.215C1.462 50.822.05 47.202.05 42.829c0-2.825.641-5.368 1.911-7.563 1.278-2.186 3.13-3.984 5.499-5.325a15.612 15.612 0 0 1 7.714-2.006c2.33 0 4.607.498 6.764 1.485 2.125.975 3.97 2.376 5.523 4.16l-3.63 3.465m8.187 1.381c-2.386 2.19-3.596 4.947-3.596 8.21 0 3.043 1.069 5.671 3.181 7.801 2.116 2.12 4.694 3.217 7.674 3.217 2.034 0 3.912-.497 5.599-1.467 1.686-.961 3.034-2.325 4.01-4.032a11.173 11.173 0 0 0 1.463-5.556c0-1.955-.484-3.81-1.456-5.498a10.662 10.662 0 0 0-4.066-4.034 11.094 11.094 0 0 0-5.564-1.478c-2.72 0-5.159.957-7.245 2.837m3.1 12.768c-1.094-1.173-1.655-2.703-1.655-4.573 0-1.823.569-3.338 1.677-4.506 1.116-1.18 2.532-1.772 4.208-1.772 1.707 0 3.14.586 4.24 1.748 1.102 1.156 1.656 2.68 1.656 4.53 0 1.84-.563 3.37-1.695 4.551-1.11 1.184-2.532 1.774-4.223 1.774-1.687 0-3.102-.59-4.208-1.752m18.381-22.739h5.063v28.656h-5.063V28.455zm11.821 9.971c-2.388 2.19-3.594 4.947-3.594 8.21 0 3.043 1.07 5.671 3.18 7.801 2.114 2.12 4.693 3.217 7.68 3.217 2.03 0 3.908-.497 5.596-1.467a10.703 10.703 0 0 0 4.003-4.032 11.145 11.145 0 0 0 1.468-5.556c0-1.955-.489-3.81-1.457-5.498a10.741 10.741 0 0 0-4.063-4.034 11.114 11.114 0 0 0-5.568-1.478c-2.711 0-5.152.957-7.246 2.837m3.11 12.768c-1.107-1.173-1.662-2.703-1.662-4.573 0-1.823.563-3.338 1.679-4.506 1.117-1.18 2.53-1.772 4.203-1.772 1.713 0 3.139.586 4.24 1.748 1.1 1.156 1.66 2.68 1.66 4.53 0 1.84-.565 3.37-1.69 4.551-1.117 1.184-2.544 1.774-4.23 1.774-1.689 0-3.102-.59-4.2-1.752M95.684 36.18c-.96.379-2.046 1.09-3.241 2.093l-.203.176V36.13h-5.067v20.981h5.067v-8.397c0-2.241.08-3.656.24-4.338.301-1.292.851-2.32 1.632-3.051.794-.736 1.756-1.107 2.861-1.107.849 0 1.575.224 2.163.669.574.458.99 1.12 1.224 1.97.233.853.345 2.509.345 5.085v9.17h4.99v-13.91c0-2.396-.603-4.24-1.801-5.448-1.435-1.447-3.196-2.166-5.248-2.166-1.01 0-2 .197-2.962.591m14.816-.049h5.066v20.981H110.5v-20.98zm12.01 2.545c-1.898 2.067-2.86 4.747-2.86 7.988 0 3.101.995 5.737 2.944 7.828 1.974 2.095 4.321 3.163 7.006 3.163 1.187 0 2.312-.215 3.337-.653 1.02-.42 2.051-1.134 3.08-2.103l.203-.208v2.421h5.068v-20.98h-5.068v2.525l-.209-.229c-.933-.938-1.958-1.657-3.052-2.133a8.759 8.759 0 0 0-3.516-.706c-2.713 0-5.041 1.042-6.934 3.087m2.182 7.924c0-1.84.553-3.374 1.661-4.557 1.098-1.188 2.503-1.776 4.169-1.776 1.704 0 3.133.572 4.247 1.75 1.12 1.158 1.674 2.692 1.674 4.562 0 1.913-.555 3.478-1.674 4.659-1.114 1.186-2.534 1.781-4.225 1.781-1.646 0-3.05-.613-4.169-1.813-1.117-1.198-1.683-2.75-1.683-4.606m21.663-18.662h5.063V57.11h-5.063V27.937zm18.969-.017v29.191h13.122v-4.97h-7.924V27.92h-5.198m30.694.464c-.8.66-1.285 1.57-1.42 2.7-.069.5-.12 2.156-.133 4.915v.133h-1.891v4.249h1.89v16.73h5.073v-16.73h3.353v-4.25h-3.353l.014-2.785c0-.656.115-1.082.346-1.3.324-.29.81-.436 1.454-.436.465 0 1.062.117 1.763.308v-3.8c-1.328-.475-2.55-.725-3.609-.725-1.498 0-2.673.33-3.487.991m11.246 10.37c-2.053 2.1-3.095 4.788-3.095 7.982 0 3.104 1.042 5.732 3.103 7.802 2.05 2.064 4.748 3.116 8.032 3.116 2.11 0 3.952-.385 5.486-1.134 1.495-.73 2.784-1.87 3.862-3.379-.274-.123-4.12-1.93-4.257-1.996-1.435 1.375-3.153 2.077-5.133 2.077-1.687 0-3.1-.456-4.188-1.372-1.078-.906-1.767-2.15-2.012-3.686l-.025-.148h17.086c.013-.19.024-.89.024-.89 0-3.449-1.04-6.272-3.102-8.372-2.05-2.102-4.748-3.165-8.044-3.165-3.083 0-5.694 1.063-7.737 3.165m7.99 1.083c1.388 0 2.628.381 3.681 1.13 1.053.758 1.765 1.758 2.124 2.951l.05.168H209.21l.084-.18c.6-1.321 1.274-2.266 1.981-2.805 1.138-.835 2.48-1.264 3.977-1.264M181.867 21.39c0 2.712 1.581 4.924 3.513 4.924 1.933 0 3.502-2.212 3.502-4.923 0-2.72-1.569-4.925-3.502-4.925-1.932 0-3.513 2.205-3.513 4.925m-26.322-7.565c0 4.506 1.276 8.317 2.77 8.317 1.51 0 2.775-3.81 2.775-8.317 0-4.509-1.265-8.315-2.776-8.315-1.493 0-2.77 3.806-2.77 8.315m-46.614 9.406c0 2.438 1.976 4.418 4.404 4.418a4.415 4.415 0 0 0 4.41-4.418 4.412 4.412 0 0 0-4.41-4.42 4.412 4.412 0 0 0-4.404 4.42m20.792-.145c2.118 0 3.85-2.53 3.85-5.63 0-3.107-1.732-5.64-3.85-5.64-2.123 0-3.852 2.533-3.852 5.64 0 3.1 1.729 5.63 3.852 5.63m39.27-16.757c0 3.445 1.473 6.25 3.28 6.25 1.803 0 3.28-2.805 3.28-6.25 0-3.456-1.406-6.27-3.209-6.27-1.812 0-3.351 2.814-3.351 6.27m-27.419 3.084c0 3.671 1.282 6.659 2.87 6.659 1.59 0 2.883-2.988 2.883-6.66 0-3.67-1.293-6.653-2.883-6.653-1.588 0-2.87 2.983-2.87 6.654m41.273 26.716h5.07v20.981h-5.07v-20.98zm45.566 18.454h.32c.334 0 .65-.106.65-.396 0-.243-.167-.425-.605-.425-.18 0-.288.015-.365.031v.79zm0 1.428h-.47v-2.538c.258-.044.532-.076.88-.076.425 0 .637.076.79.197.15.106.254.305.254.55 0 .302-.226.5-.484.592v.03c.215.091.335.288.412.623.072.38.135.533.196.622h-.485c-.077-.09-.139-.318-.213-.652-.06-.289-.226-.412-.576-.412h-.304v1.064zm-1.498-1.337c0 1.125.832 2.007 1.956 2.007 1.073.016 1.894-.882 1.894-1.992 0-1.11-.82-2.006-1.926-2.006-1.092 0-1.924.896-1.924 1.991zm4.381 0c0 1.383-1.063 2.447-2.441 2.447-1.382 0-2.471-1.064-2.471-2.447 0-1.354 1.09-2.418 2.487-2.418a2.396 2.396 0 0 1 2.425 2.418z" fill="#265b80" fill-rule="evenodd"/></svg>