<svg width="190" height="12" viewBox="0 0 190 12" xmlns="http://www.w3.org/2000/svg"><title>logo-my-acct-admin</title><path d="M11.231 11.62h5.48V.625H.28v4.272h1.18v.584c.225-.24.475-.419.75-.537a2.25 2.25 0 0 1 .9-.178c.327 0 .623.078.887.234.263.156.476.383.636.682.21-.299.466-.526.77-.682a2.15 2.15 0 0 1 .996-.234c.373 0 .7.084.983.253.283.168.487.388.61.659.124.27.186.712.186 1.322v2.982H6.852v-2.58c0-.576-.074-.966-.222-1.17-.148-.205-.37-.307-.665-.307-.226 0-.427.063-.606.187a1.109 1.109 0 0 0-.398.517c-.086.22-.13.572-.13 1.058v2.295H3.505V7.52c0-.455-.035-.784-.104-.988a.894.894 0 0 0-.31-.456.835.835 0 0 0-.502-.15 1 1 0 0 0-.596.19 1.132 1.132 0 0 0-.4.53c-.089.228-.133.586-.133 1.075v2.262H.281v1.636h9.592l.972-2.014L8.85 4.898h1.345L11.56 8.09l1.505-3.192h1.35l-3.183 6.721zM22.674.735h2.203l4.391 11.053h-2.257l-.893-2.277h-4.654l-.931 2.277h-2.258L22.674.735zm1.117 2.93l-1.52 3.795h3.033L23.79 3.665zm14.135 1.6l-1.76.94c-.332-.336-.659-.568-.982-.699a3.03 3.03 0 0 0-1.137-.195c-.791 0-1.431.23-1.92.687-.489.459-.733 1.046-.733 1.763 0 .696.235 1.264.706 1.705.47.441 1.089.661 1.854.661.947 0 1.684-.313 2.211-.939l1.668 1.105c-.905 1.137-2.182 1.705-3.832 1.705-1.485 0-2.647-.425-3.488-1.277-.84-.852-1.26-1.848-1.26-2.99 0-.792.204-1.52.613-2.187a4.27 4.27 0 0 1 1.71-1.57c.732-.381 1.55-.572 2.456-.572.838 0 1.59.162 2.257.485a4.247 4.247 0 0 1 1.637 1.379zm7.355.94c-.331-.336-.658-.568-.981-.699a3.03 3.03 0 0 0-1.137-.195c-.791 0-1.431.23-1.92.687-.489.459-.733 1.046-.733 1.763 0 .696.235 1.264.706 1.705.47.441 1.088.661 1.854.661.946 0 1.683-.313 2.21-.939l1.669 1.105c-.905 1.137-2.183 1.705-3.833 1.705-1.484 0-2.646-.425-3.487-1.277-.84-.852-1.26-1.848-1.26-2.99 0-.792.204-1.52.612-2.187a4.27 4.27 0 0 1 1.711-1.57c.732-.381 1.55-.572 2.455-.572.838 0 1.59.162 2.258.485a4.247 4.247 0 0 1 1.637 1.379l-1.761.94zm6.785-2.803c.796 0 1.545.193 2.246.579.7.386 1.247.91 1.64 1.57.394.662.59 1.375.59 2.142a4.19 4.19 0 0 1-.593 2.164 4.217 4.217 0 0 1-1.618 1.574 4.58 4.58 0 0 1-2.258.567c-1.21 0-2.243-.417-3.099-1.25-.856-.835-1.284-1.848-1.284-3.04 0-1.277.484-2.342 1.45-3.194.85-.741 1.824-1.112 2.926-1.112zm.03 1.931c-.656 0-1.203.222-1.64.665-.437.444-.656 1.011-.656 1.702 0 .712.216 1.288.648 1.729.432.44.979.66 1.64.66.663 0 1.214-.222 1.653-.668.44-.446.66-1.02.66-1.72 0-.702-.216-1.272-.648-1.71-.432-.438-.984-.658-1.656-.658zm5.628-1.814h2.141v3.937c0 .767.055 1.299.163 1.597.109.298.283.53.524.695.24.165.536.248.888.248s.65-.081.896-.244c.246-.163.428-.402.547-.718.088-.235.132-.739.132-1.51V3.519h2.126v3.464c0 1.427-.117 2.404-.35 2.93-.284.642-.703 1.134-1.256 1.477-.554.343-1.257.515-2.11.515-.926 0-1.675-.2-2.246-.602-.572-.4-.974-.959-1.207-1.675-.165-.496-.248-1.398-.248-2.705V3.519zm9.31.094h2.111v.834c.481-.39.917-.663 1.307-.815.39-.153.79-.23 1.199-.23.838 0 1.55.283 2.134.85.49.48.737 1.192.737 2.133v5.403h-2.095V8.204c0-.977-.045-1.626-.136-1.946-.09-.32-.248-.565-.473-.733-.225-.168-.503-.252-.834-.252-.43 0-.798.14-1.106.417-.307.278-.52.663-.64 1.154-.062.255-.093.809-.093 1.66v3.284h-2.11V3.613zM76.595.6h2.11v3.013h1.257v1.766h-1.257v6.41h-2.11v-6.41h-1.086V3.613h1.086V.6zm12.301.135H91.1l4.39 11.053h-2.257l-.892-2.277h-4.655l-.931 2.277h-2.258l4.4-11.053zm1.117 2.93l-1.52 3.795h3.033l-1.513-3.795zm12.11-3.208h2.111v11.331h-2.11v-.864c-.414.38-.829.655-1.245.823a3.588 3.588 0 0 1-1.354.251c-1.091 0-2.035-.409-2.832-1.228-.796-.82-1.195-1.837-1.195-3.055 0-1.262.386-2.296 1.156-3.103.771-.806 1.707-1.21 2.809-1.21.507 0 .982.093 1.427.278a3.9 3.9 0 0 1 1.234.834V.457zm-2.226 4.839c-.657 0-1.202.224-1.637.672-.434.449-.651 1.024-.651 1.725 0 .706.22 1.287.663 1.743.442.456.986.684 1.633.684.667 0 1.22-.224 1.66-.673.44-.448.66-1.035.66-1.762 0-.711-.22-1.287-.66-1.728-.44-.44-.995-.661-1.668-.661zm6.231-1.683h2.126v.939a3.608 3.608 0 0 1 1.206-.864 3.62 3.62 0 0 1 1.447-.286 2.76 2.76 0 0 1 1.428.376c.424.25.765.616 1.024 1.097a3.39 3.39 0 0 1 1.237-1.097 3.461 3.461 0 0 1 1.602-.376c.6 0 1.128.136 1.583.406.455.27.782.624.981 1.06.2.435.299 1.144.299 2.126v4.794h-2.133V7.64c0-.926-.12-1.554-.357-1.882-.238-.328-.595-.492-1.07-.492-.363 0-.688.1-.975.3-.287.2-.5.478-.64.83-.14.354-.21.921-.21 1.703v3.69h-2.133v-3.96c0-.732-.055-1.262-.166-1.59-.112-.328-.278-.572-.5-.733a1.343 1.343 0 0 0-.808-.24c-.351 0-.67.101-.958.304a1.82 1.82 0 0 0-.644.853c-.142.366-.213.942-.213 1.728v3.637h-2.126V3.613zM121.573.246c.372 0 .692.13.958.391.266.26.4.576.4.947 0 .366-.132.677-.396.935s-.58.387-.947.387c-.377 0-.7-.131-.966-.394a1.296 1.296 0 0 1-.4-.958c0-.36.133-.669.397-.924.263-.256.581-.384.954-.384zm-1.063 3.367h2.126v8.175h-2.126V3.613zm3.81 0h2.11v.834c.482-.39.917-.663 1.308-.815.39-.153.79-.23 1.198-.23.838 0 1.55.283 2.134.85.491.48.737 1.192.737 2.133v5.403h-2.095V8.204c0-.977-.045-1.626-.136-1.946-.09-.32-.248-.565-.473-.733-.225-.168-.503-.252-.834-.252-.43 0-.798.14-1.105.417-.308.278-.521.663-.64 1.154-.062.255-.093.809-.093 1.66v3.284h-2.11V3.613zM134.454.246c.372 0 .691.13.958.391.266.26.4.576.4.947 0 .366-.133.677-.396.935-.264.258-.58.387-.947.387-.377 0-.7-.131-.966-.394a1.296 1.296 0 0 1-.4-.958c0-.36.133-.669.396-.924.264-.256.582-.384.955-.384zm-1.063 3.367h2.126v8.175h-2.126V3.613zm8.977 1.142l-1.311 1.27c-.533-.511-1.016-.767-1.45-.767-.239 0-.425.05-.56.147-.134.098-.201.219-.201.364 0 .11.043.212.128.305.085.092.296.219.632.38l.776.375c.817.39 1.378.789 1.684 1.195.305.405.457.881.457 1.427 0 .727-.275 1.333-.826 1.819-.55.486-1.29.728-2.215.728-1.23 0-2.214-.465-2.948-1.397l1.303-1.375c.249.28.54.507.873.68.334.173.63.259.888.259.28 0 .505-.065.675-.195.171-.13.256-.28.256-.451 0-.316-.307-.624-.923-.924l-.713-.346c-1.366-.666-2.049-1.5-2.049-2.502 0-.646.258-1.199.772-1.657.515-.458 1.173-.688 1.975-.688a3.52 3.52 0 0 1 1.547.35 3.4 3.4 0 0 1 1.23 1.003zM144.422.6h2.11v3.013h1.257v1.766h-1.257v6.41h-2.11v-6.41h-1.086V3.613h1.086V.6zm4.603 3.013h1.815v1.03c.197-.407.458-.715.784-.925.326-.21.682-.316 1.07-.316.274 0 .561.07.861.21l-.659 1.767c-.248-.12-.453-.18-.613-.18-.326 0-.601.195-.826.585-.225.391-.338 1.157-.338 2.3l.008.398v3.306h-2.102V3.613zm10.863 0h2.11v8.175h-2.11v-.864c-.414.38-.829.655-1.245.823a3.588 3.588 0 0 1-1.354.251c-1.091 0-2.035-.409-2.832-1.228-.796-.82-1.194-1.837-1.194-3.055 0-1.262.385-2.296 1.156-3.103.77-.806 1.706-1.21 2.808-1.21.507 0 .983.093 1.428.278a3.9 3.9 0 0 1 1.233.834v-.901zm-2.226 1.683c-.657 0-1.203.224-1.637.672-.435.449-.652 1.024-.652 1.725 0 .706.221 1.287.663 1.743.442.456.987.684 1.633.684.668 0 1.22-.224 1.66-.673.44-.448.66-1.035.66-1.762 0-.711-.22-1.287-.66-1.728-.44-.44-.995-.661-1.667-.661zM164.267.6h2.11v3.013h1.257v1.766h-1.257v6.41h-2.11v-6.41h-1.086V3.613h1.086V.6zm5.93-.354c.372 0 .691.13.958.391.266.26.4.576.4.947 0 .366-.133.677-.396.935-.264.258-.58.387-.947.387-.377 0-.7-.131-.966-.394a1.296 1.296 0 0 1-.4-.958c0-.36.133-.669.396-.924.264-.256.582-.384.955-.384zm-1.063 3.367h2.126v8.175h-2.126V3.613zm7.775-.21c.796 0 1.545.192 2.246.578.7.386 1.247.91 1.64 1.57.394.662.59 1.375.59 2.142a4.19 4.19 0 0 1-.593 2.164 4.217 4.217 0 0 1-1.618 1.574 4.58 4.58 0 0 1-2.258.567c-1.21 0-2.243-.417-3.099-1.25-.856-.835-1.284-1.848-1.284-3.04 0-1.277.484-2.342 1.45-3.194.85-.741 1.824-1.112 2.926-1.112zm.03 1.93c-.656 0-1.203.222-1.64.665-.437.444-.656 1.011-.656 1.702 0 .712.216 1.288.648 1.729.432.44.979.66 1.64.66.663 0 1.214-.222 1.653-.668.44-.446.66-1.02.66-1.72 0-.702-.216-1.272-.648-1.71-.432-.438-.984-.658-1.656-.658zm5.533-1.72h2.11v.834c.481-.39.917-.663 1.307-.815.39-.153.79-.23 1.199-.23.838 0 1.549.283 2.133.85.492.48.737 1.192.737 2.133v5.403h-2.094V8.204c0-.977-.046-1.626-.136-1.946-.09-.32-.248-.565-.473-.733-.225-.168-.503-.252-.834-.252-.43 0-.798.14-1.106.417-.308.278-.52.663-.64 1.154-.062.255-.093.809-.093 1.66v3.284h-2.11V3.613z" fill="#5B7183" fill-rule="evenodd"/></svg>