<svg width="190" height="63" viewBox="0 0 190 63" xmlns="http://www.w3.org/2000/svg"><title>design</title><path d="M49.618 27.846c-1.742-2.042-3.726-3.085-5.9-3.085-1.856 0-3.446.73-4.723 2.153-1.274 1.433-1.92 3.223-1.92 5.316 0 1.456.283 2.775.85 3.903a6.523 6.523 0 0 0 2.407 2.683c1.026.64 2.191.97 3.453.97 1.074 0 2.07-.23 2.96-.676.87-.447 1.839-1.264 2.87-2.405.105.121 2.266 2.66 2.382 2.781-1.39 1.513-2.722 2.577-3.96 3.166-1.257.6-2.711.91-4.314.91-2.965 0-5.427-1.079-7.312-3.187-1.891-2.113-2.844-4.85-2.844-8.156 0-2.138.432-4.06 1.29-5.72a10.444 10.444 0 0 1 3.712-4.026c1.608-1.007 3.36-1.515 5.206-1.515 1.572 0 3.11.376 4.566 1.123 1.435.736 2.68 1.795 3.728 3.143l-2.451 2.622zm7.605 10.842c-.747-.842-1.132-1.939-1.132-3.282 0-1.305.39-2.392 1.146-3.231.764-.845 1.729-1.271 2.873-1.271 1.165 0 2.145.422 2.896 1.254.753.83 1.13 1.922 1.13 3.248 0 1.32-.385 2.419-1.156 3.268-.76.847-1.731 1.272-2.885 1.272-1.152 0-2.117-.425-2.872-1.258 0 0 .755.833 0 0zm-1.975-9.309c-1.575 1.617-2.374 3.65-2.374 6.058 0 2.245.706 4.182 2.101 5.753 1.396 1.565 3.1 2.372 5.068 2.372a6.71 6.71 0 0 0 3.698-1.082c1.113-.71 2.004-1.712 2.648-2.973a9.01 9.01 0 0 0 .965-4.097c0-1.443-.318-2.81-.96-4.058-.64-1.248-1.54-2.25-2.685-2.975-1.143-.727-2.379-1.09-3.676-1.09-1.796 0-3.407.707-4.785 2.092zm13.715-7.517v21.7h3.218v-21.7h-3.218zm9.983 16.826c-.754-.842-1.134-1.939-1.134-3.282 0-1.305.385-2.392 1.146-3.231.763-.845 1.727-1.271 2.869-1.271 1.171 0 2.143.422 2.896 1.254.75.83 1.133 1.922 1.133 3.248 0 1.32-.386 2.419-1.153 3.268-.764.847-1.738 1.272-2.889 1.272-1.152 0-2.117-.425-2.868-1.258 0 0 .75.833 0 0zm-1.978-9.309c-1.578 1.617-2.374 3.65-2.374 6.058 0 2.245.707 4.182 2.1 5.753 1.396 1.565 3.098 2.372 5.07 2.372 1.34 0 2.581-.364 3.695-1.082 1.108-.71 2-1.712 2.644-2.973a8.986 8.986 0 0 0 .971-4.097 8.801 8.801 0 0 0-.964-4.058c-.642-1.248-1.543-2.25-2.683-2.975-1.144-.727-2.38-1.09-3.675-1.09-1.792 0-3.404.707-4.784 2.092zm20.063-1.646c-.623.287-1.332.825-2.11 1.585l-.131.133v-1.753h-3.302v15.864h3.302v-6.348c0-1.696.05-2.764.154-3.283.197-.974.556-1.752 1.065-2.306.516-.556 1.142-.838 1.861-.838.554 0 1.028.17 1.41.507.374.347.647.847.8 1.49.15.647.223 1.897.223 3.845v6.933h3.251V33.045c0-1.813-.394-3.207-1.174-4.12-.935-1.095-2.082-1.638-3.419-1.638a4.49 4.49 0 0 0-1.93.446zm9.741-.446v16.275h3.218V27.287h-3.218zm9.654 8.107c0-1.305.378-2.394 1.134-3.231.753-.844 1.715-1.26 2.856-1.26 1.165 0 2.145.404 2.908 1.24.765.823 1.146 1.91 1.146 3.236 0 1.356-.38 2.466-1.146 3.304-.763.84-1.735 1.263-2.893 1.263-1.127 0-2.087-.436-2.854-1.286-.765-.85-1.151-1.951-1.151-3.266 0 0 0 1.315 0 0zm-1.305-5.83c-1.271 1.525-1.913 3.501-1.913 5.893 0 2.287.664 4.231 1.969 5.773 1.321 1.545 2.893 2.332 4.689 2.332.794 0 1.548-.156 2.233-.48.682-.31 1.373-.837 2.062-1.552l.137-.154v1.786h3.39V27.687h-3.39v1.863l-.14-.17c-.625-.69-1.312-1.22-2.044-1.573a5.417 5.417 0 0 0-2.353-.52c-1.815 0-3.375.769-4.64 2.277zm15.785-7.702v21.7h3.218v-21.7h-3.218zm12.067-.904v22.604h8.849v-3.849h-5.346V20.958h-3.503zm20.868.754c-.55.5-.882 1.193-.976 2.055-.048.38-.084 1.637-.089 3.738v.1h-1.3v3.232h1.3v12.725h3.482V30.837h2.303v-3.232h-2.303l.01-2.12c0-.498.078-.822.236-.988.223-.22.556-.331 1-.331.317 0 .73.09 1.211.235v-2.89c-.912-.363-1.753-.553-2.48-.553-1.028 0-1.836.253-2.394.754zM176.823 30c.939 0 1.779.243 2.49.722.713.483 1.193 1.122 1.436 1.883l.033.107h-8.044l.057-.116c.408-.843.861-1.443 1.338-1.79.772-.53 1.68-.806 2.69-.806 0 0-1.01 0 0 0zm-5.264-.378c-1.352 1.549-2.039 3.532-2.039 5.887 0 2.29.687 4.23 2.044 5.755 1.351 1.523 3.13 2.298 5.294 2.298 1.389 0 2.603-.282 3.612-.834.986-.54 1.834-1.38 2.546-2.494-.182-.09-2.715-1.424-2.806-1.473-.944 1.015-2.077 1.531-3.38 1.531-1.113 0-2.044-.334-2.758-1.01-.712-.669-1.166-1.588-1.327-2.718l-.018-.108h11.257c.009-.143.016-.659.016-.659 0-2.544-.685-4.626-2.044-6.175-1.349-1.55-3.128-2.335-5.3-2.335-2.03 0-3.75.784-5.097 2.335zm-16.52-2.335v16.275h3.219V27.287h-3.218zm31.827 13.438h.259c.3 0 .543-.114.543-.395 0-.248-.156-.411-.501-.411a1.14 1.14 0 0 0-.301.031v.775zm-.012 1.518h-.547v-2.705c.214-.031.515-.082.902-.082.444 0 .646.082.804.214.143.116.242.313.242.577 0 .33-.213.544-.486.644v.032c.229.083.342.298.416.66.07.413.128.56.17.66h-.572c-.071-.1-.115-.33-.187-.66-.04-.28-.185-.414-.486-.414h-.256v1.074zm-1.449-1.402c0 1.205.788 2.16 1.833 2.16 1.017.017 1.79-.955 1.79-2.144 0-1.203-.773-2.175-1.819-2.175-1.016 0-1.804.972-1.804 2.16 0 0 0-1.188 0 0zm4.226 0c0 1.517-1.06 2.721-2.407 2.721-1.346 0-2.42-1.204-2.42-2.72 0-1.517 1.074-2.705 2.434-2.705 1.334 0 2.393 1.188 2.393 2.704zm-83.663-23.047c0 1.745 1.262 3.164 2.814 3.164 1.556 0 2.817-1.42 2.817-3.164 0-1.752-1.261-3.166-2.817-3.166-1.552 0-2.814 1.414-2.814 3.166zm13.677-.453c1.328 0 2.412-1.829 2.412-4.067 0-2.244-1.084-4.07-2.412-4.07-1.332 0-2.415 1.826-2.415 4.07 0 2.238 1.083 4.067 2.415 4.067zm25.741-12.653c0 2.488.902 4.515 2.012 4.515 1.107 0 2.01-2.027 2.01-4.515 0-2.496-.861-4.527-1.968-4.527-1.112 0-2.054 2.031-2.054 4.527zm-17.698 2.25c0 2.744.898 4.978 2.009 4.978 1.111 0 2.013-2.234 2.013-4.978 0-2.74-.902-4.968-2.013-4.968-1.11 0-2.009 2.228-2.009 4.968zm26.547 9.5c0 1.99 1.088 3.615 2.417 3.615 1.33 0 2.41-1.625 2.41-3.616 0-1.999-1.08-3.617-2.41-3.617-1.329 0-2.417 1.618-2.417 3.617zm-17.698-6.33c0 3.428.928 6.329 2.012 6.329 1.094 0 2.01-2.9 2.01-6.329 0-3.434-.916-6.33-2.01-6.33-1.084 0-2.012 2.896-2.012 6.33zM0 29.336v-8.292h29.338v22.603H0v-3.856h2.105v-4.65c0-1.007.08-1.743.237-2.21.158-.469.396-.832.715-1.092.319-.26.673-.389 1.064-.389.35 0 .648.103.895.308.247.205.432.517.556.937.123.42.185 1.097.185 2.032v5.064h2.368v-4.718c0-1 .078-1.725.233-2.177.155-.451.392-.805.71-1.061a1.68 1.68 0 0 1 1.081-.385c.528 0 .925.21 1.189.63.264.42.396 1.222.396 2.407v5.304h2.368v-6.13c0-1.256-.11-2.163-.331-2.72a2.913 2.913 0 0 0-1.09-1.355c-.505-.346-1.09-.519-1.757-.519-.643 0-1.236.16-1.778.48-.543.32-1 .789-1.374 1.404-.287-.615-.666-1.083-1.137-1.403-.47-.32-.999-.48-1.584-.48-.58 0-1.116.12-1.606.364-.491.244-.938.612-1.34 1.105v-1.2H0zm15.3 0h2.402L20.14 35.9l2.687-6.563h2.412l-5.874 14.28h-2.428l1.929-4.603-3.566-9.677zm86.8 20.042l-.123.955c-.324-.348-.629-.521-.914-.521-.181 0-.337.099-.467.296-.13.198-.23.598-.304 1.2l-.11.84h1.451l-.097.889h-1.452l-.88 6.978h-.889l.888-6.978h-.888l.097-.89h.895l.084-.694c.104-.814.214-1.359.33-1.634.117-.275.29-.495.519-.661.229-.167.482-.25.758-.25.363 0 .73.157 1.102.47zm4.258 2.567c.6 0 1.15.16 1.652.48.501.321.892.767 1.173 1.339.28.57.421 1.218.421 1.941 0 .824-.179 1.59-.538 2.296-.358.706-.84 1.252-1.445 1.638-.605.385-1.29.578-2.054.578-.946 0-1.725-.346-2.336-1.037-.612-.692-.917-1.573-.917-2.643 0-.84.179-1.613.538-2.321.358-.71.85-1.265 1.474-1.667a3.677 3.677 0 0 1 2.032-.604zm-.02.962a2.91 2.91 0 0 0-1.584.47 3.09 3.09 0 0 0-1.14 1.29 4.091 4.091 0 0 0-.4 1.812c0 .829.23 1.503.687 2.02.458.52 1.05.778 1.776.778a2.75 2.75 0 0 0 1.54-.452c.46-.301.826-.736 1.098-1.305a4.184 4.184 0 0 0 .408-1.83c0-.544-.102-1.027-.305-1.45a2.32 2.32 0 0 0-.862-.983 2.243 2.243 0 0 0-1.218-.35zm5.165-.76h.9l-.116.991c.242-.376.534-.669.875-.878.341-.21.691-.315 1.05-.315.255 0 .52.068.797.203l-.428.925c-.224-.101-.412-.152-.563-.152-.316 0-.628.123-.937.369-.309.246-.56.604-.752 1.074-.192.47-.355 1.242-.489 2.317l-.415 3.334h-.881l.96-7.867zm14.36 4.137h-6.285c-.013.935.205 1.67.654 2.205.45.535 1.048.803 1.795.803a2.88 2.88 0 0 0 1.38-.34 2.907 2.907 0 0 0 1.05-.955l.675.615a3.744 3.744 0 0 1-1.339 1.168 3.758 3.758 0 0 1-1.785.437c-1.106 0-1.937-.382-2.492-1.146a4.279 4.279 0 0 1-.833-2.578c0-.78.187-1.533.561-2.256.374-.723.874-1.286 1.5-1.688a3.693 3.693 0 0 1 2.035-.604c.903 0 1.65.341 2.242 1.023.592.682.888 1.551.888 2.607 0 .193-.015.429-.045.709zm-.829-.875c-.026-.743-.252-1.344-.68-1.804-.428-.46-.966-.691-1.614-.691-.704 0-1.325.222-1.863.665-.538.444-.919 1.054-1.144 1.83h5.301zm3.137-3.261h.888l-.143 1.113c.272-.41.62-.731 1.044-.965a2.61 2.61 0 0 1 1.276-.35c.532 0 1.003.175 1.413.527.315.275.55.684.706 1.23.32-.56.714-.993 1.183-1.299.469-.306.945-.459 1.429-.459.652 0 1.188.234 1.607.701.42.468.629 1.073.629 1.815 0 .338-.028.75-.084 1.237l-.525 4.317h-.882l.473-3.775c.1-.79.15-1.369.15-1.735 0-.458-.136-.837-.406-1.135-.27-.3-.625-.449-1.066-.449-.466 0-.9.163-1.302.488a2.72 2.72 0 0 0-.856 1.154c-.168.443-.296 1.002-.382 1.677l-.48 3.775h-.9l.531-4.317c.06-.458.09-.834.09-1.128 0-.506-.133-.911-.401-1.215-.268-.304-.618-.455-1.05-.455-.363 0-.71.095-1.043.285-.333.19-.605.44-.817.749-.212.308-.372.69-.483 1.146-.11.455-.189.866-.236 1.233l-.467 3.702h-.9l1.004-7.867zm12.533 0h.92l-.136 1.178c.817-.92 1.75-1.38 2.8-1.38.963 0 1.753.344 2.369 1.033.615.69.923 1.576.923 2.661 0 1.253-.4 2.33-1.199 3.229-.8.899-1.741 1.348-2.825 1.348-.588 0-1.104-.138-1.55-.416-.444-.277-.822-.707-1.133-1.29l-.512 4.382h-.94l1.283-10.745zm3.487.723c-.58 0-1.11.153-1.591.459-.482.306-.863.746-1.144 1.32a4.202 4.202 0 0 0-.421 1.872c0 .815.232 1.478.696 1.989.465.51 1.064.766 1.799.766.868 0 1.611-.35 2.229-1.048.618-.7.927-1.557.927-2.575 0-.833-.23-1.506-.69-2.017-.46-.51-1.062-.766-1.805-.766zm5.703-3.76h.887l-1.36 10.904h-.895l1.368-10.904zm5.605 2.834c.6 0 1.152.16 1.653.48.5.321.892.767 1.173 1.339.28.57.42 1.218.42 1.941 0 .824-.178 1.59-.537 2.296-.359.706-.84 1.252-1.445 1.638-.605.385-1.29.578-2.054.578-.947 0-1.725-.346-2.337-1.037-.611-.692-.917-1.573-.917-2.643 0-.84.18-1.613.538-2.321.359-.71.85-1.265 1.475-1.667a3.677 3.677 0 0 1 2.031-.604zm-.02.962a2.91 2.91 0 0 0-1.584.47 3.09 3.09 0 0 0-1.14 1.29 4.091 4.091 0 0 0-.399 1.812c0 .829.23 1.503.687 2.02.458.52 1.05.778 1.776.778a2.75 2.75 0 0 0 1.539-.452c.46-.301.826-.736 1.098-1.305a4.184 4.184 0 0 0 .409-1.83c0-.544-.102-1.027-.305-1.45a2.32 2.32 0 0 0-.862-.983 2.243 2.243 0 0 0-1.218-.35zm4.608-.76h.934l1.827 5.807 3.02-5.806h1.004l-5.586 10.745h-1.017l1.996-3.84-2.178-6.905zm14.368 4.137h-6.286c-.013.935.205 1.67.654 2.205.45.535 1.048.803 1.795.803a2.88 2.88 0 0 0 1.38-.34 2.907 2.907 0 0 0 1.05-.955l.674.615a3.744 3.744 0 0 1-1.338 1.168 3.758 3.758 0 0 1-1.785.437c-1.106 0-1.937-.382-2.492-1.146a4.279 4.279 0 0 1-.833-2.578c0-.78.187-1.533.56-2.256.375-.723.875-1.286 1.501-1.688a3.693 3.693 0 0 1 2.035-.604c.903 0 1.65.341 2.242 1.023.592.682.888 1.551.888 2.607 0 .193-.015.429-.045.709zm-.83-.875c-.026-.743-.253-1.344-.68-1.804-.428-.46-.966-.691-1.614-.691-.704 0-1.325.222-1.863.665-.538.444-.92 1.054-1.144 1.83h5.301zm9.455.875h-6.286c-.013.935.205 1.67.655 2.205.449.535 1.047.803 1.795.803a2.88 2.88 0 0 0 1.38-.34 2.907 2.907 0 0 0 1.05-.955l.674.615a3.744 3.744 0 0 1-1.338 1.168 3.758 3.758 0 0 1-1.786.437c-1.106 0-1.936-.382-2.491-1.146a4.279 4.279 0 0 1-.833-2.578c0-.78.187-1.533.56-2.256.374-.723.874-1.286 1.5-1.688a3.693 3.693 0 0 1 2.035-.604c.903 0 1.65.341 2.243 1.023.592.682.888 1.551.888 2.607 0 .193-.016.429-.046.709zm-.83-.875c-.025-.743-.252-1.344-.68-1.804-.427-.46-.965-.691-1.613-.691-.705 0-1.326.222-1.864.665-.537.444-.919 1.054-1.143 1.83h5.3zm6.397-2.38l-.493.818c-.397-.632-.868-.947-1.412-.947a1.07 1.07 0 0 0-.797.34c-.22.226-.33.477-.33.751 0 .212.066.415.2.608.13.193.426.455.888.788.674.487 1.119.911 1.335 1.273.211.366.317.788.317 1.265 0 .66-.206 1.208-.619 1.641-.412.434-.949.651-1.61.651-.873 0-1.607-.431-2.203-1.294l.55-.716c.523.709 1.091 1.063 1.705 1.063.35 0 .654-.137.914-.412a1.35 1.35 0 0 0 .388-.955 1.43 1.43 0 0 0-.291-.846c-.125-.173-.462-.467-1.011-.882-.592-.453-.98-.829-1.167-1.128a1.829 1.829 0 0 1-.278-.998c0-.583.196-1.08.59-1.49.393-.41.89-.614 1.49-.614.354 0 .675.08.962.239.288.159.578.44.872.846z" fill="#FFF" fill-rule="evenodd"/></svg>