<svg width="90" height="90" viewBox="0 0 90 90" xmlns="http://www.w3.org/2000/svg" xmlns:xlink="http://www.w3.org/1999/xlink"><defs><path d="M89.796 44.867C89.776 21.048 71.313 1.523 47.894 0h-5.898C18.566 1.523.095 21.069.095 44.904c0 23.77 18.258 43.272 41.586 44.892h6.291c23.335-1.619 41.805-21.102 41.824-44.855v-.074zM74.05 67.464c-.119.716-.477 1.671-2.028 3.104-1.55 1.67-3.578 3.103-3.578 3.103-6.322 5.013-14.314 8.117-23.022 8.117h-1.073c-8.708 0-16.7-3.104-23.022-8.117 0 0-2.028-1.432-3.578-3.103-1.551-1.433-1.909-2.507-2.028-3.104v-.717c0-.118.12-.118.12-.118.238-.359.595-.717.834-.836l15.745-7.52c.358-.12.955-.477 1.551-.955 2.386-2.148 1.909-7.4 1.909-7.4 0-1.433-.358-2.268-.716-2.746-.358-.477-2.505-1.79-2.505-1.79-1.312-1.074-1.79-4.417-1.79-4.417-.119-.835-.119-1.551-.119-1.551 0-.478.12-.836.358-1.075l.597-.716c.238-.238.358-.955.358-.955s.119-2.984.119-3.342c.12-6.923 5.725-12.533 12.763-12.652 6.919.119 12.644 5.73 12.763 12.652 0 .358.12 3.342.12 3.342s.12.717.358.955l.596.716c.239.24.358.597.358 1.075 0 0 0 .716-.12 1.551 0 0-.477 3.343-1.789 4.417 0 0-2.147 1.313-2.505 1.79-.357.478-.715 1.313-.715 2.746 0 0-.477 5.252 1.908 7.4.597.478 1.193.836 1.55.955 0 0 15.746 7.4 15.746 7.52.358.239.716.477.835.836 0 0 0 .119.12.119v.239c-.12.119-.12.358-.12.477z" id="a"/></defs><use fill="#8394A1" xlink:href="#a" fill-rule="evenodd"/></svg>