<?xml version="1.0" encoding="UTF-8"?>
<svg width="100px" height="80px" viewBox="0 0 100 80" version="1.1" xmlns="http://www.w3.org/2000/svg" xmlns:xlink="http://www.w3.org/1999/xlink">
    <defs>
        <polygon id="path-1" points="0.100041213 57.3918163 56.6711805 57.3918163 56.6711805 0.742867236 0.100041213 0.742867236"></polygon>
    </defs>
    <g id="Pages" stroke="none" stroke-width="1" fill="none" fill-rule="evenodd">
        <g id="Voice-and-Tone" transform="translate(-561.000000, -170.000000)">
            <g id="Hero-Banner" transform="translate(-28.000000, -53.000000)">
                <g id="Group-7" transform="translate(254.000000, 223.000000)">
                    <g id="tone-and-voice-icon" transform="translate(335.000000, 0.000000)">
                        <g id="Group-3" transform="translate(0.000000, 0.254154)" fill="#8394A1">
                            <path d="M4.01728584,75.4414366 L10.1987401,61.588272 C4.50524581,61.1737886 0.000565204592,56.4053459 0.000565204592,50.6025787 L0.000565204592,11.6298381 C0.000565204592,5.55765676 4.94045334,0.617768619 11.0107507,0.617768619 L49.9872593,0.617768619 C56.0594407,0.617768619 60.9993288,5.55765676 60.9993288,11.6298381 L60.9993288,50.6025787 C60.9993288,56.6785281 56.0594407,61.6203003 49.9872593,61.6203003 L40.2695084,61.6203003 L4.01728584,75.4414366 Z M11.0107507,5.85721519 C7.82864881,5.85721519 5.24189579,8.44585222 5.24189579,11.6298381 L5.24189579,50.6025787 C5.24189579,53.7903326 7.82864881,56.3789697 11.0107507,56.3789697 L18.2623256,56.3789697 L13.9479305,66.0477362 L39.3048926,56.3789697 L49.9872593,56.3789697 C53.1674772,56.3789697 55.7579982,53.7903326 55.7579982,50.6025787 L55.7579982,11.6298381 C55.7579982,8.44585222 53.1674772,5.85721519 49.9872593,5.85721519 L11.0107507,5.85721519 Z" id="Fill-1"></path>
                        </g>
                        <g id="Group-6" transform="translate(43.332352, 21.990980)">
                            <mask id="mask-2" fill="white">
                                <use xlink:href="#path-1"></use>
                            </mask>
                            <g id="Clip-5"></g>
                            <path d="M56.6713689,26.7893789 C56.6713689,12.404922 42.3377804,0.742867236 24.6638328,0.742867236 C23.5202355,0.742867236 22.3917103,0.793735649 21.2801413,0.88982043 L21.2801413,28.8674477 C21.2801413,36.9329173 14.716232,43.4949426 6.65453047,43.4949426 L0.100041213,43.4949426 C5.97063291,49.209161 14.7915926,52.8453106 24.6638328,52.8453106 C27.2298616,52.8453106 29.7280659,52.5985046 32.1207654,52.1256167 C35.5063409,52.9545835 47.1269473,57.9189638 47.9182337,57.3462231 C48.7264763,56.7602944 43.4418134,47.8960024 43.8148484,47.6680365 C51.6203238,42.9184339 56.6713689,35.3352723 56.6713689,26.7893789" id="Fill-4" fill="#85929D" mask="url(#mask-2)"></path>
                        </g>
                        <path d="M48.0874183,31.6908331 C48.0874183,34.1494731 46.0960141,36.1389932 43.6392582,36.1389932 C41.1825022,36.1389932 39.191098,34.1494731 39.191098,31.6908331 C39.191098,29.2321931 41.1825022,27.2426729 43.6392582,27.2426729 C46.0960141,27.2426729 48.0874183,29.2321931 48.0874183,31.6908331" id="Fill-7" fill="#8394A1"></path>
                        <path d="M34.9471651,31.6908331 C34.9471651,34.1494731 32.955761,36.1389932 30.497121,36.1389932 C28.042249,36.1389932 26.0489608,34.1494731 26.0489608,31.6908331 C26.0489608,29.2321931 28.042249,27.2426729 30.497121,27.2426729 C32.955761,27.2426729 34.9471651,29.2321931 34.9471651,31.6908331" id="Fill-9" fill="#8394A1"></path>
                        <path d="M21.807854,31.6908331 C21.807854,34.1494731 19.8164498,36.1389932 17.3596938,36.1389932 C14.9010539,36.1389932 12.9115337,34.1494731 12.9115337,31.6908331 C12.9115337,29.2321931 14.9010539,27.2426729 17.3596938,27.2426729 C19.8164498,27.2426729 21.807854,29.2321931 21.807854,31.6908331" id="Fill-11" fill="#8394A1"></path>
                    </g>
                </g>
            </g>
        </g>
    </g>
</svg>