<svg width="100" height="80" viewBox="0 0 100 80" xmlns="http://www.w3.org/2000/svg" xmlns:xlink="http://www.w3.org/1999/xlink"><defs><path id="a" d="M.1 57.392h56.571V.742H.1z"/></defs><g fill="none" fill-rule="evenodd"><path d="M4.017 75.696L10.2 61.842C4.505 61.428 0 56.66 0 50.857V11.884C0 5.812 4.94.872 11.01.872h38.976C56.06.872 61 5.812 61 11.884v38.973c0 6.076-4.94 11.017-11.012 11.017H40.27L4.017 75.696zM11.011 6.11a5.776 5.776 0 0 0-5.77 5.773v38.973a5.777 5.777 0 0 0 5.77 5.776h7.251l-4.314 9.669 25.357-9.669h10.682a5.78 5.78 0 0 0 5.771-5.776V11.884a5.779 5.779 0 0 0-5.77-5.773H11.01z" fill="#8394A1"/><g transform="translate(43.332 21.991)"><mask id="b" fill="#fff"><use xlink:href="#a"/></mask><path d="M56.671 26.79C56.671 12.404 42.338.742 24.664.742c-1.144 0-2.272.05-3.384.147v27.977c0 8.066-6.564 14.628-14.625 14.628H.1c5.87 5.714 14.692 9.35 24.564 9.35 2.566 0 5.064-.246 7.457-.72 3.385.83 15.006 5.794 15.797 5.221.808-.586-4.476-9.45-4.103-9.678 7.805-4.75 12.856-12.333 12.856-20.879" fill="#85929D" mask="url(#b)"/></g><path d="M48.087 31.69a4.447 4.447 0 0 1-4.448 4.449 4.447 4.447 0 0 1-4.448-4.448 4.447 4.447 0 0 1 4.448-4.448 4.447 4.447 0 0 1 4.448 4.448m-13.14-.001a4.447 4.447 0 0 1-4.45 4.449 4.448 4.448 0 1 1 0-8.896c2.459 0 4.45 1.99 4.45 4.448m-13.139-.001a4.447 4.447 0 0 1-4.448 4.449 4.446 4.446 0 0 1-4.448-4.448 4.446 4.446 0 0 1 4.448-4.448 4.447 4.447 0 0 1 4.448 4.448" fill="#8394A1"/></g></svg>