<?xml version="1.0" encoding="UTF-8"?>
<svg width="75px" height="80px" viewBox="0 0 75 80" version="1.1" xmlns="http://www.w3.org/2000/svg" xmlns:xlink="http://www.w3.org/1999/xlink">
    <defs></defs>
    <g id="Pages" stroke="none" stroke-width="1" fill="none" fill-rule="evenodd">
        <g id="Print" transform="translate(-746.000000, -7244.000000)" fill="#8394A1">
            <g id="Iconography" transform="translate(379.000000, 6893.000000)">
                <g id="Group-4" transform="translate(0.000000, 167.000000)">
                    <path d="M439.050262,234.141105 L427.526134,234.141105 C424.132958,234.141105 421.380402,236.891901 421.380402,240.286837 L421.380402,240.622987 L421.380402,241.017214 C421.380402,244.412151 424.132958,247.164707 427.526134,247.164707 L439.050262,247.164707 C440.40366,247.164707 441.500107,246.0665 441.500107,244.711342 L441.500107,236.59095 C441.500107,235.237551 440.40366,234.141105 439.050262,234.141105 M427.864044,244.452629 C425.764428,244.452629 424.06432,242.750761 424.06432,240.651146 C424.06432,238.55505 425.764428,236.851422 427.864044,236.851422 C429.96366,236.851422 431.663768,238.55505 431.663768,240.651146 C431.663768,242.750761 429.96366,244.452629 427.864044,244.452629 Z M427.751583,250.2513 L437.756877,250.2513 L437.756877,258.76768 C437.756877,261.657512 435.412629,264 432.524557,264 L372.23408,264 C369.342488,264 367,261.657512 367,258.76768 L367,230.018959 L367,222.627185 L367,217.620138 C367,212.863003 370.857802,209.006961 375.616697,209.006961 L383.011991,209.006961 L379.449859,212.359658 L374.824721,212.359658 C373.411484,212.359658 372.253439,213.515943 372.253439,214.92918 C372.253439,216.094264 373.038375,217.083354 374.103143,217.394864 L392.821931,217.394864 L432.524557,217.394864 C435.412629,217.394864 437.756877,219.739113 437.756877,222.627185 L437.756877,231.025648 L427.751583,231.025648 C422.441825,231.025648 418.138757,235.328716 418.138757,240.638474 C418.138757,245.946472 422.441825,250.2513 427.751583,250.2513 Z M415.780781,210.955925 C416.220768,210.978805 416.585076,211.1372 416.870188,211.424071 C417.201058,211.754941 417.373532,212.157969 417.382332,212.636674 C417.394652,213.117139 417.194018,213.627524 416.78395,214.171347 L414.094753,211.482149 C414.781132,211.109041 415.340794,210.933046 415.780781,210.955925 Z M407.858383,209.383413 C407.863663,208.941667 408.074857,208.427763 408.493724,207.839941 L410.845012,210.191229 C410.093515,210.622415 409.537372,210.837129 409.176583,210.831849 C408.814034,210.830089 408.507803,210.703373 408.263171,210.456981 C407.986859,210.182429 407.853103,209.82516 407.858383,209.383413 Z M412.394117,199.836057 C418.81088,199.836057 424.011521,204.936381 424.011521,211.231709 C424.011521,212.416153 423.826727,213.563638 423.481778,214.638965 L419.220948,214.638965 C419.48846,214.13386 419.662694,213.588277 419.745412,212.998695 C419.829889,212.393273 419.761251,211.787852 419.544778,211.17891 C419.330065,210.568209 418.986875,210.031426 418.518729,209.56328 C417.920348,208.961378 417.232209,208.58123 416.457832,208.419315 C415.681696,208.26092 414.858041,208.301398 413.983348,208.549551 C413.443044,208.699146 412.800664,208.994817 412.050927,209.436564 L409.565883,206.95504 C410.287461,206.62241 411.040718,206.432336 411.832694,206.383057 L412.255081,204.028249 C411.31527,203.99481 410.518014,204.075768 409.861554,204.262322 C409.206854,204.448876 408.534555,204.774466 407.851695,205.237332 L407.434588,204.821985 L406.454298,205.800515 L406.873165,206.219382 C406.478937,206.742086 406.209666,207.159193 406.06535,207.463664 C405.813678,207.981088 405.658802,208.531951 405.600724,209.119773 C405.544406,209.705835 405.613044,210.272538 405.813678,210.819881 C406.010792,211.367225 406.292383,211.823051 406.654932,212.18384 C407.077319,212.606227 407.608823,212.935337 408.242403,213.16413 C408.877744,213.394683 409.585242,213.438681 410.363139,213.304925 C411.137515,213.16589 411.980529,212.812141 412.892181,212.238398 L415.292748,214.638965 L401.306455,214.638965 C400.961506,213.563638 400.774952,212.416153 400.774952,211.231709 C400.774952,204.936381 405.977353,199.836057 412.394117,199.836057 Z M439.848573,208.285031 C441.511723,210.124175 441.369167,212.961208 439.531783,214.624357 L437.528964,216.435342 C436.520515,215.326576 435.072079,214.624357 433.452929,214.624357 L430.431101,214.624357 C430.207588,213.571909 430.086152,212.443784 430.086152,211.26814 C430.086152,208.712698 430.654614,206.375489 431.597946,204.559225 L422.229752,194.203701 C420.605322,194.835522 418.653541,195.173432 416.589124,195.173432 C413.732732,195.173432 411.149131,194.462413 409.265988,193.313169 L385.702068,214.624357 L380.302553,214.624357 L412.882678,185.159338 C414.721821,183.496189 417.558855,183.640504 419.222004,185.476128 L439.848573,208.285031 Z" id="Combined-Shape"></path>
                </g>
            </g>
        </g>
    </g>
</svg>