<svg width="75" height="80" viewBox="0 0 75 80" xmlns="http://www.w3.org/2000/svg"><path d="M72.05 50.141H60.526a6.146 6.146 0 0 0-6.146 6.146v.73a6.147 6.147 0 0 0 6.146 6.148H72.05a2.451 2.451 0 0 0 2.45-2.454v-8.12a2.45 2.45 0 0 0-2.45-2.45M60.864 60.453a3.8 3.8 0 1 1 0-7.6 3.8 3.8 0 0 1 0 7.6zm-.112 5.798h10.005v8.517A5.233 5.233 0 0 1 65.525 80H5.235A5.233 5.233 0 0 1 0 74.768V33.62c0-4.757 3.858-8.613 8.617-8.613h7.395L12.45 28.36H7.825a2.579 2.579 0 0 0-2.572 2.57c0 1.164.785 2.153 1.85 2.465h58.422a5.234 5.234 0 0 1 5.232 5.232v8.399H60.752a9.612 9.612 0 0 0-9.613 9.612c0 5.308 4.303 9.613 9.613 9.613zM48.78 26.956a1.6 1.6 0 0 1 1.09.468c.33.33.503.734.511 1.213.013.48-.188.99-.598 1.534l-2.69-2.689c.687-.373 1.247-.549 1.687-.526zm-7.923-1.573c.006-.441.217-.955.636-1.543l2.351 2.351c-.751.431-1.308.646-1.668.64a1.25 1.25 0 0 1-.914-.374c-.276-.275-.41-.632-.405-1.074zm4.536-9.547c6.417 0 11.618 5.1 11.618 11.396 0 1.184-.185 2.332-.53 3.407H52.22c.267-.505.442-1.05.524-1.64a3.795 3.795 0 0 0-.2-1.82 4.26 4.26 0 0 0-1.026-1.616c-.599-.602-1.287-.982-2.061-1.144-.776-.158-1.6-.118-2.475.13-.54.15-1.182.446-1.932.888l-2.485-2.482a6.295 6.295 0 0 1 2.267-.572l.422-2.355c-.94-.033-1.737.048-2.393.234-.655.187-1.327.512-2.01.975l-.417-.415-.98.979.418.418c-.394.523-.663.94-.808 1.245a4.84 4.84 0 0 0-.464 1.656 3.816 3.816 0 0 0 .213 1.7c.197.547.478 1.003.84 1.364.423.422.955.751 1.588.98.636.23 1.343.275 2.121.14.775-.138 1.618-.492 2.53-1.066l2.4 2.401H34.306a11.149 11.149 0 0 1-.531-3.407c0-6.296 5.202-11.396 11.62-11.396zm27.455 8.449a4.489 4.489 0 0 1-.317 6.34l-2.003 1.81a5.493 5.493 0 0 0-4.076-1.81H63.43a16.187 16.187 0 0 1-.345-3.357c0-2.555.569-4.893 1.512-6.709L55.23 10.204c-1.625.632-3.576.97-5.64.97-2.857 0-5.44-.712-7.324-1.86l-23.564 21.31h-5.4L45.883 1.16a4.49 4.49 0 0 1 6.34.317L72.85 24.286z" fill="#8394A1" fill-rule="evenodd"/></svg>