<svg width="72" height="74" viewBox="0 0 72 74" xmlns="http://www.w3.org/2000/svg"><g fill="#8394A1" fill-rule="evenodd"><path d="M66.963 63.507a5.501 5.501 0 0 1-5.501 5.5H10.486a5.494 5.494 0 0 1-5.494-5.493v-47.17h61.97v47.163zM10.305 8.814l.063-.16a2.79 2.79 0 0 1 .155-.385c.044-.091.088-.18.142-.264a2.948 2.948 0 0 1 .542-.62c.107-.094.216-.182.337-.258a2.4 2.4 0 0 1 .264-.143 2.74 2.74 0 0 1 .385-.155l.16-.063.07-.008c.206-.047.417-.077.637-.077l.04.004.145.014c.179.012.353.037.522.08l.203.065c.148.05.289.11.425.184l.17.093c.18.114.352.24.502.39l.002.003c.15.15.277.32.39.502l.093.17c.074.136.135.277.185.425l.063.203c.044.169.07.342.08.522l.016.145.004.04c0 .22-.03.43-.078.636l-.007.07-.064.16a2.712 2.712 0 0 1-.154.387c-.044.09-.09.177-.143.263a2.81 2.81 0 0 1-.258.337 2.59 2.59 0 0 1-.282.282 2.836 2.836 0 0 1-.338.26 2.904 2.904 0 0 1-.65.297l-.16.064-.07.007a2.855 2.855 0 0 1-.636.077l-.041-.003-.143-.015a2.833 2.833 0 0 1-.524-.081l-.202-.063a2.772 2.772 0 0 1-.425-.185l-.171-.093a2.827 2.827 0 0 1-.894-.894l-.093-.171a2.878 2.878 0 0 1-.186-.425l-.062-.202a2.82 2.82 0 0 1-.081-.524l-.015-.143-.004-.04c0-.221.03-.432.078-.638l.008-.07zm9.11 0l.065-.16c.043-.132.092-.261.154-.385.044-.091.089-.178.143-.264.077-.12.165-.23.259-.338a2.97 2.97 0 0 1 .62-.541c.085-.054.172-.098.263-.142.124-.062.253-.112.386-.155l.16-.063.07-.008c.205-.047.417-.077.636-.077l.04.004.145.014c.18.012.354.037.523.08l.203.064c.148.05.289.112.425.185l.17.093c.362.228.667.532.895.895l.092.17c.073.135.135.277.185.425l.063.203c.044.169.07.343.08.523l.016.144.004.04c0 .22-.03.43-.078.636l-.007.07-.064.16a2.875 2.875 0 0 1-.297.65 2.864 2.864 0 0 1-.26.339 2.75 2.75 0 0 1-.28.28 2.768 2.768 0 0 1-.34.26 2.875 2.875 0 0 1-.649.297l-.16.064-.07.007a2.84 2.84 0 0 1-.636.077l-.041-.003-.143-.015a2.82 2.82 0 0 1-.524-.081l-.202-.063a2.772 2.772 0 0 1-.425-.185l-.17-.093a2.84 2.84 0 0 1-.895-.894l-.092-.17a2.816 2.816 0 0 1-.185-.425l-.063-.203a2.739 2.739 0 0 1-.081-.524l-.015-.143-.004-.04c0-.22.03-.432.078-.638l.007-.07zm9.113 0l.064-.16c.043-.132.092-.261.154-.385.044-.091.089-.178.143-.264.076-.12.165-.23.259-.338a2.902 2.902 0 0 1 .619-.54c.086-.055.173-.1.264-.143.124-.062.252-.111.385-.154l.16-.064.07-.008c.206-.047.418-.077.637-.077l.04.004.146.014c.179.012.353.037.52.08l.204.065c.148.05.289.11.425.184l.17.093c.18.114.353.24.503.392.15.15.278.32.392.503l.093.17c.073.136.135.277.185.425l.063.203c.043.169.069.343.08.523l.016.144.004.04c0 .22-.031.43-.078.636l-.008.07-.063.16a2.875 2.875 0 0 1-.154.387c-.045.09-.09.178-.144.263-.076.12-.164.23-.257.337a2.8 2.8 0 0 1-.283.283 2.82 2.82 0 0 1-.338.258 2.862 2.862 0 0 1-.649.298l-.16.064-.07.007a2.848 2.848 0 0 1-.637.077l-.041-.003-.143-.015a2.82 2.82 0 0 1-.524-.081l-.202-.063a2.772 2.772 0 0 1-.425-.185l-.171-.093a2.767 2.767 0 0 1-.502-.392 2.848 2.848 0 0 1-.392-.502l-.092-.17a2.89 2.89 0 0 1-.186-.426l-.062-.202a2.729 2.729 0 0 1-.081-.523l-.015-.144-.005-.04c0-.22.03-.432.078-.637l.008-.07zM10.486.363C4.694.362 0 5.057 0 10.848v52.659c0 5.526 4.29 10.067 9.713 10.463L38.35 74h23.116c5.792 0 10.488-4.695 10.488-10.488V10.85c0-5.792-4.696-10.488-10.488-10.488h-50.98z"/><path d="M32.176 32.572h27.066a1.18 1.18 0 0 0 1.176-1.176v-1.22A1.18 1.18 0 0 0 59.242 29H32.176A1.18 1.18 0 0 0 31 30.176v1.22c0 .647.53 1.176 1.176 1.176m0 9.999h27.066a1.18 1.18 0 0 0 1.176-1.176v-1.22c0-.646-.529-1.175-1.176-1.175H32.176A1.18 1.18 0 0 0 31 40.175v1.22c0 .647.53 1.176 1.176 1.176m0 10h12.945a1.18 1.18 0 0 0 1.176-1.176v-1.22c0-.646-.529-1.175-1.176-1.175H32.176A1.18 1.18 0 0 0 31 50.175v1.22c0 .647.53 1.176 1.176 1.176m-10.544-8.75H11.79A2.79 2.79 0 0 1 9 41.031V31.79A2.79 2.79 0 0 1 11.79 29h9.842a2.79 2.79 0 0 1 2.79 2.79v9.241a2.79 2.79 0 0 1-2.79 2.79"/></g></svg>