<svg width="83" height="79" viewBox="0 0 83 79" xmlns="http://www.w3.org/2000/svg" xmlns:xlink="http://www.w3.org/1999/xlink"><defs><path id="a" d="M0 .965V78.46h68.929V.965H0z"/></defs><g fill="none" fill-rule="evenodd"><path d="M82.368 63.135c-1.346-2.257-4.296-3.005-6.599-1.665l-6.37 3.708 2.36 4.088 10.609-6.131zm-53.492-9.833a3.15 3.15 0 1 0 0 6.299 3.15 3.15 0 0 0 0-6.299" fill="#85929D"/><mask id="b" fill="#fff"><use xlink:href="#a"/></mask><path d="M60.914 72.102a3.93 3.93 0 0 1 0-7.86 3.93 3.93 0 1 1 0 7.86zm-7.627-25.55h-3.693c-3.302-8.018-11.004-13.756-20.042-14.227-.08-.786-.55-4.874-.55-4.874h24.285v19.1zM28.244 72.75c-9.458 0-17.126-7.668-17.126-17.127 0-9.458 7.668-17.124 17.126-17.124 9.457 0 17.125 7.666 17.125 17.124 0 9.459-7.668 17.127-17.125 17.127zm32.51-12.837H59.26v-4.245h6.053v-9.117H59.26V25.016a3.522 3.522 0 0 0-3.537-3.537H28.61l-.786-6.682c-.157-1.492-1.494-2.515-2.988-2.358l-1.1.08-.786-8.333A3.519 3.519 0 0 0 19.41.965H3.537A3.522 3.522 0 0 0 0 4.502c0 1.964 1.57 2.357 3.537 2.357h13.832l1.494 17.763.157 1.337.786 8.409c-7.939 3.694-14.619 11.71-14.619 20.986 0 12.732 10.374 23.106 23.107 23.106 12.652 0 22.95-10.217 23.106-22.792h1.966v8.96c-.47 1.022-.786 2.2-.786 3.38 0 4.48 3.695 8.174 8.174 8.174 4.481 0 8.175-3.694 8.175-8.174 0-4.48-3.694-8.095-8.175-8.095z" fill="#85929D" mask="url(#b)"/></g></svg>