<svg width="41" height="40" viewBox="0 0 41 40" xmlns="http://www.w3.org/2000/svg"><g fill="none" fill-rule="evenodd"><path d="M40.8 20c0 11.046-8.955 20-20 20-11.046 0-20-8.954-20-20s8.954-20 20-20c11.045 0 20 8.954 20 20" fill="#FEFEFE"/><path d="M39.8 20c0 10.493-8.507 19-19 19-10.494 0-19-8.507-19-19 0-10.494 8.506-19 19-19 10.493 0 19 8.506 19 19" fill="#7E2724"/><path fill="#FEFEFE" d="M26.737 28.424L20.8 22.487l-5.938 5.937-2.486-2.486L18.313 20l-5.937-5.937 2.486-2.487 5.938 5.937 5.937-5.937 2.487 2.487L23.287 20l5.937 5.938z"/></g></svg>